<svg xmlns="http://www.w3.org/2000/svg" xmlns:xlink="http://www.w3.org/1999/xlink" width="154" height="121" version="1.1" viewBox="0 0 154 121"><title>Back</title><g id="Briefansicht" fill="none" fill-rule="evenodd" stroke="none" stroke-width="1"><g id="Brief_004_Dokument-Diplo.-Navigation-unten-Copy-3" fill="#FFF" fill-rule="nonzero" transform="translate(-448.000000, -646.000000)"><path id="Back" d="M507.595703,766.175781 C508.298828,766.175781 508.884766,765.926758 509.353516,765.428711 C509.822266,764.930664 510.056641,764.388672 510.056641,763.802734 C510.056641,763.392578 509.998047,763.026367 509.880859,762.704102 C509.763672,762.381836 509.617188,762.132812 509.441406,761.957031 L473.669922,726.097656 L455.548,708.369 L473.142578,708.519531 L599.529297,708.519531 C600.115234,708.519531 600.642578,708.314453 601.111328,707.904297 C601.580078,707.494141 601.814453,706.9375 601.814453,706.234375 C601.814453,705.53125 601.580078,704.959961 601.111328,704.520508 C600.642578,704.081055 600.115234,703.861328 599.529297,703.861328 L473.142578,703.861328 L455.471,704.089 L473.669922,686.283203 L509.441406,650.423828 C509.675781,650.248047 509.836914,650.013672 509.924805,649.720703 C510.012695,649.427734 510.056641,649.076172 510.056641,648.666016 C510.056641,648.080078 509.822266,647.538086 509.353516,647.040039 C508.884766,646.541992 508.298828,646.292969 507.595703,646.292969 C507.244141,646.292969 506.863281,646.395508 506.453125,646.600586 C506.042969,646.805664 505.544922,647.230469 504.958984,647.875 L448.884766,704.476562 C448.357422,704.945312 448.09375,705.53125 448.09375,706.234375 C448.09375,706.9375 448.357422,707.523438 448.884766,707.992188 L505.837891,765.384766 C506.365234,765.912109 506.951172,766.175781 507.595703,766.175781 Z"/></g></g></svg>