<?xml version="1.0" encoding="UTF-8"?>
<svg width="139px" height="128px" viewBox="0 0 139 128" version="1.1" xmlns="http://www.w3.org/2000/svg" xmlns:xlink="http://www.w3.org/1999/xlink">
    <title>backward</title>
    <g id="Briefansicht" stroke="none" stroke-width="1" fill="none" fill-rule="evenodd">
        <g id="Brief_004_Dokument-Diplo.-Navigation-unten-Copy-3" transform="translate(-1070.000000, -605.000000)" fill="#FFFFFF" fill-rule="nonzero">
            <path d="M1095.23047,732.427734 C1097.92578,732.427734 1099.85938,731.841797 1101.03125,730.669922 C1102.20312,729.498047 1102.78906,727.535156 1102.78906,724.78125 L1102.78906,671.614 L1102.73413,671.431641 C1102.53638,670.728516 1102.4375,669.966797 1102.4375,669.146484 C1102.4375,668.326172 1102.53271,667.568115 1102.72314,666.872314 L1102.78906,666.649 L1102.78906,613.599609 C1102.78906,610.845703 1102.20312,608.882812 1101.03125,607.710938 C1099.85938,606.539062 1097.92578,605.953125 1095.23047,605.953125 L1077.74023,605.953125 C1075.04492,605.953125 1073.09668,606.553711 1071.89551,607.754883 C1070.69434,608.956055 1070.09375,610.904297 1070.09375,613.599609 L1070.09375,724.78125 C1070.09375,727.535156 1070.69434,729.498047 1071.89551,730.669922 C1073.09668,731.841797 1075.04492,732.427734 1077.74023,732.427734 L1095.23047,732.427734 Z M1199.9082,729.351562 C1202.01758,729.351562 1203.93652,728.560547 1205.66504,726.978516 C1207.39355,725.396484 1208.25781,722.847656 1208.25781,719.332031 L1208.25781,719.332031 L1208.25781,619.048828 C1208.25781,615.533203 1207.39355,612.984375 1205.66504,611.402344 C1203.93652,609.820312 1202.01758,609.029297 1199.9082,609.029297 C1198.79492,609.029297 1197.6377,609.263672 1196.43652,609.732422 C1195.23535,610.201172 1194.13672,610.699219 1193.14062,611.226562 L1193.14062,611.226562 L1106.83203,661.939453 C1105.42578,662.818359 1104.3418,663.829102 1103.58008,664.97168 C1103.25363,665.461356 1102.99713,665.996771 1102.81059,666.577926 L1102.789,666.649 L1102.789,671.614 L1102.82494,671.729393 C1102.98637,672.219667 1103.19825,672.680046 1103.46057,673.110531 L1103.62402,673.365234 C1104.41504,674.537109 1105.48438,675.533203 1106.83203,676.353516 L1106.83203,676.353516 L1193.14062,727.066406 C1194.07812,727.652344 1195.16211,728.179688 1196.39258,728.648438 C1197.62305,729.117188 1198.79492,729.351562 1199.9082,729.351562 Z" id="backward"></path>
        </g>
    </g>
</svg>