<?xml version="1.0" encoding="UTF-8"?>
<svg width="61px" height="49px" viewBox="0 0 61 49" version="1.1" xmlns="http://www.w3.org/2000/svg" xmlns:xlink="http://www.w3.org/1999/xlink">
    <title>Forward</title>
    <g id="Briefansicht" stroke="none" stroke-width="1" fill="none" fill-rule="evenodd">
        <g id="Brief_004_Dokument-Diplo.-Navigation-unten-Copy-3" transform="translate(-325.000000, -1109.000000)" fill="#FFFFFF" fill-rule="nonzero">
            <path d="M349.357944,1157.14884 C349.860227,1157.14884 350.276893,1156.98331 350.607944,1156.65226 C350.938994,1156.32121 351.104519,1155.92738 351.104519,1155.47076 C351.104519,1155.21962 351.064565,1154.97989 350.984656,1154.75158 C350.904747,1154.52327 350.784884,1154.3292 350.625067,1154.16939 L339.460683,1142.93651 L330.764732,1134.74928 L338.056574,1135.02555 L383.878492,1135.02555 C384.357944,1135.02555 384.763195,1134.86573 385.094245,1134.5461 C385.425295,1134.22646 385.59082,1133.80409 385.59082,1133.27898 C385.59082,1132.77669 385.425295,1132.36573 385.094245,1132.0461 C384.763195,1131.72646 384.357944,1131.56665 383.878492,1131.56665 L338.056574,1131.56665 L330.759277,1131.84483 L339.460683,1123.62144 L350.625067,1112.38856 C350.784884,1112.25158 350.904747,1112.06893 350.984656,1111.84062 C351.064565,1111.61231 351.104519,1111.37258 351.104519,1111.12144 C351.104519,1110.66482 350.938994,1110.27098 350.607944,1109.93993 C350.276893,1109.60888 349.860227,1109.44336 349.357944,1109.44336 C349.129633,1109.44336 348.895615,1109.49473 348.655889,1109.59747 C348.416163,1109.70021 348.147898,1109.89998 347.851094,1110.19678 L326.173012,1132.01185 C325.784884,1132.37715 325.59082,1132.79952 325.59082,1133.27898 C325.59082,1133.78126 325.784884,1134.21505 326.173012,1134.58035 L348.09082,1156.60089 C348.478948,1156.96619 348.901323,1157.14884 349.357944,1157.14884 Z" id="Forward" transform="translate(355.590820, 1133.296099) rotate(-180.000000) translate(-355.590820, -1133.296099) "></path>
        </g>
    </g>
</svg>