<svg xmlns="http://www.w3.org/2000/svg" xmlns:xlink="http://www.w3.org/1999/xlink" width="180" height="167" version="1.1" viewBox="0 0 180 167"><title>Home Copy</title><g id="Briefansicht" fill="none" fill-rule="evenodd" stroke="none" stroke-width="1"><g id="Brief_004_Dokument-Diplo.-Navigation-unten-Copy-3" fill="#FFF" fill-rule="nonzero" transform="translate(-626.000000, -548.000000)"><path id="Home-Copy" d="M771.201172,714.115234 C776.005859,714.115234 779.638672,712.884766 782.099609,710.423828 C784.560547,707.962891 785.791016,704.388672 785.791016,699.701172 L785.791,610.908 L801.259766,623.939453 C801.494141,624.173828 801.728516,624.349609 801.962891,624.466797 C802.197266,624.583984 802.548828,624.642578 803.017578,624.642578 C803.720703,624.642578 804.277344,624.4375 804.6875,624.027344 C805.097656,623.617188 805.302734,623.119141 805.302734,622.533203 C805.302734,622.064453 805.200195,621.654297 804.995117,621.302734 C804.790039,620.951172 804.482422,620.570312 804.072266,620.160156 L785.791,604.772 L722.949219,551.869141 C720.78125,549.935547 718.466797,548.96875 716.005859,548.96875 C713.544922,548.96875 711.171875,549.935547 708.886719,551.869141 L627.412109,620.160156 C626.943359,620.570312 626.606445,620.951172 626.401367,621.302734 C626.196289,621.654297 626.09375,622.064453 626.09375,622.533203 C626.09375,623.119141 626.313477,623.617188 626.75293,624.027344 C627.192383,624.4375 627.763672,624.642578 628.466797,624.642578 C628.818359,624.642578 629.125977,624.583984 629.389648,624.466797 C629.65332,624.349609 629.902344,624.173828 630.136719,623.939453 L646.044,610.609 L646.044922,699.701172 C646.044922,704.447266 647.275391,708.036133 649.736328,710.467773 C652.197266,712.899414 655.800781,714.115234 660.546875,714.115234 M770.322266,709.369141 L661.425781,709.369141 C657.734375,709.369141 655.039062,708.53418 653.339844,706.864258 C651.640625,705.194336 650.791,702.484375 650.791,698.734375 L650.791,606.631 L712.050781,555.296875 C713.28125,554.242188 714.511719,553.65625 715.742188,553.539062 C716.972656,553.421875 718.320312,554.007812 719.785156,555.296875 L781.044922,606.909 L781.044922,698.734375 C781.044922,702.484375 780.195312,705.194336 778.496094,706.864258 C776.796875,708.53418 774.072266,709.369141 770.322266,709.369141 Z"/></g></g></svg>