<?xml version="1.0" encoding="UTF-8"?>
<svg width="34px" height="72px" viewBox="0 0 34 72" version="1.1" xmlns="http://www.w3.org/2000/svg" xmlns:xlink="http://www.w3.org/1999/xlink">
    <title>pause</title>
    <g id="Briefansicht" stroke="none" stroke-width="1" fill="none" fill-rule="evenodd">
        <g id="Brief_004_Dokument-Diplo.-Navigation-unten-Copy-3" transform="translate(-2385.000000, -2200.000000)" fill="#FFFFFF" fill-rule="nonzero">
            <path d="M2387.25488,2271.09961 C2387.61296,2271.09961 2387.9222,2270.9694 2388.18262,2270.70898 C2388.44303,2270.44857 2388.57324,2270.12305 2388.57324,2269.73242 L2388.57324,2201.95898 C2388.57324,2201.56836 2388.44303,2201.24284 2388.18262,2200.98242 C2387.9222,2200.72201 2387.61296,2200.5918 2387.25488,2200.5918 C2386.89681,2200.5918 2386.57943,2200.72201 2386.30273,2200.98242 C2386.02604,2201.24284 2385.8877,2201.56836 2385.8877,2201.95898 L2385.8877,2269.73242 C2385.8877,2270.12305 2386.02604,2270.44857 2386.30273,2270.70898 C2386.57943,2270.9694 2386.89681,2271.09961 2387.25488,2271.09961 Z M2417.18652,2271.09961 C2417.57715,2271.09961 2417.90267,2270.9694 2418.16309,2270.70898 C2418.4235,2270.44857 2418.55371,2270.12305 2418.55371,2269.73242 L2418.55371,2201.95898 C2418.55371,2201.56836 2418.4235,2201.24284 2418.16309,2200.98242 C2417.90267,2200.72201 2417.57715,2200.5918 2417.18652,2200.5918 C2416.82845,2200.5918 2416.51921,2200.72201 2416.25879,2200.98242 C2415.99837,2201.24284 2415.86816,2201.56836 2415.86816,2201.95898 L2415.86816,2269.73242 C2415.86816,2270.12305 2415.99837,2270.44857 2416.25879,2270.70898 C2416.51921,2270.9694 2416.82845,2271.09961 2417.18652,2271.09961 Z" id="pause"></path>
        </g>
    </g>
</svg>