<svg xmlns="http://www.w3.org/2000/svg" xmlns:xlink="http://www.w3.org/1999/xlink" width="67" height="78" version="1.1" viewBox="0 0 67 78"><title>play</title><g id="Briefansicht" fill="none" fill-rule="evenodd" stroke="none" stroke-width="1"><g id="Brief_004_Dokument-Diplo.-Navigation-unten-Copy-3" fill="#FFF" fill-rule="nonzero" transform="translate(-2187.000000, -2197.000000)"><path id="play" d="M2190.63574,2274.0293 C2191.12402,2274.0293 2191.58789,2273.94792 2192.02734,2273.78516 C2192.4668,2273.6224 2192.99577,2273.36198 2193.61426,2273.00391 L2250.84082,2239.3125 C2251.75228,2238.82422 2252.43587,2238.31966 2252.8916,2237.79883 C2253.34733,2237.27799 2253.5752,2236.62695 2253.5752,2235.8457 C2253.5752,2235.06445 2253.34733,2234.41341 2252.8916,2233.89258 C2252.43587,2233.37174 2251.75228,2232.86719 2250.84082,2232.37891 L2193.61426,2198.6875 C2192.99577,2198.32943 2192.4668,2198.07715 2192.02734,2197.93066 C2191.58789,2197.78418 2191.12402,2197.71094 2190.63574,2197.71094 C2189.65918,2197.71094 2188.86979,2198.05273 2188.26758,2198.73633 C2187.66536,2199.41992 2187.36426,2200.38021 2187.36426,2201.61719 L2187.36426,2270.12305 C2187.36426,2271.32747 2187.66536,2272.27962 2188.26758,2272.97949 C2188.86979,2273.67936 2189.65918,2274.0293 2190.63574,2274.0293 Z M2191.02637,2271.09961 C2190.37533,2271.09961 2190.0498,2270.66016 2190.0498,2269.78125 L2190.0498,2201.91016 C2190.0498,2201.03125 2190.37533,2200.5918 2191.02637,2200.5918 C2191.41699,2200.5918 2191.85645,2200.73828 2192.34473,2201.03125 L2249.52246,2234.38086 C2249.78288,2234.54362 2250.05143,2234.74707 2250.32813,2234.99121 C2250.60482,2235.23535 2250.74316,2235.52018 2250.74316,2235.8457 C2250.74316,2236.17122 2250.60482,2236.45605 2250.32813,2236.7002 C2250.05143,2236.94434 2249.78288,2237.14779 2249.52246,2237.31055 L2192.34473,2270.66016 C2191.85645,2270.95312 2191.41699,2271.09961 2191.02637,2271.09961 Z"/></g></g></svg>