<?xml version="1.0" encoding="UTF-8"?>
<svg width="98px" height="69px" viewBox="0 0 98 69" version="1.1" xmlns="http://www.w3.org/2000/svg" xmlns:xlink="http://www.w3.org/1999/xlink">
    <title>recive</title>
    <g id="Briefansicht" stroke="none" stroke-width="1" fill="none" fill-rule="evenodd">
        <g id="Brief_004_Dokument-Diplo.-Navigation-unten-Copy-3" transform="translate(-827.000000, -1054.000000)" fill="#FFFFFF" fill-rule="nonzero">
            <path d="M912.537109,1122.08691 C916.404297,1122.08691 919.32666,1121.09082 921.304199,1119.09863 C923.281738,1117.10645 924.270508,1114.20605 924.270508,1110.39746 L924.270508,1087.10645 C924.270508,1086.16895 924.219238,1085.37061 924.116699,1084.71143 C924.01416,1084.05225 923.831055,1083.44434 923.567383,1082.8877 C923.303711,1082.33105 922.9375,1081.75977 922.46875,1081.17383 L906.165039,1060.47559 C904.875977,1058.83496 903.704102,1057.56055 902.649414,1056.65234 C901.594727,1055.74414 900.408203,1055.10693 899.089844,1054.74072 C897.771484,1054.37451 896.072266,1054.19141 893.992188,1054.19141 L857.869141,1054.19141 C855.789062,1054.19141 854.089844,1054.37451 852.771484,1054.74072 C851.453125,1055.10693 850.266602,1055.74414 849.211914,1056.65234 C848.157227,1057.56055 846.985352,1058.83496 845.696289,1060.47559 L829.392578,1081.17383 C828.923828,1081.75977 828.557617,1082.33105 828.293945,1082.8877 C828.030273,1083.44434 827.847168,1084.05225 827.744629,1084.71143 C827.64209,1085.37061 827.59082,1086.16895 827.59082,1087.10645 L827.59082,1110.39746 C827.59082,1114.23535 828.57959,1117.14307 830.557129,1119.12061 C832.534668,1121.09814 835.457031,1122.08691 839.324219,1122.08691 L912.537109,1122.08691 Z M875.930664,1098.57617 C873.850586,1098.57617 871.997559,1098.0708 870.371582,1097.06006 C868.745605,1096.04932 867.471191,1094.70898 866.54834,1093.03906 C865.625488,1091.36914 865.164062,1089.55273 865.164062,1087.58984 L865.164062,1087.32617 C865.164062,1086.65234 864.966309,1086.07373 864.570801,1085.59033 C864.175293,1085.10693 863.59668,1084.86523 862.834961,1084.86523 L833.303711,1084.86523 C832.864258,1084.86523 832.585938,1084.71143 832.46875,1084.40381 C832.351562,1084.09619 832.424805,1083.78125 832.688477,1083.45898 L849.827148,1061.53027 C850.823242,1060.27051 851.914551,1059.3623 853.101074,1058.80566 C854.287598,1058.24902 855.71582,1057.9707 857.385742,1057.9707 L894.475586,1057.9707 C896.145508,1057.9707 897.57373,1058.24902 898.760254,1058.80566 C899.946777,1059.3623 901.038086,1060.27051 902.03418,1061.53027 L919.216797,1083.45898 C919.451172,1083.78125 919.51709,1084.09619 919.414551,1084.40381 C919.312012,1084.71143 919.041016,1084.86523 918.601562,1084.86523 L889.026367,1084.86523 C888.264648,1084.86523 887.686035,1085.10693 887.290527,1085.59033 C886.89502,1086.07373 886.697266,1086.65234 886.697266,1087.32617 L886.697266,1087.58984 C886.697266,1089.55273 886.23584,1091.36914 885.312988,1093.03906 C884.390137,1094.70898 883.123047,1096.04932 881.511719,1097.06006 C879.900391,1098.0708 878.040039,1098.57617 875.930664,1098.57617 Z M912.449219,1117.86816 L839.412109,1117.86816 C836.921875,1117.86816 835.024902,1117.22363 833.721191,1115.93457 C832.41748,1114.64551 831.765625,1112.72656 831.765625,1110.17773 L831.765625,1088.73242 L861.077148,1088.73242 C861.25293,1091.42773 862.014648,1093.80811 863.362305,1095.87354 C864.709961,1097.93896 866.475098,1099.55762 868.657715,1100.72949 C870.840332,1101.90137 873.264648,1102.4873 875.930664,1102.4873 C878.59668,1102.4873 881.02832,1101.89404 883.225586,1100.70752 C885.422852,1099.521 887.187988,1097.89502 888.520996,1095.82959 C889.854004,1093.76416 890.608398,1091.39844 890.78418,1088.73242 L920.095703,1088.73242 L920.095703,1110.17773 C920.095703,1112.72656 919.429199,1114.64551 918.096191,1115.93457 C916.763184,1117.22363 914.880859,1117.86816 912.449219,1117.86816 Z" id="recive" transform="translate(875.930664, 1088.139160) rotate(-360.000000) translate(-875.930664, -1088.139160) "></path>
        </g>
    </g>
</svg>