<svg xmlns="http://www.w3.org/2000/svg" xmlns:xlink="http://www.w3.org/1999/xlink" width="85" height="85" version="1.1" viewBox="0 0 85 85"><title>send</title><g id="Briefansicht" fill="none" fill-rule="evenodd" stroke="none" stroke-width="1"><g id="Brief_004_Dokument-Diplo.-Navigation-unten-Copy-3" fill="#FFF" fill-rule="nonzero" transform="translate(-525.000000, -1048.000000)"><path id="send" d="M576.041016,1132.72168 C577.212891,1132.72168 578.216309,1132.29687 579.05127,1131.44727 C579.88623,1130.59766 580.59668,1129.38184 581.182617,1127.7998 L609.043945,1054.93848 C609.27832,1054.29395 609.461426,1053.68604 609.593262,1053.11475 C609.725098,1052.54346 609.791016,1052.02344 609.791016,1051.55469 C609.791016,1050.5293 609.498047,1049.72363 608.912109,1049.1377 C608.326172,1048.55176 607.520508,1048.25879 606.495117,1048.25879 C606.026367,1048.25879 605.506348,1048.32471 604.935059,1048.45654 C604.36377,1048.58838 603.755859,1048.78613 603.111328,1049.0498 L530.118164,1076.91113 C528.65332,1077.49707 527.496094,1078.2002 526.646484,1079.02051 C525.796875,1079.84082 525.37207,1080.83691 525.37207,1082.00879 C525.37207,1083.38574 525.84082,1084.41846 526.77832,1085.10693 C527.71582,1085.79541 529.048828,1086.40332 530.777344,1086.93066 L562.022461,1096.02734 L571.119141,1127.14062 C571.617188,1128.89844 572.217773,1130.26807 572.920898,1131.24951 C573.624023,1132.23096 574.664062,1132.72168 576.041016,1132.72168 Z M563.208984,1092.02832 L532.579102,1082.97559 C531.817383,1082.77051 531.312012,1082.57275 531.062988,1082.38232 C530.813965,1082.19189 530.689453,1081.97949 530.689453,1081.74512 C530.689453,1081.45215 530.799316,1081.20312 531.019043,1080.99805 C531.23877,1080.79297 531.641602,1080.57324 532.227539,1080.33887 L597.266602,1055.59766 C598.321289,1055.2168 599.34668,1054.79199 600.342773,1054.32324 C601.338867,1053.85449 602.24707,1053.42969 603.067383,1053.04883 C602.276367,1053.69336 601.324219,1054.45508 600.210938,1055.33398 C599.097656,1056.21289 598.233398,1056.97461 597.618164,1057.61914 L563.208984,1092.02832 Z M576.348633,1127.44824 C576.084961,1127.44824 575.85791,1127.31641 575.66748,1127.05273 C575.477051,1126.78906 575.279297,1126.29102 575.074219,1125.55859 L565.977539,1094.88477 L600.474609,1060.43164 C601.060547,1059.8457 601.807617,1058.99609 602.71582,1057.88281 C603.624023,1056.76953 604.400391,1055.80273 605.044922,1054.98242 C604.664062,1055.83203 604.239258,1056.74756 603.770508,1057.729 C603.301758,1058.71045 602.876953,1059.72852 602.496094,1060.7832 L577.710938,1125.82227 C577.476562,1126.4375 577.256836,1126.8623 577.051758,1127.09668 C576.84668,1127.33105 576.612305,1127.44824 576.348633,1127.44824 Z" transform="translate(567.581543, 1090.490234) rotate(-360.000000) translate(-567.581543, -1090.490234)"/></g></g></svg>