<svg height="665" viewBox="0 0 2607.01 665" width="2607.01" xmlns="http://www.w3.org/2000/svg"><g fill="#fff"><path d="m183.45 0h22.93v22.93h-22.93z"/><path d="m229.31 0h22.93v22.93h-22.93z"/><path d="m252.24 0h22.93v22.93h-22.93z"/><path d="m275.17 0h22.93v22.93h-22.93z"/><path d="m343.97 0h22.93v22.93h-22.93z"/><path d="m366.9 0h22.93v22.93h-22.93z"/><path d="m412.76 0h22.93v22.93h-22.93z"/><path d="m458.62 0h22.93v22.93h-22.93z"/><path d="m183.45 22.93h22.93v22.93h-22.93z"/><path d="m206.38 22.93h22.93v22.93h-22.93z"/><path d="m229.31 22.93h22.93v22.93h-22.93z"/><path d="m252.24 22.93h22.93v22.93h-22.93z"/><path d="m275.17 22.93h22.93v22.93h-22.93z"/><path d="m366.9 22.93h22.93v22.93h-22.93z"/><path d="m435.69 22.93h22.93v22.93h-22.93z"/><path d="m183.45 45.86h22.93v22.93h-22.93z"/><path d="m206.38 45.86h22.93v22.93h-22.93z"/><path d="m229.31 45.86h22.93v22.93h-22.93z"/><path d="m275.17 45.86h22.93v22.93h-22.93z"/><path d="m343.97 45.86h22.93v22.93h-22.93z"/><path d="m366.9 45.86h22.93v22.93h-22.93z"/><path d="m229.31 68.79h22.93v22.93h-22.93z"/><path d="m366.9 68.79h22.93v22.93h-22.93z"/><path d="m389.83 68.79h22.93v22.93h-22.93z"/><path d="m183.45 91.72h22.93v22.93h-22.93z"/><path d="m321.03 91.72h22.93v22.93h-22.93z"/><path d="m343.97 91.72h22.93v22.93h-22.93z"/><path d="m366.9 91.72h22.93v22.93h-22.93z"/><path d="m389.83 91.72h22.93v22.93h-22.93z"/><path d="m412.76 91.72h22.93v22.93h-22.93z"/><path d="m435.69 91.72h22.93v22.93h-22.93z"/><path d="m206.38 114.66h22.93v22.93h-22.93z"/><path d="m275.17 114.66h22.93v22.93h-22.93z"/><path d="m343.97 114.66h22.93v22.93h-22.93z"/><path d="m366.9 114.66h22.93v22.93h-22.93z"/><path d="m412.76 114.66h22.93v22.93h-22.93z"/><path d="m183.45 137.59h22.93v22.93h-22.93z"/><path d="m229.31 137.59h22.93v22.93h-22.93z"/><path d="m275.17 137.59h22.93v22.93h-22.93z"/><path d="m321.03 137.59h22.93v22.93h-22.93z"/><path d="m366.9 137.59h22.93v22.93h-22.93z"/><path d="m412.76 137.59h22.93v22.93h-22.93z"/><path d="m458.62 137.59h22.93v22.93h-22.93z"/><path d="m206.38 160.52h22.93v22.93h-22.93z"/><path d="m252.24 160.52h22.93v22.93h-22.93z"/><path d="m298.1 160.52h22.93v22.93h-22.93z"/><path d="m343.97 160.52h22.93v22.93h-22.93z"/><path d="m366.9 160.52h22.93v22.93h-22.93z"/><path d="m412.76 160.52h22.93v22.93h-22.93z"/><path d="m435.69 160.52h22.93v22.93h-22.93z"/><path d="m0 183.45h22.93v22.93h-22.93z"/><path d="m68.79 183.45h22.93v22.93h-22.93z"/><path d="m91.72 183.45h22.93v22.93h-22.93z"/><path d="m114.66 183.45h22.93v22.93h-22.93z"/><path d="m137.59 183.45h22.93v22.93h-22.93z"/><path d="m160.52 183.45h22.93v22.93h-22.93z"/><path d="m183.45 183.45h22.93v22.93h-22.93z"/><path d="m206.38 183.45h22.93v22.93h-22.93z"/><path d="m229.31 183.45h22.93v22.93h-22.93z"/><path d="m252.24 183.45h22.93v22.93h-22.93z"/><path d="m298.1 183.45h22.93v22.93h-22.93z"/><path d="m389.83 183.45h22.93v22.93h-22.93z"/><path d="m481.55 183.45h22.93v22.93h-22.93z"/><path d="m550.34 183.45h22.93v22.93h-22.93z"/><path d="m596.21 183.45h22.93v22.93h-22.93z"/><path d="m619.14 183.45h22.93v22.93h-22.93z"/><path d="m642.07 183.45h22.93v22.93h-22.93z"/><path d="m0 206.38h22.93v22.93h-22.93z"/><path d="m22.93 206.38h22.93v22.93h-22.93z"/><path d="m91.72 206.38h22.93v22.93h-22.93z"/><path d="m114.66 206.38h22.93v22.93h-22.93z"/><path d="m160.52 206.38h22.93v22.93h-22.93z"/><path d="m183.45 206.38h22.93v22.93h-22.93z"/><path d="m206.38 206.38h22.93v22.93h-22.93z"/><path d="m229.31 206.38h22.93v22.93h-22.93z"/><path d="m252.24 206.38h22.93v22.93h-22.93z"/><path d="m275.17 206.38h22.93v22.93h-22.93z"/><path d="m298.1 206.38h22.93v22.93h-22.93z"/><path d="m366.9 206.38h22.93v22.93h-22.93z"/><path d="m435.69 206.38h22.93v22.93h-22.93z"/><path d="m527.41 206.38h22.93v22.93h-22.93z"/><path d="m550.34 206.38h22.93v22.93h-22.93z"/><path d="m596.21 206.38h22.93v22.93h-22.93z"/><path d="m619.14 206.38h22.93v22.93h-22.93z"/><path d="m45.86 229.31h22.93v22.93h-22.93z"/><path d="m91.72 229.31h22.93v22.93h-22.93z"/><path d="m137.59 229.31h22.93v22.93h-22.93z"/><path d="m183.45 229.31h22.93v22.93h-22.93z"/><path d="m298.1 229.31h22.93v22.93h-22.93z"/><path d="m343.97 229.31h22.93v22.93h-22.93z"/><path d="m366.9 229.31h22.93v22.93h-22.93z"/><path d="m412.76 229.31h22.93v22.93h-22.93z"/><path d="m504.48 229.31h22.93v22.93h-22.93z"/><path d="m550.34 229.31h22.93v22.93h-22.93z"/><path d="m596.21 229.31h22.93v22.93h-22.93z"/><path d="m0 252.24h22.93v22.93h-22.93z"/><path d="m22.93 252.24h22.93v22.93h-22.93z"/><path d="m68.79 252.24h22.93v22.93h-22.93z"/><path d="m183.45 252.24h22.93v22.93h-22.93z"/><path d="m206.38 252.24h22.93v22.93h-22.93z"/><path d="m275.17 252.24h22.93v22.93h-22.93z"/><path d="m298.1 252.24h22.93v22.93h-22.93z"/><path d="m366.9 252.24h22.93v22.93h-22.93z"/><path d="m389.83 252.24h22.93v22.93h-22.93z"/><path d="m412.76 252.24h22.93v22.93h-22.93z"/><path d="m458.62 252.24h22.93v22.93h-22.93z"/><path d="m504.48 252.24h22.93v22.93h-22.93z"/><path d="m527.41 252.24h22.93v22.93h-22.93z"/><path d="m573.28 252.24h22.93v22.93h-22.93z"/><path d="m642.07 252.24h22.93v22.93h-22.93z"/><path d="m45.86 275.17h22.93v22.93h-22.93z"/><path d="m68.79 275.17h22.93v22.93h-22.93z"/><path d="m91.72 275.17h22.93v22.93h-22.93z"/><path d="m137.59 275.17h22.93v22.93h-22.93z"/><path d="m206.38 275.17h22.93v22.93h-22.93z"/><path d="m298.1 275.17h22.93v22.93h-22.93z"/><path d="m343.97 275.17h22.93v22.93h-22.93z"/><path d="m366.9 275.17h22.93v22.93h-22.93z"/><path d="m435.69 275.17h22.93v22.93h-22.93z"/><path d="m458.62 275.17h22.93v22.93h-22.93z"/><path d="m504.48 275.17h22.93v22.93h-22.93z"/><path d="m527.41 275.17h22.93v22.93h-22.93z"/><path d="m642.07 275.17h22.93v22.93h-22.93z"/><path d="m0 298.1h22.93v22.93h-22.93z"/><path d="m22.93 298.1h22.93v22.93h-22.93z"/><path d="m45.86 298.1h22.93v22.93h-22.93z"/><path d="m91.72 298.1h22.93v22.93h-22.93z"/><path d="m160.52 298.1h22.93v22.93h-22.93z"/><path d="m252.24 298.1h22.93v22.93h-22.93z"/><path d="m275.17 298.1h22.93v22.93h-22.93z"/><path d="m298.1 298.1h22.93v22.93h-22.93z"/><path d="m321.03 298.1h22.93v22.93h-22.93z"/><path d="m366.9 298.1h22.93v22.93h-22.93z"/><path d="m389.83 298.1h22.93v22.93h-22.93z"/><path d="m412.76 298.1h22.93v22.93h-22.93z"/><path d="m504.48 298.1h22.93v22.93h-22.93z"/><path d="m527.41 298.1h22.93v22.93h-22.93z"/><path d="m550.34 298.1h22.93v22.93h-22.93z"/><path d="m573.28 298.1h22.93v22.93h-22.93z"/><path d="m596.21 298.1h22.93v22.93h-22.93z"/><path d="m619.14 298.1h22.93v22.93h-22.93z"/><path d="m642.07 298.1h22.93v22.93h-22.93z"/><path d="m0 321.03h22.93v22.93h-22.93z"/><path d="m22.93 321.03h22.93v22.93h-22.93z"/><path d="m45.86 321.03h22.93v22.93h-22.93z"/><path d="m91.72 321.03h22.93v22.93h-22.93z"/><path d="m137.59 321.03h22.93v22.93h-22.93z"/><path d="m183.45 321.03h22.93v22.93h-22.93z"/><path d="m252.24 321.03h22.93v22.93h-22.93z"/><path d="m298.1 321.03h22.93v22.93h-22.93z"/><path d="m366.9 321.03h22.93v22.93h-22.93z"/><path d="m412.76 321.03h22.93v22.93h-22.93z"/><path d="m435.69 321.03h22.93v22.93h-22.93z"/><path d="m458.62 321.03h22.93v22.93h-22.93z"/><path d="m481.55 321.03h22.93v22.93h-22.93z"/><path d="m527.41 321.03h22.93v22.93h-22.93z"/><path d="m550.34 321.03h22.93v22.93h-22.93z"/><path d="m596.21 321.03h22.93v22.93h-22.93z"/><path d="m642.07 321.03h22.93v22.93h-22.93z"/><path d="m0 343.97h22.93v22.93h-22.93z"/><path d="m22.93 343.97h22.93v22.93h-22.93z"/><path d="m45.86 343.97h22.93v22.93h-22.93z"/><path d="m114.66 343.97h22.93v22.93h-22.93z"/><path d="m160.52 343.97h22.93v22.93h-22.93z"/><path d="m343.97 343.97h22.93v22.93h-22.93z"/><path d="m435.69 343.97h22.93v22.93h-22.93z"/><path d="m481.55 343.97h22.93v22.93h-22.93z"/><path d="m504.48 343.97h22.93v22.93h-22.93z"/><path d="m527.41 343.97h22.93v22.93h-22.93z"/><path d="m596.21 343.97h22.93v22.93h-22.93z"/><path d="m642.07 343.97h22.93v22.93h-22.93z"/><path d="m45.86 366.9h22.93v22.93h-22.93z"/><path d="m114.66 366.9h22.93v22.93h-22.93z"/><path d="m137.59 366.9h22.93v22.93h-22.93z"/><path d="m160.52 366.9h22.93v22.93h-22.93z"/><path d="m183.45 366.9h22.93v22.93h-22.93z"/><path d="m206.38 366.9h22.93v22.93h-22.93z"/><path d="m229.31 366.9h22.93v22.93h-22.93z"/><path d="m252.24 366.9h22.93v22.93h-22.93z"/><path d="m321.03 366.9h22.93v22.93h-22.93z"/><path d="m458.62 366.9h22.93v22.93h-22.93z"/><path d="m527.41 366.9h22.93v22.93h-22.93z"/><path d="m573.28 366.9h22.93v22.93h-22.93z"/><path d="m0 389.83h22.93v22.93h-22.93z"/><path d="m68.79 389.83h22.93v22.93h-22.93z"/><path d="m91.72 389.83h22.93v22.93h-22.93z"/><path d="m114.66 389.83h22.93v22.93h-22.93z"/><path d="m160.52 389.83h22.93v22.93h-22.93z"/><path d="m275.17 389.83h22.93v22.93h-22.93z"/><path d="m298.1 389.83h22.93v22.93h-22.93z"/><path d="m321.03 389.83h22.93v22.93h-22.93z"/><path d="m366.9 389.83h22.93v22.93h-22.93z"/><path d="m389.83 389.83h22.93v22.93h-22.93z"/><path d="m412.76 389.83h22.93v22.93h-22.93z"/><path d="m435.69 389.83h22.93v22.93h-22.93z"/><path d="m458.62 389.83h22.93v22.93h-22.93z"/><path d="m550.34 389.83h22.93v22.93h-22.93z"/><path d="m596.21 389.83h22.93v22.93h-22.93z"/><path d="m619.14 389.83h22.93v22.93h-22.93z"/><path d="m0 412.76h22.93v22.93h-22.93z"/><path d="m22.93 412.76h22.93v22.93h-22.93z"/><path d="m45.86 412.76h22.93v22.93h-22.93z"/><path d="m137.59 412.76h22.93v22.93h-22.93z"/><path d="m183.45 412.76h22.93v22.93h-22.93z"/><path d="m206.38 412.76h22.93v22.93h-22.93z"/><path d="m229.31 412.76h22.93v22.93h-22.93z"/><path d="m343.97 412.76h22.93v22.93h-22.93z"/><path d="m389.83 412.76h22.93v22.93h-22.93z"/><path d="m435.69 412.76h22.93v22.93h-22.93z"/><path d="m458.62 412.76h22.93v22.93h-22.93z"/><path d="m504.48 412.76h22.93v22.93h-22.93z"/><path d="m550.34 412.76h22.93v22.93h-22.93z"/><path d="m573.28 412.76h22.93v22.93h-22.93z"/><path d="m642.07 412.76h22.93v22.93h-22.93z"/><path d="m0 435.69h22.93v22.93h-22.93z"/><path d="m22.93 435.69h22.93v22.93h-22.93z"/><path d="m91.72 435.69h22.93v22.93h-22.93z"/><path d="m114.66 435.69h22.93v22.93h-22.93z"/><path d="m206.38 435.69h22.93v22.93h-22.93z"/><path d="m252.24 435.69h22.93v22.93h-22.93z"/><path d="m275.17 435.69h22.93v22.93h-22.93z"/><path d="m321.03 435.69h22.93v22.93h-22.93z"/><path d="m366.9 435.69h22.93v22.93h-22.93z"/><path d="m481.55 435.69h22.93v22.93h-22.93z"/><path d="m550.34 435.69h22.93v22.93h-22.93z"/><path d="m573.28 435.69h22.93v22.93h-22.93z"/><path d="m596.21 435.69h22.93v22.93h-22.93z"/><path d="m0 458.62h22.93v22.93h-22.93z"/><path d="m22.93 458.62h22.93v22.93h-22.93z"/><path d="m137.59 458.62h22.93v22.93h-22.93z"/><path d="m160.52 458.62h22.93v22.93h-22.93z"/><path d="m206.38 458.62h22.93v22.93h-22.93z"/><path d="m252.24 458.62h22.93v22.93h-22.93z"/><path d="m275.17 458.62h22.93v22.93h-22.93z"/><path d="m298.1 458.62h22.93v22.93h-22.93z"/><path d="m321.03 458.62h22.93v22.93h-22.93z"/><path d="m343.97 458.62h22.93v22.93h-22.93z"/><path d="m366.9 458.62h22.93v22.93h-22.93z"/><path d="m389.83 458.62h22.93v22.93h-22.93z"/><path d="m458.62 458.62h22.93v22.93h-22.93z"/><path d="m481.55 458.62h22.93v22.93h-22.93z"/><path d="m504.48 458.62h22.93v22.93h-22.93z"/><path d="m527.41 458.62h22.93v22.93h-22.93z"/><path d="m550.34 458.62h22.93v22.93h-22.93z"/><path d="m573.28 458.62h22.93v22.93h-22.93z"/><path d="m596.21 458.62h22.93v22.93h-22.93z"/><path d="m619.14 458.62h22.93v22.93h-22.93z"/><path d="m183.45 481.55h22.93v22.93h-22.93z"/><path d="m252.24 481.55h22.93v22.93h-22.93z"/><path d="m275.17 481.55h22.93v22.93h-22.93z"/><path d="m321.03 481.55h22.93v22.93h-22.93z"/><path d="m343.97 481.55h22.93v22.93h-22.93z"/><path d="m412.76 481.55h22.93v22.93h-22.93z"/><path d="m458.62 481.55h22.93v22.93h-22.93z"/><path d="m550.34 481.55h22.93v22.93h-22.93z"/><path d="m573.28 481.55h22.93v22.93h-22.93z"/><path d="m183.45 504.48h22.93v22.93h-22.93z"/><path d="m206.38 504.48h22.93v22.93h-22.93z"/><path d="m229.31 504.48h22.93v22.93h-22.93z"/><path d="m321.03 504.48h22.93v22.93h-22.93z"/><path d="m343.97 504.48h22.93v22.93h-22.93z"/><path d="m435.69 504.48h22.93v22.93h-22.93z"/><path d="m458.62 504.48h22.93v22.93h-22.93z"/><path d="m504.48 504.48h22.93v22.93h-22.93z"/><path d="m550.34 504.48h22.93v22.93h-22.93z"/><path d="m573.28 504.48h22.93v22.93h-22.93z"/><path d="m183.45 527.41h22.93v22.93h-22.93z"/><path d="m229.31 527.41h22.93v22.93h-22.93z"/><path d="m275.17 527.41h22.93v22.93h-22.93z"/><path d="m321.03 527.41h22.93v22.93h-22.93z"/><path d="m389.83 527.41h22.93v22.93h-22.93z"/><path d="m412.76 527.41h22.93v22.93h-22.93z"/><path d="m435.69 527.41h22.93v22.93h-22.93z"/><path d="m458.62 527.41h22.93v22.93h-22.93z"/><path d="m550.34 527.41h22.93v22.93h-22.93z"/><path d="m642.07 527.41h22.93v22.93h-22.93z"/><path d="m183.45 550.34h22.93v22.93h-22.93z"/><path d="m229.31 550.34h22.93v22.93h-22.93z"/><path d="m252.24 550.34h22.93v22.93h-22.93z"/><path d="m298.1 550.34h22.93v22.93h-22.93z"/><path d="m321.03 550.34h22.93v22.93h-22.93z"/><path d="m343.97 550.34h22.93v22.93h-22.93z"/><path d="m366.9 550.34h22.93v22.93h-22.93z"/><path d="m435.69 550.34h22.93v22.93h-22.93z"/><path d="m458.62 550.34h22.93v22.93h-22.93z"/><path d="m481.55 550.34h22.93v22.93h-22.93z"/><path d="m504.48 550.34h22.93v22.93h-22.93z"/><path d="m527.41 550.34h22.93v22.93h-22.93z"/><path d="m550.34 550.34h22.93v22.93h-22.93z"/><path d="m573.28 550.34h22.93v22.93h-22.93z"/><path d="m619.14 550.34h22.93v22.93h-22.93z"/><path d="m642.07 550.34h22.93v22.93h-22.93z"/><path d="m183.45 573.28h22.93v22.93h-22.93z"/><path d="m229.31 573.28h22.93v22.93h-22.93z"/><path d="m275.17 573.28h22.93v22.93h-22.93z"/><path d="m343.97 573.28h22.93v22.93h-22.93z"/><path d="m366.9 573.28h22.93v22.93h-22.93z"/><path d="m412.76 573.28h22.93v22.93h-22.93z"/><path d="m458.62 573.28h22.93v22.93h-22.93z"/><path d="m642.07 573.28h22.93v22.93h-22.93z"/><path d="m275.17 596.21h22.93v22.93h-22.93z"/><path d="m298.1 596.21h22.93v22.93h-22.93z"/><path d="m321.03 596.21h22.93v22.93h-22.93z"/><path d="m343.97 596.21h22.93v22.93h-22.93z"/><path d="m366.9 596.21h22.93v22.93h-22.93z"/><path d="m481.55 596.21h22.93v22.93h-22.93z"/><path d="m527.41 596.21h22.93v22.93h-22.93z"/><path d="m550.34 596.21h22.93v22.93h-22.93z"/><path d="m596.21 596.21h22.93v22.93h-22.93z"/><path d="m619.14 596.21h22.93v22.93h-22.93z"/><path d="m642.07 596.21h22.93v22.93h-22.93z"/><path d="m206.38 619.14h22.93v22.93h-22.93z"/><path d="m298.1 619.14h22.93v22.93h-22.93z"/><path d="m343.97 619.14h22.93v22.93h-22.93z"/><path d="m481.55 619.14h22.93v22.93h-22.93z"/><path d="m573.28 619.14h22.93v22.93h-22.93z"/><path d="m596.21 619.14h22.93v22.93h-22.93z"/><path d="m642.07 619.14h22.93v22.93h-22.93z"/><path d="m183.45 642.07h22.93v22.93h-22.93z"/><path d="m229.31 642.07h22.93v22.93h-22.93z"/><path d="m321.03 642.07h22.93v22.93h-22.93z"/><path d="m412.76 642.07h22.93v22.93h-22.93z"/><path d="m435.69 642.07h22.93v22.93h-22.93z"/><path d="m458.62 642.07h22.93v22.93h-22.93z"/><path d="m550.34 642.07h22.93v22.93h-22.93z"/></g><path d="m24.08 24.08h112.36v112.36h-112.36z"/><path d="m136.44 0h-136.44v160.52h160.52v-160.52zm0 136.44h-112.36v-112.36h112.36z" fill="#fff"/><path d="m528.56 24.08h112.36v112.36h-112.36z"/><path d="m640.92 0h-136.44v160.52h160.52v-160.52zm0 136.44h-112.36v-112.36h112.36z" fill="#fff"/><path d="m24.08 528.56h112.36v112.36h-112.36z"/><path d="m136.44 504.48h-136.44v160.52h160.52v-160.52zm0 136.44h-112.36v-112.36h112.36z" fill="#fff"/><path d="m45.86 45.86h68.79v68.79h-68.79z" fill="#fff"/><path d="m550.34 45.86h68.79v68.79h-68.79z" fill="#fff"/><path d="m45.86 550.34h68.79v68.79h-68.79z" fill="#fff"/><path d="m759.4 103.91a44.28 44.28 0 0 1 0-26.1 34.58 34.58 0 0 1 5.49-10.63 36.52 36.52 0 0 1 18.74-12.74 43.23 43.23 0 0 1 23.85 0 36.52 36.52 0 0 1 18.74 12.75 34.6 34.6 0 0 1 5.49 10.64 42.17 42.17 0 0 1 2 13 43.33 43.33 0 0 1 -1.27 10.62 37.4 37.4 0 0 1 -3.55 9.13 35.29 35.29 0 0 1 -5.49 7.4l8.16 9.31-6.72 6-8.49-9.74a40.08 40.08 0 0 1 -20.78 5.47 41.94 41.94 0 0 1 -11.9-1.68 36.16 36.16 0 0 1 -10.46-5 37.08 37.08 0 0 1 -8.28-7.85 34.76 34.76 0 0 1 -5.53-10.58zm8.6-13.29a32.65 32.65 0 0 0 2.18 12.11 25.73 25.73 0 0 0 5.95 9.18 27 27 0 0 0 8.76 5.67 28 28 0 0 0 10.61 2 28.45 28.45 0 0 0 14.16-3.6l-6.24-7.07 6.77-6.06 6.33 7.31q6.52-7.88 6.53-19.56a32.61 32.61 0 0 0 -2.18-12.14 26 26 0 0 0 -5.87-9.14 26.7 26.7 0 0 0 -8.73-5.67 29.24 29.24 0 0 0 -21.36 0 26.7 26.7 0 0 0 -8.73 5.67 26 26 0 0 0 -5.93 9.16 32.61 32.61 0 0 0 -2.25 12.14z" fill="#fff"/><path d="m845.73 127.76v-73.9h20.81q11.24 0 17.75 5.13a18.84 18.84 0 0 1 3.78 4.1 19.11 19.11 0 0 1 2.46 5.28 21.69 21.69 0 0 1 .89 6.26 22.69 22.69 0 0 1 -1 6.88 18.27 18.27 0 0 1 -2.62 5.35 18.8 18.8 0 0 1 -3.8 3.88 20.18 20.18 0 0 1 -4.47 2.6 24.62 24.62 0 0 1 -4.73 1.41l21 33h-12.53l-19.21-31.9h-8v31.91zm10.36-40.36h7.63a45 45 0 0 0 7.32-.48 12 12 0 0 0 5.06-2.11 10.9 10.9 0 0 0 3.6-4.22 13.72 13.72 0 0 0 1.1-5.76 13.19 13.19 0 0 0 -1.13-5.69 11 11 0 0 0 -3.57-4.14 11.29 11.29 0 0 0 -2.54-1.46 12.71 12.71 0 0 0 -3-.79q-1.68-.24-3.12-.34t-3.7-.1h-7.63z" fill="#fff"/><path d="m898 102.71v-8.71h25.91v8.69z" fill="#fff"/><path d="m930.57 90.84a41.27 41.27 0 0 1 2.9-15.64 34.62 34.62 0 0 1 7.94-12 36.14 36.14 0 0 1 12-7.64 40.06 40.06 0 0 1 14.88-2.75 45.18 45.18 0 0 1 9.26.91 33.26 33.26 0 0 1 7.58 2.46 43.16 43.16 0 0 1 5.4 3 30.8 30.8 0 0 1 4 3.16l-4.32 8.4a17.49 17.49 0 0 0 -3.17-3 33.9 33.9 0 0 0 -4.75-2.94 27.92 27.92 0 0 0 -6.31-2.29 30.48 30.48 0 0 0 -7.22-.87 28.94 28.94 0 0 0 -11 2.08 25.46 25.46 0 0 0 -8.73 5.82 26.29 26.29 0 0 0 -5.71 9.19 33.38 33.38 0 0 0 -2.06 11.9 32.84 32.84 0 0 0 2.09 11.87 26.67 26.67 0 0 0 5.73 9.17 25.77 25.77 0 0 0 8.73 5.84 28.52 28.52 0 0 0 11 2.1 31.43 31.43 0 0 0 12.6-2.44 27.35 27.35 0 0 0 9.48-6.64l4.46 7.67a27.43 27.43 0 0 1 -4.22 3.9 37 37 0 0 1 -5.64 3.4 32.61 32.61 0 0 1 -7.7 2.59 44.65 44.65 0 0 1 -9.41 1 40.38 40.38 0 0 1 -15-2.76 35.59 35.59 0 0 1 -12-7.69 34.64 34.64 0 0 1 -7.87-12.11 42 42 0 0 1 -2.94-15.69z" fill="#fff"/><path d="m1000.43 102.52a27.68 27.68 0 0 1 2.09-10.8 24.63 24.63 0 0 1 5.71-8.45 26.06 26.06 0 0 1 8.59-5.4 28.91 28.91 0 0 1 10.63-1.94 28.5 28.5 0 0 1 10.55 1.95 25.77 25.77 0 0 1 8.53 5.4 24.83 24.83 0 0 1 5.68 8.45 29 29 0 0 1 0 21.57 24.63 24.63 0 0 1 -5.68 8.4 25.66 25.66 0 0 1 -8.53 5.3 28.82 28.82 0 0 1 -10.54 1.92 31.38 31.38 0 0 1 -6.31-.62 26.22 26.22 0 0 1 -5.71-1.85 27.84 27.84 0 0 1 -5-3 22.74 22.74 0 0 1 -4.15-4 27.19 27.19 0 0 1 -3.14-4.87 24.43 24.43 0 0 1 -2-5.73 29.5 29.5 0 0 1 -.72-6.33zm10.37-.34a20.66 20.66 0 0 0 2 9.19 15.64 15.64 0 0 0 5.8 6.49 16.21 16.21 0 0 0 8.85 2.41 15.92 15.92 0 0 0 8.73-2.41 15.55 15.55 0 0 0 5.76-6.49 20.86 20.86 0 0 0 2-9.19 20.48 20.48 0 0 0 -2-9.07 15.7 15.7 0 0 0 -14.49-8.93 16.09 16.09 0 0 0 -8.85 2.44 15.85 15.85 0 0 0 -5.8 6.49 20.28 20.28 0 0 0 -2 9.07z" fill="#fff"/><path d="m1061.57 102.28a29.65 29.65 0 0 1 3-13.46 22.88 22.88 0 0 1 8.59-9.43 24.08 24.08 0 0 1 12.92-3.46 22.38 22.38 0 0 1 10.48 2.35 19.69 19.69 0 0 1 7.3 6.43h.19v-30.85h10.22v73.9h-9.88v-8.06h-.19a22.42 22.42 0 0 1 -4.88 5.13 19.55 19.55 0 0 1 -6.05 3.11 23.49 23.49 0 0 1 -7 1 25.87 25.87 0 0 1 -8.35-1.32 22 22 0 0 1 -6.87-3.72 23.91 23.91 0 0 1 -5.1-5.71 26.72 26.72 0 0 1 -3.25-7.37 32 32 0 0 1 -1.13-8.54zm10.37-.1a22 22 0 0 0 1.13 7.16 17.77 17.77 0 0 0 3.17 5.74 14 14 0 0 0 5.12 3.81 16.52 16.52 0 0 0 6.82 1.38 15.68 15.68 0 0 0 8.7-2.39 15.14 15.14 0 0 0 5.6-6.46 23.37 23.37 0 0 0 0-18.45 15 15 0 0 0 -5.6-6.42 17.23 17.23 0 0 0 -17.42 0 15 15 0 0 0 -5.62 6.42 21.47 21.47 0 0 0 -1.91 9.21z" fill="#fff"/><path d="m1125.44 102.28a28.12 28.12 0 0 1 2.06-10.85 24.43 24.43 0 0 1 5.57-8.37 25 25 0 0 1 8.21-5.25 26.75 26.75 0 0 1 10-1.87 25.19 25.19 0 0 1 12.53 3.1 22 22 0 0 1 8.62 8.64 25.44 25.44 0 0 1 3.09 12.6q0 .86-.07 2t-.17 1.82v.67h-39.48q.38 7.45 4.85 11.71a16 16 0 0 0 11.56 4.27 26.83 26.83 0 0 0 4.5-.38 23.39 23.39 0 0 0 3.85-.95 34.34 34.34 0 0 0 3.22-1.33 22.92 22.92 0 0 0 2.5-1.33q.89-.57 1.8-1.19l1-.66 4.38 5.83a2.37 2.37 0 0 0 -.46.42q-.41.42-.92.86t-1.35 1.1a16.22 16.22 0 0 1 -1.9 1.28q-1.06.61-2.41 1.33a20.67 20.67 0 0 1 -3 1.28q-1.66.56-3.52 1a36.47 36.47 0 0 1 -4.17.71 41.33 41.33 0 0 1 -4.77.27 26.53 26.53 0 0 1 -13.27-3.26 22.56 22.56 0 0 1 -9-9.36 29.67 29.67 0 0 1 -3.25-14.09zm10.46-4.37h29.7a14 14 0 0 0 -.53-3.74 16.46 16.46 0 0 0 -4.53-7.39 12.76 12.76 0 0 0 -4.15-2.5 15.11 15.11 0 0 0 -5.47-1 15.7 15.7 0 0 0 -5.42.91 12.63 12.63 0 0 0 -4.17 2.42 16.84 16.84 0 0 0 -4.73 7.39 16 16 0 0 0 -.7 3.91z" fill="#fff"/><path d="m1203.31 116.72 6.1-7a31 31 0 0 0 3.4 3.8 30 30 0 0 0 4.31 3.39 22.23 22.23 0 0 0 5.28 2.5 18.46 18.46 0 0 0 5.75.94 15.81 15.81 0 0 0 10.36-3.36 11.13 11.13 0 0 0 4.11-9.08 9.35 9.35 0 0 0 -.46-2.93 11 11 0 0 0 -1.11-2.43 9.32 9.32 0 0 0 -1.78-2 23.24 23.24 0 0 0 -2-1.59 19.54 19.54 0 0 0 -2.23-1.3q-1.37-.7-2.09-1l-1.87-.79-.48-.14q-8.72-3.46-11.74-5a23.37 23.37 0 0 1 -7.43-5.24q-4.8-5-4.79-12.88a17.7 17.7 0 0 1 1.82-8 18.66 18.66 0 0 1 4.94-6.2q6.47-5.52 17-5.52 12.08 0 21.14 9.6l-5.4 7.06q-7.54-8-16.28-8a15.17 15.17 0 0 0 -9.3 2.67 9 9 0 0 0 -3.58 7.67 11 11 0 0 0 .58 3.63 9.51 9.51 0 0 0 1.44 2.76 10.85 10.85 0 0 0 2.23 2.09 17 17 0 0 0 2.53 1.54q1.15.55 2.74 1.23l13.65 5.72a30.68 30.68 0 0 1 4.19 2.4 19 19 0 0 1 4.13 3.56 19.29 19.29 0 0 1 4.49 12.5 19.64 19.64 0 0 1 -2 8.85 21.37 21.37 0 0 1 -5.73 7.13q-7 5.79-18.08 5.79a27.17 27.17 0 0 1 -5.2-.5 30.38 30.38 0 0 1 -4.53-1.21 23.77 23.77 0 0 1 -4-1.91q-2-1.19-3.31-2.14a28.52 28.52 0 0 1 -2.81-2.41q-1.51-1.45-2.21-2.19t-1.78-2.01z" fill="#fff"/><path d="m1260.47 102.47a27.79 27.79 0 0 1 2.16-11 24.42 24.42 0 0 1 5.78-8.43 26.55 26.55 0 0 1 18.07-7.08 37.11 37.11 0 0 1 6.12.49 24.24 24.24 0 0 1 5 1.31q2.06.83 3.65 1.63a13.44 13.44 0 0 1 2.71 1.77c.75.65 1.27 1.11 1.56 1.38a10.19 10.19 0 0 1 .72.75l-3.65 7.5-1.41-1.32a20 20 0 0 0 -2.09-1.56 17.24 17.24 0 0 0 -3-1.63 22.33 22.33 0 0 0 -3.82-1.13 22.94 22.94 0 0 0 -4.87-.5 16.5 16.5 0 0 0 -6.41 1.25 16.31 16.31 0 0 0 -5.26 3.48 16 16 0 0 0 -3.57 5.54 19.38 19.38 0 0 0 -1.32 7.25q0 8 4.63 13.08a15.54 15.54 0 0 0 12 5.06 21.6 21.6 0 0 0 5.4-.67 19.24 19.24 0 0 0 4.34-1.61 29.31 29.31 0 0 0 3.07-1.9 16.51 16.51 0 0 0 2-1.58l.62-.67 3.65 7.47-.34.29q-.86.9-1.56 1.52a23.74 23.74 0 0 1 -2.57 1.83 21.87 21.87 0 0 1 -3.86 2 30.19 30.19 0 0 1 -5.21 1.4 36.4 36.4 0 0 1 -6.86.62 26.15 26.15 0 0 1 -18-7.12 24.07 24.07 0 0 1 -5.62-8.39 28.43 28.43 0 0 1 -2.06-11.03z" fill="#fff"/><path d="m1310.43 113.17a13.62 13.62 0 0 1 2.54-8.3 15.33 15.33 0 0 1 7-5.18 32.9 32.9 0 0 1 10.41-2l13.58-.55v-1.94q0-5.35-3.43-8.18t-9.14-2.83a27.32 27.32 0 0 0 -6.91.93 36 36 0 0 0 -5.3 1.72q-1.75.79-3.14 1.58l-3.12-7.11a37.35 37.35 0 0 1 24.79-5 23.67 23.67 0 0 1 4.61 1.18 18 18 0 0 1 3.6 1.8 18.67 18.67 0 0 1 2.9 2.38 17.88 17.88 0 0 1 4.13 6.57 30.08 30.08 0 0 1 1.34 9.93v29.56h-10l-.1-6.43-.24.24q-1 1.06-1.68 1.7a25.92 25.92 0 0 1 -2.28 1.85 19.54 19.54 0 0 1 -3.14 1.94 19.83 19.83 0 0 1 -3.91 1.32 20.8 20.8 0 0 1 -4.92.58 20.28 20.28 0 0 1 -6.72-1.1 18.09 18.09 0 0 1 -5.59-3.1 14.17 14.17 0 0 1 -3.84-5 15.24 15.24 0 0 1 -1.44-6.56zm10.17-.34a8.3 8.3 0 0 0 1.2 4.42 8.51 8.51 0 0 0 3.62 3.17 12.66 12.66 0 0 0 5.69 1.2 14.18 14.18 0 0 0 4.51-.72 13.61 13.61 0 0 0 3.77-1.9 20.54 20.54 0 0 0 2.71-2.33 19.49 19.49 0 0 0 2-2.4v-10.94l-11.9.72q-5.9.29-8.73 2.64a7.6 7.6 0 0 0 -2.87 6.15z" fill="#fff"/><path d="m1367.34 127.76v-50.91h10.37l-.1 8.06h.29a16.66 16.66 0 0 1 6.18-6.48 17.51 17.51 0 0 1 9.34-2.5 23.09 23.09 0 0 1 7.47 1.1 14.36 14.36 0 0 1 5.25 3 14.61 14.61 0 0 1 3.3 4.73 22.87 22.87 0 0 1 1.76 6 45.68 45.68 0 0 1 .48 7v30.09h-10.37v-28.5a43 43 0 0 0 -.24-4.89 20.91 20.91 0 0 0 -.88-4.06 8.66 8.66 0 0 0 -1.79-3.24 8.29 8.29 0 0 0 -3.07-2 12.36 12.36 0 0 0 -4.6-.77 13.73 13.73 0 0 0 -3.69.48 10.81 10.81 0 0 0 -3 1.34 10.68 10.68 0 0 0 -2.37 2.14 14.41 14.41 0 0 0 -1.8 2.76 17.32 17.32 0 0 0 -1.22 3.29 25.41 25.41 0 0 0 -.7 3.74 37.07 37.07 0 0 0 -.21 4.05v25.58z" fill="#fff"/><path d="m1425.21 127.76v-50.91h10.37l-.1 8.06h.29a16.66 16.66 0 0 1 6.18-6.48 17.51 17.51 0 0 1 9.34-2.5 23.1 23.1 0 0 1 7.47 1.1 14.37 14.37 0 0 1 5.25 3 14.61 14.61 0 0 1 3.3 4.73 23 23 0 0 1 1.76 6 45.93 45.93 0 0 1 .48 7v30.09h-10.37v-28.5a43 43 0 0 0 -.24-4.89 20.91 20.91 0 0 0 -.89-4.06 8.64 8.64 0 0 0 -1.79-3.24 8.26 8.26 0 0 0 -3.06-2 12.37 12.37 0 0 0 -4.6-.77 13.72 13.72 0 0 0 -3.69.48 10.32 10.32 0 0 0 -5.41 3.48 14.4 14.4 0 0 0 -1.79 2.76 17.32 17.32 0 0 0 -1.22 3.29 25.67 25.67 0 0 0 -.69 3.74 36.59 36.59 0 0 0 -.21 4.05v25.58z" fill="#fff"/><path d="m1479.67 102.28a28.12 28.12 0 0 1 2.06-10.85 24.43 24.43 0 0 1 5.57-8.37 25 25 0 0 1 8.21-5.25 26.75 26.75 0 0 1 10-1.87 25.19 25.19 0 0 1 12.49 3.06 22 22 0 0 1 8.62 8.64 25.44 25.44 0 0 1 3.09 12.6q0 .86-.07 2t-.17 1.82v.67h-39.47q.38 7.45 4.85 11.71a16 16 0 0 0 11.56 4.27 26.83 26.83 0 0 0 4.5-.38 23.39 23.39 0 0 0 3.85-.95 34.34 34.34 0 0 0 3.24-1.38 22.92 22.92 0 0 0 2.5-1.33q.89-.57 1.8-1.19l1-.66 4.38 5.83a2.37 2.37 0 0 0 -.46.42q-.41.42-.92.86t-1.35 1.1a16.22 16.22 0 0 1 -1.9 1.28q-1.06.61-2.41 1.33a20.67 20.67 0 0 1 -3 1.28q-1.66.56-3.52 1a36.47 36.47 0 0 1 -4.17.71 41.33 41.33 0 0 1 -4.77.27 26.53 26.53 0 0 1 -13.27-3.26 22.56 22.56 0 0 1 -9-9.36 29.67 29.67 0 0 1 -3.24-14zm10.46-4.37h29.7a14 14 0 0 0 -.53-3.74 16.46 16.46 0 0 0 -4.53-7.39 12.76 12.76 0 0 0 -4.15-2.5 15.11 15.11 0 0 0 -5.47-1 15.7 15.7 0 0 0 -5.42.91 12.63 12.63 0 0 0 -4.17 2.42 16.84 16.84 0 0 0 -4.73 7.37 16 16 0 0 0 -.69 3.93z" fill="#fff"/><path d="m1539.7 127.76v-50.91h10.37l-.1 8.06h.29a16.66 16.66 0 0 1 6.18-6.48 17.51 17.51 0 0 1 9.34-2.5 23.09 23.09 0 0 1 7.47 1.1 14.36 14.36 0 0 1 5.25 3 14.61 14.61 0 0 1 3.3 4.73 22.87 22.87 0 0 1 1.76 6 45.68 45.68 0 0 1 .48 7v30.09h-10.37v-28.5a43 43 0 0 0 -.24-4.89 20.91 20.91 0 0 0 -.88-4.06 8.66 8.66 0 0 0 -1.79-3.24 8.29 8.29 0 0 0 -3.07-2 12.36 12.36 0 0 0 -4.6-.77 13.73 13.73 0 0 0 -3.69.48 10.81 10.81 0 0 0 -3 1.34 10.68 10.68 0 0 0 -2.37 2.14 14.41 14.41 0 0 0 -1.8 2.76 17.32 17.32 0 0 0 -1.22 3.29 25.41 25.41 0 0 0 -.7 3.74 37.07 37.07 0 0 0 -.21 4.05v25.58z" fill="#fff"/><path d="m1597 142.78 7.49-26.39h10.51l-9.84 26.39z" fill="#fff"/><path d="m1650.6 107.32v-30.57h10.17v30.07a31.54 31.54 0 0 0 .17 3.45 25.23 25.23 0 0 0 .55 3.14 8.71 8.71 0 0 0 1.15 2.78 10 10 0 0 0 1.9 2.13 7.67 7.67 0 0 0 2.86 1.46 14.15 14.15 0 0 0 3.94.5 12.21 12.21 0 0 0 5.77-1.32 10.31 10.31 0 0 0 4-3.61 17.91 17.91 0 0 0 2.21-5.17 24.56 24.56 0 0 0 .68-6.18v-27.25h10.37v51h-10.08l-.1-7.39a15.72 15.72 0 0 1 -6.32 6.23 19 19 0 0 1 -9.45 2.35q-9.53 0-14.08-5.9-3.74-5.04-3.74-15.72z" fill="#fff"/><path d="m1708.38 127.76v-50.91h10.37l-.1 8.06h.29a16.83 16.83 0 0 1 5.87-6.36 15.5 15.5 0 0 1 8.74-2.62 17.09 17.09 0 0 1 9.57 2.54 14.25 14.25 0 0 1 5.61 7.49 19.69 19.69 0 0 1 6.74-7.44 17.25 17.25 0 0 1 9.42-2.59 20.27 20.27 0 0 1 7 1.13 13.37 13.37 0 0 1 5 3 15.65 15.65 0 0 1 3.13 4.65 22.83 22.83 0 0 1 1.71 5.69 40.27 40.27 0 0 1 .48 6.45v30.85h-10.21v-29.6a33.61 33.61 0 0 0 -.19-3.72 21.68 21.68 0 0 0 -.77-3.65 10.38 10.38 0 0 0 -1.56-3.26 7.63 7.63 0 0 0 -2.73-2.21 9 9 0 0 0 -4.14-.89 10.06 10.06 0 0 0 -6.73 2.38 13.89 13.89 0 0 0 -4.12 6.12 25.22 25.22 0 0 0 -1.32 8.4v26.49h-10.37v-29.66a35.45 35.45 0 0 0 -.24-4.32 17.3 17.3 0 0 0 -.89-3.72 10.07 10.07 0 0 0 -1.65-3 7 7 0 0 0 -2.63-1.94 9.28 9.28 0 0 0 -3.78-.72 10.15 10.15 0 0 0 -6.75 2.38 13.61 13.61 0 0 0 -4.12 6.12 25.64 25.64 0 0 0 -1.29 8.4v26.49z" fill="#fff"/><path d="m1812.22 127.76v-6.3l29.78-36.22h-28.26v-8.24h41.37v6.19l-29.66 36.13h31.14v8.45z" fill="#fff"/><path d="m1865.34 107.32v-30.57h10.17v30.07a31.54 31.54 0 0 0 .17 3.45 25.23 25.23 0 0 0 .55 3.14 8.71 8.71 0 0 0 1.15 2.78 10 10 0 0 0 1.9 2.13 7.67 7.67 0 0 0 2.86 1.46 14.15 14.15 0 0 0 3.94.5 12.21 12.21 0 0 0 5.77-1.32 10.31 10.31 0 0 0 4-3.61 17.91 17.91 0 0 0 2.21-5.17 24.56 24.56 0 0 0 .75-6.18v-27.25h10.37v51h-10.08l-.1-7.39a15.72 15.72 0 0 1 -6.32 6.23 19 19 0 0 1 -9.45 2.35q-9.53 0-14.08-5.9-3.81-5.04-3.81-15.72z" fill="#fff"/><path d="m1923.11 127.76v-50.91h10.37l-.1 8h.29a16.4 16.4 0 0 1 3.14-4.92 12.6 12.6 0 0 1 4.27-3 13.06 13.06 0 0 1 5.11-1 18.16 18.16 0 0 1 2.88.22 13.73 13.73 0 0 1 1.92.41l.58.17-.62 8.66h-6a9.29 9.29 0 0 0 -5.11 1.36 12.39 12.39 0 0 0 -3.29 2.89q-3.07 4.64-3.07 12.82v25.3z" fill="#fff"/><path d="m759.4 221.84a44.28 44.28 0 0 1 0-26.1 34.58 34.58 0 0 1 5.49-10.63 36.52 36.52 0 0 1 18.74-12.74 43.25 43.25 0 0 1 23.85 0 36.52 36.52 0 0 1 18.74 12.74 34.58 34.58 0 0 1 5.49 10.63 44.28 44.28 0 0 1 0 26.1 34.76 34.76 0 0 1 -5.49 10.64 37.08 37.08 0 0 1 -8.28 7.85 36.18 36.18 0 0 1 -10.46 5 43.14 43.14 0 0 1 -23.85 0 36.16 36.16 0 0 1 -10.46-5 37.08 37.08 0 0 1 -8.28-7.85 34.76 34.76 0 0 1 -5.49-10.64zm8.6-13.29a32.65 32.65 0 0 0 2.18 12.11 25.73 25.73 0 0 0 5.95 9.18 27 27 0 0 0 8.76 5.67 29.12 29.12 0 0 0 21.31 0 26.7 26.7 0 0 0 8.73-5.67 25.9 25.9 0 0 0 5.93-9.18 34.75 34.75 0 0 0 0-24.25 26 26 0 0 0 -5.93-9.16 26.7 26.7 0 0 0 -8.73-5.67 29.24 29.24 0 0 0 -21.36 0 26.7 26.7 0 0 0 -8.73 5.67 26 26 0 0 0 -5.93 9.16 32.61 32.61 0 0 0 -2.18 12.14z" fill="#fff"/><path d="m844.62 245.69v-50.91h10.38l-.1 8.06h.29a16.66 16.66 0 0 1 6.18-6.48 17.51 17.51 0 0 1 9.34-2.5 23.1 23.1 0 0 1 7.47 1.1 14.37 14.37 0 0 1 5.25 3 14.61 14.61 0 0 1 3.3 4.73 23 23 0 0 1 1.76 6 45.93 45.93 0 0 1 .48 7v30.09h-10.37v-28.5a43 43 0 0 0 -.24-4.89 20.91 20.91 0 0 0 -.89-4.06 8.64 8.64 0 0 0 -1.79-3.24 8.27 8.27 0 0 0 -3.06-2 12.37 12.37 0 0 0 -4.6-.77 13.72 13.72 0 0 0 -3.69.48 10.32 10.32 0 0 0 -5.41 3.48 14.4 14.4 0 0 0 -1.79 2.76 17.32 17.32 0 0 0 -1.22 3.29 25.67 25.67 0 0 0 -.69 3.74 36.59 36.59 0 0 0 -.21 4.05v25.58z" fill="#fff"/><path d="m903 245.69v-73.9h10.2v73.9z" fill="#fff"/><path d="m928.57 182.66a6 6 0 0 1 -1.89-4.56 6 6 0 0 1 1.89-4.53 6.8 6.8 0 0 1 4.85-1.78 6.67 6.67 0 0 1 4.77 1.78 6 6 0 0 1 1.88 4.53 6 6 0 0 1 -1.88 4.56 6.61 6.61 0 0 1 -4.77 1.8 6.75 6.75 0 0 1 -4.85-1.8zm-.35 63v-50.88h10.37v50.91z" fill="#fff"/><path d="m953.07 245.69v-50.91h10.37l-.1 8.06h.29a16.66 16.66 0 0 1 6.18-6.48 17.51 17.51 0 0 1 9.34-2.5 23.1 23.1 0 0 1 7.47 1.1 14.37 14.37 0 0 1 5.25 3 14.61 14.61 0 0 1 3.3 4.73 23 23 0 0 1 1.76 6 45.93 45.93 0 0 1 .48 7v30.09h-10.41v-28.5a43 43 0 0 0 -.24-4.89 20.91 20.91 0 0 0 -.89-4.06 8.64 8.64 0 0 0 -1.79-3.24 8.27 8.27 0 0 0 -3.06-2 12.37 12.37 0 0 0 -4.6-.77 13.72 13.72 0 0 0 -3.69.48 10.32 10.32 0 0 0 -5.41 3.48 14.4 14.4 0 0 0 -1.79 2.76 17.32 17.32 0 0 0 -1.22 3.29 25.67 25.67 0 0 0 -.69 3.74 36.59 36.59 0 0 0 -.21 4.05v25.58z" fill="#fff"/><path d="m1007.54 220.21a28.12 28.12 0 0 1 2.06-10.85 24.43 24.43 0 0 1 5.57-8.37 25 25 0 0 1 8.21-5.25 26.75 26.75 0 0 1 10-1.87 25.19 25.19 0 0 1 12.53 3.1 22 22 0 0 1 8.62 8.64 25.44 25.44 0 0 1 3.09 12.6q0 .86-.07 2t-.17 1.82v.67h-39.48q.38 7.45 4.85 11.71a16 16 0 0 0 11.56 4.27 26.83 26.83 0 0 0 4.5-.38 23.39 23.39 0 0 0 3.85-.95 34.34 34.34 0 0 0 3.22-1.33 22.92 22.92 0 0 0 2.5-1.33q.89-.57 1.8-1.19l1-.66 4.38 5.83a2.37 2.37 0 0 0 -.46.42q-.41.42-.92.86t-1.35 1.1a16.22 16.22 0 0 1 -1.9 1.28q-1.06.61-2.41 1.33a20.67 20.67 0 0 1 -3 1.28q-1.66.56-3.52 1a36.47 36.47 0 0 1 -4.17.71 41.33 41.33 0 0 1 -4.77.27 26.53 26.53 0 0 1 -13.27-3.26 22.56 22.56 0 0 1 -9-9.36 29.67 29.67 0 0 1 -3.25-14.09zm10.46-4.37h29.7a14 14 0 0 0 -.53-3.74 16.46 16.46 0 0 0 -4.53-7.39 12.76 12.76 0 0 0 -4.15-2.5 15.11 15.11 0 0 0 -5.47-1 15.7 15.7 0 0 0 -5.42.91 12.63 12.63 0 0 0 -4.17 2.42 16.84 16.84 0 0 0 -4.73 7.37 16 16 0 0 0 -.7 3.93z" fill="#fff"/><path d="m1089.93 245.69v-73.9h43.24v8.69h-32.87v22.07h31v8.69h-31v25.76h33.7v8.69z" fill="#fff"/><path d="m1141.27 220.21a29.65 29.65 0 0 1 3-13.46 22.88 22.88 0 0 1 8.59-9.43 24.08 24.08 0 0 1 12.92-3.46 22.38 22.38 0 0 1 10.48 2.35 19.69 19.69 0 0 1 7.3 6.43h.19v-30.85h10.25v73.9h-9.88v-8.06h-.19a22.42 22.42 0 0 1 -4.88 5.13 19.55 19.55 0 0 1 -6.05 3.11 23.49 23.49 0 0 1 -7 1 25.87 25.87 0 0 1 -8.35-1.32 22 22 0 0 1 -6.87-3.72 23.91 23.91 0 0 1 -5.1-5.71 26.72 26.72 0 0 1 -3.25-7.37 32 32 0 0 1 -1.16-8.54zm10.37-.1a22 22 0 0 0 1.13 7.16 17.77 17.77 0 0 0 3.17 5.74 14 14 0 0 0 5.12 3.81 16.52 16.52 0 0 0 6.82 1.38 15.68 15.68 0 0 0 8.7-2.39 15.14 15.14 0 0 0 5.6-6.46 23.37 23.37 0 0 0 0-18.45 15 15 0 0 0 -5.6-6.42 17.23 17.23 0 0 0 -17.42 0 15 15 0 0 0 -5.62 6.42 21.47 21.47 0 0 0 -1.9 9.21z" fill="#fff"/><path d="m1209.29 182.66a6 6 0 0 1 -1.89-4.56 6 6 0 0 1 1.89-4.53 6.8 6.8 0 0 1 4.85-1.78 6.67 6.67 0 0 1 4.77 1.78 6 6 0 0 1 1.88 4.53 6 6 0 0 1 -1.88 4.56 6.61 6.61 0 0 1 -4.77 1.8 6.75 6.75 0 0 1 -4.85-1.8zm-.35 63v-50.88h10.37v50.91z" fill="#fff"/><path d="m1228.47 203.17v-8.25h7.39v-15.26h10.37v15.26h12.09v8.25h-12.09v23q0 3.85.22 5.87a8.41 8.41 0 0 0 1.08 3.46q1.49 2.65 5.28 2.65a11.31 11.31 0 0 0 2.62-.31 11 11 0 0 0 1.94-.6l.67-.29.63 8.18a3.7 3.7 0 0 1 -.48.19l-1.27.4q-1 .31-2 .52t-2.54.4a24.74 24.74 0 0 1 -3 .19q-7.33 0-10.92-5.28a13.59 13.59 0 0 1 -2.06-5.59 67.63 67.63 0 0 1 -.51-9.62v-23.17z" fill="#fff"/><path d="m1267.78 182.66a6 6 0 0 1 -1.89-4.56 6 6 0 0 1 1.89-4.53 6.8 6.8 0 0 1 4.85-1.78 6.67 6.67 0 0 1 4.77 1.78 6 6 0 0 1 1.88 4.53 6 6 0 0 1 -1.88 4.56 6.61 6.61 0 0 1 -4.77 1.8 6.75 6.75 0 0 1 -4.85-1.8zm-.35 63v-50.88h10.37v50.91z" fill="#fff"/><path d="m1288.88 220.45a27.72 27.72 0 0 1 2.09-10.8 24.63 24.63 0 0 1 5.71-8.45 26 26 0 0 1 8.59-5.4 28.91 28.91 0 0 1 10.63-1.94 28.49 28.49 0 0 1 10.54 1.94 25.8 25.8 0 0 1 8.53 5.4 24.8 24.8 0 0 1 5.68 8.45 28.95 28.95 0 0 1 0 21.57 24.59 24.59 0 0 1 -5.68 8.4 25.68 25.68 0 0 1 -8.53 5.35 28.81 28.81 0 0 1 -10.54 1.92 31.41 31.41 0 0 1 -6.31-.62 26.26 26.26 0 0 1 -5.71-1.85 27.84 27.84 0 0 1 -5-3 22.66 22.66 0 0 1 -4.15-4 27.08 27.08 0 0 1 -3.14-4.87 24.43 24.43 0 0 1 -2-5.73 29.38 29.38 0 0 1 -.71-6.37zm10.37-.34a20.66 20.66 0 0 0 2 9.19 15.65 15.65 0 0 0 5.81 6.49 16.21 16.21 0 0 0 8.85 2.41 15.91 15.91 0 0 0 8.73-2.41 15.55 15.55 0 0 0 5.76-6.49 20.89 20.89 0 0 0 2-9.19 20.51 20.51 0 0 0 -2-9.07 15.7 15.7 0 0 0 -14.49-8.93 16.09 16.09 0 0 0 -8.85 2.44 15.85 15.85 0 0 0 -5.81 6.49 20.28 20.28 0 0 0 -2.01 9.07z" fill="#fff"/><path d="m1353.42 245.69v-50.91h10.37l-.1 8.06h.29a16.66 16.66 0 0 1 6.18-6.48 17.51 17.51 0 0 1 9.34-2.5 23.09 23.09 0 0 1 7.5 1.14 14.36 14.36 0 0 1 5.25 3 14.61 14.61 0 0 1 3.3 4.73 22.87 22.87 0 0 1 1.76 6 45.68 45.68 0 0 1 .48 7v30.09h-10.39v-28.54a43 43 0 0 0 -.24-4.89 20.91 20.91 0 0 0 -.88-4.06 8.66 8.66 0 0 0 -1.79-3.24 8.29 8.29 0 0 0 -3.07-2 12.36 12.36 0 0 0 -4.6-.77 13.73 13.73 0 0 0 -3.69.48 10.81 10.81 0 0 0 -3 1.34 10.68 10.68 0 0 0 -2.37 2.14 14.41 14.41 0 0 0 -1.8 2.76 17.32 17.32 0 0 0 -1.22 3.29 25.41 25.41 0 0 0 -.7 3.74 37.07 37.07 0 0 0 -.21 4.05v25.58z" fill="#fff"/><path d="m1427.75 245.69v-6.3l29.75-36.22h-28.26v-8.25h41.36v6.19l-29.66 36.13h31.14v8.45z" fill="#fff"/><path d="m1480.87 225.25v-30.57h10.13v30.07a32 32 0 0 0 .17 3.45 25.25 25.25 0 0 0 .55 3.14 8.75 8.75 0 0 0 1.15 2.78 9.91 9.91 0 0 0 1.9 2.13 7.65 7.65 0 0 0 2.86 1.46 14.15 14.15 0 0 0 3.94.5 12.2 12.2 0 0 0 5.77-1.32 10.3 10.3 0 0 0 4-3.61 17.91 17.91 0 0 0 2.21-5.17 24.57 24.57 0 0 0 .74-6.18v-27.25h10.37v51h-10.08l-.1-7.39a15.74 15.74 0 0 1 -6.32 6.23 19 19 0 0 1 -9.45 2.35q-9.53 0-14.08-5.9-3.76-5.07-3.76-15.72z" fill="#fff"/><path d="m1556.5 219.48a29.4 29.4 0 0 1 1.29-8.87 23.47 23.47 0 0 1 3.59-7.16 24.49 24.49 0 0 1 5.36-5.24 22.48 22.48 0 0 1 6.7-3.27 26.4 26.4 0 0 1 7.56-1.08 21.69 21.69 0 0 1 10.77 2.56 19 19 0 0 1 7 6.46h.34l-.14-8.11h10.17v40.23a54.4 54.4 0 0 1 -1.35 13.39 21.43 21.43 0 0 1 -4.23 8.54 25.37 25.37 0 0 1 -3.41 3.5 29.45 29.45 0 0 1 -4.52 3 23.67 23.67 0 0 1 -6.46 2.35 38.65 38.65 0 0 1 -30.73-6.54 2.21 2.21 0 0 0 -.29-.19l4.85-7.05a32.08 32.08 0 0 0 18.17 6.45 20.12 20.12 0 0 0 8.6-1.63 14.66 14.66 0 0 0 5.33-4 15.83 15.83 0 0 0 2.76-5.67 30.25 30.25 0 0 0 1.08-8.55v-2.6h-.19a20.52 20.52 0 0 1 -7.26 6.63 21.46 21.46 0 0 1 -10.53 2.47 25.19 25.19 0 0 1 -9.35-1.75 24 24 0 0 1 -7.8-5 22.88 22.88 0 0 1 -5.36-8.1 28.38 28.38 0 0 1 -1.95-10.77zm12.21-8.76a21.71 21.71 0 0 0 0 17.54 14.57 14.57 0 0 0 5.6 6.22 16.31 16.31 0 0 0 8.79 2.33 16.12 16.12 0 0 0 8.84-2.35 14.74 14.74 0 0 0 5.53-6.2 20.15 20.15 0 0 0 1.83-8.75 20.7 20.7 0 0 0 -1.8-8.79 14.4 14.4 0 0 0 -5.55-6.25 17.69 17.69 0 0 0 -17.64 0 14.73 14.73 0 0 0 -5.6 6.25z" fill="#fff"/><path d="m1620 220.21a28.12 28.12 0 0 1 2.06-10.85 24.49 24.49 0 0 1 5.57-8.37 25 25 0 0 1 8.21-5.25 26.74 26.74 0 0 1 10-1.87 25.2 25.2 0 0 1 12.53 3.1 22 22 0 0 1 8.62 8.64 25.42 25.42 0 0 1 3.09 12.6q0 .86-.07 2t-.17 1.82v.67h-39.39q.38 7.45 4.85 11.71a16 16 0 0 0 11.56 4.27 26.85 26.85 0 0 0 4.5-.38 23.44 23.44 0 0 0 3.85-.95 34.77 34.77 0 0 0 3.22-1.33 23 23 0 0 0 2.5-1.33q.89-.57 1.8-1.19t1-.66l4.38 5.83a2.44 2.44 0 0 0 -.46.42q-.41.42-.92.86t-1.35 1.1a16.22 16.22 0 0 1 -1.9 1.28q-1.06.61-2.41 1.33a20.67 20.67 0 0 1 -3 1.28q-1.66.56-3.52 1a36.54 36.54 0 0 1 -4.17.71 41.37 41.37 0 0 1 -4.77.27 26.52 26.52 0 0 1 -13.27-3.26 22.56 22.56 0 0 1 -9-9.36 29.69 29.69 0 0 1 -3.34-14.09zm10.46-4.37h29.7a14.1 14.1 0 0 0 -.53-3.74 16.44 16.44 0 0 0 -4.54-7.39 12.78 12.78 0 0 0 -4.15-2.5 15.12 15.12 0 0 0 -5.47-1 15.69 15.69 0 0 0 -5.42.91 12.64 12.64 0 0 0 -4.18 2.42 16.88 16.88 0 0 0 -4.73 7.37 16.05 16.05 0 0 0 -.69 3.93z" fill="#fff"/><path d="m1680.54 245.69v-73.9h10.17v73.9z" fill="#fff"/><path d="m1701.08 231.1a13.62 13.62 0 0 1 2.54-8.3 15.33 15.33 0 0 1 7-5.18 32.9 32.9 0 0 1 10.41-2l13.58-.55v-1.92q0-5.35-3.43-8.18t-9.14-2.83a27.32 27.32 0 0 0 -6.91.93 36 36 0 0 0 -5.3 1.72q-1.75.79-3.14 1.58l-3.12-7.11a37.35 37.35 0 0 1 24.79-5 23.67 23.67 0 0 1 4.61 1.18 18 18 0 0 1 3.6 1.8 18.67 18.67 0 0 1 2.9 2.38 17.88 17.88 0 0 1 4.13 6.57 30.08 30.08 0 0 1 1.34 9.93v29.56h-10l-.1-6.43-.24.24q-1 1.06-1.68 1.7a25.92 25.92 0 0 1 -2.28 1.85 19.54 19.54 0 0 1 -3.14 1.94 19.83 19.83 0 0 1 -3.91 1.32 20.8 20.8 0 0 1 -4.92.58 20.28 20.28 0 0 1 -6.72-1.1 18.09 18.09 0 0 1 -5.59-3.1 14.17 14.17 0 0 1 -3.84-5 15.24 15.24 0 0 1 -1.44-6.58zm10.17-.34a8.3 8.3 0 0 0 1.2 4.42 8.51 8.51 0 0 0 3.62 3.17 12.66 12.66 0 0 0 5.69 1.2 14.18 14.18 0 0 0 4.51-.72 13.61 13.61 0 0 0 3.77-1.9 20.54 20.54 0 0 0 2.71-2.33 19.49 19.49 0 0 0 2-2.4v-10.93l-11.9.72q-5.9.29-8.73 2.64a7.6 7.6 0 0 0 -2.87 6.14z" fill="#fff"/><path d="m1758 245.69v-50.91h10.37l-.1 8.06h.29a16.66 16.66 0 0 1 6.18-6.48 17.51 17.51 0 0 1 9.34-2.5 23.09 23.09 0 0 1 7.47 1.1 14.36 14.36 0 0 1 5.25 3 14.61 14.61 0 0 1 3.3 4.73 22.87 22.87 0 0 1 1.76 6 45.68 45.68 0 0 1 .48 7v30.09h-10.34v-28.5a43 43 0 0 0 -.24-4.89 20.91 20.91 0 0 0 -.88-4.06 8.66 8.66 0 0 0 -1.79-3.24 8.29 8.29 0 0 0 -3.07-2 12.36 12.36 0 0 0 -4.6-.77 13.73 13.73 0 0 0 -3.69.48 10.81 10.81 0 0 0 -3 1.34 10.68 10.68 0 0 0 -2.37 2.14 14.41 14.41 0 0 0 -1.8 2.76 17.32 17.32 0 0 0 -1.22 3.29 25.41 25.41 0 0 0 -.7 3.74 37.07 37.07 0 0 0 -.21 4.05v25.58z" fill="#fff"/><path d="m1812.46 219.48a29.4 29.4 0 0 1 1.29-8.87 23.47 23.47 0 0 1 3.59-7.16 24.49 24.49 0 0 1 5.36-5.24 22.48 22.48 0 0 1 6.7-3.27 26.4 26.4 0 0 1 7.56-1.08 21.69 21.69 0 0 1 10.77 2.56 19 19 0 0 1 7 6.46h.34l-.14-8.11h10.17v40.23a54.4 54.4 0 0 1 -1.35 13.39 21.43 21.43 0 0 1 -4.23 8.54 25.37 25.37 0 0 1 -3.41 3.5 29.45 29.45 0 0 1 -4.52 3 23.67 23.67 0 0 1 -6.46 2.35 38.65 38.65 0 0 1 -30.73-6.54 2.21 2.21 0 0 0 -.29-.19l4.89-7.05a32.08 32.08 0 0 0 18.17 6.45 20.12 20.12 0 0 0 8.6-1.63 14.66 14.66 0 0 0 5.33-4 15.83 15.83 0 0 0 2.76-5.67 30.25 30.25 0 0 0 1.08-8.55v-2.6h-.19a20.52 20.52 0 0 1 -7.26 6.63 21.46 21.46 0 0 1 -10.53 2.47 25.19 25.19 0 0 1 -9.35-1.75 24 24 0 0 1 -7.8-5 22.88 22.88 0 0 1 -5.36-8.1 28.38 28.38 0 0 1 -1.99-10.77zm12.21-8.76a21.71 21.71 0 0 0 0 17.54 14.57 14.57 0 0 0 5.6 6.22 16.31 16.31 0 0 0 8.79 2.33 16.12 16.12 0 0 0 8.84-2.35 14.74 14.74 0 0 0 5.53-6.2 20.15 20.15 0 0 0 1.83-8.75 20.7 20.7 0 0 0 -1.8-8.79 14.4 14.4 0 0 0 -5.55-6.25 17.69 17.69 0 0 0 -17.64 0 14.73 14.73 0 0 0 -5.6 6.25z" fill="#fff"/><path d="m1875.94 220.21a28.12 28.12 0 0 1 2.06-10.85 24.49 24.49 0 0 1 5.57-8.37 25 25 0 0 1 8.21-5.25 26.74 26.74 0 0 1 10-1.87 25.2 25.2 0 0 1 12.53 3.1 22 22 0 0 1 8.62 8.64 25.42 25.42 0 0 1 3.09 12.6q0 .86-.07 2t-.17 1.82v.67h-39.39q.38 7.45 4.85 11.71a16 16 0 0 0 11.56 4.27 26.85 26.85 0 0 0 4.5-.38 23.44 23.44 0 0 0 3.85-.95 34.77 34.77 0 0 0 3.22-1.33 23 23 0 0 0 2.5-1.33q.89-.57 1.8-1.19t1-.66l4.38 5.83a2.44 2.44 0 0 0 -.46.42q-.41.42-.92.86t-1.35 1.1a16.22 16.22 0 0 1 -1.9 1.28q-1.06.61-2.41 1.33a20.67 20.67 0 0 1 -3 1.28q-1.66.56-3.52 1a36.54 36.54 0 0 1 -4.17.71 41.37 41.37 0 0 1 -4.77.27 26.52 26.52 0 0 1 -13.27-3.26 22.56 22.56 0 0 1 -9-9.36 29.69 29.69 0 0 1 -3.34-14.09zm10.46-4.37h29.7a14.1 14.1 0 0 0 -.53-3.74 16.44 16.44 0 0 0 -4.54-7.39 12.78 12.78 0 0 0 -4.15-2.5 15.12 15.12 0 0 0 -5.47-1 15.69 15.69 0 0 0 -5.42.91 12.64 12.64 0 0 0 -4.18 2.42 16.88 16.88 0 0 0 -4.73 7.37 16.05 16.05 0 0 0 -.67 3.93z" fill="#fff"/><path d="m1936 245.69v-50.91h10.37l-.1 8.06h.29a16.66 16.66 0 0 1 6.18-6.48 17.51 17.51 0 0 1 9.34-2.5 23.1 23.1 0 0 1 7.47 1.1 14.37 14.37 0 0 1 5.25 3 14.61 14.61 0 0 1 3.3 4.73 23 23 0 0 1 1.76 6 45.93 45.93 0 0 1 .48 7v30.09h-10.34v-28.5a43 43 0 0 0 -.24-4.89 20.91 20.91 0 0 0 -.89-4.06 8.64 8.64 0 0 0 -1.79-3.24 8.27 8.27 0 0 0 -3.06-2 12.37 12.37 0 0 0 -4.6-.77 13.72 13.72 0 0 0 -3.69.48 10.32 10.32 0 0 0 -5.41 3.48 14.4 14.4 0 0 0 -1.79 2.76 17.32 17.32 0 0 0 -1.22 3.29 25.67 25.67 0 0 0 -.69 3.74 36.59 36.59 0 0 0 -.21 4.05v25.58z" fill="#fff"/><path d="m761.61 481.55v-73.9h10.39v73.9z" fill="#fff"/><path d="m787.09 481.55v-50.91h10.37l-.1 8.06h.29a16.66 16.66 0 0 1 6.18-6.48 17.51 17.51 0 0 1 9.34-2.5 23.09 23.09 0 0 1 7.47 1.1 14.36 14.36 0 0 1 5.25 3 14.61 14.61 0 0 1 3.3 4.73 22.87 22.87 0 0 1 1.76 6 45.68 45.68 0 0 1 .48 7v30.09h-10.37v-28.5a43 43 0 0 0 -.24-4.89 20.91 20.91 0 0 0 -.88-4.06 8.66 8.66 0 0 0 -1.79-3.24 8.29 8.29 0 0 0 -3.07-2 12.36 12.36 0 0 0 -4.6-.77 13.73 13.73 0 0 0 -3.69.48 10.81 10.81 0 0 0 -3 1.34 10.68 10.68 0 0 0 -2.37 2.14 14.41 14.41 0 0 0 -1.8 2.76 17.32 17.32 0 0 0 -1.22 3.29 25.41 25.41 0 0 0 -.7 3.74 37.07 37.07 0 0 0 -.21 4.05v25.58z" fill="#fff"/><path d="m841.55 456.07a29.68 29.68 0 0 1 3-13.46 22.91 22.91 0 0 1 8.59-9.43 24.08 24.08 0 0 1 12.86-3.45 22.4 22.4 0 0 1 10.48 2.35 19.72 19.72 0 0 1 7.3 6.43h.22v-30.86h10.22v73.9h-9.88v-8.06h-.19a22.42 22.42 0 0 1 -4.88 5.13 19.56 19.56 0 0 1 -6.06 3.11 23.47 23.47 0 0 1 -7 1 25.87 25.87 0 0 1 -8.35-1.32 22 22 0 0 1 -6.86-3.72 23.87 23.87 0 0 1 -5.1-5.71 26.72 26.72 0 0 1 -3.25-7.37 31.9 31.9 0 0 1 -1.1-8.54zm10.37-.1a22 22 0 0 0 1.13 7.16 17.76 17.76 0 0 0 3.17 5.74 14.06 14.06 0 0 0 5.12 3.81 16.53 16.53 0 0 0 6.82 1.38 15.68 15.68 0 0 0 8.7-2.39 15.13 15.13 0 0 0 5.6-6.46 23.37 23.37 0 0 0 0-18.45 15 15 0 0 0 -5.6-6.42 17.23 17.23 0 0 0 -17.42 0 14.94 14.94 0 0 0 -5.62 6.42 21.47 21.47 0 0 0 -1.9 9.24z" fill="#fff"/><path d="m908.4 461.11v-30.57h10.17v30.07a32 32 0 0 0 .17 3.45 25.25 25.25 0 0 0 .55 3.14 8.75 8.75 0 0 0 1.15 2.78 9.91 9.91 0 0 0 1.9 2.13 7.65 7.65 0 0 0 2.86 1.46 14.15 14.15 0 0 0 3.94.5 12.2 12.2 0 0 0 5.77-1.32 10.3 10.3 0 0 0 4-3.61 17.91 17.91 0 0 0 2.19-5.14 24.57 24.57 0 0 0 .74-6.18v-27.28h10.37v51h-10.08l-.1-7.39a15.74 15.74 0 0 1 -6.32 6.23 19 19 0 0 1 -9.45 2.35q-9.53 0-14.08-5.9-3.78-5.07-3.78-15.72z" fill="#fff"/><path d="m961.28 473.2 4.89-5.76a21.36 21.36 0 0 0 15 7.06 16.09 16.09 0 0 0 3.53-.37 12.2 12.2 0 0 0 3.09-1.14 5.74 5.74 0 0 0 2.28-2.18 6.5 6.5 0 0 0 .84-3.37 4.93 4.93 0 0 0 -.43-2.07 5 5 0 0 0 -1.27-1.69 16 16 0 0 0 -1.7-1.32 11.57 11.57 0 0 0 -2.13-1.09q-1.27-.51-2.11-.81t-2.11-.67q-1.27-.37-1.71-.56-1-.28-2.16-.67l-1.78-.58q-.58-.19-1.37-.51a17.52 17.52 0 0 1 -1.66-.79q-8.06-3.95-8.06-11.85a14.51 14.51 0 0 1 1.42-6.47 13.38 13.38 0 0 1 3.81-4.75 17.75 17.75 0 0 1 5.47-2.86 20.88 20.88 0 0 1 6.48-1q11.23 0 17.37 7.3l-4.32 6.25a17.77 17.77 0 0 0 -3.53-2.69 19 19 0 0 0 -4.49-1.9 17.64 17.64 0 0 0 -4.85-.7 10 10 0 0 0 -5.95 1.56 5.28 5.28 0 0 0 -2.16 4.58 4.12 4.12 0 0 0 .6 2.16 6.83 6.83 0 0 0 1.42 1.7 10.35 10.35 0 0 0 2.3 1.39 26.94 26.94 0 0 0 2.64 1.09l3 1q4.27 1.39 6.86 2.37a17.7 17.7 0 0 1 5.9 3.53 11.94 11.94 0 0 1 4.08 9.11 14.61 14.61 0 0 1 -5.28 11.73q-5.57 4.56-14.11 4.56a25.17 25.17 0 0 1 -11.4-2.55 23.27 23.27 0 0 1 -8.4-7.04z" fill="#fff"/><path d="m1005.14 439v-8.25h7.39v-15.23h10.37v15.26h12.1v8.22h-12.09v23q0 3.85.22 5.87a8.41 8.41 0 0 0 1.08 3.46q1.49 2.65 5.28 2.65a11.31 11.31 0 0 0 2.62-.31 11 11 0 0 0 1.94-.6l.67-.29.63 8.18a3.7 3.7 0 0 1 -.48.19l-1.27.4q-1 .31-2 .52t-2.54.4a24.74 24.74 0 0 1 -3 .19q-7.33 0-10.92-5.28a13.59 13.59 0 0 1 -2.06-5.59 67.63 67.63 0 0 1 -.51-9.62v-23.17z" fill="#fff"/><path d="m1043.72 481.55v-50.91h10.37l-.1 8h.29a16.4 16.4 0 0 1 3.14-4.92 12.6 12.6 0 0 1 4.27-3 13.06 13.06 0 0 1 5.11-1 18.16 18.16 0 0 1 2.88.22 13.73 13.73 0 0 1 1.92.41l.58.17-.62 8.66h-6a9.29 9.29 0 0 0 -5.11 1.36 12.39 12.39 0 0 0 -3.29 2.89q-3.07 4.64-3.07 12.82v25.3z" fill="#fff"/><path d="m1080.3 418.52a6 6 0 0 1 -1.89-4.56 6 6 0 0 1 1.89-4.53 6.8 6.8 0 0 1 4.85-1.78 6.67 6.67 0 0 1 4.77 1.78 6 6 0 0 1 1.88 4.53 6 6 0 0 1 -1.88 4.56 6.61 6.61 0 0 1 -4.77 1.8 6.75 6.75 0 0 1 -4.85-1.8zm-.35 63v-50.88h10.37v50.91z" fill="#fff"/><path d="m1101.4 456.07a28.12 28.12 0 0 1 2.06-10.85 24.43 24.43 0 0 1 5.57-8.37 25 25 0 0 1 8.21-5.25 26.75 26.75 0 0 1 10-1.87 25.19 25.19 0 0 1 12.53 3.1 22 22 0 0 1 8.62 8.64 25.44 25.44 0 0 1 3.09 12.6q0 .86-.07 2t-.17 1.82v.67h-39.39q.38 7.45 4.85 11.71a16 16 0 0 0 11.56 4.27 26.83 26.83 0 0 0 4.5-.38 23.39 23.39 0 0 0 3.85-.95 34.34 34.34 0 0 0 3.22-1.33 22.92 22.92 0 0 0 2.5-1.33q.89-.57 1.8-1.19l1-.66 4.38 5.83a2.37 2.37 0 0 0 -.46.42q-.41.42-.92.86t-1.35 1.1a16.22 16.22 0 0 1 -1.9 1.28q-1.06.61-2.41 1.33a20.67 20.67 0 0 1 -3 1.28q-1.66.56-3.52 1a36.47 36.47 0 0 1 -4.17.71 41.33 41.33 0 0 1 -4.77.27 26.53 26.53 0 0 1 -13.27-3.26 22.56 22.56 0 0 1 -9-9.36 29.67 29.67 0 0 1 -3.34-14.09zm10.46-4.37h29.7a14 14 0 0 0 -.56-3.7 16.46 16.46 0 0 0 -4.53-7.39 12.76 12.76 0 0 0 -4.15-2.5 15.11 15.11 0 0 0 -5.47-1 15.7 15.7 0 0 0 -5.42.91 12.63 12.63 0 0 0 -4.17 2.42 16.84 16.84 0 0 0 -4.73 7.37 16 16 0 0 0 -.67 3.89z" fill="#fff"/><path d="m1158 455.34a29.4 29.4 0 0 1 1.29-8.87 23.47 23.47 0 0 1 3.59-7.16 24.49 24.49 0 0 1 5.36-5.24 22.48 22.48 0 0 1 6.7-3.27 26.4 26.4 0 0 1 7.56-1.08 21.69 21.69 0 0 1 10.77 2.56 19 19 0 0 1 7 6.46h.34l-.14-8.11h10.17v40.21a54.4 54.4 0 0 1 -1.35 13.39 21.43 21.43 0 0 1 -4.23 8.54 25.37 25.37 0 0 1 -3.41 3.5 29.45 29.45 0 0 1 -4.52 3 23.67 23.67 0 0 1 -6.46 2.35 38.65 38.65 0 0 1 -30.73-6.54 2.21 2.21 0 0 0 -.29-.19l4.85-7.14a32.08 32.08 0 0 0 18.17 6.45 20.12 20.12 0 0 0 8.6-1.63 14.66 14.66 0 0 0 5.33-4 15.83 15.83 0 0 0 2.76-5.67 30.25 30.25 0 0 0 1.08-8.55v-2.59h-.19a20.52 20.52 0 0 1 -7.26 6.63 21.46 21.46 0 0 1 -10.53 2.47 25.19 25.19 0 0 1 -9.35-1.75 24 24 0 0 1 -7.8-5 22.88 22.88 0 0 1 -5.36-8.1 28.38 28.38 0 0 1 -1.95-10.67zm12.21-8.76a21.71 21.71 0 0 0 0 17.54 14.57 14.57 0 0 0 5.6 6.22 16.31 16.31 0 0 0 8.79 2.33 16.12 16.12 0 0 0 8.84-2.35 14.74 14.74 0 0 0 5.53-6.2 20.15 20.15 0 0 0 1.83-8.75 20.7 20.7 0 0 0 -1.8-8.79 14.4 14.4 0 0 0 -5.55-6.25 17.69 17.69 0 0 0 -17.64 0 14.73 14.73 0 0 0 -5.57 6.25z" fill="#fff"/><path d="m1221.51 456.07a28.12 28.12 0 0 1 2.06-10.85 24.43 24.43 0 0 1 5.57-8.37 25 25 0 0 1 8.21-5.25 26.75 26.75 0 0 1 10-1.87 25.19 25.19 0 0 1 12.53 3.1 22 22 0 0 1 8.62 8.64 25.44 25.44 0 0 1 3.09 12.6q0 .86-.07 2t-.17 1.82v.67h-39.39q.38 7.45 4.85 11.71a16 16 0 0 0 11.56 4.27 26.83 26.83 0 0 0 4.5-.38 23.39 23.39 0 0 0 3.85-.95 34.34 34.34 0 0 0 3.22-1.33 22.92 22.92 0 0 0 2.5-1.33q.89-.57 1.8-1.19l1-.66 4.38 5.83a2.37 2.37 0 0 0 -.46.42q-.41.42-.92.86t-1.35 1.1a16.22 16.22 0 0 1 -1.9 1.28q-1.06.61-2.41 1.33a20.67 20.67 0 0 1 -3 1.28q-1.66.56-3.52 1a36.47 36.47 0 0 1 -4.17.71 41.33 41.33 0 0 1 -4.77.27 26.53 26.53 0 0 1 -13.27-3.26 22.56 22.56 0 0 1 -9-9.36 29.67 29.67 0 0 1 -3.34-14.09zm10.49-4.37h29.7a14 14 0 0 0 -.53-3.74 16.46 16.46 0 0 0 -4.53-7.39 12.76 12.76 0 0 0 -4.15-2.5 15.11 15.11 0 0 0 -5.47-1 15.7 15.7 0 0 0 -5.42.91 12.63 12.63 0 0 0 -4.17 2.42 16.84 16.84 0 0 0 -4.73 7.37 16 16 0 0 0 -.7 3.93z" fill="#fff"/><path d="m1276.64 473.2 4.89-5.76a21.37 21.37 0 0 0 15 7.06 16.09 16.09 0 0 0 3.53-.37 12.21 12.21 0 0 0 3.1-1.14 5.75 5.75 0 0 0 2.28-2.18 6.5 6.5 0 0 0 .84-3.37 5 5 0 0 0 -.43-2.07 5.06 5.06 0 0 0 -1.27-1.69 16.45 16.45 0 0 0 -1.7-1.32 11.59 11.59 0 0 0 -2.14-1.09q-1.27-.51-2.11-.81t-2.11-.67a17.72 17.72 0 0 1 -1.7-.56q-1-.28-2.16-.67l-1.78-.58c-.38-.12-.84-.29-1.37-.51a17.75 17.75 0 0 1 -1.66-.79q-8.06-3.95-8.06-11.85a14.49 14.49 0 0 1 1.42-6.47 13.38 13.38 0 0 1 3.81-4.75 17.73 17.73 0 0 1 5.47-2.86 20.87 20.87 0 0 1 6.48-1q11.23 0 17.37 7.3l-4.32 6.25a17.75 17.75 0 0 0 -3.53-2.69 19 19 0 0 0 -4.49-1.9 17.61 17.61 0 0 0 -4.85-.7 10 10 0 0 0 -6 1.56 5.28 5.28 0 0 0 -2.16 4.58 4.12 4.12 0 0 0 .6 2.16 6.79 6.79 0 0 0 1.42 1.7 10.31 10.31 0 0 0 2.3 1.39 26.73 26.73 0 0 0 2.64 1.09l3 1q4.27 1.39 6.86 2.37a17.7 17.7 0 0 1 5.9 3.53 11.94 11.94 0 0 1 4.08 9.11 14.61 14.61 0 0 1 -5.28 11.73q-5.57 4.56-14.11 4.56a25.17 25.17 0 0 1 -11.4-2.55 23.3 23.3 0 0 1 -8.36-7.04z" fill="#fff"/><path d="m1322.42 456.26a27.79 27.79 0 0 1 2.16-11 24.42 24.42 0 0 1 5.78-8.43 26.56 26.56 0 0 1 18.07-7.08 37.12 37.12 0 0 1 6.12.49 24.27 24.27 0 0 1 5 1.31q2.06.83 3.65 1.63a13.39 13.39 0 0 1 2.71 1.77q1.13 1 1.56 1.38a10.13 10.13 0 0 1 .72.75l-3.65 7.5-1.42-1.32a19.79 19.79 0 0 0 -2.09-1.56 17.1 17.1 0 0 0 -3-1.63 22.35 22.35 0 0 0 -3.81-1.13 23 23 0 0 0 -4.87-.5 16.52 16.52 0 0 0 -6.41 1.25 16.3 16.3 0 0 0 -5.25 3.48 16 16 0 0 0 -3.57 5.54 19.38 19.38 0 0 0 -1.32 7.25q0 8 4.63 13.08a15.53 15.53 0 0 0 12 5.06 21.6 21.6 0 0 0 5.4-.67 19.26 19.26 0 0 0 4.34-1.61 29.48 29.48 0 0 0 3.07-1.9 16.41 16.41 0 0 0 2-1.58l.62-.67 3.65 7.47-.34.29q-.86.9-1.56 1.52a24 24 0 0 1 -2.57 1.83 21.8 21.8 0 0 1 -3.86 2 30.12 30.12 0 0 1 -5.21 1.4 36.43 36.43 0 0 1 -6.86.62 26.15 26.15 0 0 1 -18-7.12 24 24 0 0 1 -5.61-8.39 28.4 28.4 0 0 1 -2.08-11.03z" fill="#fff"/><path d="m1377.17 481.55v-73.9h10.17v31h.19a16.92 16.92 0 0 1 6.23-6.45 17.72 17.72 0 0 1 9.45-2.52 23.21 23.21 0 0 1 7.5 1.1 14.65 14.65 0 0 1 5.25 3 13.85 13.85 0 0 1 3.26 4.65 22.58 22.58 0 0 1 1.7 5.88 47.55 47.55 0 0 1 .46 6.91v30.33h-10.18v-28.84a42.54 42.54 0 0 0 -.19-4.32 19 19 0 0 0 -.84-3.89 9.54 9.54 0 0 0 -1.76-3.31 8.37 8.37 0 0 0 -3.08-2.16 11.68 11.68 0 0 0 -4.71-.86 12.26 12.26 0 0 0 -6 1.42 11.28 11.28 0 0 0 -4.18 3.91 18.57 18.57 0 0 0 -2.36 5.73 31 31 0 0 0 -.77 7.17v25.15z" fill="#fff"/><path d="m1436 418.52a6 6 0 0 1 -1.89-4.56 6 6 0 0 1 1.89-4.53 6.8 6.8 0 0 1 4.85-1.78 6.67 6.67 0 0 1 4.77 1.78 6 6 0 0 1 1.88 4.53 6 6 0 0 1 -1.88 4.56 6.61 6.61 0 0 1 -4.77 1.8 6.75 6.75 0 0 1 -4.85-1.8zm-.35 63v-50.88h10.35v50.91z" fill="#fff"/><path d="m1457.12 456.26a27.79 27.79 0 0 1 2.16-11 24.42 24.42 0 0 1 5.78-8.43 26.56 26.56 0 0 1 18.07-7.08 37.12 37.12 0 0 1 6.12.49 24.27 24.27 0 0 1 5 1.31q2.06.83 3.65 1.63a13.39 13.39 0 0 1 2.71 1.77q1.13 1 1.56 1.38a10.13 10.13 0 0 1 .72.75l-3.65 7.5-1.42-1.32a19.79 19.79 0 0 0 -2.09-1.56 17.1 17.1 0 0 0 -3-1.63 22.35 22.35 0 0 0 -3.81-1.13 23 23 0 0 0 -4.87-.5 16.52 16.52 0 0 0 -6.41 1.25 16.3 16.3 0 0 0 -5.25 3.48 16 16 0 0 0 -3.57 5.54 19.38 19.38 0 0 0 -1.32 7.25q0 8 4.63 13.08a15.53 15.53 0 0 0 12 5.06 21.6 21.6 0 0 0 5.4-.67 19.26 19.26 0 0 0 4.34-1.61 29.48 29.48 0 0 0 3.07-1.9 16.41 16.41 0 0 0 2-1.58l.62-.67 3.65 7.47-.34.29q-.86.9-1.56 1.52a24 24 0 0 1 -2.57 1.83 21.8 21.8 0 0 1 -3.86 2 30.12 30.12 0 0 1 -5.21 1.4 36.43 36.43 0 0 1 -6.86.62 26.15 26.15 0 0 1 -18-7.12 24 24 0 0 1 -5.61-8.39 28.4 28.4 0 0 1 -2.08-11.03z" fill="#fff"/><path d="m1511.87 481.55v-73.9h10.13v31h.19a16.92 16.92 0 0 1 6.23-6.45 17.72 17.72 0 0 1 9.45-2.52 23.21 23.21 0 0 1 7.5 1.1 14.65 14.65 0 0 1 5.25 3 13.85 13.85 0 0 1 3.26 4.65 22.58 22.58 0 0 1 1.7 5.88 47.55 47.55 0 0 1 .46 6.91v30.33h-10.14v-28.84a42.54 42.54 0 0 0 -.19-4.32 19 19 0 0 0 -.84-3.89 9.54 9.54 0 0 0 -1.76-3.31 8.37 8.37 0 0 0 -3.11-2.19 11.68 11.68 0 0 0 -4.71-.86 12.26 12.26 0 0 0 -6 1.42 11.28 11.28 0 0 0 -4.18 3.91 18.57 18.57 0 0 0 -2.36 5.73 31 31 0 0 0 -.77 7.17v25.15z" fill="#fff"/><path d="m1564.66 439v-8.25h7.34v-15.23h10.37v15.26h12.09v8.22h-12.09v23q0 3.85.21 5.87a8.41 8.41 0 0 0 1.08 3.46q1.49 2.65 5.28 2.65a11.32 11.32 0 0 0 2.62-.31 11 11 0 0 0 1.94-.6l.67-.29.62 8.18a3.59 3.59 0 0 1 -.48.19l-1.27.4q-1 .31-2 .52t-2.54.4a24.79 24.79 0 0 1 -3 .19q-7.33 0-10.92-5.28a13.62 13.62 0 0 1 -2.06-5.59 68 68 0 0 1 -.51-9.62v-23.17z" fill="#fff"/><path d="m1598.87 456.07a28.12 28.12 0 0 1 2.06-10.85 24.49 24.49 0 0 1 5.57-8.37 25 25 0 0 1 8.21-5.25 26.74 26.74 0 0 1 10-1.87 25.2 25.2 0 0 1 12.53 3.1 22 22 0 0 1 8.62 8.64 25.42 25.42 0 0 1 3.09 12.6q0 .86-.07 2t-.17 1.82v.67h-39.39q.38 7.45 4.85 11.71a16 16 0 0 0 11.56 4.27 26.85 26.85 0 0 0 4.5-.38 23.44 23.44 0 0 0 3.85-.95 34.77 34.77 0 0 0 3.22-1.33 23 23 0 0 0 2.5-1.33q.89-.57 1.8-1.19t1-.66l4.38 5.83a2.44 2.44 0 0 0 -.46.42q-.41.42-.92.86t-1.35 1.1a16.22 16.22 0 0 1 -1.9 1.28q-1.06.61-2.41 1.33a20.67 20.67 0 0 1 -3 1.28q-1.66.56-3.52 1a36.54 36.54 0 0 1 -4.17.71 41.37 41.37 0 0 1 -4.77.27 26.52 26.52 0 0 1 -13.27-3.26 22.56 22.56 0 0 1 -9-9.36 29.69 29.69 0 0 1 -3.34-14.09zm10.46-4.37h29.67a14.1 14.1 0 0 0 -.53-3.74 16.44 16.44 0 0 0 -4.54-7.39 12.78 12.78 0 0 0 -4.15-2.5 15.12 15.12 0 0 0 -5.47-1 15.69 15.69 0 0 0 -5.42.91 12.64 12.64 0 0 0 -4.18 2.42 16.88 16.88 0 0 0 -4.73 7.37 16.05 16.05 0 0 0 -.65 3.93z" fill="#fff"/><path d="m1680.59 501.47v-70.83h9.88v8h.19a21.51 21.51 0 0 1 18.09-8.88 24.61 24.61 0 0 1 13.06 3.43 22.65 22.65 0 0 1 8.62 9.41 29.81 29.81 0 0 1 3 13.51 30.59 30.59 0 0 1 -1.78 10.56 25.94 25.94 0 0 1 -5 8.47 22.27 22.27 0 0 1 -7.85 5.61 25.39 25.39 0 0 1 -10.26 2 21.63 21.63 0 0 1 -10.32-2.35 19.4 19.4 0 0 1 -7.25-6.72l-.1-.1v27.88zm11.76-54.71a23.68 23.68 0 0 0 0 18.45 14.91 14.91 0 0 0 5.59 6.46 17 17 0 0 0 17.37 0 15.09 15.09 0 0 0 5.62-6.46 23.41 23.41 0 0 0 0-18.45 15 15 0 0 0 -5.62-6.42 17.14 17.14 0 0 0 -17.37 0 14.8 14.8 0 0 0 -5.59 6.42z" fill="#fff"/><path d="m1743.93 481.55v-50.91h10.37l-.1 8h.29a16.44 16.44 0 0 1 3.14-4.92 12.59 12.59 0 0 1 4.27-3 13.06 13.06 0 0 1 5.11-1 18.16 18.16 0 0 1 2.88.22 13.69 13.69 0 0 1 1.92.41l.58.17-.62 8.66h-6a9.3 9.3 0 0 0 -5.11 1.36 12.39 12.39 0 0 0 -3.29 2.89q-3.07 4.64-3.07 12.82v25.3z" fill="#fff"/><path d="m1780.52 418.52a6 6 0 0 1 -1.89-4.56 6 6 0 0 1 1.89-4.53 6.8 6.8 0 0 1 4.85-1.78 6.67 6.67 0 0 1 4.77 1.78 6 6 0 0 1 1.86 4.57 6 6 0 0 1 -1.88 4.56 6.61 6.61 0 0 1 -4.77 1.8 6.75 6.75 0 0 1 -4.83-1.84zm-.35 63v-50.88h10.37v50.91z" fill="#fff"/><path d="m1798.06 430.64h10.75l15.12 38.36 14.92-38.34h10.65l-21.21 50.91h-9z" fill="#fff"/><path d="m1852.33 467a13.62 13.62 0 0 1 2.54-8.3 15.34 15.34 0 0 1 7-5.18 32.9 32.9 0 0 1 10.41-2l13.58-.55v-1.97q0-5.35-3.43-8.18t-9.14-2.83a27.33 27.33 0 0 0 -6.91.93 35.83 35.83 0 0 0 -5.3 1.72q-1.75.79-3.14 1.58l-3.12-7.11a37.35 37.35 0 0 1 24.79-5 23.73 23.73 0 0 1 4.61 1.18 18 18 0 0 1 3.6 1.8 18.68 18.68 0 0 1 2.9 2.38 17.91 17.91 0 0 1 4.13 6.57 30.13 30.13 0 0 1 1.34 9.93v29.56h-10l-.1-6.43-.24.24q-1 1.06-1.68 1.7a25.62 25.62 0 0 1 -2.28 1.85 19.54 19.54 0 0 1 -3.14 1.94 19.77 19.77 0 0 1 -3.91 1.32 20.82 20.82 0 0 1 -4.92.58 20.27 20.27 0 0 1 -6.72-1.1 18.07 18.07 0 0 1 -5.59-3.1 14.17 14.17 0 0 1 -3.84-5 15.27 15.27 0 0 1 -1.44-6.53zm10.17-.34a8.3 8.3 0 0 0 1.2 4.42 8.52 8.52 0 0 0 3.62 3.17 12.67 12.67 0 0 0 5.69 1.2 14.18 14.18 0 0 0 4.51-.72 13.64 13.64 0 0 0 3.77-1.9 20.66 20.66 0 0 0 2.71-2.33 19.65 19.65 0 0 0 2-2.4v-10.97l-11.9.72q-5.9.29-8.73 2.64a7.6 7.6 0 0 0 -2.86 6.14z" fill="#fff"/><path d="m1903.92 439v-8.25h7.39v-15.23h10.37v15.26h12.09v8.22h-12.09v23q0 3.85.22 5.87a8.41 8.41 0 0 0 1.08 3.46q1.49 2.65 5.28 2.65a11.31 11.31 0 0 0 2.62-.31 11 11 0 0 0 1.94-.6l.67-.29.63 8.18a3.7 3.7 0 0 1 -.48.19l-1.27.4q-1 .31-2 .52t-2.54.4a24.74 24.74 0 0 1 -3 .19q-7.33 0-10.92-5.28a13.59 13.59 0 0 1 -2.06-5.59 67.63 67.63 0 0 1 -.51-9.62v-23.17z" fill="#fff"/><path d="m1944.42 436.59a7.37 7.37 0 0 1 .52-2.81 6.27 6.27 0 0 1 1.4-2.14 6.18 6.18 0 0 1 2.12-1.34 7.51 7.51 0 0 1 2.73-.48 6.49 6.49 0 0 1 4.76 1.85 7.34 7.34 0 0 1 0 9.79 6.49 6.49 0 0 1 -4.76 1.85 6.68 6.68 0 0 1 -4.87-1.85 6.49 6.49 0 0 1 -1.9-4.87zm0 39.4a7.14 7.14 0 0 1 .88-3.58 6 6 0 0 1 2.39-2.37 7.24 7.24 0 0 1 3.49-.82 6.47 6.47 0 0 1 4.78 1.85 6.65 6.65 0 0 1 1.85 4.92 6.42 6.42 0 0 1 -1.85 4.82 6.56 6.56 0 0 1 -4.78 1.8 6.76 6.76 0 0 1 -4.89-1.8 6.38 6.38 0 0 1 -1.87-4.81z" fill="#fff"/><path d="m761.61 599.48v-73.9h22.25a44.14 44.14 0 0 1 16 2.74 36.34 36.34 0 0 1 11.58 6.87 37.51 37.51 0 0 1 4.08 4.49 39 39 0 0 1 3.62 5.79 32.44 32.44 0 0 1 2.76 7.76 43.68 43.68 0 0 1 0 18.66 31.8 31.8 0 0 1 -2.76 7.74 40.53 40.53 0 0 1 -3.62 5.77 33.87 33.87 0 0 1 -4.08 4.46 35.86 35.86 0 0 1 -11.58 6.9 44.27 44.27 0 0 1 -16 2.73zm10.39-8.87h11.9a32.34 32.34 0 0 0 11.42-1.87 23.92 23.92 0 0 0 8.25-5q8.78-8.36 8.78-21.2t-8.78-21.2a22.72 22.72 0 0 0 -3.55-2.72 25.8 25.8 0 0 0 -4.42-2.16 29.63 29.63 0 0 0 -5.42-1.47 35.9 35.9 0 0 0 -6.29-.53h-11.89z" fill="#fff"/><path d="m834.66 536.45a6 6 0 0 1 -1.89-4.56 6 6 0 0 1 1.89-4.53 6.8 6.8 0 0 1 4.85-1.78 6.67 6.67 0 0 1 4.77 1.78 6 6 0 0 1 1.88 4.53 6 6 0 0 1 -1.88 4.56 6.61 6.61 0 0 1 -4.77 1.8 6.75 6.75 0 0 1 -4.85-1.8zm-.35 63v-50.88h10.37v50.91z" fill="#fff"/><path d="m855.76 574a28.12 28.12 0 0 1 2.06-10.85 24.49 24.49 0 0 1 5.57-8.37 25 25 0 0 1 8.21-5.25 26.74 26.74 0 0 1 10-1.87 25.2 25.2 0 0 1 12.53 3.1 22 22 0 0 1 8.62 8.64 25.42 25.42 0 0 1 3.09 12.6q0 .86-.07 2t-.17 1.82v.67h-39.48q.38 7.45 4.85 11.71a16 16 0 0 0 11.56 4.27 26.85 26.85 0 0 0 4.47-.47 23.44 23.44 0 0 0 3.85-.95 34.77 34.77 0 0 0 3.22-1.33 23 23 0 0 0 2.5-1.33q.89-.57 1.8-1.19t1-.66l4.38 5.83a2.44 2.44 0 0 0 -.46.42q-.41.42-.92.86t-1.35 1.1a16.22 16.22 0 0 1 -1.9 1.28q-1.06.61-2.41 1.33a20.67 20.67 0 0 1 -3 1.28q-1.66.56-3.52 1a36.54 36.54 0 0 1 -4.17.71 41.37 41.37 0 0 1 -4.77.27 26.52 26.52 0 0 1 -13.25-3.2 22.56 22.56 0 0 1 -9-9.36 29.69 29.69 0 0 1 -3.24-14.06zm10.46-4.37h29.7a14.1 14.1 0 0 0 -.53-3.74 16.44 16.44 0 0 0 -4.54-7.39 12.78 12.78 0 0 0 -4.15-2.5 15.12 15.12 0 0 0 -5.47-1 15.69 15.69 0 0 0 -5.42.91 12.64 12.64 0 0 0 -4.18 2.42 16.88 16.88 0 0 0 -4.73 7.37 16.05 16.05 0 0 0 -.68 3.94z" fill="#fff"/><path d="m938.15 599.48v-73.9h41v8.69h-30.64v24.62h28.79v8.69h-28.79v31.91z" fill="#fff"/><path d="m983.16 584.9a13.62 13.62 0 0 1 2.54-8.3 15.34 15.34 0 0 1 7-5.18 32.9 32.9 0 0 1 10.41-2l13.58-.55v-1.92q0-5.35-3.43-8.18t-9.14-2.83a27.33 27.33 0 0 0 -6.91.93 35.83 35.83 0 0 0 -5.3 1.72q-1.75.79-3.14 1.58l-3.16-7.17a37.35 37.35 0 0 1 24.79-5 23.73 23.73 0 0 1 4.61 1.18 18 18 0 0 1 3.6 1.8 18.68 18.68 0 0 1 2.9 2.38 17.91 17.91 0 0 1 4.13 6.57 30.13 30.13 0 0 1 1.34 9.93v29.56h-10l-.1-6.43-.24.24q-1 1.06-1.68 1.7a25.62 25.62 0 0 1 -2.28 1.85 19.54 19.54 0 0 1 -3.14 1.94 19.77 19.77 0 0 1 -3.91 1.32 20.82 20.82 0 0 1 -4.92.58 20.27 20.27 0 0 1 -6.72-1.1 18.07 18.07 0 0 1 -5.59-3.1 14.17 14.17 0 0 1 -3.84-5 15.27 15.27 0 0 1 -1.4-6.52zm10.17-.34a8.3 8.3 0 0 0 1.2 4.42 8.52 8.52 0 0 0 3.62 3.17 12.67 12.67 0 0 0 5.69 1.2 14.18 14.18 0 0 0 4.51-.72 13.64 13.64 0 0 0 3.77-1.9 20.66 20.66 0 0 0 2.71-2.33 19.65 19.65 0 0 0 2-2.4v-10.94l-11.9.72q-5.9.29-8.73 2.64a7.6 7.6 0 0 0 -2.87 6.14z" fill="#fff"/><path d="m1040.07 599.48v-50.91h10.37l-.1 8.06h.29a16.83 16.83 0 0 1 5.87-6.36 15.5 15.5 0 0 1 8.74-2.62 17.09 17.09 0 0 1 9.57 2.54 14.25 14.25 0 0 1 5.61 7.49 19.69 19.69 0 0 1 6.74-7.44 17.25 17.25 0 0 1 9.42-2.59 20.27 20.27 0 0 1 7 1.13 13.37 13.37 0 0 1 5 3 15.65 15.65 0 0 1 3.13 4.65 22.83 22.83 0 0 1 1.71 5.69 40.27 40.27 0 0 1 .48 6.45v30.85h-10.2v-29.59a33.61 33.61 0 0 0 -.19-3.72 21.68 21.68 0 0 0 -.77-3.65 10.38 10.38 0 0 0 -1.56-3.26 7.63 7.63 0 0 0 -2.73-2.21 9 9 0 0 0 -4.14-.89 10.06 10.06 0 0 0 -6.73 2.38 13.89 13.89 0 0 0 -4.12 6.12 25.22 25.22 0 0 0 -1.32 8.4v26.49h-10.37v-29.66a35.45 35.45 0 0 0 -.24-4.32 17.3 17.3 0 0 0 -.89-3.72 10.07 10.07 0 0 0 -1.65-3 7 7 0 0 0 -2.63-1.94 9.28 9.28 0 0 0 -3.78-.72 10.15 10.15 0 0 0 -6.75 2.38 13.61 13.61 0 0 0 -4.12 6.12 25.64 25.64 0 0 0 -1.29 8.4v26.49z" fill="#fff"/><path d="m1128.19 536.45a6 6 0 0 1 -1.89-4.56 6 6 0 0 1 1.89-4.53 6.8 6.8 0 0 1 4.85-1.78 6.67 6.67 0 0 1 4.77 1.78 6 6 0 0 1 1.88 4.53 6 6 0 0 1 -1.88 4.56 6.61 6.61 0 0 1 -4.77 1.8 6.75 6.75 0 0 1 -4.85-1.8zm-.35 63v-50.88h10.37v50.91z" fill="#fff"/><path d="m1153.22 599.48v-73.9h10.17v73.9z" fill="#fff"/><path d="m1178.77 536.45a6 6 0 0 1 -1.89-4.56 6 6 0 0 1 1.89-4.53 6.8 6.8 0 0 1 4.85-1.78 6.67 6.67 0 0 1 4.77 1.78 6 6 0 0 1 1.88 4.53 6 6 0 0 1 -1.88 4.56 6.61 6.61 0 0 1 -4.77 1.8 6.75 6.75 0 0 1 -4.85-1.8zm-.35 63v-50.88h10.37v50.91z" fill="#fff"/><path d="m1199.87 574a28.12 28.12 0 0 1 2.06-10.85 24.49 24.49 0 0 1 5.57-8.37 25 25 0 0 1 8.21-5.25 26.74 26.74 0 0 1 10-1.87 25.2 25.2 0 0 1 12.53 3.1 22 22 0 0 1 8.62 8.64 25.42 25.42 0 0 1 3.09 12.6q0 .86-.07 2t-.17 1.82v.67h-39.39q.38 7.45 4.85 11.71a16 16 0 0 0 11.56 4.27 26.85 26.85 0 0 0 4.5-.38 23.44 23.44 0 0 0 3.85-.95 34.77 34.77 0 0 0 3.22-1.33 23 23 0 0 0 2.5-1.33q.89-.57 1.8-1.19t1-.66l4.38 5.83a2.44 2.44 0 0 0 -.46.42q-.41.42-.92.86t-1.35 1.1a16.22 16.22 0 0 1 -1.9 1.28q-1.06.61-2.41 1.33a20.67 20.67 0 0 1 -3 1.28q-1.66.56-3.52 1a36.54 36.54 0 0 1 -4.17.71 41.37 41.37 0 0 1 -4.77.27 26.52 26.52 0 0 1 -13.27-3.26 22.56 22.56 0 0 1 -9-9.36 29.69 29.69 0 0 1 -3.34-14.09zm10.46-4.37h29.67a14.1 14.1 0 0 0 -.53-3.74 16.44 16.44 0 0 0 -4.54-7.39 12.78 12.78 0 0 0 -4.15-2.5 15.12 15.12 0 0 0 -5.47-1 15.69 15.69 0 0 0 -5.42.91 12.64 12.64 0 0 0 -4.18 2.42 16.88 16.88 0 0 0 -4.73 7.37 16.05 16.05 0 0 0 -.65 3.94z" fill="#fff"/><path d="m1282.26 599.48v-73.9h43.24v8.69h-32.87v22.07h31v8.66h-31v25.8h33.73v8.69z" fill="#fff"/><path d="m1338 599.48v-50.91h10.37l-.1 8.06h.29a16.66 16.66 0 0 1 6.18-6.48 17.51 17.51 0 0 1 9.34-2.5 23.09 23.09 0 0 1 7.47 1.1 14.36 14.36 0 0 1 5.25 3 14.61 14.61 0 0 1 3.3 4.73 22.87 22.87 0 0 1 1.76 6 45.68 45.68 0 0 1 .48 7v30.09h-10.37v-28.49a43 43 0 0 0 -.24-4.89 20.91 20.91 0 0 0 -.88-4.06 8.66 8.66 0 0 0 -1.79-3.24 8.29 8.29 0 0 0 -3.07-2 12.36 12.36 0 0 0 -4.6-.77 13.73 13.73 0 0 0 -3.69.48 10.81 10.81 0 0 0 -3 1.34 10.68 10.68 0 0 0 -2.37 2.14 14.41 14.41 0 0 0 -1.8 2.76 17.32 17.32 0 0 0 -1.22 3.29 25.41 25.41 0 0 0 -.7 3.74 37.07 37.07 0 0 0 -.21 4.05v25.58z" fill="#fff"/><path d="m1392.43 573.27a29.4 29.4 0 0 1 1.29-8.87 23.52 23.52 0 0 1 3.59-7.16 24.5 24.5 0 0 1 5.36-5.24 22.48 22.48 0 0 1 6.7-3.27 26.4 26.4 0 0 1 7.56-1.08 21.69 21.69 0 0 1 10.77 2.56 19.06 19.06 0 0 1 7 6.46h.34l-.14-8.11h10.17v40.21a54.31 54.31 0 0 1 -1.35 13.39 21.41 21.41 0 0 1 -4.23 8.54 25.37 25.37 0 0 1 -3.41 3.5 29.35 29.35 0 0 1 -4.52 3 23.65 23.65 0 0 1 -6.46 2.35 38.65 38.65 0 0 1 -30.73-6.54 2.22 2.22 0 0 0 -.29-.19l4.85-7.14a32.09 32.09 0 0 0 18.17 6.45 20.12 20.12 0 0 0 8.6-1.63 14.68 14.68 0 0 0 5.33-4 15.86 15.86 0 0 0 2.76-5.67 30.25 30.25 0 0 0 1.08-8.55v-2.59h-.19a20.51 20.51 0 0 1 -7.26 6.63 21.46 21.46 0 0 1 -10.53 2.47 25.2 25.2 0 0 1 -9.35-1.75 24 24 0 0 1 -7.8-5 22.86 22.86 0 0 1 -5.36-8.1 28.38 28.38 0 0 1 -1.95-10.67zm12.21-8.76a21.71 21.71 0 0 0 0 17.54 14.57 14.57 0 0 0 5.6 6.22 16.32 16.32 0 0 0 8.79 2.33 16.12 16.12 0 0 0 8.84-2.35 14.72 14.72 0 0 0 5.53-6.2 20.12 20.12 0 0 0 1.83-8.75 20.7 20.7 0 0 0 -1.8-8.79 14.42 14.42 0 0 0 -5.55-6.25 17.69 17.69 0 0 0 -17.64 0 14.72 14.72 0 0 0 -5.59 6.25z" fill="#fff"/><path d="m1455.92 574a28.12 28.12 0 0 1 2.06-10.85 24.49 24.49 0 0 1 5.57-8.37 25 25 0 0 1 8.21-5.25 26.74 26.74 0 0 1 10-1.87 25.2 25.2 0 0 1 12.53 3.1 22 22 0 0 1 8.62 8.64 25.42 25.42 0 0 1 3.09 12.6q0 .86-.07 2t-.17 1.82v.67h-39.39q.38 7.45 4.85 11.71a16 16 0 0 0 11.56 4.27 26.85 26.85 0 0 0 4.5-.38 23.44 23.44 0 0 0 3.85-.95 34.77 34.77 0 0 0 3.22-1.33 23 23 0 0 0 2.5-1.33q.89-.57 1.8-1.19t1-.66l4.38 5.83a2.44 2.44 0 0 0 -.46.42q-.41.42-.92.86t-1.35 1.1a16.22 16.22 0 0 1 -1.9 1.28q-1.06.61-2.41 1.33a20.67 20.67 0 0 1 -3 1.28q-1.66.56-3.52 1a36.54 36.54 0 0 1 -4.17.71 41.37 41.37 0 0 1 -4.77.27 26.52 26.52 0 0 1 -13.27-3.26 22.56 22.56 0 0 1 -9-9.36 29.69 29.69 0 0 1 -3.34-14.09zm10.46-4.37h29.7a14.1 14.1 0 0 0 -.53-3.74 16.44 16.44 0 0 0 -4.54-7.39 12.78 12.78 0 0 0 -4.15-2.5 15.12 15.12 0 0 0 -5.47-1 15.69 15.69 0 0 0 -5.42.91 12.64 12.64 0 0 0 -4.18 2.42 16.88 16.88 0 0 0 -4.73 7.37 16.05 16.05 0 0 0 -.68 3.94z" fill="#fff"/><path d="m1516.48 599.48v-73.9h10.17v73.9z" fill="#fff"/><path d="m1536.39 591.13 4.89-5.76a21.36 21.36 0 0 0 15 7.06 16.09 16.09 0 0 0 3.53-.37 12.2 12.2 0 0 0 3.09-1.14 5.74 5.74 0 0 0 2.28-2.18 6.5 6.5 0 0 0 .84-3.37 4.93 4.93 0 0 0 -.43-2.07 5 5 0 0 0 -1.27-1.69 16 16 0 0 0 -1.7-1.32 11.57 11.57 0 0 0 -2.13-1.09q-1.27-.51-2.11-.81t-2.11-.67q-1.27-.37-1.71-.56-1-.28-2.16-.67l-1.78-.58q-.58-.19-1.37-.51a17.52 17.52 0 0 1 -1.66-.79q-8.06-3.95-8.06-11.85a14.51 14.51 0 0 1 1.42-6.47 13.38 13.38 0 0 1 3.81-4.75 17.75 17.75 0 0 1 5.47-2.86 20.88 20.88 0 0 1 6.48-1q11.23 0 17.37 7.3l-4.32 6.25a17.77 17.77 0 0 0 -3.53-2.69 19 19 0 0 0 -4.49-1.9 17.64 17.64 0 0 0 -4.85-.7 10 10 0 0 0 -5.95 1.56 5.28 5.28 0 0 0 -2.16 4.58 4.12 4.12 0 0 0 .6 2.16 6.83 6.83 0 0 0 1.42 1.7 10.35 10.35 0 0 0 2.3 1.39 26.94 26.94 0 0 0 2.64 1.09l3 1q4.27 1.39 6.86 2.37a17.7 17.7 0 0 1 5.9 3.53 11.94 11.94 0 0 1 4.08 9.11 14.61 14.61 0 0 1 -5.28 11.73q-5.57 4.56-14.11 4.56a25.17 25.17 0 0 1 -11.4-2.55 23.27 23.27 0 0 1 -8.4-7.04z" fill="#fff"/><path d="m1607.58 536.45a6 6 0 0 1 -1.89-4.56 6 6 0 0 1 1.89-4.53 6.8 6.8 0 0 1 4.85-1.78 6.67 6.67 0 0 1 4.77 1.78 6 6 0 0 1 1.88 4.53 6 6 0 0 1 -1.88 4.56 6.61 6.61 0 0 1 -4.77 1.8 6.75 6.75 0 0 1 -4.85-1.8zm-.35 63v-50.88h10.37v50.91z" fill="#fff"/><path d="m1632.08 599.48v-50.91h10.37l-.1 8.06h.29a16.66 16.66 0 0 1 6.18-6.48 17.51 17.51 0 0 1 9.34-2.5 23.09 23.09 0 0 1 7.47 1.1 14.36 14.36 0 0 1 5.25 3 14.61 14.61 0 0 1 3.3 4.73 22.87 22.87 0 0 1 1.76 6 45.68 45.68 0 0 1 .48 7v30.09h-10.37v-28.49a43 43 0 0 0 -.24-4.89 20.91 20.91 0 0 0 -.88-4.06 8.66 8.66 0 0 0 -1.79-3.24 8.29 8.29 0 0 0 -3.07-2 12.36 12.36 0 0 0 -4.6-.77 13.73 13.73 0 0 0 -3.69.48 10.81 10.81 0 0 0 -3 1.34 10.68 10.68 0 0 0 -2.37 2.14 14.41 14.41 0 0 0 -1.8 2.76 17.32 17.32 0 0 0 -1.22 3.29 25.41 25.41 0 0 0 -.7 3.74 37.07 37.07 0 0 0 -.21 4.05v25.58z" fill="#fff"/><path d="m1712.31 599.48v-73.9h19.89a61.4 61.4 0 0 1 10.14.72 19.34 19.34 0 0 1 7.36 2.76q8 5.05 8 14.92a16.92 16.92 0 0 1 -3.2 10.14 15.28 15.28 0 0 1 -8 5.93v.3a24.34 24.34 0 0 1 8.61 3.42 17 17 0 0 1 5.67 6.16 17.82 17.82 0 0 1 2 8.61 20.88 20.88 0 0 1 -1.06 6.78 18.25 18.25 0 0 1 -2.71 5.25 23.59 23.59 0 0 1 -4.15 4.12 19.71 19.71 0 0 1 -7.77 3.71 47 47 0 0 1 -10.88 1.08zm10.37-42.48h8.69a40.21 40.21 0 0 0 6.69-.45 10.38 10.38 0 0 0 4.34-1.73 17.21 17.21 0 0 0 2.4-2.16 10 10 0 0 0 1.73-3 12.15 12.15 0 0 0 .77-4.43q0-6.68-4.89-9.38a15.21 15.21 0 0 0 -2.78-1.14 18.2 18.2 0 0 0 -3.17-.62 39.71 39.71 0 0 0 -4.22-.19h-9.55zm0 34.07h11.13q3 0 4.77-.1a21.73 21.73 0 0 0 4.15-.7 12.54 12.54 0 0 0 4-1.75 12.14 12.14 0 0 0 4.1-4.4 12.87 12.87 0 0 0 1.32-6 12 12 0 0 0 -1.32-5.87 12.51 12.51 0 0 0 -4.1-4.28 13.47 13.47 0 0 0 -5.52-2.19 46.86 46.86 0 0 0 -7.44-.5h-11.13z" fill="#fff"/><path d="m1774.07 599.48v-50.91h10.37l-.1 8h.29a16.44 16.44 0 0 1 3.14-4.92 12.59 12.59 0 0 1 4.27-3 13.06 13.06 0 0 1 5.11-1 18.16 18.16 0 0 1 2.88.22 13.69 13.69 0 0 1 1.92.41l.58.17-.62 8.66h-6a9.3 9.3 0 0 0 -5.11 1.36 12.39 12.39 0 0 0 -3.29 2.89q-3.07 4.64-3.07 12.82v25.3z" fill="#fff"/><path d="m1810.65 536.45a6 6 0 0 1 -1.89-4.56 6 6 0 0 1 1.89-4.53 6.8 6.8 0 0 1 4.85-1.78 6.67 6.67 0 0 1 4.77 1.78 6 6 0 0 1 1.88 4.53 6 6 0 0 1 -1.88 4.56 6.61 6.61 0 0 1 -4.77 1.8 6.75 6.75 0 0 1 -4.85-1.8zm-.35 63v-50.88h10.37v50.91z" fill="#fff"/><path d="m1831.75 574a28.12 28.12 0 0 1 2.06-10.85 24.49 24.49 0 0 1 5.57-8.37 25 25 0 0 1 8.21-5.25 26.74 26.74 0 0 1 10-1.87 25.2 25.2 0 0 1 12.53 3.1 22 22 0 0 1 8.62 8.64 25.42 25.42 0 0 1 3.09 12.6q0 .86-.07 2t-.17 1.82v.67h-39.39q.38 7.45 4.85 11.71a16 16 0 0 0 11.56 4.27 26.85 26.85 0 0 0 4.5-.38 23.44 23.44 0 0 0 3.85-.95 34.77 34.77 0 0 0 3.22-1.33 23 23 0 0 0 2.5-1.33q.89-.57 1.8-1.19t1-.66l4.38 5.83a2.44 2.44 0 0 0 -.46.42q-.41.42-.92.86t-1.35 1.1a16.22 16.22 0 0 1 -1.9 1.28q-1.06.61-2.41 1.33a20.67 20.67 0 0 1 -3 1.28q-1.66.56-3.52 1a36.54 36.54 0 0 1 -4.17.71 41.37 41.37 0 0 1 -4.77.27 26.52 26.52 0 0 1 -13.27-3.26 22.56 22.56 0 0 1 -9-9.36 29.69 29.69 0 0 1 -3.34-14.09zm10.46-4.37h29.7a14.1 14.1 0 0 0 -.53-3.74 16.44 16.44 0 0 0 -4.54-7.39 12.78 12.78 0 0 0 -4.15-2.5 15.12 15.12 0 0 0 -5.47-1 15.69 15.69 0 0 0 -5.42.91 12.64 12.64 0 0 0 -4.18 2.42 16.88 16.88 0 0 0 -4.73 7.37 16.05 16.05 0 0 0 -.68 3.94z" fill="#fff"/><path d="m1886.41 557v-8.25h7.29v-5.13q0-9.31 3.44-13.63a15.67 15.67 0 0 1 5-4 15.32 15.32 0 0 1 7.14-1.58 37.65 37.65 0 0 1 4.85.29 15 15 0 0 1 3.07.62l.91.3-.67 8a19.45 19.45 0 0 0 -5.81-.91 8.89 8.89 0 0 0 -3.36.58 6.21 6.21 0 0 0 -2.28 1.5 6.39 6.39 0 0 0 -1.32 2.34 14 14 0 0 0 -.65 2.85 28.64 28.64 0 0 0 -.17 3.29v5.51h12.15v8.22h-12.14v42.52h-10.16v-42.52z" fill="#fff"/><path d="m1917.5 574a28.12 28.12 0 0 1 2.06-10.85 24.43 24.43 0 0 1 5.57-8.37 25 25 0 0 1 8.21-5.25 26.75 26.75 0 0 1 10-1.87 25.19 25.19 0 0 1 12.53 3.1 22 22 0 0 1 8.62 8.64 25.44 25.44 0 0 1 3.09 12.6q0 .86-.07 2t-.17 1.82v.67h-39.39q.38 7.45 4.85 11.71a16 16 0 0 0 11.56 4.27 26.83 26.83 0 0 0 4.5-.38 23.39 23.39 0 0 0 3.85-.95 34.34 34.34 0 0 0 3.22-1.33 22.92 22.92 0 0 0 2.5-1.33q.89-.57 1.8-1.19l1-.66 4.38 5.83a2.37 2.37 0 0 0 -.46.42q-.41.42-.92.86t-1.35 1.1a16.22 16.22 0 0 1 -1.9 1.28q-1.06.61-2.41 1.33a20.67 20.67 0 0 1 -3 1.28q-1.66.56-3.52 1a36.47 36.47 0 0 1 -4.17.71 41.33 41.33 0 0 1 -4.77.27 26.53 26.53 0 0 1 -13.27-3.26 22.56 22.56 0 0 1 -9-9.36 29.67 29.67 0 0 1 -3.34-14.09zm10.46-4.37h29.7a14 14 0 0 0 -.53-3.74 16.46 16.46 0 0 0 -4.53-7.39 12.76 12.76 0 0 0 -4.15-2.5 15.11 15.11 0 0 0 -5.47-1 15.7 15.7 0 0 0 -5.42.91 12.63 12.63 0 0 0 -4.17 2.42 16.84 16.84 0 0 0 -4.73 7.37 16 16 0 0 0 -.66 3.94z" fill="#fff"/><path d="m1977.53 599.48v-50.91h10.37l-.1 8.06h.29a16.66 16.66 0 0 1 6.18-6.48 17.51 17.51 0 0 1 9.34-2.5 23.09 23.09 0 0 1 7.47 1.1 14.36 14.36 0 0 1 5.25 3 14.61 14.61 0 0 1 3.3 4.73 22.87 22.87 0 0 1 1.76 6 45.68 45.68 0 0 1 .48 7v30.09h-10.37v-28.49a43 43 0 0 0 -.24-4.89 20.91 20.91 0 0 0 -.88-4.06 8.66 8.66 0 0 0 -1.79-3.24 8.29 8.29 0 0 0 -3.07-2 12.36 12.36 0 0 0 -4.6-.77 13.73 13.73 0 0 0 -3.69.48 10.81 10.81 0 0 0 -3 1.34 10.68 10.68 0 0 0 -2.37 2.14 14.41 14.41 0 0 0 -1.8 2.76 17.32 17.32 0 0 0 -1.22 3.29 25.41 25.41 0 0 0 -.7 3.74 37.07 37.07 0 0 0 -.21 4.05v25.58z" fill="#fff"/><path d="m2054.84 566.16q0-25.65 15.64-49.16l6.53 3.55a59.67 59.67 0 0 0 -4.27 8 111.57 111.57 0 0 0 -4.15 10.7 90.13 90.13 0 0 0 -3.24 13.1 77.41 77.41 0 0 0 0 27.69 91 91 0 0 0 3.24 13.12 110.52 110.52 0 0 0 4.15 10.73 59.67 59.67 0 0 0 4.27 8l-6.53 3.5q-15.64-23.58-15.64-49.23z" fill="#fff"/><path d="m2086.65 533.84v-8.25h24.57v73.9h-10.22v-65.65z" fill="#fff"/><path d="m2133.05 533.84v-8.25h50.34l2.83 5.93-35.61 68h-10.94l35-65.65z" fill="#fff"/><path d="m2192.41 550.1a28.4 28.4 0 0 1 1.76-10 24.1 24.1 0 0 1 5-8.14 22.91 22.91 0 0 1 8-5.44 26.87 26.87 0 0 1 10.49-2q14.57 0 22.31 12.77a34.73 34.73 0 0 1 3.63 9.55 61.64 61.64 0 0 1 1.48 14.55 57.76 57.76 0 0 1 -2.34 17.07 38.64 38.64 0 0 1 -6.26 12.57q-7.79 9.78-20.83 9.78a37.6 37.6 0 0 1 -5.22-.35 43 43 0 0 1 -4.33-.81 23.08 23.08 0 0 1 -3.78-1.33q-2-.88-2.91-1.35a20 20 0 0 1 -2.43-1.54q-1.49-1.07-1.66-1.21l-1.14-.95 4.41-6.76a23.75 23.75 0 0 0 7.13 4.23 25.52 25.52 0 0 0 9.68 1.82 19 19 0 0 0 5.61-.77 13.66 13.66 0 0 0 4.38-2.24 19.4 19.4 0 0 0 3.62-3.78q6.18-8.18 6.18-24a18.52 18.52 0 0 1 -2.56 4 21.49 21.49 0 0 1 -3.93 3.57 19.1 19.1 0 0 1 -5.85 2.73 27.14 27.14 0 0 1 -7.64 1 23 23 0 0 1 -8.47-1.6 23.38 23.38 0 0 1 -7.27-4.5 21.16 21.16 0 0 1 -5.1-7.29 23.69 23.69 0 0 1 -1.96-9.58zm10.17-1.29a18.35 18.35 0 0 0 1 6 16.52 16.52 0 0 0 2.83 5.13 12.73 12.73 0 0 0 4.79 3.58 16.16 16.16 0 0 0 6.64 1.31 16.79 16.79 0 0 0 6.76-1.31 12.82 12.82 0 0 0 4.89-3.58 16.69 16.69 0 0 0 2.88-5.13 18.6 18.6 0 0 0 0-12.07 16.41 16.41 0 0 0 -2.87-5.1 13.17 13.17 0 0 0 -4.89-3.58 16.52 16.52 0 0 0 -6.76-1.34 16.91 16.91 0 0 0 -5.49.86 12.9 12.9 0 0 0 -4.36 2.42 14.87 14.87 0 0 0 -3 3.58 16.1 16.1 0 0 0 -1.84 4.39 19.47 19.47 0 0 0 -.57 4.84z" fill="#fff"/><path d="m2257.34 533.84v-8.25h24.57v73.9h-10.17v-65.65z" fill="#fff"/><path d="m2297.31 574.24v-8.24h49.47v8.25z" fill="#fff"/><path d="m2353.46 533.84v-8.25h24.54v73.9h-10.17v-65.65z" fill="#fff"/><path d="m2399.43 579.09a19 19 0 0 1 3.74-11.89 19.87 19.87 0 0 1 10.08-6.9v-.42a25.18 25.18 0 0 1 -3.1-1.36 18.38 18.38 0 0 1 -3.07-2.12 14.72 14.72 0 0 1 -2.81-3.05 15.41 15.41 0 0 1 -1.91-4.25 19.68 19.68 0 0 1 -.78-5.68 17.22 17.22 0 0 1 6.95-14 23.94 23.94 0 0 1 7.38-3.65 31.62 31.62 0 0 1 17.8 0 24 24 0 0 1 7.38 3.65 17.21 17.21 0 0 1 6.95 14 19.71 19.71 0 0 1 -.77 5.68 16.34 16.34 0 0 1 -1.89 4.27 14.21 14.21 0 0 1 -2.76 3.08 18.74 18.74 0 0 1 -3 2.15 28.05 28.05 0 0 1 -3.1 1.43v.26a22.41 22.41 0 0 1 5.63 2.77 19.88 19.88 0 0 1 4.4 4.09 17.55 17.55 0 0 1 2.88 5.38 20.52 20.52 0 0 1 1 6.56 21.39 21.39 0 0 1 -1.93 9.19 18.51 18.51 0 0 1 -5.37 6.82 24.81 24.81 0 0 1 -8.12 4.14 36.49 36.49 0 0 1 -20.27 0 24.07 24.07 0 0 1 -8-4.14 18.7 18.7 0 0 1 -5.3-6.82 21.47 21.47 0 0 1 -2.01-9.19zm10.17-.82a14.39 14.39 0 0 0 1.2 5.92 12.4 12.4 0 0 0 3.29 4.48 15.35 15.35 0 0 0 4.85 2.77 17.32 17.32 0 0 0 5.88 1 17.53 17.53 0 0 0 5.9-1 15 15 0 0 0 4.85-2.77 12.58 12.58 0 0 0 3.26-4.48 14.42 14.42 0 0 0 1.2-5.92 14 14 0 0 0 -2-7.51 12.81 12.81 0 0 0 -5.42-4.89 17.67 17.67 0 0 0 -7.8-1.66 15.83 15.83 0 0 0 -10.94 3.8 13 13 0 0 0 -4.27 10.26zm2.16-33.93a10.56 10.56 0 0 0 3.65 8.55 16 16 0 0 0 18.81 0 10.56 10.56 0 0 0 3.65-8.55 12.35 12.35 0 0 0 -.65-4.09 9.91 9.91 0 0 0 -1.82-3.23 11.31 11.31 0 0 0 -2.81-2.35 13.11 13.11 0 0 0 -3.6-1.46 17.26 17.26 0 0 0 -4.17-.49 16.71 16.71 0 0 0 -5.16.77 12.49 12.49 0 0 0 -4.15 2.23 9.88 9.88 0 0 0 -2.76 3.67 12 12 0 0 0 -.99 4.96z" fill="#fff"/><path d="m2461 588.27 5.8-6a17.68 17.68 0 0 0 3.07 3.85 21.26 21.26 0 0 0 4.22 3.13 21.81 21.81 0 0 0 5.23 2.1 22.88 22.88 0 0 0 5.9.77 20.93 20.93 0 0 0 5-.6 16.86 16.86 0 0 0 4.65-1.91 16.36 16.36 0 0 0 3.89-3.21 13.66 13.66 0 0 0 2.64-4.64 18.15 18.15 0 0 0 1-6 18.63 18.63 0 0 0 -.67-5.1 13.92 13.92 0 0 0 -1.87-4.11 16 16 0 0 0 -2.83-3.13 14.8 14.8 0 0 0 -3.55-2.25 19.37 19.37 0 0 0 -4-1.29 20.57 20.57 0 0 0 -4.22-.43 26.37 26.37 0 0 0 -4.87.45 23 23 0 0 0 -4.6 1.36 13.31 13.31 0 0 0 -3.62 2.15l-5.23-3.15 6.45-34.65h37.17v8.25h-29.76l-3.86 19.67a21.2 21.2 0 0 1 10.54-2.35 27.75 27.75 0 0 1 5.18.49 26.27 26.27 0 0 1 5.08 1.51 27.23 27.23 0 0 1 4.72 2.49 22 22 0 0 1 4.09 3.52 24.13 24.13 0 0 1 3.25 4.49 22.14 22.14 0 0 1 2.14 5.54 27 27 0 0 1 .77 6.52 25.74 25.74 0 0 1 -1.07 7.48 21.92 21.92 0 0 1 -3 6.25 25.13 25.13 0 0 1 -10.11 8.44 32 32 0 0 1 -6.41 2.14 31.58 31.58 0 0 1 -6.86.75 33.39 33.39 0 0 1 -7.61-.84 27.2 27.2 0 0 1 -6.21-2.17 28.49 28.49 0 0 1 -4.77-3.07 24.47 24.47 0 0 1 -3.5-3.31 22.94 22.94 0 0 1 -2.17-3.14z" fill="#fff"/><path d="m2525 579.09a19 19 0 0 1 3.74-11.89 19.87 19.87 0 0 1 10.08-6.9v-.42a25.18 25.18 0 0 1 -3.1-1.36 18.38 18.38 0 0 1 -3.07-2.12 14.72 14.72 0 0 1 -2.81-3.05 15.41 15.41 0 0 1 -1.91-4.25 19.68 19.68 0 0 1 -.78-5.68 17.22 17.22 0 0 1 6.95-14 23.94 23.94 0 0 1 7.38-3.65 31.62 31.62 0 0 1 17.8 0 24 24 0 0 1 7.38 3.65 17.21 17.21 0 0 1 6.95 14 19.71 19.71 0 0 1 -.77 5.68 16.34 16.34 0 0 1 -1.89 4.27 14.21 14.21 0 0 1 -2.76 3.08 18.74 18.74 0 0 1 -3 2.15 28.05 28.05 0 0 1 -3.19 1.4v.26a22.41 22.41 0 0 1 5.63 2.77 19.88 19.88 0 0 1 4.4 4.09 17.55 17.55 0 0 1 2.88 5.38 20.52 20.52 0 0 1 1 6.56 21.39 21.39 0 0 1 -1.93 9.19 18.51 18.51 0 0 1 -5.37 6.82 24.81 24.81 0 0 1 -8.12 4.14 36.49 36.49 0 0 1 -20.27 0 24.07 24.07 0 0 1 -8-4.14 18.7 18.7 0 0 1 -5.3-6.82 21.47 21.47 0 0 1 -1.92-9.16zm10.17-.82a14.39 14.39 0 0 0 1.2 5.92 12.4 12.4 0 0 0 3.29 4.48 15.35 15.35 0 0 0 4.85 2.77 17.32 17.32 0 0 0 5.88 1 17.53 17.53 0 0 0 5.9-1 15 15 0 0 0 4.85-2.77 12.58 12.58 0 0 0 3.26-4.48 14.42 14.42 0 0 0 1.2-5.92 14 14 0 0 0 -2-7.51 12.81 12.81 0 0 0 -5.42-4.89 17.67 17.67 0 0 0 -7.8-1.66 15.83 15.83 0 0 0 -10.94 3.8 13 13 0 0 0 -4.31 10.26zm2.16-33.93a10.56 10.56 0 0 0 3.65 8.55 16 16 0 0 0 18.81 0 10.56 10.56 0 0 0 3.65-8.55 12.35 12.35 0 0 0 -.65-4.09 9.91 9.91 0 0 0 -1.82-3.23 11.31 11.31 0 0 0 -2.81-2.35 13.11 13.11 0 0 0 -3.6-1.46 17.26 17.26 0 0 0 -4.17-.49 16.71 16.71 0 0 0 -5.16.77 12.49 12.49 0 0 0 -4.15 2.23 9.88 9.88 0 0 0 -2.76 3.67 12 12 0 0 0 -1.03 4.96z" fill="#fff"/><path d="m2584.51 611.82a61.15 61.15 0 0 0 4.29-8 106.42 106.42 0 0 0 4.18-10.73 91.23 91.23 0 0 0 3.24-13.12 77.41 77.41 0 0 0 0-27.69 90.38 90.38 0 0 0 -3.24-13.1 107.39 107.39 0 0 0 -4.18-10.7 61.15 61.15 0 0 0 -4.29-8l6.49-3.48q16 23.37 16 49.16t-16 49.16z" fill="#fff"/></svg>