<?xml version="1.0" encoding="utf-8"?>
<!-- Generator: Adobe Illustrator 21.0.0, SVG Export Plug-In . SVG Version: 6.00 Build 0)  -->
<svg version="1.1" id="Ebene_1" xmlns="http://www.w3.org/2000/svg" xmlns:xlink="http://www.w3.org/1999/xlink" x="0px" y="0px"
	 viewBox="0 0 1920 1080" style="enable-background:new 0 0 1920 1080;" xml:space="preserve">
<style type="text/css">
	.st0{fill:#FFFFFF;}
</style>
<g>
	<path class="st0" d="M953.1,548l1.2,5.1h1.2l1-3.9l0.9,3.9h1.2l1.3-5.1h-1l-0.8,3.8l-0.9-3.8H956l-1,3.8l-0.8-3.8H953.1L953.1,548z
		 M961.1,548v3c0,0.5,0,0.9,0.3,1.2c0.5,0.8,1.4,0.9,1.9,0.9c1,0,2.2-0.5,2.2-2V548h-1.1v3c0,0.5-0.1,0.7-0.2,0.9
		c-0.3,0.4-0.8,0.4-1,0.4c-1.1,0-1.1-0.7-1.1-1.2V548H961.1L961.1,548z M967,553h1.1v-2h0.7c0.3,0,0.8,0,1.1-0.2
		c0.4-0.3,0.6-0.8,0.6-1.3c0-0.3,0-0.6-0.3-0.9c-0.4-0.5-1-0.6-1.8-0.6H967V553L967,553z M968.1,548.8h0.5c0.3,0,0.9,0,0.9,0.7
		c0,0.8-0.7,0.8-1,0.8h-0.4V548.8L968.1,548.8z M971.8,553h1.1v-2h0.7c0.3,0,0.8,0,1.1-0.2c0.4-0.3,0.6-0.8,0.6-1.3
		c0-0.3,0-0.6-0.3-0.9c-0.4-0.5-1-0.6-1.8-0.6h-1.6v5H971.8z M972.9,548.8h0.5c0.3,0,0.9,0,0.9,0.7c0,0.8-0.7,0.8-1,0.8h-0.4V548.8
		L972.9,548.8z M976.6,553h3.5v-0.8h-2.4v-1.4h2.2V550h-2.2v-1.2h2.3V548h-3.4L976.6,553L976.6,553z M981.3,553h1.1v-2h1
		c0.2,0,0.4,0,0.5,0.3c0.1,0.2,0.2,1.5,0.3,1.8h1.2c-0.1-0.1-0.1-0.1-0.2-0.4c0-0.1-0.1-0.4-0.2-1c-0.1-0.7-0.1-1.1-0.9-1.2
		c0.2-0.1,1.1-0.3,1.1-1.2c0-0.3-0.1-0.7-0.4-1c-0.4-0.3-1-0.3-1.5-0.3h-1.9L981.3,553L981.3,553z M982.4,548.8h0.7
		c0.3,0,0.5,0,0.7,0.1c0.1,0.1,0.3,0.2,0.3,0.6c0,0.4-0.2,0.5-0.3,0.6c-0.2,0.1-0.4,0.1-0.6,0.1h-0.9L982.4,548.8L982.4,548.8z
		 M987.6,553h1.1v-4.2h1.5V548h-4.1v0.8h1.5V553L987.6,553z M992,548l-1.8,5.1h1l0.4-1.1h2l0.4,1.1h1.1l-1.8-5.1H992L992,548z
		 M991.9,551.1l0.7-2.2l0.7,2.2H991.9L991.9,551.1z M996.2,553h3.3v-0.9h-2.2V548h-1.1V553L996.2,553z"/>
	<path class="st0" d="M953.5,537.9v3c0,0.5,0,0.9,0.3,1.2c0.5,0.8,1.4,0.9,1.9,0.9c1,0,2.2-0.5,2.2-2v-3.2h-1.1v3
		c0,0.5-0.1,0.7-0.2,0.9c-0.3,0.4-0.8,0.4-1,0.4c-1.1,0-1.1-0.7-1.1-1.2v-3.1L953.5,537.9L953.5,537.9z M959.3,542.9h1v-4.2l2,4.2
		h1.5v-5.1h-1v4l-1.9-4h-1.6V542.9L959.3,542.9z M965.2,542.9h1.1v-5.1h-1.1V542.9L965.2,542.9z M967.4,537.9l1.9,5h1.2l1.9-5h-1.1
		l-1.3,4l-1.3-4H967.4L967.4,537.9z M973.4,542.9h3.5v-0.8h-2.4v-1.4h2.2v-0.8h-2.2v-1.2h2.3v-0.8h-3.4L973.4,542.9L973.4,542.9z
		 M978.2,542.9h1.1v-2h1c0.2,0,0.4,0,0.5,0.3c0.1,0.2,0.2,1.5,0.3,1.8h1.2c-0.1-0.1-0.1-0.1-0.2-0.4c0-0.1-0.1-0.4-0.2-1
		c-0.1-0.7-0.1-1.1-0.9-1.2c0.2-0.1,1.1-0.3,1.1-1.2c0-0.3-0.1-0.7-0.4-1c-0.4-0.3-1-0.3-1.5-0.3h-1.9L978.2,542.9L978.2,542.9z
		 M979.2,538.7h0.7c0.3,0,0.5,0,0.7,0.1c0.1,0.1,0.3,0.2,0.3,0.6c0,0.4-0.2,0.5-0.3,0.6c-0.2,0.1-0.4,0.1-0.6,0.1h-0.9L979.2,538.7
		L979.2,538.7z M983.3,541.3c0,0.5,0,1.7,2,1.7c1.4,0,2.2-0.7,2.2-1.6c0-1-0.9-1.2-1.7-1.4c-0.7-0.2-1.1-0.3-1.1-0.7
		s0.3-0.7,0.8-0.7c0.7,0,0.8,0.6,0.8,0.8h1c0-0.2,0-0.6-0.3-0.9c-0.4-0.5-1-0.6-1.5-0.6c-1.4,0-2,0.7-2,1.6c0,0.9,0.7,1.2,1.9,1.5
		c0.6,0.2,1,0.2,1,0.7c0,0.4-0.4,0.7-1,0.7c-0.9,0-0.9-0.7-0.9-1L983.3,541.3L983.3,541.3z M988.7,542.9h1.1v-5.1h-1.1V542.9
		L988.7,542.9z M992.4,542.9h1.1v-4.2h1.5v-0.8h-4.1v0.8h1.5V542.9L992.4,542.9z M997.7,537.5h0.7v-0.8h-0.7V537.5L997.7,537.5z
		 M996.5,537.5h0.7v-0.8h-0.7V537.5L996.5,537.5z M996.9,537.9l-1.8,5.1h1l0.4-1.1h2l0.4,1.1h1.1l-1.8-5.1H996.9L996.9,537.9z
		 M996.7,541l0.7-2.2l0.7,2.2H996.7L996.7,541z M1001.5,542.9h1.1v-4.2h1.5v-0.8h-4.1v0.8h1.5V542.9L1001.5,542.9z"/>
	<path class="st0" d="M953.5,532.8h1.9c0.2,0,0.9,0,1.3-0.2c0.4-0.2,0.7-0.6,0.7-1.2c0-0.5-0.3-1.1-1.1-1.2l0,0
		c0.3-0.1,0.5-0.3,0.6-0.3c0.3-0.2,0.3-0.6,0.3-0.8c0-0.3-0.1-0.8-0.6-1.1c-0.4-0.2-1-0.2-1.2-0.2h-1.9V532.8L953.5,532.8z
		 M954.5,528.6h0.7c0.4,0,0.9,0,0.9,0.6c0,0.7-0.6,0.7-0.9,0.7h-0.8L954.5,528.6L954.5,528.6z M954.5,530.6h0.6c0.5,0,1.2,0,1.2,0.7
		s-0.6,0.7-1.1,0.7h-0.7V530.6L954.5,530.6z M958.7,532.8h3.5V532h-2.4v-1.4h2.2v-0.8h-2.2v-1.2h2.3v-0.8h-3.4L958.7,532.8
		L958.7,532.8z M963.5,532.8h1.1v-2h1c0.2,0,0.4,0,0.5,0.3c0.1,0.2,0.2,1.5,0.3,1.8h1.2c-0.1-0.1-0.1-0.1-0.2-0.4
		c0-0.1-0.1-0.4-0.2-1c-0.1-0.7-0.1-1.1-0.9-1.2c0.2-0.1,1.1-0.3,1.1-1.2c0-0.3-0.1-0.7-0.4-1c-0.4-0.3-1-0.3-1.5-0.3h-1.9
		L963.5,532.8L963.5,532.8z M964.5,528.6h0.7c0.3,0,0.5,0,0.7,0.1c0.1,0.1,0.3,0.2,0.3,0.6c0,0.4-0.2,0.5-0.3,0.6
		c-0.2,0.1-0.4,0.1-0.6,0.1h-0.9L964.5,528.6L964.5,528.6z M973.2,529.3c0-0.3,0-0.7-0.4-1.1c-0.4-0.5-1.1-0.6-1.7-0.6
		c-1.5,0-2.7,1-2.7,2.8c0,0.5,0.1,1.3,0.7,1.9c0.4,0.4,1,0.7,2.1,0.7c1,0,1.5-0.2,1.8-0.3v-2.5h-2.1v0.8h1v1.1
		c-0.1,0-0.3,0.1-0.8,0.1c-0.6,0-0.9-0.2-1.2-0.4c-0.4-0.4-0.4-1-0.4-1.4c0-0.8,0.2-1.9,1.5-1.9c0.2,0,0.6,0.1,0.8,0.4
		c0.1,0.2,0.1,0.4,0.1,0.5L973.2,529.3L973.2,529.3z M974.6,532.8h1.1v-5.1h-1.1V532.8L974.6,532.8z M977,531.2c0,0.5,0,1.7,2,1.7
		c1.4,0,2.2-0.7,2.2-1.6c0-1-0.9-1.2-1.7-1.4c-0.7-0.2-1.1-0.3-1.1-0.7s0.3-0.7,0.8-0.7c0.7,0,0.8,0.6,0.8,0.8h1
		c0-0.2,0-0.6-0.3-0.9c-0.4-0.5-1-0.6-1.5-0.6c-1.4,0-2,0.7-2,1.6c0,0.9,0.7,1.2,1.9,1.5c0.6,0.2,1,0.2,1,0.7c0,0.4-0.4,0.7-1,0.7
		c-0.9,0-0.9-0.7-0.9-1L977,531.2L977,531.2z M986.4,529.4c0-1-0.8-1.7-1.9-1.7c-1.4,0-2.3,1.1-2.3,2.7c0,1.3,0.6,2.5,2.3,2.5
		c0.5,0,1-0.1,1.5-0.6c0.4-0.4,0.4-0.9,0.5-1.2h-1.1c0,0.7-0.5,1-0.9,1c-1.1,0-1.1-1.4-1.1-1.7c0-1,0.3-1.9,1.1-1.9
		c0.7,0,0.8,0.7,0.8,0.9H986.4L986.4,529.4z M987.7,532.8h1.1v-2.2h1.9v2.2h1.1v-5.1h-1.1v2h-1.9v-2h-1.1V532.8L987.7,532.8z
		 M993.3,532.8h3.5V532h-2.4v-1.4h2.2v-0.8h-2.2v-1.2h2.3v-0.8h-3.4L993.3,532.8L993.3,532.8z"/>
	<path class="st0" d="M929.1,525.2L929.1,525.2C929.1,525.1,929.1,525.1,929.1,525.2c0-0.7,0.5-1.2,1.1-1.2s1.1,0.5,1.1,1.1v0.1
		L929.1,525.2L929.1,525.2z"/>
	<path class="st0" d="M930.3,529.5v-1.2h-1.1h-3.8l0,0c0.1,0.7,0.6,1.2,1.3,1.2H930.3L930.3,529.5z"/>
	<path class="st0" d="M926.6,525.2l-1.2-1.2h1.5l0,0c0.7,0,1.2,0.5,1.3,1.2H926.6L926.6,525.2z"/>
	<path class="st0" d="M924.5,529.5h-1.4l0,0c0.1-0.7,0.7-1.2,1.4-1.2V529.5L924.5,529.5z"/>
	<path class="st0" d="M929.9,530.9h-2.8h-2.7l0,0c-0.7,0-1.3-0.5-1.4-1.2h2.8h2.7l0,0C929.3,529.8,929.8,530.3,929.9,530.9
		L929.9,530.9L929.9,530.9z"/>
	<path class="st0" d="M926,532.7l-1.2,1.2h2.5h3.7h3.3c0.7,0,1.2-0.5,1.3-1.2l0,0h-2.5h-3.8H926L926,532.7z"/>
	<path class="st0" d="M933.8,525.2l1.2-1.2h-1.5l0,0c-0.7,0-1.2,0.5-1.3,1.2H933.8L933.8,525.2z"/>
	<polygon class="st0" points="932.3,526.6 933.5,525.4 933.5,525.4 926.9,525.5 928,526.6 932.3,526.6 	"/>
	<path class="st0" d="M930.3,530.9v-1.2h5.5l0,0c-0.1,0.7-0.6,1.2-1.3,1.2H930.3L930.3,530.9z"/>
	<path class="st0" d="M930.6,529.5l1.2-1.2h3.4l0,0c-0.1,0.7-0.6,1.2-1.3,1.2H930.6L930.6,529.5z"/>
	<path class="st0" d="M926.3,531.2h3.6h2.6h3.5l0,0c-0.1,0.7-0.6,1.2-1.3,1.2h-3.2h-1.8h-2.2l0,0
		C926.9,532.4,926.4,531.9,926.3,531.2L926.3,531.2L926.3,531.2z"/>
	<path class="st0" d="M925,535.3L925,535.3l-1.5,1.5l-0.8-0.8l0,0l0,0l1.9-1.8h4h1.9h2.3h1.3h1.1c-0.1,0.7-0.6,1.2-1.3,1.2
		L925,535.3L925,535.3z"/>
	<path class="st0" d="M925.5,536.7h7.4c0.7,0,1.2-0.5,1.3-1.2H925l-5,4.9c0.5,0.4,1.3,0.4,1.8-0.1l0,0L925.5,536.7L925.5,536.7z"/>
	<path class="st0" d="M926.1,538.1h6c0.7,0,1.2-0.5,1.3-1.2h-7.8l-3.5,3.5c0.5,0.4,1.3,0.4,1.8-0.1l0,0L926.1,538.1L926.1,538.1z"/>
	<path class="st0" d="M926.2,538.4h6.4l0.8,1.2H930h-3.4l-0.8,0.8l0,0c-0.5,0.5-1.2,0.5-1.8,0.1L926.2,538.4L926.2,538.4
		L926.2,538.4z"/>
	<path class="st0" d="M934.7,541.3h-6.5c0.1,0.7,0.6,1.2,1.3,1.2l0,0h6L934.7,541.3L934.7,541.3z"/>
	<path class="st0" d="M933.7,539.9h-6.8c0.1,0.7,0.6,1.2,1.3,1.2l0,0h6.3L933.7,539.9L933.7,539.9z"/>
	<path class="st0" d="M930.2,555.8h-2l0,0c0.1,0.7,0.6,1.2,1.2,1.2h0.8h0.1L930.2,555.8L930.2,555.8L930.2,555.8L930.2,555.8z"/>
	<path class="st0" d="M931.1,554h-0.9h-3.1l0,0c0.1-0.7,0.6-1.2,1.3-1.2h1.5h1.2h1.2l0,0l0,0h1.5c0.7,0,1.2,0.5,1.3,1.2l0,0H932
		H931.1L931.1,554L931.1,554z"/>
	<path class="st0" d="M929.1,550c0.6,0.1,1.1,0.5,1.2,1.2l0,0h-1.2V550L929.1,550L929.1,550z"/>
	<path class="st0" d="M931,551.4h0.8h3.3l0,0c-0.1,0.7-0.6,1.2-1.3,1.2l0,0H931h-1h-2.8l0,0c0.1-0.7,0.6-1.2,1.3-1.2h1.5H931
		L931,551.4z"/>
	<path class="st0" d="M930.4,554.3h2.8l0,0c-0.1,0.7-0.6,1.2-1.3,1.2l0,0h-1.5H928h-3.1l0,0c0.1-0.7,0.6-1.2,1.3-1.2h1.5h1.3H930.4
		L930.4,554.3L930.4,554.3z"/>
	<path class="st0" d="M931.5,528h-5.1l0,0c0.1-0.7,0.6-1.2,1.3-1.2h3.8h3.3l0,0c-0.1,0.7-0.6,1.2-1.3,1.2l0,0H931.5L931.5,528
		L931.5,528z"/>
	<path class="st0" d="M931.6,547.1h-1.9c0.1,0.7,0.6,1.2,1.3,1.2l0,0h0.6l0,0h0.8l0,0h2.6l0,0c-0.1-0.6-0.6-1.1-1.2-1.2h-1.4H931.6
		L931.6,547.1L931.6,547.1z"/>
	<path class="st0" d="M935.1,545.7h-5.7c0.1,0.7,0.6,1.2,1.3,1.2l0,0h3.2L935.1,545.7L935.1,545.7z"/>
	<polygon class="st0" points="931.9,545.4 935.3,545.4 936.5,544.2 930.8,544.2 929.6,545.4 	"/>
	<path class="st0" d="M931.1,542.8h-1.5c0.1,0.7,0.6,1.2,1.3,1.2l0,0h0.2h5.4l0,0c-0.1-0.6-0.6-1.1-1.2-1.2H931.1L931.1,542.8
		L931.1,542.8z"/>
	<path class="st0" d="M932.3,548.5h3.2c0.7,0,1.2,0.5,1.3,1.2h-4.5h-0.9l0,0c-0.7,0-1.2-0.5-1.3-1.2H932.3L932.3,548.5L932.3,548.5z
		"/>
	<path class="st0" d="M934.6,550H932c-0.7,0-1.2,0.5-1.3,1.2h3.9h0.9c0.7,0,1.2-0.5,1.3-1.2H934.6L934.6,550L934.6,550z"/>
	<path class="st0" d="M937,540.1l0.8-0.8l0.8-0.8l0,0c0.4,0.5,0.4,1.3-0.1,1.7l0,0l-0.7,0.7l-0.5,0.5l0,0c-0.5,0.5-1.2,0.5-1.7,0.1
		L937,540.1L937,540.1z"/>
	<path class="st0" d="M941.4,527.1v-1.7l0,0c0.5,0,0.9,0.3,1.1,0.6L941.4,527.1L941.4,527.1z"/>
	<path class="st0" d="M941.5,535.6l2.9-2.9l0,0c0.4,0.5,0.4,1.3-0.1,1.7l-2.9,2.9l0,0C941,536.8,941,536.1,941.5,535.6L941.5,535.6
		L941.5,535.6z"/>
	<path class="st0" d="M944,532.8l-2.6,2.5l0,0c-0.4-0.5-0.4-1.3,0.1-1.7l2.6-2.5l0,0C944.5,531.5,944.5,532.3,944,532.8L944,532.8
		L944,532.8z"/>
	<path class="st0" d="M940,533L940,533l3.2-3.2l1.2-1.2l0,0c0.4,0.5,0.4,1.3-0.1,1.7l-2.6,2.6l0,0C941.3,533.4,940.5,533.5,940,533
		L940,533L940,533z"/>
	<path class="st0" d="M943.2,527.5l-1.9,1.8l0,0c-0.4-0.5-0.4-1.3,0.1-1.7l0.9-0.9l1.9-1.9l0,0c0.4,0.5,0.4,1.3-0.1,1.7l0,0
		L943.2,527.5L943.2,527.5z"/>
	<path class="st0" d="M935.9,528.5v-1.6l0,0l2.6-2.6l0,0c0.4,0.5,0.4,1.3-0.1,1.7L935.9,528.5L935.9,528.5z"/>
	<path class="st0" d="M936.7,531.9c-0.4-0.5-0.4-1.3,0.1-1.7l0,0l1.9-1.8l0.8,0.8L936.7,531.9L936.7,531.9L936.7,531.9z"/>
	<path class="st0" d="M936.1,534.5c-0.4-0.5-0.4-1.3,0.1-1.7l0,0l3.5-3.5l0.8,0.8L936.1,534.5L936.1,534.5L936.1,534.5z"/>
	<path class="st0" d="M944.4,526.6c0.4,0.5,0.4,1.3-0.1,1.7l-9.6,9.5c-0.4-0.5-0.4-1.3,0.1-1.7L944.4,526.6L944.4,526.6L944.4,526.6
		z"/>
	<path class="st0" d="M936.9,525.5l-1,1v-1.4h0.1C936.4,525.1,936.7,525.3,936.9,525.5L936.9,525.5L936.9,525.5z"/>
	<path class="st0" d="M938.6,534.4L938.6,534.4c0.4,0.5,0.4,1.2-0.1,1.7l-0.1,0.1l0,0l-0.9,0.9l-1.2,1.2l-0.5,0.5l0,0
		c-0.5,0.5-1.2,0.5-1.7,0.1l1.5-1.5l1.2-1.1l1-1L938.6,534.4L938.6,534.4L938.6,534.4z"/>
	<path class="st0" d="M935.9,539.2l0.9-0.9l1-1l0.8-0.8l0,0c0.4,0.5,0.4,1.3-0.1,1.7l0,0l-0.9,0.9l-0.9,0.9l-0.1,0.1l0,0
		c-0.5,0.5-1.2,0.5-1.7,0.1l0,0L935.9,539.2L935.9,539.2L935.9,539.2z"/>
	<path class="st0" d="M943.2,539.7l-3.1,3.1l-0.6,0.6l-0.5,0.5l0,0c-0.5,0.5-1.2,0.5-1.7,0.1l1.5-1.5l0.5-0.5l3.1-3.1l0.6-0.6l1-1
		l0.8-0.8l0,0c0.4,0.5,0.4,1.3-0.1,1.7l0,0l-0.9,0.9L943.2,539.7L943.2,539.7z"/>
	<path class="st0" d="M939.4,541.4l1.7-1.7l0,0c-0.5-0.4-1.3-0.4-1.7,0.1l0,0l-0.8,0.8l-1,1l0,0l-1,1l0,0c0.5,0.4,1.3,0.4,1.7-0.1
		l0.1-0.1L939.4,541.4L939.4,541.4L939.4,541.4L939.4,541.4z"/>
	<path class="st0" d="M937.3,527.5l0.7-0.7l0,0l0.8-0.7l0,0c0.4,0.5,0.4,1.3-0.1,1.7l0,0l-0.5,0.5l-0.5,0.5l-0.2,0.2l-1.2,1.2
		c-0.4-0.5-0.4-1.3,0.1-1.7l0,0l0.4-0.4l0,0L937.3,527.5L937.3,527.5z"/>
	<polygon class="st0" points="935.2,546 936.7,544.5 937.6,545.3 936,546.8 	"/>
	<path class="st0" d="M939.4,545.5l-0.9,0.9l-0.5,0.5l0,0c-0.5,0.5-1.2,0.5-1.7,0.1l1.5-1.5H939.4L939.4,545.5z"/>
	<path class="st0" d="M943.2,540.1l1.5-1.5l0,0c0.4,0.5,0.4,1.3-0.1,1.7l0,0l-0.6,0.6l-2.6,2.5l-2,2l0,0c-0.4-0.5-0.4-1.3,0.1-1.7
		l1.1-1L943.2,540.1L943.2,540.1L943.2,540.1z"/>
	<path class="st0" d="M937.8,547.5L937.8,547.5l2.1-2l1.2-1.2l0,0c0.4,0.5,0.4,1.3-0.1,1.7l-1.6,1.5H937.8L937.8,547.5z"/>
	<polygon class="st0" points="939.5,547.8 940.6,546.7 940.6,548.3 939.5,549.4 	"/>
	<path class="st0" d="M941.4,539.4L941.4,539.4c-0.4-0.5-0.4-1.3,0.1-1.7l3.4-3.4l0,0c0.4,0.5,0.4,1.3-0.1,1.7L941.4,539.4
		L941.4,539.4L941.4,539.4z"/>
	<path class="st0" d="M942.1,543.9h-0.7l1.1-1.1l0,0c0.3,0.3,0.3,0.7,0,0.9C942.4,543.9,942.2,543.9,942.1,543.9L942.1,543.9
		L942.1,543.9z"/>
	<path class="st0" d="M917.8,526.1L917.8,526.1c-0.5-0.4-1.3-0.4-1.7,0.1l0,0l0.8,0.8L917.8,526.1L917.8,526.1z"/>
	<path class="st0" d="M920.7,525.2l-1.2,1.2l-1.2,1.2l-1.3,1.3l-1.6,1.6l0,0c-0.4-0.5-0.4-1.3,0.1-1.7l1.2-1.2l1.2-1.1l1-1l0,0l0,0
		C919.4,524.9,920.2,524.8,920.7,525.2L920.7,525.2L920.7,525.2z"/>
	<path class="st0" d="M920.8,527.2l-0.9,0.9l-1.2,1.2l-0.5,0.5l0,0c-0.5,0.5-1.2,0.5-1.7,0.1l1.5-1.5l1.2-1.1l1-1l0.8-0.8l0,0
		C921.3,526,921.3,526.7,920.8,527.2L920.8,527.2L920.8,527.2z"/>
	<path class="st0" d="M922.9,527.1l-2.1,2.1L918,532l0,0c-0.4-0.5-0.4-1.3,0.1-1.7l2.2-2.2l2.7-2.7l0,0
		C923.4,525.9,923.4,526.6,922.9,527.1L922.9,527.1L922.9,527.1z"/>
	<path class="st0" d="M917.6,532.8l0.9-0.9l1.3-1.3l1-1l1.2-1.2l0,0c0.4,0.5,0.4,1.3-0.1,1.7l-0.7,0.6l-1.2,1.2l-0.8,0.8l0,0
		C918.9,533.2,918.2,533.2,917.6,532.8L917.6,532.8L917.6,532.8z"/>
	<path class="st0" d="M922.1,530.4l0.8,0.8l-1.6,1.6l0,0c-0.5,0.5-1.2,0.5-1.7,0.1L922.1,530.4L922.1,530.4z"/>
	<path class="st0" d="M925,533.2l-0.8-0.8l-0.7,0.7l-2.6,2.6l0,0c0.5,0.4,1.2,0.4,1.7,0L925,533.2L925,533.2z"/>
	<path class="st0" d="M924,532.2l-0.8-0.8l-0.7,0.7l-2.6,2.6l0,0c0.5,0.4,1.2,0.4,1.7,0L924,532.2L924,532.2z"/>
	<path class="st0" d="M915.9,536.1l-0.8-0.8l0,0c0.5-0.5,1.2-0.5,1.7-0.1L915.9,536.1L915.9,536.1z"/>
	<path class="st0" d="M916.4,537.7l-1.1,1.1l-1,1l0,0c-0.4-0.5-0.4-1.3,0.1-1.7l0,0l1.2-1.2l0.2-0.2l1.9-1.9l1-1l0,0
		c0.4,0.5,0.4,1.3-0.1,1.7l-1.6,1.6L916.4,537.7L916.4,537.7z"/>
	<path class="st0" d="M919.4,536.8l-2.6,2.6l-2.3,2.3l0,0c-0.4-0.5-0.4-1.3,0.1-1.7l2.6-2.6l2.3-2.3l0,0
		C919.9,535.5,919.9,536.3,919.4,536.8L919.4,536.8L919.4,536.8z"/>
	<path class="st0" d="M917.5,539c-0.5,0.5-0.5,1.2-0.1,1.7l0,0l3.7-3.7h-1.7L917.5,539L917.5,539L917.5,539z"/>
	<path class="st0" d="M918.5,541.7c-0.5,0.5-1.2,0.5-1.7,0.1l0,0l1.6-1.6l1.8-1.8l1.3-1.3h1.7l-2.5,2.5L918.5,541.7L918.5,541.7
		L918.5,541.7L918.5,541.7z"/>
	<path class="st0" d="M927,541.3l-2.3,2.3l0,0c-0.4-0.5-0.4-1.3,0.1-1.7l0.5-0.5L927,541.3L927,541.3z"/>
	<path class="st0" d="M922.9,545.8l-4.5,4.5c0.5,0.4,1.3,0.4,1.8-0.1l0,0l4.4-4.4H922.9L922.9,545.8z"/>
	<path class="st0" d="M919.4,544.7l-0.8-0.8l0,0c0.5-0.5,1.2-0.5,1.7-0.1L919.4,544.7L919.4,544.7z"/>
	<path class="st0" d="M922.6,543.5l-2.6,2.6l-2.3,2.3l0,0c-0.4-0.5-0.4-1.3,0.1-1.7l2.6-2.6l2.3-2.3l0,0
		C923.1,542.3,923.1,543.1,922.6,543.5L922.6,543.5L922.6,543.5z"/>
	<path class="st0" d="M922.6,545.6c0.5-0.5,0.5-1.2,0.1-1.7l-0.8,0.8l-2.3,2.3c-0.5,0.5-0.5,1.2-0.1,1.7l0,0l2.5-2.5L922.6,545.6
		L922.6,545.6L922.6,545.6L922.6,545.6z"/>
	<path class="st0" d="M929.6,546.9l-0.8-0.8l-1.3,1.3l-2.6,2.6l0,0c0.5,0.4,1.2,0.4,1.7,0L929.6,546.9L929.6,546.9z"/>
	<path class="st0" d="M928.4,548.4l-1.4,1.4l0,0c0.5,0.4,1.2,0.4,1.7,0l0.6-0.6l0.7-0.7l-0.8-0.8L928.4,548.4L928.4,548.4
		L928.4,548.4z"/>
	<path class="st0" d="M927.3,541.4l0.8,0.8l-3.1,3.1l0,0c-0.4-0.5-0.4-1.3,0.1-1.7L927.3,541.4L927.3,541.4z"/>
	<path class="st0" d="M923.5,548.9c-0.5,0.5-1.2,0.5-1.7,0.1l0,0l6.6-6.6l0.8,0.8L923.5,548.9L923.5,548.9L923.5,548.9z"/>
	<path class="st0" d="M923.7,550.7c-0.5,0.5-1.2,0.5-1.7,0.1l0,0l7.4-7.4l0.8,0.8L923.7,550.7L923.7,550.7L923.7,550.7z"/>
</g>
</svg>
