<svg xmlns="http://www.w3.org/2000/svg" xmlns:xlink="http://www.w3.org/1999/xlink" id="Ebene_1" x="0" y="0" version="1.1" viewBox="0 0 1920 796.4" xml:space="preserve" style="enable-background:new 0 0 1920 796.4"><style type="text/css">.st0{fill:#fff}</style><g><path d="M834,556.2l25.2,107.1h25.2l21-81.9l18.9,81.9h25.2l27.3-107.1h-21L939,635.9l-18.9-79.8h-25.2l-21,79.8 l-16.8-79.8H834L834,556.2z M1002,556.2v63c0,10.5,0,18.9,6.3,25.2c10.5,16.8,29.4,18.9,39.9,18.9c21,0,46.2-10.5,46.2-42v-65.1 h-23.1v63c0,10.5-2.1,14.7-4.2,18.9c-6.3,8.4-16.8,8.4-21,8.4c-23.1,0-23.1-14.7-23.1-25.2v-65.1H1002L1002,556.2z M1125.8,661.1 h23.1v-42h14.7c6.3,0,16.8,0,23.1-4.2c8.4-6.3,12.6-16.8,12.6-27.3c0-6.3,0-12.6-6.3-18.9c-8.4-10.5-21-12.6-37.8-12.6h-29.4V661.1 L1125.8,661.1z M1148.9,573h10.5c6.3,0,18.9,0,18.9,14.7c0,16.8-14.7,16.8-21,16.8h-8.4V573L1148.9,573z M1226.6,661.1h23.1v-42 h14.7c6.3,0,16.8,0,23.1-4.2c8.4-6.3,12.6-16.8,12.6-27.3c0-6.3,0-12.6-6.3-18.9c-8.4-10.5-21-12.6-37.8-12.6h-33.6v105H1226.6z M1249.7,573h10.5c6.3,0,18.9,0,18.9,14.7c0,16.8-14.7,16.8-21,16.8h-8.4V573L1249.7,573z M1327.4,661.1h73.5v-16.8h-50.4v-29.4 h46.2v-16.8h-46.2V573h48.3v-16.8h-71.4L1327.4,661.1L1327.4,661.1z M1426,661.1h23.1v-42h21c4.2,0,8.4,0,10.5,6.3 c2.1,4.2,4.2,31.5,6.3,37.8h25.2c-2.1-2.1-2.1-2.1-4.2-8.4c0-2.1-2.1-8.4-4.2-21c-2.1-14.7-2.1-23.1-18.9-25.2 c4.2-2.1,23.1-6.3,23.1-25.2c0-6.3-2.1-14.7-8.4-21c-8.4-6.3-21-6.3-31.5-6.3h-39.9L1426,661.1L1426,661.1z M1449.1,573h14.7 c6.3,0,10.5,0,14.7,2.1c2.1,2.1,6.3,4.2,6.3,12.6c0,8.4-4.2,10.5-6.3,12.6c-4.2,2.1-8.4,2.1-12.6,2.1H1447L1449.1,573L1449.1,573z M1558.3,661.1h23.1V573h31.5v-16.8h-86.1V573h31.5V661.1L1558.3,661.1z M1650.7,556.2l-37.8,107.1h21l8.4-23.1h42l8.4,23.1h23.1 L1678,556.2H1650.7L1650.7,556.2z M1648.6,621.2l14.7-46.2l14.7,46.2H1648.6L1648.6,621.2z M1738.8,661.1h69.3v-18.9h-46.2v-86.1 h-23.1V661.1L1738.8,661.1z" class="st0"/><path d="M842.4,344.1v63c0,10.5,0,18.9,6.3,25.2c10.5,16.8,29.4,18.9,39.9,18.9c21,0,46.2-10.5,46.2-42V342h-23.1v63 c0,10.5-2.1,14.7-4.2,18.9c-6.3,8.4-16.8,8.4-21,8.4c-23.1,0-23.1-14.7-23.1-25.2V342L842.4,344.1L842.4,344.1z M964.2,449.1h21 v-88.2l42,88.2h31.5V342h-21v84l-39.9-84h-33.6V449.1L964.2,449.1z M1088,449.1h23.1V342H1088V449.1L1088,449.1z M1134.2,344.1 l39.9,105h25.2l39.9-105h-23.1l-27.3,84l-27.3-84H1134.2L1134.2,344.1z M1260.2,449.1h73.5v-16.8h-50.4v-29.4h46.2v-16.8h-46.2 v-25.2h48.3v-16.8h-71.4L1260.2,449.1L1260.2,449.1z M1361,449.1h23.1v-42h21c4.2,0,8.4,0,10.5,6.3c2.1,4.2,4.2,31.5,6.3,37.8h25.2 c-2.1-2.1-2.1-2.1-4.2-8.4c0-2.1-2.1-8.4-4.2-21c-2.1-14.7-2.1-23.1-18.9-25.2c4.2-2.1,23.1-6.3,23.1-25.2c0-6.3-2.1-14.7-8.4-21 c-8.4-6.3-21-6.3-31.5-6.3h-39.9L1361,449.1L1361,449.1z M1382,360.9h14.7c6.3,0,10.5,0,14.7,2.1c2.1,2.1,6.3,4.2,6.3,12.6 c0,8.4-4.2,10.5-6.3,12.6c-4.2,2.1-8.4,2.1-12.6,2.1h-18.9L1382,360.9L1382,360.9z M1468,415.5c0,10.5,0,35.7,42,35.7 c29.4,0,46.2-14.7,46.2-33.6c0-21-18.9-25.2-35.7-29.4c-14.7-4.2-23.1-6.3-23.1-14.7s6.3-14.7,16.8-14.7 c14.7,0,16.8,12.6,16.8,16.8h21c0-4.2,0-12.6-6.3-18.9c-8.4-10.5-21-12.6-31.5-12.6c-29.4,0-42,14.7-42,33.6 c0,18.9,14.7,25.2,39.9,31.5c12.6,4.2,21,4.2,21,14.7c0,8.4-8.4,14.7-21,14.7c-18.9,0-18.9-14.7-18.9-21L1468,415.5L1468,415.5z M1581.4,449.1h23.1V342h-23.1V449.1L1581.4,449.1z M1659.1,449.1h23.1v-88.2h31.5v-16.8h-86.1v16.8h31.5V449.1L1659.1,449.1z M1770.3,335.7h14.7v-16.8h-14.7V335.7L1770.3,335.7z M1745.1,335.7h14.7v-16.8h-14.7V335.7L1745.1,335.7z M1753.5,344.1 l-37.8,107.1h21l8.4-23.1h42l8.4,23.1h23.1l-37.8-107.1H1753.5L1753.5,344.1z M1749.3,409.2L1764,363l14.7,46.2H1749.3 L1749.3,409.2z M1850.1,449.1h23.1v-88.2h31.5v-16.8h-86.1v16.8h31.5V449.1L1850.1,449.1z" class="st0"/><path d="M842.4,237.1h39.9c4.2,0,18.9,0,27.3-4.2c8.4-4.2,14.7-12.6,14.7-25.2c0-10.5-6.3-23.1-23.1-25.2l0,0 c6.3-2.1,10.5-6.3,12.6-6.3c6.3-4.2,6.3-12.6,6.3-16.8c0-6.3-2.1-16.8-12.6-23.1c-8.4-4.2-21-4.2-25.2-4.2h-39.9V237.1L842.4,237.1 z M863.4,148.9h14.7c8.4,0,18.9,0,18.9,12.6c0,14.7-12.6,14.7-18.9,14.7h-16.8L863.4,148.9L863.4,148.9z M863.4,190.9H876 c10.5,0,25.2,0,25.2,14.7c0,14.7-12.6,14.7-23.1,14.7h-14.7V190.9L863.4,190.9z M951.6,237.1h73.5v-16.8h-50.4v-29.4h46.2v-16.8 h-46.2v-25.2h48.3v-16.8h-71.4L951.6,237.1L951.6,237.1z M1052.4,237.1h23.1v-42h21c4.2,0,8.4,0,10.5,6.3 c2.1,4.2,4.2,31.5,6.3,37.8h25.2c-2.1-2.1-2.1-2.1-4.2-8.4c0-2.1-2.1-8.4-4.2-21c-2.1-14.7-2.1-23.1-18.9-25.2 c4.2-2.1,23.1-6.3,23.1-25.2c0-6.3-2.1-14.7-8.4-21c-8.4-6.3-21-6.3-31.5-6.3h-39.9L1052.4,237.1L1052.4,237.1z M1073.3,148.9h14.7 c6.3,0,10.5,0,14.7,2.1c2.1,2.1,6.3,4.2,6.3,12.6c0,8.4-4.2,10.5-6.3,12.6c-4.2,2.1-8.4,2.1-12.6,2.1h-18.9L1073.3,148.9 L1073.3,148.9z M1256,163.6c0-6.3,0-14.7-8.4-23.1c-8.4-10.5-23.1-12.6-35.7-12.6c-31.5,0-56.7,21-56.7,58.8 c0,10.5,2.1,27.3,14.7,39.9c8.4,8.4,21,14.7,44.1,14.7c21,0,31.5-4.2,37.8-6.3v-52.5h-44.1v16.8h21v23.1c-2.1,0-6.3,2.1-16.8,2.1 c-12.6,0-18.9-4.2-25.2-8.4c-8.4-8.4-8.4-21-8.4-29.4c0-16.8,4.2-39.9,31.5-39.9c4.2,0,12.6,2.1,16.8,8.4c2.1,4.2,2.1,8.4,2.1,10.5 L1256,163.6L1256,163.6z M1285.4,237.1h23.1V130h-23.1V237.1L1285.4,237.1z M1335.8,203.5c0,10.5,0,35.7,42,35.7 c29.4,0,46.2-14.7,46.2-33.6c0-21-18.9-25.2-35.7-29.4c-14.7-4.2-23.1-6.3-23.1-14.7s6.3-14.7,16.8-14.7 c14.7,0,16.8,12.6,16.8,16.8h21c0-4.2,0-12.6-6.3-18.9c-8.4-10.5-21-12.6-31.5-12.6c-29.4,0-42,14.7-42,33.6 c0,18.9,14.7,25.2,39.9,31.5c12.6,4.2,21,4.2,21,14.7c0,8.4-8.4,14.7-21,14.7c-18.9,0-18.9-14.7-18.9-21L1335.8,203.5L1335.8,203.5 z M1533.1,165.7c0-21-16.8-35.7-39.9-35.7c-29.4,0-48.3,23.1-48.3,56.7c0,27.3,12.6,52.5,48.3,52.5c10.5,0,21-2.1,31.5-12.6 c8.4-8.4,8.4-18.9,10.5-25.2h-23.1c0,14.7-10.5,21-18.9,21c-23.1,0-23.1-29.4-23.1-35.7c0-21,6.3-39.9,23.1-39.9 c14.7,0,16.8,14.7,16.8,18.9H1533.1L1533.1,165.7z M1560.4,237.1h23.1v-46.2h39.9v46.2h23.1V130h-23.1v42h-39.9v-42h-23.1V237.1 L1560.4,237.1z M1678,237.1h73.5v-16.8H1701v-29.4h46.2v-16.8H1701v-25.2h48.3v-16.8H1678L1678,237.1L1678,237.1z" class="st0"/><path d="M330.2,77.5L330.2,77.5C330.2,75.4,330.2,75.4,330.2,77.5c0-14.7,10.5-25.2,23.1-25.2s23.1,10.5,23.1,23.1v2.1 L330.2,77.5L330.2,77.5z" class="st0"/><path d="M355.4,167.8v-25.2h-23.1h-79.8l0,0c2.1,14.7,12.6,25.2,27.3,25.2H355.4L355.4,167.8z" class="st0"/><path d="M277.7,77.5l-25.2-25.2H284l0,0c14.7,0,25.2,10.5,27.3,25.2H277.7L277.7,77.5z" class="st0"/><path d="M233.6,167.8h-29.4l0,0c2.1-14.7,14.7-25.2,29.4-25.2V167.8L233.6,167.8z" class="st0"/><path d="M347,197.2h-58.8h-56.7l0,0c-14.7,0-27.3-10.5-29.4-25.2h58.8h56.7l0,0C334.4,174.1,344.9,184.6,347,197.2 L347,197.2L347,197.2z" class="st0"/><path d="M265.1,235l-25.2,25.2h52.5h77.7h69.3c14.7,0,25.2-10.5,27.3-25.2l0,0h-52.5h-79.8H265.1L265.1,235z" class="st0"/><path d="M428.9,77.5L454,52.3h-31.5l0,0c-14.7,0-25.2,10.5-27.3,25.2H428.9L428.9,77.5z" class="st0"/><polygon points="397.4 106.9 422.6 81.7 422.6 81.7 284 83.8 307.1 106.9" class="st0"/><path d="M355.4,197.2V172h115.5l0,0c-2.1,14.7-12.6,25.2-27.3,25.2H355.4L355.4,197.2z" class="st0"/><path d="M361.7,167.8l25.2-25.2h71.4l0,0c-2.1,14.7-12.6,25.2-27.3,25.2H361.7L361.7,167.8z" class="st0"/><path d="M271.4,203.5H347h54.6H475l0,0c-2.1,14.7-12.6,25.2-27.3,25.2h-67.2h-37.8h-46.2l0,0 C284,228.7,273.5,218.2,271.4,203.5L271.4,203.5L271.4,203.5z" class="st0"/><path d="M244.1,289.5L244.1,289.5L212.6,321l-16.8-16.8l0,0l0,0l39.9-37.8h84h39.9h48.3h27.3h23.1 c-2.1,14.7-12.6,25.2-27.3,25.2L244.1,289.5L244.1,289.5z" class="st0"/><path d="M254.6,318.9H410c14.7,0,25.2-10.5,27.3-25.2H244.1l-105,102.9c10.5,8.4,27.3,8.4,37.8-2.1l0,0L254.6,318.9 L254.6,318.9z" class="st0"/><path d="M267.2,348.3h126c14.7,0,25.2-10.5,27.3-25.2H256.7l-73.5,73.5c10.5,8.4,27.3,8.4,37.8-2.1l0,0L267.2,348.3 L267.2,348.3z" class="st0"/><path d="M269.3,354.6h134.4l16.8,25.2h-71.4h-71.4l-16.8,16.8l0,0c-10.5,10.5-25.2,10.5-37.8,2.1L269.3,354.6 L269.3,354.6L269.3,354.6z" class="st0"/><path d="M447.7,415.5H311.3c2.1,14.7,12.6,25.2,27.3,25.2l0,0h126L447.7,415.5L447.7,415.5z" class="st0"/><path d="M426.8,386.1H284c2.1,14.7,12.6,25.2,27.3,25.2l0,0h132.3L426.8,386.1L426.8,386.1z" class="st0"/><path d="M353.3,719.9h-42l0,0c2.1,14.7,12.6,25.2,25.2,25.2h16.8h2.1L353.3,719.9L353.3,719.9L353.3,719.9L353.3,719.9 z" class="st0"/><path d="M372.2,682.1h-18.9h-65.1l0,0c2.1-14.7,12.6-25.2,27.3-25.2H347h25.2h25.2l0,0l0,0h31.5 c14.7,0,25.2,10.5,27.3,25.2l0,0h-65.1H372.2L372.2,682.1L372.2,682.1z" class="st0"/><path d="M330.2,598.1c12.6,2.1,23.1,10.5,25.2,25.2l0,0h-25.2V598.1L330.2,598.1L330.2,598.1z" class="st0"/><path d="M370.1,627.5h16.8h69.3l0,0c-2.1,14.7-12.6,25.2-27.3,25.2l0,0h-58.8h-21h-58.8l0,0 c2.1-14.7,12.6-25.2,27.3-25.2h31.5H370.1L370.1,627.5z" class="st0"/><path d="M357.5,688.4h58.8l0,0c-2.1,14.7-12.6,25.2-27.3,25.2l0,0h-31.5h-50.4H242l0,0c2.1-14.7,12.6-25.2,27.3-25.2 h31.5h27.3H357.5L357.5,688.4L357.5,688.4z" class="st0"/><path d="M380.6,136.3H273.5l0,0c2.1-14.7,12.6-25.2,27.3-25.2h79.8h69.3l0,0c-2.1,14.7-12.6,25.2-27.3,25.2l0,0H380.6 L380.6,136.3L380.6,136.3z" class="st0"/><path d="M382.7,537.3h-39.9c2.1,14.7,12.6,25.2,27.3,25.2l0,0h12.6l0,0h16.8l0,0H454l0,0 c-2.1-12.6-12.6-23.1-25.2-25.2h-29.4H382.7L382.7,537.3L382.7,537.3z" class="st0"/><path d="M456.1,507.9H336.5c2.1,14.7,12.6,25.2,27.3,25.2l0,0H431L456.1,507.9L456.1,507.9z" class="st0"/><polygon points="389 501.6 460.3 501.6 485.5 476.4 365.9 476.4 340.7 501.6" class="st0"/><path d="M372.2,447h-31.5c2.1,14.7,12.6,25.2,27.3,25.2l0,0h4.2h113.4l0,0c-2.1-12.6-12.6-23.1-25.2-25.2H372.2 L372.2,447L372.2,447z" class="st0"/><path d="M397.4,566.7h67.2c14.7,0,25.2,10.5,27.3,25.2h-94.5h-18.9l0,0c-14.7,0-25.2-10.5-27.3-25.2H397.4L397.4,566.7 L397.4,566.7z" class="st0"/><path d="M445.6,598.1h-54.6c-14.7,0-25.2,10.5-27.3,25.2h81.9h18.9c14.7,0,25.2-10.5,27.3-25.2H445.6L445.6,598.1 L445.6,598.1z" class="st0"/><path d="M496,390.3l16.8-16.8l16.8-16.8l0,0c8.4,10.5,8.4,27.3-2.1,35.7l0,0l-14.7,14.7l-10.5,10.5l0,0 c-10.5,10.5-25.2,10.5-35.7,2.1L496,390.3L496,390.3z" class="st0"/><path d="M588.4,117.4V81.7l0,0c10.5,0,18.9,6.3,23.1,12.6L588.4,117.4L588.4,117.4z" class="st0"/><path d="M590.5,295.8l60.9-60.9l0,0c8.4,10.5,8.4,27.3-2.1,35.7l-60.9,60.9l0,0C580,321,580,306.3,590.5,295.8 L590.5,295.8L590.5,295.8z" class="st0"/><path d="M643,237.1l-54.6,52.5l0,0c-8.4-10.5-8.4-27.3,2.1-35.7l54.6-52.5l0,0C653.5,209.8,653.5,226.6,643,237.1 L643,237.1L643,237.1z" class="st0"/><path d="M559,241.3L559,241.3l67.2-67.2l25.2-25.2l0,0c8.4,10.5,8.4,27.3-2.1,35.7l-54.6,54.6l0,0 C586.3,249.7,569.5,251.8,559,241.3L559,241.3L559,241.3z" class="st0"/><path d="M626.2,125.8l-39.9,37.8l0,0c-8.4-10.5-8.4-27.3,2.1-35.7l18.9-18.9l39.9-39.9l0,0c8.4,10.5,8.4,27.3-2.1,35.7 l0,0L626.2,125.8L626.2,125.8z" class="st0"/><path d="M472.9,146.8v-33.6l0,0l54.6-54.6l0,0c8.4,10.5,8.4,27.3-2.1,35.7L472.9,146.8L472.9,146.8z" class="st0"/><path d="M489.7,218.2c-8.4-10.5-8.4-27.3,2.1-35.7l0,0l39.9-37.8l16.8,16.8L489.7,218.2L489.7,218.2L489.7,218.2z" class="st0"/><path d="M477.1,272.7c-8.4-10.5-8.4-27.3,2.1-35.7l0,0l73.5-73.5l16.8,16.8L477.1,272.7L477.1,272.7L477.1,272.7z" class="st0"/><path d="M651.4,106.9c8.4,10.5,8.4,27.3-2.1,35.7L447.8,342c-8.4-10.5-8.4-27.3,2.1-35.7L651.4,106.9L651.4,106.9 L651.4,106.9z" class="st0"/><path d="M493.9,83.8l-21,21V75.4h2.1C483.4,75.4,489.7,79.6,493.9,83.8L493.9,83.8L493.9,83.8z" class="st0"/><path d="M529.6,270.7L529.6,270.7c8.4,10.5,8.4,25.2-2.1,35.7l-2.1,2.1l0,0l-18.9,18.9l-25.2,25.2L470.8,363l0,0 c-10.5,10.5-25.2,10.5-35.7,2.1l31.5-31.5l25.2-23.1l21-21L529.6,270.7L529.6,270.7L529.6,270.7z" class="st0"/><path d="M472.9,371.4l18.9-18.9l21-21l16.8-16.8l0,0c8.4,10.5,8.4,27.3-2.1,35.7l0,0l-18.9,18.9l-18.9,18.9l-2.1,2.1 l0,0c-10.5,10.5-25.2,10.5-35.7,2.1l0,0L472.9,371.4L472.9,371.4L472.9,371.4z" class="st0"/><path d="M626.2,381.9L561.1,447l-12.6,12.6L538,470.1l0,0c-10.5,10.5-25.2,10.5-35.7,2.1l31.5-31.5l10.5-10.5 l65.1-65.1l12.6-12.6l21-21l16.8-16.8l0,0c8.4,10.5,8.4,27.3-2.1,35.7l0,0l-18.9,18.9L626.2,381.9L626.2,381.9z" class="st0"/><path d="M546.4,417.6l35.7-35.7l0,0c-10.5-8.4-27.3-8.4-35.7,2.1l0,0l-16.8,16.8l-21,21l0,0l-21,21l0,0 c10.5,8.4,27.3,8.4,35.7-2.1l2.1-2.1L546.4,417.6L546.4,417.6L546.4,417.6L546.4,417.6z" class="st0"/><path d="M502.3,125.8l14.7-14.7l0,0l16.8-14.7l0,0c8.4,10.5,8.4,27.3-2.1,35.7l0,0l-10.5,10.5l-10.5,10.5l-4.2,4.2 l-25.2,25.2c-8.4-10.5-8.4-27.3,2.1-35.7l0,0l8.4-8.4l0,0L502.3,125.8L502.3,125.8z" class="st0"/><polygon points="458.2 514.2 489.7 482.7 508.6 499.5 475 531" class="st0"/><path d="M546.4,503.7l-18.9,18.9L517,533.1l0,0c-10.5,10.5-25.2,10.5-35.7,2.1l31.5-31.5H546.4L546.4,503.7z" class="st0"/><path d="M626.2,390.3l31.5-31.5l0,0c8.4,10.5,8.4,27.3-2.1,35.7l0,0L643,407.1l-54.6,52.5l-42,42l0,0 c-8.4-10.5-8.4-27.3,2.1-35.7l23.1-21L626.2,390.3L626.2,390.3L626.2,390.3z" class="st0"/><path d="M512.8,545.7L512.8,545.7l44.1-42l25.2-25.2l0,0c8.4,10.5,8.4,27.3-2.1,35.7l-33.6,31.5H512.8L512.8,545.7z" class="st0"/><polygon points="548.5 552 571.6 528.9 571.6 562.5 548.5 585.5" class="st0"/><path d="M588.4,375.6L588.4,375.6c-8.4-10.5-8.4-27.3,2.1-35.7l71.4-71.4l0,0c8.4,10.5,8.4,27.3-2.1,35.7L588.4,375.6 L588.4,375.6L588.4,375.6z" class="st0"/><path d="M603.1,470.1h-14.7l23.1-23.1l0,0c6.3,6.3,6.3,14.7,0,18.9C609.4,470.1,605.2,470.1,603.1,470.1L603.1,470.1 L603.1,470.1z" class="st0"/><path d="M93,96.4L93,96.4C82.5,88,65.7,88,57.3,98.5l0,0l16.8,16.8L93,96.4L93,96.4z" class="st0"/><path d="M153.8,77.5l-25.2,25.2l-25.2,25.2l-27.3,27.3l-33.6,33.6l0,0c-8.4-10.5-8.4-27.3,2.1-35.7l25.2-25.2 l25.2-23.1l21-21l0,0l0,0C126.6,71.2,143.3,69.1,153.8,77.5L153.8,77.5L153.8,77.5z" class="st0"/><path d="M155.9,119.5L137,138.4l-25.2,25.2l-10.5,10.5l0,0c-10.5,10.5-25.2,10.5-35.7,2.1l31.5-31.5l25.2-23.1l21-21 l16.8-16.8l0,0C166.4,94.3,166.4,109,155.9,119.5L155.9,119.5L155.9,119.5z" class="st0"/><path d="M200,117.4l-44.1,44.1l-58.8,58.8l0,0c-8.4-10.5-8.4-27.3,2.1-35.7l46.2-46.2l56.7-56.7l0,0 C210.5,92.2,210.5,106.9,200,117.4L200,117.4L200,117.4z" class="st0"/><path d="M88.8,237.1l18.9-18.9l27.3-27.3l21-21l25.2-25.2l0,0c8.4,10.5,8.4,27.3-2.1,35.7L164.3,193l-25.2,25.2 L122.4,235l0,0C116.1,245.5,101.4,245.5,88.8,237.1L88.8,237.1L88.8,237.1z" class="st0"/><path d="M183.2,186.7l16.8,16.8l-33.6,33.6l0,0c-10.5,10.5-25.2,10.5-35.7,2.1L183.2,186.7L183.2,186.7z" class="st0"/><path d="M244.1,245.5l-16.8-16.8l-14.7,14.7L158,297.9l0,0c10.5,8.4,25.2,8.4,35.7,0L244.1,245.5L244.1,245.5z" class="st0"/><path d="M223.1,224.5l-16.8-16.8l-14.7,14.7L137,276.9l0,0c10.5,8.4,25.2,8.4,35.7,0L223.1,224.5L223.1,224.5z" class="st0"/><path d="M53.1,306.3l-16.8-16.8l0,0C46.8,279,61.5,279,72,287.4L53.1,306.3L53.1,306.3z" class="st0"/><path d="M63.6,339.9L40.5,363l-21,21l0,0c-8.4-10.5-8.4-27.3,2.1-35.7l0,0l25.2-25.2l4.2-4.2L90.9,279l21-21l0,0 c8.4,10.5,8.4,27.3-2.1,35.7l-33.6,33.6L63.6,339.9L63.6,339.9z" class="st0"/><path d="M126.6,321L72,375.6l-48.3,48.3l0,0c-8.4-10.5-8.4-27.3,2.1-35.7l54.6-54.6l48.3-48.3l0,0 C137,293.7,137,310.5,126.6,321L126.6,321L126.6,321z" class="st0"/><path d="M86.7,367.2c-10.5,10.5-10.5,25.2-2.1,35.7l0,0l77.7-77.7h-35.7L86.7,367.2L86.7,367.2L86.7,367.2z" class="st0"/><path d="M107.7,423.9C97.2,434.4,82.5,434.4,72,426l0,0l33.6-33.6l37.8-37.8l27.3-27.3h35.7l-52.5,52.5L107.7,423.9 L107.7,423.9L107.7,423.9L107.7,423.9z" class="st0"/><path d="M286.1,415.5l-48.3,48.3l0,0c-8.4-10.5-8.4-27.3,2.1-35.7l10.5-10.5L286.1,415.5L286.1,415.5z" class="st0"/><path d="M200,510l-94.5,94.5c10.5,8.4,27.3,8.4,37.8-2.1l0,0l92.4-92.4H200L200,510z" class="st0"/><path d="M126.6,486.9l-16.8-16.8l0,0c10.5-10.5,25.2-10.5,35.7-2.1L126.6,486.9L126.6,486.9z" class="st0"/><path d="M193.7,461.7l-54.6,54.6l-48.3,48.3l0,0c-8.4-10.5-8.4-27.3,2.1-35.7l54.6-54.6l48.3-48.3l0,0 C204.2,436.5,204.2,453.3,193.7,461.7L193.7,461.7L193.7,461.7z" class="st0"/><path d="M193.7,505.8c10.5-10.5,10.5-25.2,2.1-35.7L179,486.9l-48.3,48.3c-10.5,10.5-10.5,25.2-2.1,35.7l0,0l52.5-52.5 L193.7,505.8L193.7,505.8L193.7,505.8L193.7,505.8z" class="st0"/><path d="M340.7,533.1l-16.8-16.8l-27.3,27.3L242,598.1l0,0c10.5,8.4,25.2,8.4,35.7,0L340.7,533.1L340.7,533.1z" class="st0"/><path d="M315.5,564.6l-29.4,29.4l0,0c10.5,8.4,25.2,8.4,35.7,0l12.6-12.6l14.7-14.7l-16.8-16.8L315.5,564.6 L315.5,564.6L315.5,564.6z" class="st0"/><path d="M292.4,417.6l16.8,16.8l-65.1,65.1l0,0c-8.4-10.5-8.4-27.3,2.1-35.7L292.4,417.6L292.4,417.6z" class="st0"/><path d="M212.6,575.1c-10.5,10.5-25.2,10.5-35.7,2.1l0,0l138.6-138.6l16.8,16.8L212.6,575.1L212.6,575.1L212.6,575.1z" class="st0"/><path d="M216.8,612.8c-10.5,10.5-25.2,10.5-35.7,2.1l0,0l155.4-155.4l16.8,16.8L216.8,612.8L216.8,612.8L216.8,612.8z" class="st0"/></g></svg>