<svg xmlns="http://www.w3.org/2000/svg" width="1017.46" height="272.34" viewBox="0 0 1017.46 272.34">
  <defs>
    <style>
      .cls-1 {
        fill: #fff;
      }
    </style>
  </defs>
  <title>Museum_Industriekultur_Logo</title>
  <g id="Ebene_2" data-name="Ebene 2">
    <g id="Ebene_1-2" data-name="Ebene 1">
      <g id="Page-1">
        <g id="MI-W-blau-schwarz">
          <rect id="Rectangle-path" class="cls-1" x="244.17" width="31.7" height="127.97"/>
          <polygon id="Shape" class="cls-1" points="334.63 0 289.83 63.98 334.63 127.97 372 127.97 327.2 63.98 372 0 334.63 0"/>
          <polygon id="Shape-2" data-name="Shape" class="cls-1" points="0 0 44.8 63.98 0 127.97 37.37 127.97 82.17 63.98 37.37 0 0 0"/>
          <polygon id="Shape-3" data-name="Shape" class="cls-1" points="209.29 0 157.78 62.88 106.27 0 96.13 0 96.13 127.97 127.83 127.97 127.83 72.98 157.78 107.99 187.74 72.98 187.74 127.97 219.43 127.97 219.43 0 209.29 0"/>
        </g>
      </g>
      <g id="g10">
        <g id="g12">
          <path id="path14" class="cls-1" d="M280.63,207.57h-7.78V187.22l-9.63,12.05h-2.54l-9.57-12.05v20.36h-7.78V168.82h2.59l16,20.64,16.15-20.64h2.54Z"/>
        </g>
        <g id="g24">
          <path id="path26" class="cls-1" d="M322.43,191.83a18.1,18.1,0,0,1-1.24,6.86,15.22,15.22,0,0,1-3.4,5.19,14.61,14.61,0,0,1-5.1,3.26,17.78,17.78,0,0,1-6.4,1.12,18,18,0,0,1-6.43-1.12,14.54,14.54,0,0,1-5.13-3.26,14.87,14.87,0,0,1-3.37-5.19,18.5,18.5,0,0,1-1.21-6.86V169.51h7.78V192.4a10.21,10.21,0,0,0,.63,3.75,7.58,7.58,0,0,0,1.76,2.71,7.25,7.25,0,0,0,2.65,1.64,10.31,10.31,0,0,0,6.63,0,7.26,7.26,0,0,0,2.65-1.64,7.59,7.59,0,0,0,1.76-2.71,10.21,10.21,0,0,0,.63-3.75V169.51h7.78Z"/>
        </g>
        <g id="g28">
          <path id="path30" class="cls-1" d="M343.54,168.82a14.1,14.1,0,0,1,7.76,2,13.9,13.9,0,0,1,4.87,5.16l-5.31,4.09a11.27,11.27,0,0,0-3.14-3.23,7.35,7.35,0,0,0-4.12-1.15,6,6,0,0,0-3.35.89,3.09,3.09,0,0,0-1.38,2.8A3,3,0,0,0,340,182a18.54,18.54,0,0,0,3.29,1.84l4.33,1.9a22.56,22.56,0,0,1,6.95,4.53,9,9,0,0,1,2.45,6.6,10.79,10.79,0,0,1-1,4.79,10.64,10.64,0,0,1-2.83,3.6,12.64,12.64,0,0,1-4.21,2.25,17.06,17.06,0,0,1-5.25.78,16.33,16.33,0,0,1-14.7-8.42l5.36-4a17.15,17.15,0,0,0,1.67,2.08,12.78,12.78,0,0,0,2,1.76,9.57,9.57,0,0,0,5.62,1.7,6.31,6.31,0,0,0,3.95-1.1,3.71,3.71,0,0,0,1.41-3.11,3.2,3.2,0,0,0-1.27-2.77,20.76,20.76,0,0,0-3.58-2l-4-1.85a31.84,31.84,0,0,1-3.72-2,13.84,13.84,0,0,1-2.91-2.39,10.43,10.43,0,0,1-1.9-2.94,9.13,9.13,0,0,1-.69-3.63,10,10,0,0,1,1-4.47,10.46,10.46,0,0,1,2.65-3.4,11.74,11.74,0,0,1,4-2.16,16,16,0,0,1,5-.75"/>
        </g>
        <g id="g32">
          <path id="path34" class="cls-1" d="M390.65,176.55H372.83v7.73H386v6.63H372.83v9.63h18.51v7H365V169.51h25.6Z"/>
        </g>
        <g id="g36">
          <path id="path38" class="cls-1" d="M431.19,191.83a18.1,18.1,0,0,1-1.24,6.86,15.21,15.21,0,0,1-3.4,5.19,14.61,14.61,0,0,1-5.1,3.26,17.78,17.78,0,0,1-6.4,1.12,18,18,0,0,1-6.43-1.12,14.55,14.55,0,0,1-5.13-3.26,14.87,14.87,0,0,1-3.37-5.19,18.48,18.48,0,0,1-1.21-6.86V169.51h7.78V192.4a10.19,10.19,0,0,0,.63,3.75,7.58,7.58,0,0,0,1.76,2.71,7.25,7.25,0,0,0,2.65,1.64,10.31,10.31,0,0,0,6.63,0,7.27,7.27,0,0,0,2.65-1.64,7.59,7.59,0,0,0,1.76-2.71,10.21,10.21,0,0,0,.63-3.75V169.51h7.78Z"/>
        </g>
        <g id="g40">
          <path id="path42" class="cls-1" d="M478,207.57h-7.78V187.22l-9.63,12.05h-2.54l-9.57-12.05v20.36H440.7V168.82h2.59l16,20.64,16.15-20.64H478Z"/>
        </g>
        <path id="path44" class="cls-1" d="M510.07,207.57h-7.79V169.51h7.79Z"/>
        <g id="g46">
          <path id="path48" class="cls-1" d="M544.5,192.23V169.51h7.78v38.75h-2.54l-22.08-23.53v22.84h-7.78V168.82h2.59Z"/>
        </g>
        <g id="g50">
          <path id="path52" class="cls-1" d="M569.93,176.55v24h4.67a15.2,15.2,0,0,0,5.25-.86,11.59,11.59,0,0,0,4-2.45,11,11,0,0,0,2.59-3.81,14,14,0,0,0,0-10,10.49,10.49,0,0,0-2.59-3.72,11.37,11.37,0,0,0-4-2.33,16.17,16.17,0,0,0-5.25-.81Zm4.73-7a25.05,25.05,0,0,1,8.39,1.35,18.88,18.88,0,0,1,6.54,3.83,17.51,17.51,0,0,1,4.24,6,20.37,20.37,0,0,1,0,15.48,18,18,0,0,1-4.24,6.05,19.1,19.1,0,0,1-6.54,3.95,24.07,24.07,0,0,1-8.39,1.41H562.14V169.51Z"/>
        </g>
        <g id="g54">
          <path id="path56" class="cls-1" d="M635,191.83a18.1,18.1,0,0,1-1.24,6.86,15.21,15.21,0,0,1-3.4,5.19,14.61,14.61,0,0,1-5.1,3.26,17.78,17.78,0,0,1-6.4,1.12,18,18,0,0,1-6.43-1.12,14.55,14.55,0,0,1-5.13-3.26,14.87,14.87,0,0,1-3.37-5.19,18.48,18.48,0,0,1-1.21-6.86V169.51h7.78V192.4a10.19,10.19,0,0,0,.63,3.75,7.58,7.58,0,0,0,1.76,2.71,7.25,7.25,0,0,0,2.65,1.64,10.31,10.31,0,0,0,6.63,0,7.27,7.27,0,0,0,2.65-1.64,7.59,7.59,0,0,0,1.76-2.71,10.21,10.21,0,0,0,.63-3.75V169.51H635Z"/>
        </g>
        <g id="g58">
          <path id="path60" class="cls-1" d="M656.19,168.82a14.1,14.1,0,0,1,7.76,2,13.9,13.9,0,0,1,4.87,5.16l-5.31,4.09a11.27,11.27,0,0,0-3.14-3.23,7.35,7.35,0,0,0-4.12-1.15,6,6,0,0,0-3.35.89,3.09,3.09,0,0,0-1.38,2.8,3,3,0,0,0,1.15,2.54,18.54,18.54,0,0,0,3.29,1.84l4.33,1.9a22.56,22.56,0,0,1,6.95,4.53,9,9,0,0,1,2.45,6.6,10.79,10.79,0,0,1-1,4.79,10.64,10.64,0,0,1-2.83,3.6,12.64,12.64,0,0,1-4.21,2.25,17.06,17.06,0,0,1-5.25.78,16.33,16.33,0,0,1-14.7-8.42l5.36-4a17.15,17.15,0,0,0,1.67,2.08,12.78,12.78,0,0,0,2,1.76,9.57,9.57,0,0,0,5.62,1.7,6.31,6.31,0,0,0,3.95-1.1,3.71,3.71,0,0,0,1.41-3.11,3.2,3.2,0,0,0-1.27-2.77,20.76,20.76,0,0,0-3.58-2l-4-1.85a31.84,31.84,0,0,1-3.72-2,13.84,13.84,0,0,1-2.91-2.39,10.43,10.43,0,0,1-1.9-2.94,9.13,9.13,0,0,1-.69-3.63,10,10,0,0,1,1-4.47,10.46,10.46,0,0,1,2.65-3.4,11.74,11.74,0,0,1,4-2.16,16,16,0,0,1,5-.75"/>
        </g>
        <g id="g62">
          <path id="path64" class="cls-1" d="M706.3,176.55H694.08v31h-7.79v-31H674.13v-7H706.3Z"/>
        </g>
        <g id="g66">
          <path id="path68" class="cls-1" d="M720.37,176.37v10.9h6.52a5.77,5.77,0,0,0,4.27-1.5,5.38,5.38,0,0,0,1.5-4,5.3,5.3,0,0,0-1.5-3.92,5.77,5.77,0,0,0-4.27-1.5Zm6.57-6.86a16.81,16.81,0,0,1,5.51.86,12.64,12.64,0,0,1,4.33,2.48,11.24,11.24,0,0,1,2.83,3.89,12.32,12.32,0,0,1,1,5,11.89,11.89,0,0,1-1.79,6.54,11.71,11.71,0,0,1-4.9,4.3l10.73,14.94h-8.77L726,194.13h-5.65v13.44h-7.79V169.51Z"/>
        </g>
        <path id="path70" class="cls-1" d="M758.43,207.57h-7.79V169.51h7.79Z"/>
        <g id="g72">
          <path id="path74" class="cls-1" d="M793.84,176.55H776v7.73h13.15v6.63H776v9.63h18.51v7h-26.3V169.51h25.6Z"/>
        </g>
        <g id="g76">
          <path id="path78" class="cls-1" d="M810.21,187.16l14.53-17.65H834l-14.65,17.93,16.55,20.13h-9.4l-16.32-19.84v19.84h-7.79V169.51h7.79Z"/>
        </g>
        <g id="g80">
          <path id="path82" class="cls-1" d="M873.59,191.83a18.1,18.1,0,0,1-1.24,6.86,15.21,15.21,0,0,1-3.4,5.19,14.61,14.61,0,0,1-5.1,3.26,17.78,17.78,0,0,1-6.4,1.12,18,18,0,0,1-6.43-1.12,14.55,14.55,0,0,1-5.13-3.26,14.87,14.87,0,0,1-3.37-5.19,18.48,18.48,0,0,1-1.21-6.86V169.51h7.78V192.4a10.19,10.19,0,0,0,.63,3.75,7.58,7.58,0,0,0,1.76,2.71,7.25,7.25,0,0,0,2.65,1.64,10.31,10.31,0,0,0,6.63,0,7.27,7.27,0,0,0,2.65-1.64,7.59,7.59,0,0,0,1.76-2.71,10.21,10.21,0,0,0,.63-3.75V169.51h7.78Z"/>
        </g>
        <g id="g84">
          <path id="path86" class="cls-1" d="M890.89,200.54h16.66v7H883.1V169.51h7.79Z"/>
        </g>
        <g id="g88">
          <path id="path90" class="cls-1" d="M937.65,176.55H925.43v31h-7.79v-31H905.48v-7h32.18Z"/>
        </g>
        <g id="g92">
          <path id="path94" class="cls-1" d="M975.88,191.83a18.1,18.1,0,0,1-1.24,6.86,15.21,15.21,0,0,1-3.4,5.19,14.61,14.61,0,0,1-5.1,3.26,17.78,17.78,0,0,1-6.4,1.12,18,18,0,0,1-6.43-1.12,14.55,14.55,0,0,1-5.13-3.26,14.87,14.87,0,0,1-3.37-5.19,18.48,18.48,0,0,1-1.21-6.86V169.51h7.78V192.4a10.19,10.19,0,0,0,.63,3.75,7.58,7.58,0,0,0,1.76,2.71,7.25,7.25,0,0,0,2.65,1.64,10.31,10.31,0,0,0,6.63,0,7.27,7.27,0,0,0,2.65-1.64,7.59,7.59,0,0,0,1.76-2.71,10.21,10.21,0,0,0,.63-3.75V169.51h7.78Z"/>
        </g>
        <g id="g96">
          <path id="path98" class="cls-1" d="M993.18,176.37v10.9h6.52a5.77,5.77,0,0,0,4.27-1.5,5.38,5.38,0,0,0,1.5-4,5.3,5.3,0,0,0-1.5-3.92,5.77,5.77,0,0,0-4.27-1.5Zm6.57-6.86a16.81,16.81,0,0,1,5.51.86,12.64,12.64,0,0,1,4.33,2.48,11.24,11.24,0,0,1,2.83,3.89,12.32,12.32,0,0,1,1,5,11.89,11.89,0,0,1-1.79,6.54,11.71,11.71,0,0,1-4.9,4.3l10.73,14.94h-8.77l-9.86-13.44h-5.65v13.44H985.4V169.51Z"/>
        </g>
        <g id="g100">
          <path id="path102" class="cls-1" d="M193.67,256l8.48-22.43h8.65l-15.22,38.75H193l-10.67-23.82-10.61,23.82h-2.54L154,233.59h8.65L171.13,256l10-23.12h2.59Z"/>
        </g>
        <g id="g104">
          <path id="path106" class="cls-1" d="M249.72,255.9a18.1,18.1,0,0,1-1.24,6.86,15.21,15.21,0,0,1-3.4,5.19,14.6,14.6,0,0,1-5.1,3.26,17.78,17.78,0,0,1-6.4,1.12,18,18,0,0,1-6.43-1.12A14.55,14.55,0,0,1,222,268a14.87,14.87,0,0,1-3.37-5.19,18.48,18.48,0,0,1-1.21-6.86V233.59h7.78v22.89a10.19,10.19,0,0,0,.63,3.75,7.57,7.57,0,0,0,1.76,2.71,7.26,7.26,0,0,0,2.65,1.64,10.31,10.31,0,0,0,6.63,0,7.27,7.27,0,0,0,2.65-1.64,7.59,7.59,0,0,0,1.76-2.71,10.21,10.21,0,0,0,.63-3.75V233.59h7.78Z"/>
        </g>
        <g id="g108">
          <path id="path110" class="cls-1" d="M267,240.45v11h6.52a5.71,5.71,0,0,0,4.27-1.53,5.48,5.48,0,0,0,1.5-4,5.3,5.3,0,0,0-1.5-3.92,5.77,5.77,0,0,0-4.27-1.5Zm6.57-6.86a16.82,16.82,0,0,1,5.51.86,12.63,12.63,0,0,1,4.32,2.48,11.23,11.23,0,0,1,2.83,3.89,12.32,12.32,0,0,1,1,5,12.11,12.11,0,0,1-1,5,11.59,11.59,0,0,1-2.83,3.89,12.72,12.72,0,0,1-4.32,2.54,16.3,16.3,0,0,1-5.51.89H267v13.44h-7.78V233.59Z"/>
        </g>
        <g id="g112">
          <path id="path114" class="cls-1" d="M302.37,240.45v11h6.52a5.71,5.71,0,0,0,4.27-1.53,5.48,5.48,0,0,0,1.5-4,5.3,5.3,0,0,0-1.5-3.92,5.77,5.77,0,0,0-4.27-1.5Zm6.57-6.86a16.81,16.81,0,0,1,5.51.86,12.64,12.64,0,0,1,4.33,2.48,11.24,11.24,0,0,1,2.83,3.89,12.32,12.32,0,0,1,1,5,12.11,12.11,0,0,1-1,5,11.6,11.6,0,0,1-2.83,3.89,12.72,12.72,0,0,1-4.33,2.54,16.29,16.29,0,0,1-5.51.89h-6.57v13.44h-7.79V233.59Z"/>
        </g>
        <g id="g116">
          <path id="path118" class="cls-1" d="M355.54,240.62H337.72v7.73h13.15V255H337.72v9.63h18.51v7h-26.3V233.59h25.6Z"/>
        </g>
        <g id="g120">
          <path id="path122" class="cls-1" d="M371.86,240.45v10.9h6.52a5.77,5.77,0,0,0,4.27-1.5,5.38,5.38,0,0,0,1.5-4,5.3,5.3,0,0,0-1.5-3.92,5.77,5.77,0,0,0-4.27-1.5Zm6.57-6.86a16.81,16.81,0,0,1,5.51.86,12.64,12.64,0,0,1,4.33,2.48,11.24,11.24,0,0,1,2.83,3.89,12.32,12.32,0,0,1,1,5,11.89,11.89,0,0,1-1.79,6.54,11.71,11.71,0,0,1-4.9,4.3l10.73,14.94h-8.77l-9.86-13.44h-5.65v13.44h-7.79V233.59Z"/>
        </g>
        <g id="g124">
          <path id="path126" class="cls-1" d="M429.35,240.62H417.12v31h-7.79v-31H397.17v-7h32.18Z"/>
        </g>
        <g id="g128">
          <path id="path130" class="cls-1" d="M440.94,260.29H451l-5-12.86Zm23.35,11.36h-8.36l-2.13-5H438.23l-2.13,5h-8.36l17-38.75h2.54Z"/>
        </g>
        <g id="g132">
          <path id="path134" class="cls-1" d="M478.36,264.61H495v7H470.58V233.59h7.79Z"/>
        </g>
      </g>
    </g>
  </g>
</svg>
