<svg xmlns="http://www.w3.org/2000/svg" xmlns:xlink="http://www.w3.org/1999/xlink" id="Layer_1" x="0" y="0" version="1.1" viewBox="0 0 3135.9 1155" xml:space="preserve" style="enable-background:new 0 0 3135.9 1155"><style type="text/css">.st0{fill:#fff}</style><g><g><rect width="22.9" height="22.9" x="509" y="245" class="st0"/><rect width="22.9" height="22.9" x="554.9" y="245" class="st0"/><rect width="22.9" height="22.9" x="577.8" y="245" class="st0"/><rect width="22.9" height="22.9" x="600.8" y="245" class="st0"/><rect width="22.9" height="22.9" x="669.6" y="245" class="st0"/><rect width="22.9" height="22.9" x="692.5" y="245" class="st0"/><rect width="22.9" height="22.9" x="738.3" y="245" class="st0"/><rect width="22.9" height="22.9" x="784.2" y="245" class="st0"/><rect width="22.9" height="22.9" x="509" y="267.9" class="st0"/><rect width="22.9" height="22.9" x="532" y="267.9" class="st0"/><rect width="22.9" height="22.9" x="554.9" y="267.9" class="st0"/><rect width="22.9" height="22.9" x="577.8" y="267.9" class="st0"/><rect width="22.9" height="22.9" x="600.8" y="267.9" class="st0"/><rect width="22.9" height="22.9" x="692.5" y="267.9" class="st0"/><rect width="22.9" height="22.9" x="761.3" y="267.9" class="st0"/><rect width="22.9" height="22.9" x="509" y="290.9" class="st0"/><rect width="22.9" height="22.9" x="532" y="290.9" class="st0"/><rect width="22.9" height="22.9" x="554.9" y="290.9" class="st0"/><rect width="22.9" height="22.9" x="600.8" y="290.9" class="st0"/><rect width="22.9" height="22.9" x="669.6" y="290.9" class="st0"/><rect width="22.9" height="22.9" x="692.5" y="290.9" class="st0"/><rect width="22.9" height="22.9" x="554.9" y="313.8" class="st0"/><rect width="22.9" height="22.9" x="692.5" y="313.8" class="st0"/><rect width="22.9" height="22.9" x="715.4" y="313.8" class="st0"/><rect width="22.9" height="22.9" x="509" y="336.7" class="st0"/><rect width="22.9" height="22.9" x="646.6" y="336.7" class="st0"/><rect width="22.9" height="22.9" x="669.6" y="336.7" class="st0"/><rect width="22.9" height="22.9" x="692.5" y="336.7" class="st0"/><rect width="22.9" height="22.9" x="715.4" y="336.7" class="st0"/><rect width="22.9" height="22.9" x="738.3" y="336.7" class="st0"/><rect width="22.9" height="22.9" x="761.3" y="336.7" class="st0"/><rect width="22.9" height="22.9" x="532" y="359.7" class="st0"/><rect width="22.9" height="22.9" x="600.8" y="359.7" class="st0"/><rect width="22.9" height="22.9" x="669.6" y="359.7" class="st0"/><rect width="22.9" height="22.9" x="692.5" y="359.7" class="st0"/><rect width="22.9" height="22.9" x="738.3" y="359.7" class="st0"/><rect width="22.9" height="22.9" x="509" y="382.6" class="st0"/><rect width="22.9" height="22.9" x="554.9" y="382.6" class="st0"/><rect width="22.9" height="22.9" x="600.8" y="382.6" class="st0"/><rect width="22.9" height="22.9" x="646.6" y="382.6" class="st0"/><rect width="22.9" height="22.9" x="692.5" y="382.6" class="st0"/><rect width="22.9" height="22.9" x="738.3" y="382.6" class="st0"/><rect width="22.9" height="22.9" x="784.2" y="382.6" class="st0"/><rect width="22.9" height="22.9" x="532" y="405.5" class="st0"/><rect width="22.9" height="22.9" x="577.8" y="405.5" class="st0"/><rect width="22.9" height="22.9" x="623.7" y="405.5" class="st0"/><rect width="22.9" height="22.9" x="669.6" y="405.5" class="st0"/><rect width="22.9" height="22.9" x="692.5" y="405.5" class="st0"/><rect width="22.9" height="22.9" x="738.3" y="405.5" class="st0"/><rect width="22.9" height="22.9" x="761.3" y="405.5" class="st0"/><rect width="22.9" height="22.9" x="325.6" y="428.4" class="st0"/><rect width="22.9" height="22.9" x="394.4" y="428.4" class="st0"/><rect width="22.9" height="22.9" x="417.3" y="428.4" class="st0"/><rect width="22.9" height="22.9" x="440.2" y="428.4" class="st0"/><rect width="22.9" height="22.9" x="463.2" y="428.4" class="st0"/><rect width="22.9" height="22.9" x="486.1" y="428.4" class="st0"/><rect width="22.9" height="22.9" x="509" y="428.4" class="st0"/><rect width="22.9" height="22.9" x="532" y="428.4" class="st0"/><rect width="22.9" height="22.9" x="554.9" y="428.4" class="st0"/><rect width="22.9" height="22.9" x="577.8" y="428.4" class="st0"/><rect width="22.9" height="22.9" x="623.7" y="428.4" class="st0"/><rect width="22.9" height="22.9" x="715.4" y="428.4" class="st0"/><rect width="22.9" height="22.9" x="807.1" y="428.4" class="st0"/><rect width="22.9" height="22.9" x="875.9" y="428.4" class="st0"/><rect width="22.9" height="22.9" x="921.8" y="428.4" class="st0"/><rect width="22.9" height="22.9" x="944.7" y="428.4" class="st0"/><rect width="22.9" height="22.9" x="967.7" y="428.4" class="st0"/><rect width="22.9" height="22.9" x="325.6" y="451.4" class="st0"/><rect width="22.9" height="22.9" x="348.5" y="451.4" class="st0"/><rect width="22.9" height="22.9" x="417.3" y="451.4" class="st0"/><rect width="22.9" height="22.9" x="440.2" y="451.4" class="st0"/><rect width="22.9" height="22.9" x="486.1" y="451.4" class="st0"/><rect width="22.9" height="22.9" x="509" y="451.4" class="st0"/><rect width="22.9" height="22.9" x="532" y="451.4" class="st0"/><rect width="22.9" height="22.9" x="554.9" y="451.4" class="st0"/><rect width="22.9" height="22.9" x="577.8" y="451.4" class="st0"/><rect width="22.9" height="22.9" x="600.8" y="451.4" class="st0"/><rect width="22.9" height="22.9" x="623.7" y="451.4" class="st0"/><rect width="22.9" height="22.9" x="692.5" y="451.4" class="st0"/><rect width="22.9" height="22.9" x="761.3" y="451.4" class="st0"/><rect width="22.9" height="22.9" x="853" y="451.4" class="st0"/><rect width="22.9" height="22.9" x="875.9" y="451.4" class="st0"/><rect width="22.9" height="22.9" x="921.8" y="451.4" class="st0"/><rect width="22.9" height="22.9" x="944.7" y="451.4" class="st0"/><rect width="22.9" height="22.9" x="371.4" y="474.3" class="st0"/><rect width="22.9" height="22.9" x="417.3" y="474.3" class="st0"/><rect width="22.9" height="22.9" x="463.2" y="474.3" class="st0"/><rect width="22.9" height="22.9" x="509" y="474.3" class="st0"/><rect width="22.9" height="22.9" x="623.7" y="474.3" class="st0"/><rect width="22.9" height="22.9" x="669.6" y="474.3" class="st0"/><rect width="22.9" height="22.9" x="692.5" y="474.3" class="st0"/><rect width="22.9" height="22.9" x="738.3" y="474.3" class="st0"/><rect width="22.9" height="22.9" x="830.1" y="474.3" class="st0"/><rect width="22.9" height="22.9" x="875.9" y="474.3" class="st0"/><rect width="22.9" height="22.9" x="921.8" y="474.3" class="st0"/><rect width="22.9" height="22.9" x="325.6" y="497.2" class="st0"/><rect width="22.9" height="22.9" x="348.5" y="497.2" class="st0"/><rect width="22.9" height="22.9" x="394.4" y="497.2" class="st0"/><rect width="22.9" height="22.9" x="509" y="497.2" class="st0"/><rect width="22.9" height="22.9" x="532" y="497.2" class="st0"/><rect width="22.9" height="22.9" x="600.8" y="497.2" class="st0"/><rect width="22.9" height="22.9" x="623.7" y="497.2" class="st0"/><rect width="22.9" height="22.9" x="692.5" y="497.2" class="st0"/><rect width="22.9" height="22.9" x="715.4" y="497.2" class="st0"/><rect width="22.9" height="22.9" x="738.3" y="497.2" class="st0"/><rect width="22.9" height="22.9" x="784.2" y="497.2" class="st0"/><rect width="22.9" height="22.9" x="830.1" y="497.2" class="st0"/><rect width="22.9" height="22.9" x="853" y="497.2" class="st0"/><rect width="22.9" height="22.9" x="898.9" y="497.2" class="st0"/><rect width="22.9" height="22.9" x="967.7" y="497.2" class="st0"/><rect width="22.9" height="22.9" x="371.4" y="520.2" class="st0"/><rect width="22.9" height="22.9" x="394.4" y="520.2" class="st0"/><rect width="22.9" height="22.9" x="417.3" y="520.2" class="st0"/><rect width="22.9" height="22.9" x="463.2" y="520.2" class="st0"/><rect width="22.9" height="22.9" x="532" y="520.2" class="st0"/><rect width="22.9" height="22.9" x="623.7" y="520.2" class="st0"/><rect width="22.9" height="22.9" x="669.6" y="520.2" class="st0"/><rect width="22.9" height="22.9" x="692.5" y="520.2" class="st0"/><rect width="22.9" height="22.9" x="761.3" y="520.2" class="st0"/><rect width="22.9" height="22.9" x="784.2" y="520.2" class="st0"/><rect width="22.9" height="22.9" x="830.1" y="520.2" class="st0"/><rect width="22.9" height="22.9" x="853" y="520.2" class="st0"/><rect width="22.9" height="22.9" x="967.7" y="520.2" class="st0"/><rect width="22.9" height="22.9" x="325.6" y="543.1" class="st0"/><rect width="22.9" height="22.9" x="348.5" y="543.1" class="st0"/><rect width="22.9" height="22.9" x="371.4" y="543.1" class="st0"/><rect width="22.9" height="22.9" x="417.3" y="543.1" class="st0"/><rect width="22.9" height="22.9" x="486.1" y="543.1" class="st0"/><rect width="22.9" height="22.9" x="577.8" y="543.1" class="st0"/><rect width="22.9" height="22.9" x="600.8" y="543.1" class="st0"/><rect width="22.9" height="22.9" x="623.7" y="543.1" class="st0"/><rect width="22.9" height="22.9" x="646.6" y="543.1" class="st0"/><rect width="22.9" height="22.9" x="692.5" y="543.1" class="st0"/><rect width="22.9" height="22.9" x="715.4" y="543.1" class="st0"/><rect width="22.9" height="22.9" x="738.3" y="543.1" class="st0"/><rect width="22.9" height="22.9" x="830.1" y="543.1" class="st0"/><rect width="22.9" height="22.9" x="853" y="543.1" class="st0"/><rect width="22.9" height="22.9" x="875.9" y="543.1" class="st0"/><rect width="22.9" height="22.9" x="898.9" y="543.1" class="st0"/><rect width="22.9" height="22.9" x="921.8" y="543.1" class="st0"/><rect width="22.9" height="22.9" x="944.7" y="543.1" class="st0"/><rect width="22.9" height="22.9" x="967.7" y="543.1" class="st0"/><rect width="22.9" height="22.9" x="325.6" y="566" class="st0"/><rect width="22.9" height="22.9" x="348.5" y="566" class="st0"/><rect width="22.9" height="22.9" x="371.4" y="566" class="st0"/><rect width="22.9" height="22.9" x="417.3" y="566" class="st0"/><rect width="22.9" height="22.9" x="463.2" y="566" class="st0"/><rect width="22.9" height="22.9" x="509" y="566" class="st0"/><rect width="22.9" height="22.9" x="577.8" y="566" class="st0"/><rect width="22.9" height="22.9" x="623.7" y="566" class="st0"/><rect width="22.9" height="22.9" x="692.5" y="566" class="st0"/><rect width="22.9" height="22.9" x="738.3" y="566" class="st0"/><rect width="22.9" height="22.9" x="761.3" y="566" class="st0"/><rect width="22.9" height="22.9" x="784.2" y="566" class="st0"/><rect width="22.9" height="22.9" x="807.1" y="566" class="st0"/><rect width="22.9" height="22.9" x="853" y="566" class="st0"/><rect width="22.9" height="22.9" x="875.9" y="566" class="st0"/><rect width="22.9" height="22.9" x="921.8" y="566" class="st0"/><rect width="22.9" height="22.9" x="967.7" y="566" class="st0"/><rect width="22.9" height="22.9" x="325.6" y="589" class="st0"/><rect width="22.9" height="22.9" x="348.5" y="589" class="st0"/><rect width="22.9" height="22.9" x="371.4" y="589" class="st0"/><rect width="22.9" height="22.9" x="440.2" y="589" class="st0"/><rect width="22.9" height="22.9" x="486.1" y="589" class="st0"/><rect width="22.9" height="22.9" x="669.6" y="589" class="st0"/><rect width="22.9" height="22.9" x="761.3" y="589" class="st0"/><rect width="22.9" height="22.9" x="807.1" y="589" class="st0"/><rect width="22.9" height="22.9" x="830.1" y="589" class="st0"/><rect width="22.9" height="22.9" x="853" y="589" class="st0"/><rect width="22.9" height="22.9" x="921.8" y="589" class="st0"/><rect width="22.9" height="22.9" x="967.7" y="589" class="st0"/><rect width="22.9" height="22.9" x="371.4" y="611.9" class="st0"/><rect width="22.9" height="22.9" x="440.2" y="611.9" class="st0"/><rect width="22.9" height="22.9" x="463.2" y="611.9" class="st0"/><rect width="22.9" height="22.9" x="486.1" y="611.9" class="st0"/><rect width="22.9" height="22.9" x="509" y="611.9" class="st0"/><rect width="22.9" height="22.9" x="532" y="611.9" class="st0"/><rect width="22.9" height="22.9" x="554.9" y="611.9" class="st0"/><rect width="22.9" height="22.9" x="577.8" y="611.9" class="st0"/><rect width="22.9" height="22.9" x="646.6" y="611.9" class="st0"/><rect width="22.9" height="22.9" x="784.2" y="611.9" class="st0"/><rect width="22.9" height="22.9" x="853" y="611.9" class="st0"/><rect width="22.9" height="22.9" x="898.9" y="611.9" class="st0"/><rect width="22.9" height="22.9" x="325.6" y="634.8" class="st0"/><rect width="22.9" height="22.9" x="394.4" y="634.8" class="st0"/><rect width="22.9" height="22.9" x="417.3" y="634.8" class="st0"/><rect width="22.9" height="22.9" x="440.2" y="634.8" class="st0"/><rect width="22.9" height="22.9" x="486.1" y="634.8" class="st0"/><rect width="22.9" height="22.9" x="600.8" y="634.8" class="st0"/><rect width="22.9" height="22.9" x="623.7" y="634.8" class="st0"/><rect width="22.9" height="22.9" x="646.6" y="634.8" class="st0"/><rect width="22.9" height="22.9" x="692.5" y="634.8" class="st0"/><rect width="22.9" height="22.9" x="715.4" y="634.8" class="st0"/><rect width="22.9" height="22.9" x="738.3" y="634.8" class="st0"/><rect width="22.9" height="22.9" x="761.3" y="634.8" class="st0"/><rect width="22.9" height="22.9" x="784.2" y="634.8" class="st0"/><rect width="22.9" height="22.9" x="875.9" y="634.8" class="st0"/><rect width="22.9" height="22.9" x="921.8" y="634.8" class="st0"/><rect width="22.9" height="22.9" x="944.7" y="634.8" class="st0"/><rect width="22.9" height="22.9" x="325.6" y="657.8" class="st0"/><rect width="22.9" height="22.9" x="348.5" y="657.8" class="st0"/><rect width="22.9" height="22.9" x="371.4" y="657.8" class="st0"/><rect width="22.9" height="22.9" x="463.2" y="657.8" class="st0"/><rect width="22.9" height="22.9" x="509" y="657.8" class="st0"/><rect width="22.9" height="22.9" x="532" y="657.8" class="st0"/><rect width="22.9" height="22.9" x="554.9" y="657.8" class="st0"/><rect width="22.9" height="22.9" x="669.6" y="657.8" class="st0"/><rect width="22.9" height="22.9" x="715.4" y="657.8" class="st0"/><rect width="22.9" height="22.9" x="761.3" y="657.8" class="st0"/><rect width="22.9" height="22.9" x="784.2" y="657.8" class="st0"/><rect width="22.9" height="22.9" x="830.1" y="657.8" class="st0"/><rect width="22.9" height="22.9" x="875.9" y="657.8" class="st0"/><rect width="22.9" height="22.9" x="898.9" y="657.8" class="st0"/><rect width="22.9" height="22.9" x="967.7" y="657.8" class="st0"/><rect width="22.9" height="22.9" x="325.6" y="680.7" class="st0"/><rect width="22.9" height="22.9" x="348.5" y="680.7" class="st0"/><rect width="22.9" height="22.9" x="417.3" y="680.7" class="st0"/><rect width="22.9" height="22.9" x="440.2" y="680.7" class="st0"/><rect width="22.9" height="22.9" x="532" y="680.7" class="st0"/><rect width="22.9" height="22.9" x="577.8" y="680.7" class="st0"/><rect width="22.9" height="22.9" x="600.8" y="680.7" class="st0"/><rect width="22.9" height="22.9" x="646.6" y="680.7" class="st0"/><rect width="22.9" height="22.9" x="692.5" y="680.7" class="st0"/><rect width="22.9" height="22.9" x="807.1" y="680.7" class="st0"/><rect width="22.9" height="22.9" x="875.9" y="680.7" class="st0"/><rect width="22.9" height="22.9" x="898.9" y="680.7" class="st0"/><rect width="22.9" height="22.9" x="921.8" y="680.7" class="st0"/><rect width="22.9" height="22.9" x="325.6" y="703.6" class="st0"/><rect width="22.9" height="22.9" x="348.5" y="703.6" class="st0"/><rect width="22.9" height="22.9" x="463.2" y="703.6" class="st0"/><rect width="22.9" height="22.9" x="486.1" y="703.6" class="st0"/><rect width="22.9" height="22.9" x="532" y="703.6" class="st0"/><rect width="22.9" height="22.9" x="577.8" y="703.6" class="st0"/><rect width="22.9" height="22.9" x="600.8" y="703.6" class="st0"/><rect width="22.9" height="22.9" x="623.7" y="703.6" class="st0"/><rect width="22.9" height="22.9" x="646.6" y="703.6" class="st0"/><rect width="22.9" height="22.9" x="669.6" y="703.6" class="st0"/><rect width="22.9" height="22.9" x="692.5" y="703.6" class="st0"/><rect width="22.9" height="22.9" x="715.4" y="703.6" class="st0"/><rect width="22.9" height="22.9" x="784.2" y="703.6" class="st0"/><rect width="22.9" height="22.9" x="807.1" y="703.6" class="st0"/><rect width="22.9" height="22.9" x="830.1" y="703.6" class="st0"/><rect width="22.9" height="22.9" x="853" y="703.6" class="st0"/><rect width="22.9" height="22.9" x="875.9" y="703.6" class="st0"/><rect width="22.9" height="22.9" x="898.9" y="703.6" class="st0"/><rect width="22.9" height="22.9" x="921.8" y="703.6" class="st0"/><rect width="22.9" height="22.9" x="944.7" y="703.6" class="st0"/><rect width="22.9" height="22.9" x="509" y="726.6" class="st0"/><rect width="22.9" height="22.9" x="577.8" y="726.6" class="st0"/><rect width="22.9" height="22.9" x="600.8" y="726.6" class="st0"/><rect width="22.9" height="22.9" x="646.6" y="726.6" class="st0"/><rect width="22.9" height="22.9" x="669.6" y="726.6" class="st0"/><rect width="22.9" height="22.9" x="738.3" y="726.6" class="st0"/><rect width="22.9" height="22.9" x="784.2" y="726.6" class="st0"/><rect width="22.9" height="22.9" x="875.9" y="726.6" class="st0"/><rect width="22.9" height="22.9" x="898.9" y="726.6" class="st0"/><rect width="22.9" height="22.9" x="509" y="749.5" class="st0"/><rect width="22.9" height="22.9" x="532" y="749.5" class="st0"/><rect width="22.9" height="22.9" x="554.9" y="749.5" class="st0"/><rect width="22.9" height="22.9" x="646.6" y="749.5" class="st0"/><rect width="22.9" height="22.9" x="669.6" y="749.5" class="st0"/><rect width="22.9" height="22.9" x="761.3" y="749.5" class="st0"/><rect width="22.9" height="22.9" x="784.2" y="749.5" class="st0"/><rect width="22.9" height="22.9" x="830.1" y="749.5" class="st0"/><rect width="22.9" height="22.9" x="875.9" y="749.5" class="st0"/><rect width="22.9" height="22.9" x="898.9" y="749.5" class="st0"/><rect width="22.9" height="22.9" x="509" y="772.4" class="st0"/><rect width="22.9" height="22.9" x="554.9" y="772.4" class="st0"/><rect width="22.9" height="22.9" x="600.8" y="772.4" class="st0"/><rect width="22.9" height="22.9" x="646.6" y="772.4" class="st0"/><rect width="22.9" height="22.9" x="715.4" y="772.4" class="st0"/><rect width="22.9" height="22.9" x="738.3" y="772.4" class="st0"/><rect width="22.9" height="22.9" x="761.3" y="772.4" class="st0"/><rect width="22.9" height="22.9" x="784.2" y="772.4" class="st0"/><rect width="22.9" height="22.9" x="875.9" y="772.4" class="st0"/><rect width="22.9" height="22.9" x="967.7" y="772.4" class="st0"/><rect width="22.9" height="22.9" x="509" y="795.3" class="st0"/><rect width="22.9" height="22.9" x="554.9" y="795.3" class="st0"/><rect width="22.9" height="22.9" x="577.8" y="795.3" class="st0"/><rect width="22.9" height="22.9" x="623.7" y="795.3" class="st0"/><rect width="22.9" height="22.9" x="646.6" y="795.3" class="st0"/><rect width="22.9" height="22.9" x="669.6" y="795.3" class="st0"/><rect width="22.9" height="22.9" x="692.5" y="795.3" class="st0"/><rect width="22.9" height="22.9" x="761.3" y="795.3" class="st0"/><rect width="22.9" height="22.9" x="784.2" y="795.3" class="st0"/><rect width="22.9" height="22.9" x="807.1" y="795.3" class="st0"/><rect width="22.9" height="22.9" x="830.1" y="795.3" class="st0"/><rect width="22.9" height="22.9" x="853" y="795.3" class="st0"/><rect width="22.9" height="22.9" x="875.9" y="795.3" class="st0"/><rect width="22.9" height="22.9" x="898.9" y="795.3" class="st0"/><rect width="22.9" height="22.9" x="944.7" y="795.3" class="st0"/><rect width="22.9" height="22.9" x="967.7" y="795.3" class="st0"/><rect width="22.9" height="22.9" x="509" y="818.3" class="st0"/><rect width="22.9" height="22.9" x="554.9" y="818.3" class="st0"/><rect width="22.9" height="22.9" x="600.8" y="818.3" class="st0"/><rect width="22.9" height="22.9" x="669.6" y="818.3" class="st0"/><rect width="22.9" height="22.9" x="692.5" y="818.3" class="st0"/><rect width="22.9" height="22.9" x="738.3" y="818.3" class="st0"/><rect width="22.9" height="22.9" x="784.2" y="818.3" class="st0"/><rect width="22.9" height="22.9" x="967.7" y="818.3" class="st0"/><rect width="22.9" height="22.9" x="600.8" y="841.2" class="st0"/><rect width="22.9" height="22.9" x="623.7" y="841.2" class="st0"/><rect width="22.9" height="22.9" x="646.6" y="841.2" class="st0"/><rect width="22.9" height="22.9" x="669.6" y="841.2" class="st0"/><rect width="22.9" height="22.9" x="692.5" y="841.2" class="st0"/><rect width="22.9" height="22.9" x="807.1" y="841.2" class="st0"/><rect width="22.9" height="22.9" x="853" y="841.2" class="st0"/><rect width="22.9" height="22.9" x="875.9" y="841.2" class="st0"/><rect width="22.9" height="22.9" x="921.8" y="841.2" class="st0"/><rect width="22.9" height="22.9" x="944.7" y="841.2" class="st0"/><rect width="22.9" height="22.9" x="967.7" y="841.2" class="st0"/><rect width="22.9" height="22.9" x="532" y="864.1" class="st0"/><rect width="22.9" height="22.9" x="623.7" y="864.1" class="st0"/><rect width="22.9" height="22.9" x="669.6" y="864.1" class="st0"/><rect width="22.9" height="22.9" x="807.1" y="864.1" class="st0"/><rect width="22.9" height="22.9" x="898.9" y="864.1" class="st0"/><rect width="22.9" height="22.9" x="921.8" y="864.1" class="st0"/><rect width="22.9" height="22.9" x="967.7" y="864.1" class="st0"/><rect width="22.9" height="22.9" x="509" y="887.1" class="st0"/><rect width="22.9" height="22.9" x="554.9" y="887.1" class="st0"/><rect width="22.9" height="22.9" x="646.6" y="887.1" class="st0"/><rect width="22.9" height="22.9" x="738.3" y="887.1" class="st0"/><rect width="22.9" height="22.9" x="761.3" y="887.1" class="st0"/><rect width="22.9" height="22.9" x="784.2" y="887.1" class="st0"/><rect width="22.9" height="22.9" x="875.9" y="887.1" class="st0"/><rect width="112.4" height="112.4" x="349.7" y="269.1"/><path d="M462,245H349.7h-24.1v24.1v112.4v24.1h24.1H462h24.1v-24.1V269.1V245H462z M462,381.4H349.7V269.1H462V381.4z" class="st0"/><rect width="112.4" height="112.4" x="854.1" y="269.1"/><path d="M966.5,245H854.1h-24.1v24.1v112.4v24.1h24.1h112.4h24.1v-24.1V269.1V245H966.5z M966.5,381.4H854.1V269.1 h112.4V381.4z" class="st0"/><rect width="112.4" height="112.4" x="349.7" y="773.6"/><path d="M462,749.5H349.7h-24.1v24.1v112.4V910h24.1H462h24.1v-24.1V773.6v-24.1H462z M462,885.9H349.7V773.6H462 V885.9z" class="st0"/><rect width="68.8" height="68.8" x="371.4" y="290.9" class="st0"/><rect width="68.8" height="68.8" x="875.9" y="290.9" class="st0"/><rect width="68.8" height="68.8" x="371.4" y="795.3" class="st0"/></g><g><path d="M1085,348.9c-1.3-4.1-2-8.4-2-13c0-4.6,0.7-9,2-13.1c1.3-4.1,3.1-7.6,5.5-10.6c2.4-3,5.1-5.6,8.3-7.8 c3.2-2.2,6.7-3.8,10.5-4.9c3.8-1.1,7.8-1.7,11.9-1.7s8.1,0.6,11.9,1.7c3.8,1.1,7.3,2.8,10.5,4.9c3.2,2.2,5.9,4.8,8.3,7.8 c2.3,3,4.2,6.6,5.5,10.6c1.3,4.1,2,8.4,2,13c0,3.7-0.4,7.3-1.3,10.6c-0.8,3.4-2,6.4-3.6,9.1c-1.5,2.7-3.4,5.2-5.5,7.4l8.2,9.3 l-6.7,6l-8.5-9.7c-6.2,3.6-13.1,5.5-20.8,5.5c-4.1,0-8.1-0.6-11.9-1.7c-3.8-1.1-7.3-2.8-10.5-5c-3.2-2.2-5.9-4.8-8.3-7.9 C1088.1,356.5,1086.3,353,1085,348.9z M1093.6,335.6c0,4.4,0.7,8.4,2.2,12.1c1.5,3.7,3.4,6.7,5.9,9.2c2.5,2.4,5.4,4.3,8.8,5.7 c3.3,1.3,6.9,2,10.6,2c5.2,0,9.9-1.2,14.2-3.6l-6.2-7.1l6.8-6.1l6.3,7.3c4.3-5.3,6.5-11.8,6.5-19.6c0-4.4-0.7-8.5-2.2-12.1 c-1.5-3.7-3.4-6.7-5.9-9.2c-2.5-2.4-5.4-4.3-8.7-5.7c-3.3-1.3-6.9-2-10.7-2s-7.3,0.7-10.7,2c-3.3,1.3-6.2,3.2-8.7,5.7 c-2.5,2.4-4.5,5.5-5.9,9.2C1094.4,327.2,1093.6,331.2,1093.6,335.6z" class="st0"/><path d="M1171.3,372.8v-73.9h20.8c7.5,0,13.4,1.7,17.7,5.1c1.5,1.2,2.7,2.6,3.8,4.1c1.1,1.6,1.9,3.3,2.5,5.3 c0.6,2,0.9,4.1,0.9,6.3c0,2.5-0.3,4.8-1,6.9c-0.7,2.1-1.5,3.9-2.6,5.4c-1.1,1.5-2.4,2.8-3.8,3.9c-1.5,1.1-3,2-4.5,2.6 c-1.5,0.6-3.1,1.1-4.7,1.4l21,33h-12.5l-19.2-31.9h-8v31.9H1171.3z M1181.7,332.4h7.6c3,0,5.4-0.2,7.3-0.5c1.9-0.3,3.6-1,5.1-2.1 c1.7-1.2,2.9-2.6,3.6-4.2c0.7-1.6,1.1-3.5,1.1-5.8c0-2.2-0.4-4.1-1.1-5.7c-0.8-1.6-1.9-3-3.6-4.2c-0.8-0.6-1.6-1.1-2.5-1.5 c-0.9-0.4-1.9-0.6-3-0.8c-1.1-0.2-2.2-0.3-3.1-0.3c-1-0.1-2.2-0.1-3.7-0.1h-7.6V332.4z" class="st0"/><path d="M1223.6,347.7V339h25.9v8.7H1223.6z" class="st0"/><path d="M1256.2,335.8c0-5.7,1-10.9,2.9-15.6s4.6-8.8,7.9-12c3.4-3.3,7.4-5.8,12-7.6c4.6-1.8,9.6-2.8,14.9-2.8 c3.3,0,6.3,0.3,9.3,0.9c2.9,0.6,5.4,1.4,7.6,2.5c2.1,1,3.9,2,5.4,3c1.5,1,2.8,2,4,3.2l-4.3,8.4c-0.8-1-1.8-2-3.2-3s-2.9-2-4.8-2.9 c-1.8-0.9-3.9-1.7-6.3-2.3c-2.4-0.6-4.8-0.9-7.2-0.9c-4,0-7.6,0.7-11,2.1c-3.4,1.4-6.3,3.3-8.7,5.8c-2.4,2.5-4.3,5.6-5.7,9.2 c-1.4,3.6-2.1,7.6-2.1,11.9c0,4.3,0.7,8.3,2.1,11.9c1.4,3.6,3.3,6.7,5.7,9.2c2.4,2.5,5.3,4.4,8.7,5.8s7.1,2.1,11,2.1 c4.6,0,8.8-0.8,12.6-2.4c3.8-1.6,6.9-3.8,9.5-6.6l4.5,7.7c-1.2,1.4-2.7,2.7-4.2,3.9c-1.6,1.2-3.4,2.3-5.6,3.4s-4.8,2-7.7,2.6 c-2.9,0.6-6.1,1-9.4,1c-5.3,0-10.3-0.9-15-2.8c-4.7-1.8-8.7-4.4-12-7.7s-6-7.3-7.9-12.1C1257.1,346.7,1256.2,341.5,1256.2,335.8z" class="st0"/><path d="M1326,347.5c0-3.9,0.7-7.5,2.1-10.8c1.4-3.3,3.3-6.1,5.7-8.4c2.4-2.3,5.3-4.1,8.6-5.4 c3.3-1.3,6.9-1.9,10.6-1.9c3.7,0,7.2,0.6,10.5,1.9c3.3,1.3,6.1,3.1,8.5,5.4s4.3,5.1,5.7,8.4c1.4,3.3,2.1,6.9,2.1,10.8 c0,3.9-0.7,7.5-2.1,10.8c-1.4,3.3-3.3,6.1-5.7,8.4c-2.4,2.3-5.2,4.1-8.5,5.3s-6.8,1.9-10.5,1.9c-2.2,0-4.3-0.2-6.3-0.6 c-2-0.4-3.9-1-5.7-1.8c-1.8-0.8-3.4-1.8-5-3c-1.6-1.2-2.9-2.5-4.2-4c-1.2-1.5-2.3-3.1-3.1-4.9c-0.9-1.7-1.6-3.7-2-5.7 S1326,349.7,1326,347.5z M1336.4,347.2c0,3.4,0.7,6.5,2,9.2c1.3,2.7,3.3,4.9,5.8,6.5c2.5,1.6,5.5,2.4,8.9,2.4 c3.3,0,6.2-0.8,8.7-2.4c2.5-1.6,4.4-3.8,5.8-6.5c1.3-2.7,2-5.8,2-9.2c0-3.3-0.7-6.4-2-9.1c-1.3-2.7-3.2-4.9-5.8-6.5 s-5.4-2.4-8.7-2.4c-3.4,0-6.3,0.8-8.9,2.4c-2.5,1.6-4.5,3.8-5.8,6.5C1337.1,340.8,1336.4,343.8,1336.4,347.2z" class="st0"/><path d="M1387.2,347.3c0-5,1-9.5,3-13.5c2-4,4.9-7.1,8.6-9.4c3.7-2.3,8-3.5,12.9-3.5c4,0,7.5,0.8,10.5,2.4 s5.4,3.7,7.3,6.4h0.2v-30.9h10.2v73.9h-9.9v-8.1h-0.2c-1.4,2-3,3.7-4.9,5.1c-1.8,1.4-3.9,2.4-6.1,3.1c-2.2,0.7-4.5,1-7,1 c-3,0-5.7-0.4-8.3-1.3c-2.6-0.9-4.9-2.1-6.9-3.7c-2-1.6-3.7-3.5-5.1-5.7s-2.5-4.7-3.3-7.4C1387.5,353.1,1387.2,350.3,1387.2,347.3 z M1397.5,347.2c0,2.6,0.4,5,1.1,7.2c0.8,2.2,1.8,4.1,3.2,5.7c1.4,1.6,3.1,2.9,5.1,3.8c2,0.9,4.3,1.4,6.8,1.4 c3.3,0,6.2-0.8,8.7-2.4c2.5-1.6,4.3-3.7,5.6-6.5c1.3-2.7,1.9-5.8,1.9-9.2s-0.6-6.5-1.9-9.2c-1.3-2.7-3.1-4.8-5.6-6.4 s-5.4-2.4-8.7-2.4s-6.2,0.8-8.7,2.4c-2.5,1.6-4.4,3.7-5.6,6.4C1398.2,340.7,1397.5,343.7,1397.5,347.2z" class="st0"/><path d="M1451,347.3c0-3.9,0.7-7.5,2.1-10.8c1.4-3.3,3.2-6.1,5.6-8.4c2.3-2.3,5.1-4,8.2-5.3s6.5-1.9,10-1.9 c4.7,0,8.8,1,12.5,3.1s6.6,4.9,8.6,8.6c2.1,3.7,3.1,7.9,3.1,12.6c0,0.6,0,1.2-0.1,2c0,0.7-0.1,1.3-0.2,1.8l0,0.7h-39.4 c0.3,5,1.9,8.9,4.8,11.7c3,2.8,6.8,4.3,11.6,4.3c1.5,0,3-0.1,4.5-0.4c1.5-0.3,2.8-0.6,3.8-0.9c1.1-0.4,2.2-0.8,3.2-1.3 c1.1-0.5,1.9-0.9,2.5-1.3s1.2-0.8,1.8-1.2c0.6-0.4,0.9-0.6,1-0.7l4.4,5.8c0,0-0.2,0.1-0.5,0.4c-0.3,0.3-0.6,0.6-0.9,0.9 c-0.3,0.3-0.8,0.7-1.4,1.1s-1.2,0.9-1.9,1.3s-1.5,0.9-2.4,1.3c-0.9,0.5-1.9,0.9-3,1.3s-2.3,0.7-3.5,1c-1.2,0.3-2.6,0.5-4.2,0.7 c-1.5,0.2-3.1,0.3-4.8,0.3c-5,0-9.4-1.1-13.3-3.3s-6.9-5.3-9-9.4C1452.1,357.3,1451,352.6,1451,347.3z M1461.5,342.9h29.7 c0-1.2-0.2-2.5-0.5-3.7c-0.4-1.3-0.9-2.6-1.7-3.9c-0.8-1.3-1.7-2.5-2.8-3.5c-1.1-1-2.5-1.9-4.2-2.5c-1.7-0.6-3.5-1-5.5-1 c-2,0-3.8,0.3-5.4,0.9c-1.7,0.6-3.1,1.4-4.2,2.4c-1.1,1-2.1,2.2-2.9,3.5c-0.8,1.3-1.4,2.6-1.8,3.9 C1461.8,340.3,1461.6,341.6,1461.5,342.9z" class="st0"/><path d="M1528.9,361.7l6.1-7c1,1.3,2.1,2.6,3.4,3.8c1.3,1.2,2.7,2.3,4.3,3.4c1.6,1,3.4,1.9,5.3,2.5 c1.9,0.6,3.8,0.9,5.8,0.9c4.2,0,7.6-1.1,10.4-3.4c2.7-2.2,4.1-5.3,4.1-9.1c0-1-0.2-2-0.5-2.9c-0.3-0.9-0.7-1.7-1.1-2.4 c-0.4-0.7-1-1.4-1.8-2s-1.4-1.2-2-1.6c-0.6-0.4-1.3-0.8-2.2-1.3c-0.9-0.5-1.6-0.8-2.1-1s-1.1-0.5-1.9-0.8 c-0.2-0.1-0.4-0.1-0.5-0.1c-5.8-2.3-9.7-4-11.7-5c-2.9-1.3-5.4-3.1-7.4-5.2c-3.2-3.3-4.8-7.6-4.8-12.9c0-2.9,0.6-5.6,1.8-8 c1.2-2.4,2.9-4.5,4.9-6.2c4.3-3.7,10-5.5,17-5.5c8.1,0,15.1,3.2,21.1,9.6l-5.4,7.1c-5-5.3-10.5-8-16.3-8c-3.8,0-6.9,0.9-9.3,2.7 c-2.4,1.8-3.6,4.3-3.6,7.7c0,1.3,0.2,2.5,0.6,3.6s0.9,2,1.4,2.8c0.6,0.7,1.3,1.4,2.2,2.1c0.9,0.7,1.8,1.2,2.5,1.5 c0.8,0.4,1.7,0.8,2.7,1.2l13.7,5.7c1.1,0.5,2.5,1.3,4.2,2.4c1.7,1.1,3.1,2.3,4.1,3.6c3,3.7,4.5,7.9,4.5,12.5c0,3.2-0.7,6.1-2,8.8 c-1.4,2.7-3.3,5.1-5.7,7.1c-4.7,3.9-10.7,5.8-18.1,5.8c-1.8,0-3.5-0.2-5.2-0.5c-1.7-0.3-3.2-0.7-4.5-1.2s-2.6-1.1-4-1.9 c-1.3-0.8-2.4-1.5-3.3-2.1c-0.9-0.6-1.8-1.4-2.8-2.4s-1.7-1.7-2.2-2.2C1530.2,363.2,1529.6,362.5,1528.9,361.7z" class="st0"/><path d="M1586.1,347.5c0-4,0.7-7.7,2.2-11s3.4-6.2,5.8-8.4c2.4-2.2,5.2-4,8.3-5.2c3.1-1.2,6.4-1.9,9.8-1.9 c2.1,0,4.2,0.2,6.1,0.5c1.9,0.3,3.6,0.8,5,1.3s2.6,1.1,3.6,1.6c1.1,0.5,2,1.1,2.7,1.8c0.8,0.6,1.3,1.1,1.6,1.4 c0.3,0.3,0.5,0.5,0.7,0.8l-3.6,7.5c-0.5-0.5-1-1-1.4-1.3c-0.4-0.4-1.1-0.9-2.1-1.6c-1-0.7-2-1.2-3-1.6c-1-0.4-2.3-0.8-3.8-1.1 c-1.6-0.3-3.2-0.5-4.9-0.5c-2.3,0-4.4,0.4-6.4,1.2c-2,0.8-3.8,2-5.3,3.5c-1.5,1.5-2.7,3.3-3.6,5.5c-0.9,2.2-1.3,4.6-1.3,7.2 c0,5.3,1.5,9.7,4.6,13.1c3.1,3.4,7.1,5.1,12,5.1c1.9,0,3.7-0.2,5.4-0.7c1.7-0.4,3.2-1,4.3-1.6c1.2-0.6,2.2-1.3,3.1-1.9 c0.9-0.6,1.6-1.2,2-1.6l0.6-0.7l3.6,7.5c-0.1,0.1-0.2,0.2-0.3,0.3c-0.6,0.6-1.1,1.1-1.6,1.5c-0.5,0.4-1.3,1-2.6,1.8 s-2.5,1.5-3.9,2c-1.3,0.5-3.1,1-5.2,1.4c-2.1,0.4-4.4,0.6-6.9,0.6c-3.4,0-6.7-0.6-9.8-1.9c-3.1-1.3-5.8-3-8.2-5.2 c-2.4-2.2-4.2-5-5.6-8.4C1586.8,355.1,1586.1,351.4,1586.1,347.5z" class="st0"/><path d="M1636,358.2c0-3.2,0.8-6,2.5-8.3c1.7-2.3,4-4,7-5.2c2.9-1.2,6.4-1.8,10.4-2l13.6-0.5v-1.9 c0-3.6-1.1-6.3-3.4-8.2s-5.3-2.8-9.1-2.8c-2.2,0-4.5,0.3-6.9,0.9s-4.1,1.2-5.3,1.7c-1.2,0.5-2.2,1.1-3.1,1.6l-3.1-7.1 c6-3.6,12.4-5.4,19.1-5.4c2.1,0,4,0.1,5.7,0.4c1.7,0.3,3.2,0.7,4.6,1.2c1.4,0.5,2.6,1.1,3.6,1.8c1,0.7,2,1.5,2.9,2.4 c1.9,1.9,3.2,4.1,4.1,6.6c0.9,2.5,1.3,5.8,1.3,9.9v29.6h-10l-0.1-6.4c-0.1,0.1-0.1,0.1-0.2,0.2c-0.7,0.7-1.2,1.3-1.7,1.7 c-0.4,0.4-1.2,1-2.3,1.8c-1.1,0.8-2.1,1.4-3.1,1.9c-1,0.5-2.3,0.9-3.9,1.3c-1.6,0.4-3.2,0.6-4.9,0.6c-2.4,0-4.6-0.4-6.7-1.1 c-2.1-0.7-4-1.8-5.6-3.1c-1.6-1.3-2.9-3-3.8-5C1636.5,362.8,1636,360.6,1636,358.2z M1646.2,357.8c0,1.6,0.4,3.1,1.2,4.4 c0.8,1.3,2,2.4,3.6,3.2c1.6,0.8,3.5,1.2,5.7,1.2c1.6,0,3.1-0.2,4.5-0.7c1.4-0.5,2.7-1.1,3.8-1.9c1.1-0.8,2-1.6,2.7-2.3 c0.7-0.8,1.4-1.6,2-2.4v-10.9l-11.9,0.7c-3.9,0.2-6.8,1.1-8.7,2.6C1647.1,353.3,1646.2,355.3,1646.2,357.8z" class="st0"/><path d="M1692.9,372.8v-50.9h10.4l-0.1,8.1h0.3c1.4-2.7,3.5-4.8,6.2-6.5c2.7-1.7,5.8-2.5,9.3-2.5 c2.8,0,5.3,0.4,7.5,1.1c2.2,0.7,3.9,1.7,5.3,3c1.3,1.3,2.4,2.8,3.3,4.7c0.9,1.9,1.4,3.9,1.8,6c0.3,2.1,0.5,4.4,0.5,7v30.1h-10.4 v-28.4c0-1.9-0.1-3.5-0.2-4.9c-0.2-1.4-0.5-2.7-0.9-4.1c-0.4-1.3-1-2.4-1.8-3.2c-0.8-0.8-1.8-1.5-3.1-2c-1.3-0.5-2.8-0.8-4.6-0.8 c-1.3,0-2.5,0.2-3.7,0.5c-1.1,0.3-2.2,0.8-3,1.3c-0.9,0.6-1.7,1.3-2.4,2.1c-0.7,0.8-1.3,1.8-1.8,2.8c-0.5,1-0.9,2.1-1.2,3.3 c-0.3,1.2-0.6,2.4-0.7,3.7c-0.1,1.3-0.2,2.6-0.2,4.1v25.6H1692.9z" class="st0"/><path d="M1750.8,372.8v-50.9h10.4l-0.1,8.1h0.3c1.4-2.7,3.5-4.8,6.2-6.5c2.7-1.7,5.8-2.5,9.3-2.5 c2.8,0,5.3,0.4,7.5,1.1c2.2,0.7,3.9,1.7,5.3,3c1.3,1.3,2.4,2.8,3.3,4.7c0.9,1.9,1.4,3.9,1.8,6c0.3,2.1,0.5,4.4,0.5,7v30.1h-10.4 v-28.4c0-1.9-0.1-3.5-0.2-4.9s-0.5-2.7-0.9-4.1c-0.4-1.3-1-2.4-1.8-3.2c-0.8-0.8-1.8-1.5-3.1-2c-1.3-0.5-2.8-0.8-4.6-0.8 c-1.3,0-2.5,0.2-3.7,0.5c-1.2,0.3-2.2,0.8-3,1.3c-0.9,0.6-1.7,1.3-2.4,2.1c-0.7,0.8-1.3,1.8-1.8,2.8c-0.5,1-0.9,2.1-1.2,3.3 c-0.3,1.2-0.5,2.4-0.7,3.7c-0.1,1.3-0.2,2.6-0.2,4.1v25.6H1750.8z" class="st0"/><path d="M1805.3,347.3c0-3.9,0.7-7.5,2.1-10.8c1.4-3.3,3.2-6.1,5.6-8.4c2.3-2.3,5.1-4,8.2-5.3s6.5-1.9,10-1.9 c4.7,0,8.8,1,12.5,3.1s6.6,4.9,8.6,8.6c2.1,3.7,3.1,7.9,3.1,12.6c0,0.6,0,1.2-0.1,2c0,0.7-0.1,1.3-0.2,1.8l0,0.7h-39.4 c0.3,5,1.9,8.9,4.8,11.7c3,2.8,6.8,4.3,11.6,4.3c1.5,0,3-0.1,4.5-0.4c1.5-0.3,2.8-0.6,3.8-0.9c1.1-0.4,2.2-0.8,3.2-1.3 c1.1-0.5,1.9-0.9,2.5-1.3s1.2-0.8,1.8-1.2c0.6-0.4,0.9-0.6,1-0.7l4.4,5.8c0,0-0.2,0.1-0.5,0.4c-0.3,0.3-0.6,0.6-0.9,0.9 c-0.3,0.3-0.8,0.7-1.4,1.1s-1.2,0.9-1.9,1.3s-1.5,0.9-2.4,1.3c-0.9,0.5-1.9,0.9-3,1.3s-2.3,0.7-3.5,1c-1.2,0.3-2.6,0.5-4.2,0.7 c-1.5,0.2-3.1,0.3-4.8,0.3c-5,0-9.4-1.1-13.3-3.3s-6.9-5.3-9-9.4C1806.3,357.3,1805.3,352.6,1805.3,347.3z M1815.7,342.9h29.7 c0-1.2-0.2-2.5-0.5-3.7c-0.4-1.3-0.9-2.6-1.7-3.9c-0.8-1.3-1.7-2.5-2.8-3.5c-1.1-1-2.5-1.9-4.2-2.5c-1.7-0.6-3.5-1-5.5-1 c-2,0-3.8,0.3-5.4,0.9c-1.7,0.6-3.1,1.4-4.2,2.4c-1.1,1-2.1,2.2-2.9,3.5c-0.8,1.3-1.4,2.6-1.8,3.9 C1816,340.3,1815.8,341.6,1815.7,342.9z" class="st0"/><path d="M1865.3,372.8v-50.9h10.4l-0.1,8.1h0.3c1.4-2.7,3.5-4.8,6.2-6.5c2.7-1.7,5.8-2.5,9.3-2.5 c2.8,0,5.3,0.4,7.5,1.1c2.2,0.7,3.9,1.7,5.3,3c1.3,1.3,2.4,2.8,3.3,4.7c0.9,1.9,1.4,3.9,1.8,6c0.3,2.1,0.5,4.4,0.5,7v30.1h-10.4 v-28.4c0-1.9-0.1-3.5-0.2-4.9c-0.2-1.4-0.5-2.7-0.9-4.1c-0.4-1.3-1-2.4-1.8-3.2c-0.8-0.8-1.8-1.5-3.1-2c-1.3-0.5-2.8-0.8-4.6-0.8 c-1.3,0-2.5,0.2-3.7,0.5c-1.1,0.3-2.2,0.8-3,1.3c-0.9,0.6-1.7,1.3-2.4,2.1c-0.7,0.8-1.3,1.8-1.8,2.8c-0.5,1-0.9,2.1-1.2,3.3 c-0.3,1.2-0.6,2.4-0.7,3.7c-0.1,1.3-0.2,2.6-0.2,4.1v25.6H1865.3z" class="st0"/><path d="M1922.6,387.8l7.5-26.4h10.5l-9.8,26.4H1922.6z" class="st0"/><path d="M1976.2,352.3v-30.6h10.2v30.1c0,1.3,0.1,2.4,0.2,3.4c0.1,1,0.3,2.1,0.6,3.1s0.6,2,1.2,2.8 c0.5,0.8,1.1,1.5,1.9,2.1c0.8,0.6,1.7,1.1,2.9,1.5c1.2,0.3,2.5,0.5,3.9,0.5c2.2,0,4.1-0.4,5.8-1.3c1.7-0.9,3-2.1,4-3.6 c1-1.5,1.7-3.3,2.2-5.2s0.7-4,0.7-6.2v-27.2h10.4v51h-10.1l-0.1-7.4c-1.4,2.6-3.5,4.7-6.3,6.2c-2.8,1.6-6,2.4-9.4,2.4 c-6.4,0-11-2-14.1-5.9C1977.4,364.7,1976.2,359.4,1976.2,352.3z" class="st0"/><path d="M2034,372.8v-50.9h10.4l-0.1,8.1h0.3c1.3-2.5,3.2-4.6,5.9-6.4c2.6-1.7,5.5-2.6,8.7-2.6c3.8,0,7,0.8,9.6,2.5 c2.6,1.7,4.5,4.2,5.6,7.5c1.8-3.2,4-5.7,6.7-7.4s5.9-2.6,9.4-2.6c2.7,0,5,0.4,7,1.1c2,0.8,3.7,1.8,5,3c1.3,1.3,2.3,2.8,3.1,4.7 c0.8,1.8,1.4,3.7,1.7,5.7c0.3,2,0.5,4.1,0.5,6.5v30.9h-10.2v-29.7c0-1.3-0.1-2.6-0.2-3.7c-0.1-1.1-0.4-2.4-0.8-3.6 c-0.4-1.3-0.9-2.4-1.6-3.3c-0.7-0.9-1.6-1.6-2.7-2.2c-1.2-0.6-2.5-0.9-4.1-0.9c-2.6,0-4.9,0.8-6.7,2.4s-3.2,3.6-4.1,6.1 c-0.9,2.5-1.3,5.3-1.3,8.4v26.5h-10.4v-29.7c0-1.6-0.1-3-0.2-4.3c-0.2-1.3-0.5-2.5-0.9-3.7c-0.4-1.2-1-2.2-1.7-3 c-0.7-0.8-1.5-1.5-2.6-1.9s-2.3-0.7-3.8-0.7c-2.6,0-4.9,0.8-6.8,2.4s-3.3,3.6-4.1,6.1c-0.9,2.5-1.3,5.3-1.3,8.4v26.5H2034z" class="st0"/><path d="M2137.8,372.8v-6.3l29.8-36.2h-28.3V322h41.4v6.2l-29.7,36.1h31.1v8.4H2137.8z" class="st0"/><path d="M2190.9,352.3v-30.6h10.2v30.1c0,1.3,0.1,2.4,0.2,3.4c0.1,1,0.3,2.1,0.6,3.1s0.6,2,1.2,2.8 c0.5,0.8,1.1,1.5,1.9,2.1c0.8,0.6,1.7,1.1,2.9,1.5c1.2,0.3,2.5,0.5,3.9,0.5c2.2,0,4.1-0.4,5.8-1.3c1.7-0.9,3-2.1,4-3.6 c1-1.5,1.7-3.3,2.2-5.2s0.7-4,0.7-6.2v-27.2h10.4v51h-10.1l-0.1-7.4c-1.4,2.6-3.5,4.7-6.3,6.2c-2.8,1.6-6,2.4-9.4,2.4 c-6.4,0-11-2-14.1-5.9C2192.2,364.7,2190.9,359.4,2190.9,352.3z" class="st0"/><path d="M2248.7,372.8v-50.9h10.4l-0.1,8h0.3c0.8-1.9,1.9-3.6,3.1-4.9s2.7-2.3,4.3-3c1.6-0.7,3.3-1,5.1-1 c1,0,2,0.1,2.9,0.2s1.5,0.3,1.9,0.4l0.6,0.2l-0.6,8.7h-0.5c-1.6,0-3.4,0-5.5,0c-2,0-3.7,0.5-5.1,1.4c-1.4,0.9-2.5,1.9-3.3,2.9 c-2,3.1-3.1,7.4-3.1,12.8v25.3H2248.7z" class="st0"/><path d="M1085,466.8c-1.3-4.1-2-8.4-2-13c0-4.6,0.7-9,2-13.1c1.3-4.1,3.1-7.6,5.5-10.6c2.4-3,5.1-5.6,8.3-7.8 c3.2-2.2,6.7-3.8,10.5-4.9c3.8-1.1,7.8-1.7,11.9-1.7s8.1,0.6,11.9,1.7s7.3,2.8,10.5,4.9c3.2,2.2,5.9,4.8,8.3,7.8 c2.3,3,4.2,6.6,5.5,10.6c1.3,4.1,2,8.4,2,13.1c0,4.6-0.7,9-2,13c-1.3,4.1-3.1,7.6-5.5,10.6c-2.4,3-5.1,5.7-8.3,7.9 c-3.2,2.2-6.7,3.9-10.5,5c-3.8,1.1-7.8,1.7-11.9,1.7s-8.1-0.6-11.9-1.7c-3.8-1.1-7.3-2.8-10.5-5c-3.2-2.2-5.9-4.8-8.3-7.9 C1088.1,474.4,1086.3,470.9,1085,466.8z M1093.6,453.5c0,4.4,0.7,8.4,2.2,12.1c1.5,3.7,3.4,6.7,5.9,9.2c2.5,2.4,5.4,4.3,8.8,5.7 c3.3,1.3,6.9,2,10.6,2c3.8,0,7.4-0.7,10.7-2c3.3-1.3,6.2-3.2,8.7-5.7c2.5-2.4,4.5-5.5,5.9-9.2c1.5-3.7,2.2-7.7,2.2-12.1 c0-4.4-0.7-8.5-2.2-12.1c-1.5-3.7-3.4-6.7-5.9-9.2c-2.5-2.4-5.4-4.3-8.7-5.7c-3.3-1.3-6.9-2-10.7-2s-7.3,0.7-10.7,2 c-3.3,1.3-6.2,3.2-8.7,5.7c-2.5,2.4-4.5,5.5-5.9,9.2C1094.4,445.1,1093.6,449.1,1093.6,453.5z" class="st0"/><path d="M1170.2,490.7v-50.9h10.4l-0.1,8.1h0.3c1.4-2.7,3.5-4.8,6.2-6.5c2.7-1.7,5.8-2.5,9.3-2.5 c2.8,0,5.3,0.4,7.5,1.1c2.2,0.7,3.9,1.7,5.3,3c1.3,1.3,2.4,2.8,3.3,4.7c0.9,1.9,1.4,3.9,1.8,6c0.3,2.1,0.5,4.4,0.5,7v30.1h-10.4 v-28.4c0-1.9-0.1-3.5-0.2-4.9s-0.5-2.7-0.9-4.1c-0.4-1.3-1-2.4-1.8-3.2c-0.8-0.8-1.8-1.5-3.1-2c-1.3-0.5-2.8-0.8-4.6-0.8 c-1.3,0-2.5,0.2-3.7,0.5c-1.2,0.3-2.2,0.8-3,1.3c-0.9,0.6-1.7,1.3-2.4,2.1c-0.7,0.8-1.3,1.8-1.8,2.8c-0.5,1-0.9,2.1-1.2,3.3 c-0.3,1.2-0.5,2.4-0.7,3.7c-0.1,1.3-0.2,2.6-0.2,4.1v25.6H1170.2z" class="st0"/><path d="M1228.6,490.7v-73.9h10.2v73.9H1228.6z" class="st0"/><path d="M1254.2,427.7c-1.3-1.2-1.9-2.7-1.9-4.6c0-1.8,0.6-3.4,1.9-4.5c1.3-1.2,2.9-1.8,4.9-1.8 c1.9,0,3.5,0.6,4.8,1.8c1.3,1.2,1.9,2.7,1.9,4.5c0,1.8-0.6,3.4-1.9,4.6s-2.8,1.8-4.8,1.8C1257,429.5,1255.4,428.9,1254.2,427.7z M1253.8,490.7v-50.9h10.4v50.9H1253.8z" class="st0"/><path d="M1278.7,490.7v-50.9h10.4l-0.1,8.1h0.3c1.4-2.7,3.5-4.8,6.2-6.5c2.7-1.7,5.8-2.5,9.3-2.5 c2.8,0,5.3,0.4,7.5,1.1c2.2,0.7,3.9,1.7,5.3,3c1.3,1.3,2.4,2.8,3.3,4.7c0.9,1.9,1.4,3.9,1.8,6c0.3,2.1,0.5,4.4,0.5,7v30.1h-10.4 v-28.4c0-1.9-0.1-3.5-0.2-4.9s-0.5-2.7-0.9-4.1c-0.4-1.3-1-2.4-1.8-3.2c-0.8-0.8-1.8-1.5-3.1-2c-1.3-0.5-2.8-0.8-4.6-0.8 c-1.3,0-2.5,0.2-3.7,0.5c-1.2,0.3-2.2,0.8-3,1.3c-0.9,0.6-1.7,1.3-2.4,2.1c-0.7,0.8-1.3,1.8-1.8,2.8c-0.5,1-0.9,2.1-1.2,3.3 c-0.3,1.2-0.5,2.4-0.7,3.7c-0.1,1.3-0.2,2.6-0.2,4.1v25.6H1278.7z" class="st0"/><path d="M1333.1,465.2c0-3.9,0.7-7.5,2.1-10.8c1.4-3.3,3.2-6.1,5.6-8.4c2.3-2.3,5.1-4,8.2-5.3s6.5-1.9,10-1.9 c4.7,0,8.8,1,12.5,3.1s6.6,4.9,8.6,8.6c2.1,3.7,3.1,7.9,3.1,12.6c0,0.6,0,1.2-0.1,2c0,0.7-0.1,1.3-0.2,1.8l0,0.7h-39.4 c0.3,5,1.9,8.9,4.8,11.7c3,2.8,6.8,4.3,11.6,4.3c1.5,0,3-0.1,4.5-0.4c1.5-0.3,2.8-0.6,3.8-0.9c1.1-0.4,2.2-0.8,3.2-1.3 c1.1-0.5,1.9-0.9,2.5-1.3s1.2-0.8,1.8-1.2c0.6-0.4,0.9-0.6,1-0.7l4.4,5.8c0,0-0.2,0.1-0.5,0.4c-0.3,0.3-0.6,0.6-0.9,0.9 c-0.3,0.3-0.8,0.7-1.4,1.1s-1.2,0.9-1.9,1.3s-1.5,0.9-2.4,1.3c-0.9,0.5-1.9,0.9-3,1.3s-2.3,0.7-3.5,1c-1.2,0.3-2.6,0.5-4.2,0.7 c-1.5,0.2-3.1,0.3-4.8,0.3c-5,0-9.4-1.1-13.3-3.3s-6.9-5.3-9-9.4C1334.2,475.2,1333.1,470.5,1333.1,465.2z M1343.6,460.8h29.7 c0-1.2-0.2-2.5-0.5-3.7c-0.4-1.3-0.9-2.6-1.7-3.9c-0.8-1.3-1.7-2.5-2.8-3.5c-1.1-1-2.5-1.9-4.2-2.5c-1.7-0.6-3.5-1-5.5-1 c-2,0-3.8,0.3-5.4,0.9c-1.7,0.6-3.1,1.4-4.2,2.4c-1.1,1-2.1,2.2-2.9,3.5c-0.8,1.3-1.4,2.6-1.8,3.9 C1343.9,458.3,1343.6,459.6,1343.6,460.8z" class="st0"/><path d="M1415.5,490.7v-73.9h43.2v8.7h-32.9v22.1h31v8.7h-31V482h33.7v8.7H1415.5z" class="st0"/><path d="M1466.9,465.2c0-5,1-9.5,3-13.5c2-4,4.9-7.1,8.6-9.4c3.7-2.3,8-3.5,12.9-3.5c4,0,7.5,0.8,10.5,2.4 s5.4,3.7,7.3,6.4h0.2v-30.9h10.2v73.9h-9.9v-8.1h-0.2c-1.4,2-3,3.7-4.9,5.1c-1.8,1.4-3.9,2.4-6.1,3.1c-2.2,0.7-4.5,1-7,1 c-3,0-5.7-0.4-8.3-1.3c-2.6-0.9-4.9-2.1-6.9-3.7c-2-1.6-3.7-3.5-5.1-5.7s-2.5-4.7-3.3-7.4C1467.2,471.1,1466.9,468.2,1466.9,465.2 z M1477.2,465.1c0,2.6,0.4,5,1.1,7.2c0.8,2.2,1.8,4.1,3.2,5.7c1.4,1.6,3.1,2.9,5.1,3.8c2,0.9,4.3,1.4,6.8,1.4 c3.3,0,6.2-0.8,8.7-2.4c2.5-1.6,4.3-3.7,5.6-6.5c1.3-2.7,1.9-5.8,1.9-9.2s-0.6-6.5-1.9-9.2c-1.3-2.7-3.1-4.8-5.6-6.4 s-5.4-2.4-8.7-2.4s-6.2,0.8-8.7,2.4c-2.5,1.6-4.4,3.7-5.6,6.4C1477.9,458.6,1477.2,461.7,1477.2,465.1z" class="st0"/><path d="M1534.9,427.7c-1.3-1.2-1.9-2.7-1.9-4.6c0-1.8,0.6-3.4,1.9-4.5c1.3-1.2,2.9-1.8,4.9-1.8 c1.9,0,3.5,0.6,4.8,1.8c1.3,1.2,1.9,2.7,1.9,4.5c0,1.8-0.6,3.4-1.9,4.6s-2.8,1.8-4.8,1.8C1537.8,429.5,1536.1,428.9,1534.9,427.7z M1534.5,490.7v-50.9h10.4v50.9H1534.5z" class="st0"/><path d="M1554.1,448.2v-8.3h7.4v-15.3h10.4v15.3h12.1v8.3h-12.1v23c0,2.6,0.1,4.5,0.2,5.9c0.1,1.3,0.5,2.5,1.1,3.5 c1,1.8,2.8,2.6,5.3,2.6c0.9,0,1.7-0.1,2.6-0.3c0.9-0.2,1.5-0.4,1.9-0.6l0.7-0.3l0.6,8.2c-0.1,0.1-0.3,0.1-0.5,0.2 s-0.6,0.2-1.3,0.4c-0.7,0.2-1.3,0.4-2,0.5c-0.7,0.1-1.5,0.3-2.5,0.4c-1,0.1-2,0.2-3,0.2c-4.9,0-8.5-1.8-10.9-5.3 c-1-1.5-1.7-3.4-2.1-5.6c-0.3-2.2-0.5-5.4-0.5-9.6v-23.2H1554.1z" class="st0"/><path d="M1593.4,427.7c-1.3-1.2-1.9-2.7-1.9-4.6c0-1.8,0.6-3.4,1.9-4.5c1.3-1.2,2.9-1.8,4.9-1.8 c1.9,0,3.5,0.6,4.8,1.8c1.3,1.2,1.9,2.7,1.9,4.5c0,1.8-0.6,3.4-1.9,4.6s-2.8,1.8-4.8,1.8C1596.2,429.5,1594.6,428.9,1593.4,427.7z M1593,490.7v-50.9h10.4v50.9H1593z" class="st0"/><path d="M1614.5,465.5c0-3.9,0.7-7.5,2.1-10.8c1.4-3.3,3.3-6.1,5.7-8.4c2.4-2.3,5.3-4.1,8.6-5.4 c3.3-1.3,6.9-1.9,10.6-1.9c3.7,0,7.2,0.6,10.5,1.9c3.3,1.3,6.1,3.1,8.5,5.4c2.4,2.3,4.3,5.1,5.7,8.4s2.1,6.9,2.1,10.8 c0,3.9-0.7,7.5-2.1,10.8s-3.3,6.1-5.7,8.4c-2.4,2.3-5.2,4.1-8.5,5.3s-6.8,1.9-10.5,1.9c-2.2,0-4.3-0.2-6.3-0.6 c-2-0.4-3.9-1-5.7-1.8c-1.8-0.8-3.4-1.8-5-3c-1.6-1.2-2.9-2.5-4.2-4c-1.2-1.5-2.3-3.1-3.1-4.9c-0.9-1.7-1.6-3.7-2-5.7 C1614.7,469.8,1614.5,467.7,1614.5,465.5z M1624.8,465.1c0,3.4,0.7,6.5,2,9.2c1.3,2.7,3.3,4.9,5.8,6.5c2.5,1.6,5.5,2.4,8.9,2.4 c3.3,0,6.2-0.8,8.7-2.4c2.5-1.6,4.4-3.8,5.8-6.5c1.3-2.7,2-5.8,2-9.2c0-3.3-0.7-6.4-2-9.1c-1.3-2.7-3.2-4.9-5.8-6.5 s-5.4-2.4-8.7-2.4c-3.4,0-6.3,0.8-8.9,2.4s-4.5,3.8-5.8,6.5C1625.5,458.7,1624.8,461.8,1624.8,465.1z" class="st0"/><path d="M1679,490.7v-50.9h10.4l-0.1,8.1h0.3c1.4-2.7,3.5-4.8,6.2-6.5c2.7-1.7,5.8-2.5,9.3-2.5c2.8,0,5.3,0.4,7.5,1.1 c2.2,0.7,3.9,1.7,5.3,3c1.3,1.3,2.4,2.8,3.3,4.7c0.9,1.9,1.4,3.9,1.8,6c0.3,2.1,0.5,4.4,0.5,7v30.1H1713v-28.4 c0-1.9-0.1-3.5-0.2-4.9c-0.2-1.4-0.5-2.7-0.9-4.1c-0.4-1.3-1-2.4-1.8-3.2c-0.8-0.8-1.8-1.5-3.1-2c-1.3-0.5-2.8-0.8-4.6-0.8 c-1.3,0-2.5,0.2-3.7,0.5c-1.1,0.3-2.2,0.8-3,1.3c-0.9,0.6-1.7,1.3-2.4,2.1c-0.7,0.8-1.3,1.8-1.8,2.8c-0.5,1-0.9,2.1-1.2,3.3 c-0.3,1.2-0.6,2.4-0.7,3.7c-0.1,1.3-0.2,2.6-0.2,4.1v25.6H1679z" class="st0"/><path d="M1753.3,490.7v-6.3l29.8-36.2h-28.3v-8.3h41.4v6.2l-29.7,36.1h31.1v8.4H1753.3z" class="st0"/><path d="M1806.5,470.2v-30.6h10.2v30.1c0,1.3,0.1,2.4,0.2,3.4c0.1,1,0.3,2.1,0.6,3.1c0.3,1.1,0.6,2,1.2,2.8 c0.5,0.8,1.1,1.5,1.9,2.1c0.8,0.6,1.7,1.1,2.9,1.5c1.2,0.3,2.5,0.5,3.9,0.5c2.2,0,4.1-0.4,5.8-1.3c1.7-0.9,3-2.1,4-3.6 c1-1.5,1.7-3.3,2.2-5.2c0.5-1.9,0.7-4,0.7-6.2v-27.2h10.4v51h-10.1l-0.1-7.4c-1.4,2.6-3.5,4.7-6.3,6.2c-2.8,1.6-6,2.4-9.4,2.4 c-6.4,0-11-2-14.1-5.9C1807.7,482.6,1806.5,477.4,1806.5,470.2z" class="st0"/><path d="M1882.1,464.5c0-3.2,0.4-6.1,1.3-8.9c0.9-2.7,2.1-5.1,3.6-7.2s3.3-3.8,5.4-5.2s4.3-2.5,6.7-3.3 c2.4-0.7,4.9-1.1,7.6-1.1c4.1,0,7.7,0.9,10.8,2.6c3,1.7,5.4,3.9,7,6.5h0.3l-0.1-8.1h10.2V480c0,5.5-0.4,10-1.3,13.4 c-0.9,3.4-2.3,6.3-4.2,8.5c-1.1,1.3-2.2,2.5-3.4,3.5c-1.2,1-2.7,2-4.5,3s-3.9,1.8-6.5,2.4c-2.5,0.6-5.3,0.8-8.3,0.8 c-7.9,0-15.4-2.5-22.4-7.4c-0.1-0.1-0.2-0.2-0.3-0.2l4.9-7.1c1.6,1.4,4.2,2.9,7.7,4.3c3.5,1.4,7,2.1,10.4,2.1 c3.4,0,6.3-0.5,8.6-1.6c2.3-1.1,4.1-2.4,5.3-4c1.1-1.3,2-3.2,2.8-5.7c0.7-2.4,1.1-5.3,1.1-8.6V481h-0.2c-1.9,2.8-4.3,5-7.3,6.6 c-3,1.6-6.5,2.5-10.5,2.5c-3.3,0-6.4-0.6-9.4-1.7c-3-1.2-5.6-2.8-7.8-5c-2.2-2.1-4-4.8-5.4-8.1 C1882.7,472,1882.1,468.4,1882.1,464.5z M1894.3,455.7c-1.2,2.6-1.8,5.5-1.8,8.8c0,3.3,0.6,6.2,1.8,8.8c1.2,2.6,3.1,4.7,5.6,6.2 c2.5,1.6,5.4,2.3,8.8,2.3c3.4,0,6.4-0.8,8.8-2.4c2.5-1.6,4.3-3.6,5.5-6.2c1.2-2.6,1.8-5.5,1.8-8.7c0-3.3-0.6-6.2-1.8-8.8 c-1.2-2.6-3.1-4.7-5.6-6.2c-2.5-1.6-5.4-2.4-8.8-2.4c-3.4,0-6.3,0.8-8.8,2.4C1897.4,451,1895.5,453.1,1894.3,455.7z" class="st0"/><path d="M1945.6,465.2c0-3.9,0.7-7.5,2.1-10.8c1.4-3.3,3.2-6.1,5.6-8.4c2.3-2.3,5.1-4,8.2-5.3c3.1-1.2,6.5-1.9,10-1.9 c4.7,0,8.8,1,12.5,3.1c3.7,2.1,6.6,4.9,8.6,8.6c2.1,3.7,3.1,7.9,3.1,12.6c0,0.6,0,1.2-0.1,2c0,0.7-0.1,1.3-0.2,1.8l0,0.7h-39.4 c0.3,5,1.9,8.9,4.8,11.7c3,2.8,6.8,4.3,11.6,4.3c1.5,0,3-0.1,4.5-0.4c1.5-0.3,2.8-0.6,3.8-0.9c1.1-0.4,2.1-0.8,3.2-1.3 c1.1-0.5,1.9-0.9,2.5-1.3s1.2-0.8,1.8-1.2c0.6-0.4,0.9-0.6,1-0.7l4.4,5.8c0,0-0.2,0.1-0.5,0.4c-0.3,0.3-0.6,0.6-0.9,0.9 c-0.3,0.3-0.8,0.7-1.3,1.1s-1.2,0.9-1.9,1.3s-1.5,0.9-2.4,1.3c-0.9,0.5-1.9,0.9-3,1.3s-2.3,0.7-3.5,1c-1.2,0.3-2.6,0.5-4.2,0.7 c-1.5,0.2-3.1,0.3-4.8,0.3c-5,0-9.4-1.1-13.3-3.3c-3.9-2.2-6.9-5.3-9-9.4C1946.6,475.2,1945.6,470.5,1945.6,465.2z M1956,460.8 h29.7c0-1.2-0.2-2.5-0.5-3.7c-0.4-1.3-0.9-2.6-1.7-3.9c-0.8-1.3-1.7-2.5-2.8-3.5c-1.1-1-2.5-1.9-4.2-2.5c-1.7-0.6-3.5-1-5.5-1 c-2,0-3.8,0.3-5.4,0.9c-1.7,0.6-3.1,1.4-4.2,2.4s-2.1,2.2-2.9,3.5c-0.8,1.3-1.4,2.6-1.8,3.9C1956.3,458.3,1956.1,459.6,1956,460.8 z" class="st0"/><path d="M2006.1,490.7v-73.9h10.2v73.9H2006.1z" class="st0"/><path d="M2026.7,476.1c0-3.2,0.8-6,2.5-8.3c1.7-2.3,4-4,7-5.2c2.9-1.2,6.4-1.8,10.4-2l13.6-0.5v-1.9 c0-3.6-1.1-6.3-3.4-8.2s-5.3-2.8-9.1-2.8c-2.2,0-4.5,0.3-6.9,0.9s-4.1,1.2-5.3,1.7c-1.2,0.5-2.2,1.1-3.1,1.6l-3.1-7.1 c6-3.6,12.4-5.4,19.1-5.4c2.1,0,4,0.1,5.7,0.4c1.7,0.3,3.2,0.7,4.6,1.2c1.4,0.5,2.6,1.1,3.6,1.8c1,0.7,2,1.5,2.9,2.4 c1.9,1.9,3.2,4.1,4.1,6.6c0.9,2.5,1.3,5.8,1.3,9.9v29.6h-10l-0.1-6.4c-0.1,0.1-0.1,0.1-0.2,0.2c-0.7,0.7-1.2,1.3-1.7,1.7 c-0.4,0.4-1.2,1-2.3,1.8c-1.1,0.8-2.1,1.4-3.1,1.9c-1,0.5-2.3,0.9-3.9,1.3c-1.6,0.4-3.2,0.6-4.9,0.6c-2.4,0-4.6-0.4-6.7-1.1 c-2.1-0.7-4-1.8-5.6-3.1c-1.6-1.3-2.9-3-3.8-5C2027.1,480.7,2026.7,478.5,2026.7,476.1z M2036.8,475.8c0,1.6,0.4,3.1,1.2,4.4 c0.8,1.3,2,2.4,3.6,3.2c1.6,0.8,3.5,1.2,5.7,1.2c1.6,0,3.1-0.2,4.5-0.7c1.4-0.5,2.7-1.1,3.8-1.9c1.1-0.8,2-1.6,2.7-2.3 c0.7-0.8,1.4-1.6,2-2.4v-10.9l-11.9,0.7c-3.9,0.2-6.8,1.1-8.7,2.6C2037.8,471.2,2036.8,473.2,2036.8,475.8z" class="st0"/><path d="M2083.6,490.7v-50.9h10.4l-0.1,8.1h0.3c1.4-2.7,3.5-4.8,6.2-6.5c2.7-1.7,5.8-2.5,9.3-2.5 c2.8,0,5.3,0.4,7.5,1.1c2.2,0.7,3.9,1.7,5.3,3c1.3,1.3,2.4,2.8,3.3,4.7c0.9,1.9,1.4,3.9,1.8,6c0.3,2.1,0.5,4.4,0.5,7v30.1h-10.4 v-28.4c0-1.9-0.1-3.5-0.2-4.9c-0.2-1.4-0.5-2.7-0.9-4.1c-0.4-1.3-1-2.4-1.8-3.2c-0.8-0.8-1.8-1.5-3.1-2c-1.3-0.5-2.8-0.8-4.6-0.8 c-1.3,0-2.5,0.2-3.7,0.5c-1.1,0.3-2.2,0.8-3,1.3c-0.9,0.6-1.7,1.3-2.4,2.1c-0.7,0.8-1.3,1.8-1.8,2.8c-0.5,1-0.9,2.1-1.2,3.3 c-0.3,1.2-0.6,2.4-0.7,3.7c-0.1,1.3-0.2,2.6-0.2,4.1v25.6H2083.6z" class="st0"/><path d="M2138,464.5c0-3.2,0.4-6.1,1.3-8.9c0.9-2.7,2.1-5.1,3.6-7.2s3.3-3.8,5.4-5.2s4.3-2.5,6.7-3.3 c2.4-0.7,4.9-1.1,7.6-1.1c4.1,0,7.7,0.9,10.8,2.6c3,1.7,5.4,3.9,7,6.5h0.3l-0.1-8.1h10.2V480c0,5.5-0.4,10-1.3,13.4 c-0.9,3.4-2.3,6.3-4.2,8.5c-1.1,1.3-2.2,2.5-3.4,3.5c-1.2,1-2.7,2-4.5,3s-3.9,1.8-6.5,2.4c-2.5,0.6-5.3,0.8-8.3,0.8 c-7.9,0-15.4-2.5-22.4-7.4c-0.1-0.1-0.2-0.2-0.3-0.2l4.9-7.1c1.6,1.4,4.2,2.9,7.7,4.3c3.5,1.4,7,2.1,10.4,2.1 c3.4,0,6.3-0.5,8.6-1.6c2.3-1.1,4.1-2.4,5.3-4c1.1-1.3,2-3.2,2.8-5.7c0.7-2.4,1.1-5.3,1.1-8.6V481h-0.2c-1.9,2.8-4.3,5-7.3,6.6 c-3,1.6-6.5,2.5-10.5,2.5c-3.3,0-6.4-0.6-9.4-1.7c-3-1.2-5.6-2.8-7.8-5c-2.2-2.1-4-4.8-5.4-8.1C2138.7,472,2138,468.4,2138,464.5z M2150.3,455.7c-1.2,2.6-1.8,5.5-1.8,8.8c0,3.3,0.6,6.2,1.8,8.8c1.2,2.6,3.1,4.7,5.6,6.2c2.5,1.6,5.4,2.3,8.8,2.3 c3.4,0,6.4-0.8,8.8-2.4c2.5-1.6,4.3-3.6,5.5-6.2c1.2-2.6,1.8-5.5,1.8-8.7c0-3.3-0.6-6.2-1.8-8.8c-1.2-2.6-3.1-4.7-5.6-6.2 c-2.5-1.6-5.4-2.4-8.8-2.4c-3.4,0-6.3,0.8-8.8,2.4C2153.4,451,2151.5,453.1,2150.3,455.7z" class="st0"/><path d="M2201.5,465.2c0-3.9,0.7-7.5,2.1-10.8c1.4-3.3,3.2-6.1,5.6-8.4c2.3-2.3,5.1-4,8.2-5.3c3.1-1.2,6.5-1.9,10-1.9 c4.7,0,8.8,1,12.5,3.1c3.7,2.1,6.6,4.9,8.6,8.6c2.1,3.7,3.1,7.9,3.1,12.6c0,0.6,0,1.2-0.1,2c0,0.7-0.1,1.3-0.2,1.8l0,0.7h-39.4 c0.3,5,1.9,8.9,4.8,11.7c3,2.8,6.8,4.3,11.6,4.3c1.5,0,3-0.1,4.5-0.4c1.5-0.3,2.8-0.6,3.8-0.9c1.1-0.4,2.1-0.8,3.2-1.3 c1.1-0.5,1.9-0.9,2.5-1.3s1.2-0.8,1.8-1.2c0.6-0.4,0.9-0.6,1-0.7l4.4,5.8c0,0-0.2,0.1-0.5,0.4c-0.3,0.3-0.6,0.6-0.9,0.9 c-0.3,0.3-0.8,0.7-1.3,1.1s-1.2,0.9-1.9,1.3s-1.5,0.9-2.4,1.3c-0.9,0.5-1.9,0.9-3,1.3s-2.3,0.7-3.5,1c-1.2,0.3-2.6,0.5-4.2,0.7 c-1.5,0.2-3.1,0.3-4.8,0.3c-5,0-9.4-1.1-13.3-3.3c-3.9-2.2-6.9-5.3-9-9.4C2202.6,475.2,2201.5,470.5,2201.5,465.2z M2212,460.8 h29.7c0-1.2-0.2-2.5-0.5-3.7c-0.4-1.3-0.9-2.6-1.7-3.9c-0.8-1.3-1.7-2.5-2.8-3.5c-1.1-1-2.5-1.9-4.2-2.5c-1.7-0.6-3.5-1-5.5-1 c-2,0-3.8,0.3-5.4,0.9c-1.7,0.6-3.1,1.4-4.2,2.4s-2.1,2.2-2.9,3.5c-0.8,1.3-1.4,2.6-1.8,3.9C2212.3,458.3,2212.1,459.6,2212,460.8 z" class="st0"/><path d="M2261.6,490.7v-50.9h10.4l-0.1,8.1h0.3c1.4-2.7,3.5-4.8,6.2-6.5c2.7-1.7,5.8-2.5,9.3-2.5 c2.8,0,5.3,0.4,7.5,1.1c2.2,0.7,3.9,1.7,5.3,3c1.3,1.3,2.4,2.8,3.3,4.7c0.9,1.9,1.4,3.9,1.8,6c0.3,2.1,0.5,4.4,0.5,7v30.1h-10.4 v-28.4c0-1.9-0.1-3.5-0.2-4.9s-0.5-2.7-0.9-4.1c-0.4-1.3-1-2.4-1.8-3.2c-0.8-0.8-1.8-1.5-3.1-2c-1.3-0.5-2.8-0.8-4.6-0.8 c-1.3,0-2.5,0.2-3.7,0.5c-1.2,0.3-2.2,0.8-3,1.3c-0.9,0.6-1.7,1.3-2.4,2.1c-0.7,0.8-1.3,1.8-1.8,2.8c-0.5,1-0.9,2.1-1.2,3.3 c-0.3,1.2-0.5,2.4-0.7,3.7c-0.1,1.3-0.2,2.6-0.2,4.1v25.6H2261.6z" class="st0"/><path d="M1087.2,726.6v-73.9h10.4v73.9H1087.2z" class="st0"/><path d="M1112.7,726.6v-50.9h10.4l-0.1,8.1h0.3c1.4-2.7,3.5-4.8,6.2-6.5c2.7-1.7,5.8-2.5,9.3-2.5 c2.8,0,5.3,0.4,7.5,1.1c2.2,0.7,3.9,1.7,5.3,3c1.3,1.3,2.4,2.8,3.3,4.7c0.9,1.9,1.4,3.9,1.8,6c0.3,2.1,0.5,4.4,0.5,7v30.1h-10.4 v-28.4c0-1.9-0.1-3.5-0.2-4.9c-0.2-1.4-0.5-2.7-0.9-4.1c-0.4-1.3-1-2.4-1.8-3.2c-0.8-0.8-1.8-1.5-3.1-2c-1.3-0.5-2.8-0.8-4.6-0.8 c-1.3,0-2.5,0.2-3.7,0.5c-1.1,0.3-2.2,0.8-3,1.3c-0.9,0.6-1.7,1.3-2.4,2.1c-0.7,0.8-1.3,1.8-1.8,2.8c-0.5,1-0.9,2.1-1.2,3.3 c-0.3,1.2-0.6,2.4-0.7,3.7c-0.1,1.3-0.2,2.6-0.2,4.1v25.6H1112.7z" class="st0"/><path d="M1167.1,701.1c0-5,1-9.5,3-13.5c2-4,4.9-7.1,8.6-9.4s8-3.5,12.9-3.5c4,0,7.5,0.8,10.5,2.4 c3,1.6,5.4,3.7,7.3,6.4h0.2v-30.9h10.2v73.9h-9.9v-8.1h-0.2c-1.4,2-3,3.7-4.9,5.1c-1.8,1.4-3.9,2.4-6.1,3.1c-2.2,0.7-4.5,1-7,1 c-3,0-5.8-0.4-8.3-1.3c-2.6-0.9-4.9-2.1-6.9-3.7c-2-1.6-3.7-3.5-5.1-5.7c-1.4-2.2-2.5-4.7-3.3-7.4 C1167.5,706.9,1167.1,704.1,1167.1,701.1z M1177.5,701c0,2.6,0.4,5,1.1,7.2c0.8,2.2,1.8,4.1,3.2,5.7c1.4,1.6,3.1,2.9,5.1,3.8 c2.1,0.9,4.3,1.4,6.8,1.4c3.3,0,6.2-0.8,8.7-2.4c2.5-1.6,4.3-3.7,5.6-6.5c1.3-2.7,1.9-5.8,1.9-9.2s-0.6-6.5-1.9-9.2 c-1.3-2.7-3.1-4.8-5.6-6.4s-5.4-2.4-8.7-2.4s-6.2,0.8-8.7,2.4c-2.5,1.6-4.4,3.7-5.6,6.4C1178.1,694.5,1177.5,697.5,1177.5,701z" class="st0"/><path d="M1234,706.1v-30.6h10.2v30.1c0,1.3,0.1,2.4,0.2,3.4c0.1,1,0.3,2.1,0.6,3.1c0.3,1.1,0.6,2,1.2,2.8 c0.5,0.8,1.1,1.5,1.9,2.1c0.8,0.6,1.7,1.1,2.9,1.5c1.2,0.3,2.5,0.5,3.9,0.5c2.2,0,4.1-0.4,5.8-1.3c1.7-0.9,3-2.1,4-3.6 c1-1.5,1.7-3.3,2.2-5.2c0.5-1.9,0.7-4,0.7-6.2v-27.2h10.4v51h-10.1l-0.1-7.4c-1.4,2.6-3.5,4.7-6.3,6.2c-2.8,1.6-6,2.4-9.4,2.4 c-6.4,0-11-2-14.1-5.9C1235.2,718.5,1234,713.2,1234,706.1z" class="st0"/><path d="M1286.9,718.2l4.9-5.8c1.9,2.2,4.2,3.9,7,5.2c2.8,1.3,5.5,1.9,8,1.9c1.2,0,2.4-0.1,3.5-0.4 c1.1-0.2,2.1-0.6,3.1-1.1c1-0.5,1.7-1.2,2.3-2.2c0.6-0.9,0.8-2.1,0.8-3.4c0-0.7-0.1-1.4-0.4-2.1c-0.3-0.6-0.7-1.2-1.3-1.7 c-0.6-0.5-1.1-0.9-1.7-1.3c-0.6-0.4-1.3-0.8-2.1-1.1s-1.6-0.6-2.1-0.8c-0.6-0.2-1.3-0.4-2.1-0.7c-0.8-0.2-1.4-0.4-1.7-0.6 c-0.6-0.2-1.4-0.4-2.2-0.7c-0.8-0.3-1.4-0.5-1.8-0.6c-0.4-0.1-0.8-0.3-1.4-0.5c-0.5-0.2-1.1-0.5-1.7-0.8 c-5.4-2.6-8.1-6.6-8.1-11.8c0-2.4,0.5-4.5,1.4-6.5c0.9-1.9,2.2-3.5,3.8-4.8s3.4-2.2,5.5-2.9c2-0.7,4.2-1,6.5-1 c7.5,0,13.3,2.4,17.4,7.3l-4.3,6.2c-1-1-2.2-1.9-3.5-2.7s-2.9-1.4-4.5-1.9c-1.6-0.5-3.2-0.7-4.8-0.7c-2.5,0-4.5,0.5-5.9,1.6 c-1.4,1-2.2,2.6-2.2,4.6c0,0.8,0.2,1.5,0.6,2.2c0.4,0.7,0.9,1.2,1.4,1.7c0.5,0.5,1.3,0.9,2.3,1.4c1,0.5,1.9,0.8,2.6,1.1 s1.8,0.6,3,1c2.8,0.9,5.1,1.7,6.9,2.4c2.5,1,4.5,2.2,5.9,3.5c2.7,2.5,4.1,5.5,4.1,9.1c0,4.8-1.8,8.8-5.3,11.7 c-3.7,3-8.4,4.6-14.1,4.6c-4.2,0-8-0.9-11.4-2.6C1291.9,723.5,1289.1,721.2,1286.9,718.2z" class="st0"/><path d="M1330.7,684v-8.3h7.4v-15.3h10.4v15.3h12.1v8.3h-12.1v23c0,2.6,0.1,4.5,0.2,5.9c0.1,1.3,0.5,2.5,1.1,3.5 c1,1.8,2.8,2.6,5.3,2.6c0.9,0,1.7-0.1,2.6-0.3c0.9-0.2,1.5-0.4,1.9-0.6l0.7-0.3l0.6,8.2c-0.1,0.1-0.3,0.1-0.5,0.2 s-0.6,0.2-1.3,0.4c-0.7,0.2-1.3,0.4-2,0.5c-0.7,0.1-1.5,0.3-2.5,0.4c-1,0.1-2,0.2-3,0.2c-4.9,0-8.5-1.8-10.9-5.3 c-1-1.5-1.7-3.4-2.1-5.6c-0.3-2.2-0.5-5.4-0.5-9.6V684H1330.7z" class="st0"/><path d="M1369.3,726.6v-50.9h10.4l-0.1,8h0.3c0.8-1.9,1.9-3.6,3.1-4.9s2.7-2.3,4.3-3c1.6-0.7,3.3-1,5.1-1 c1,0,2,0.1,2.9,0.2s1.5,0.3,1.9,0.4l0.6,0.2l-0.6,8.7h-0.5c-1.6,0-3.4,0-5.5,0c-2,0-3.7,0.5-5.1,1.4c-1.4,0.9-2.5,1.9-3.3,2.9 c-2,3.1-3.1,7.4-3.1,12.8v25.3H1369.3z" class="st0"/><path d="M1405.9,663.5c-1.3-1.2-1.9-2.7-1.9-4.6c0-1.8,0.6-3.4,1.9-4.5c1.3-1.2,2.9-1.8,4.9-1.8 c1.9,0,3.5,0.6,4.8,1.8c1.3,1.2,1.9,2.7,1.9,4.5c0,1.8-0.6,3.4-1.9,4.6s-2.8,1.8-4.8,1.8C1408.8,665.3,1407.1,664.7,1405.9,663.5z M1405.5,726.6v-50.9h10.4v50.9H1405.5z" class="st0"/><path d="M1427,701.1c0-3.9,0.7-7.5,2.1-10.8c1.4-3.3,3.2-6.1,5.6-8.4c2.3-2.3,5.1-4,8.2-5.3s6.5-1.9,10-1.9 c4.7,0,8.8,1,12.5,3.1s6.6,4.9,8.6,8.6c2.1,3.7,3.1,7.9,3.1,12.6c0,0.6,0,1.2-0.1,2c0,0.7-0.1,1.3-0.2,1.8l0,0.7h-39.4 c0.3,5,1.9,8.9,4.8,11.7c3,2.8,6.8,4.3,11.6,4.3c1.5,0,3-0.1,4.5-0.4c1.5-0.3,2.8-0.6,3.8-0.9c1.1-0.4,2.2-0.8,3.2-1.3 c1.1-0.5,1.9-0.9,2.5-1.3s1.2-0.8,1.8-1.2c0.6-0.4,0.9-0.6,1-0.7l4.4,5.8c0,0-0.2,0.1-0.5,0.4c-0.3,0.3-0.6,0.6-0.9,0.9 c-0.3,0.3-0.8,0.7-1.4,1.1s-1.2,0.9-1.9,1.3s-1.5,0.9-2.4,1.3c-0.9,0.5-1.9,0.9-3,1.3s-2.3,0.7-3.5,1c-1.2,0.3-2.6,0.5-4.2,0.7 c-1.5,0.2-3.1,0.3-4.8,0.3c-5,0-9.4-1.1-13.3-3.3s-6.9-5.3-9-9.4C1428.1,711.1,1427,706.4,1427,701.1z M1437.4,696.7h29.7 c0-1.2-0.2-2.5-0.5-3.7c-0.4-1.3-0.9-2.6-1.7-3.9c-0.8-1.3-1.7-2.5-2.8-3.5c-1.1-1-2.5-1.9-4.2-2.5c-1.7-0.6-3.5-1-5.5-1 c-2,0-3.8,0.3-5.4,0.9c-1.7,0.6-3.1,1.4-4.2,2.4c-1.1,1-2.1,2.2-2.9,3.5c-0.8,1.3-1.4,2.6-1.8,3.9 C1437.7,694.1,1437.5,695.4,1437.4,696.7z" class="st0"/><path d="M1483.6,700.3c0-3.2,0.4-6.1,1.3-8.9c0.9-2.7,2.1-5.1,3.6-7.2s3.3-3.8,5.4-5.2s4.3-2.5,6.7-3.3 c2.4-0.7,4.9-1.1,7.6-1.1c4.1,0,7.7,0.9,10.8,2.6c3,1.7,5.4,3.9,7,6.5h0.3l-0.1-8.1h10.2v40.2c0,5.5-0.4,10-1.3,13.4 c-0.9,3.4-2.3,6.3-4.2,8.5c-1.1,1.3-2.2,2.5-3.4,3.5c-1.2,1-2.7,2-4.5,3s-3.9,1.8-6.5,2.4c-2.5,0.6-5.3,0.8-8.3,0.8 c-7.9,0-15.4-2.5-22.4-7.4c-0.1-0.1-0.2-0.2-0.3-0.2l4.9-7.1c1.6,1.4,4.2,2.9,7.7,4.3c3.5,1.4,7,2.1,10.4,2.1 c3.4,0,6.3-0.5,8.6-1.6c2.3-1.1,4.1-2.4,5.3-4c1.1-1.3,2-3.2,2.8-5.7c0.7-2.4,1.1-5.3,1.1-8.6v-2.6h-0.2c-1.9,2.8-4.3,5-7.3,6.6 c-3,1.6-6.5,2.5-10.5,2.5c-3.3,0-6.4-0.6-9.4-1.7c-3-1.2-5.6-2.8-7.8-5c-2.2-2.1-4-4.8-5.4-8.1 C1484.3,707.9,1483.6,704.3,1483.6,700.3z M1495.8,691.6c-1.2,2.6-1.8,5.5-1.8,8.8c0,3.3,0.6,6.2,1.8,8.8c1.2,2.6,3.1,4.7,5.6,6.2 c2.5,1.6,5.4,2.3,8.8,2.3c3.4,0,6.4-0.8,8.8-2.4c2.5-1.6,4.3-3.6,5.5-6.2c1.2-2.6,1.8-5.5,1.8-8.7c0-3.3-0.6-6.2-1.8-8.8 c-1.2-2.6-3.1-4.7-5.6-6.2c-2.5-1.6-5.4-2.4-8.8-2.4c-3.4,0-6.3,0.8-8.8,2.4C1498.9,686.9,1497.1,689,1495.8,691.6z" class="st0"/><path d="M1547.1,701.1c0-3.9,0.7-7.5,2.1-10.8c1.4-3.3,3.2-6.1,5.6-8.4c2.3-2.3,5.1-4,8.2-5.3s6.5-1.9,10-1.9 c4.7,0,8.8,1,12.5,3.1s6.6,4.9,8.6,8.6c2.1,3.7,3.1,7.9,3.1,12.6c0,0.6,0,1.2-0.1,2c0,0.7-0.1,1.3-0.2,1.8l0,0.7h-39.4 c0.3,5,1.9,8.9,4.8,11.7c3,2.8,6.8,4.3,11.6,4.3c1.5,0,3-0.1,4.5-0.4c1.5-0.3,2.8-0.6,3.8-0.9c1.1-0.4,2.2-0.8,3.2-1.3 c1.1-0.5,1.9-0.9,2.5-1.3s1.2-0.8,1.8-1.2c0.6-0.4,0.9-0.6,1-0.7l4.4,5.8c0,0-0.2,0.1-0.5,0.4c-0.3,0.3-0.6,0.6-0.9,0.9 c-0.3,0.3-0.8,0.7-1.4,1.1s-1.2,0.9-1.9,1.3s-1.5,0.9-2.4,1.3c-0.9,0.5-1.9,0.9-3,1.3s-2.3,0.7-3.5,1c-1.2,0.3-2.6,0.5-4.2,0.7 c-1.5,0.2-3.1,0.3-4.8,0.3c-5,0-9.4-1.1-13.3-3.3s-6.9-5.3-9-9.4C1548.2,711.1,1547.1,706.4,1547.1,701.1z M1557.6,696.7h29.7 c0-1.2-0.2-2.5-0.5-3.7c-0.4-1.3-0.9-2.6-1.7-3.9c-0.8-1.3-1.7-2.5-2.8-3.5c-1.1-1-2.5-1.9-4.2-2.5c-1.7-0.6-3.5-1-5.5-1 c-2,0-3.8,0.3-5.4,0.9c-1.7,0.6-3.1,1.4-4.2,2.4c-1.1,1-2.1,2.2-2.9,3.5c-0.8,1.3-1.4,2.6-1.8,3.9 C1557.9,694.1,1557.6,695.4,1557.6,696.7z" class="st0"/><path d="M1602.2,718.2l4.9-5.8c1.9,2.2,4.2,3.9,7,5.2c2.8,1.3,5.5,1.9,8,1.9c1.2,0,2.4-0.1,3.5-0.4 c1.1-0.2,2.1-0.6,3.1-1.1c1-0.5,1.7-1.2,2.3-2.2c0.6-0.9,0.8-2.1,0.8-3.4c0-0.7-0.1-1.4-0.4-2.1c-0.3-0.6-0.7-1.2-1.3-1.7 c-0.6-0.5-1.1-0.9-1.7-1.3c-0.6-0.4-1.3-0.8-2.1-1.1s-1.6-0.6-2.1-0.8c-0.6-0.2-1.3-0.4-2.1-0.7s-1.4-0.4-1.7-0.6 c-0.6-0.2-1.4-0.4-2.2-0.7c-0.8-0.3-1.4-0.5-1.8-0.6c-0.4-0.1-0.8-0.3-1.4-0.5c-0.5-0.2-1.1-0.5-1.7-0.8 c-5.4-2.6-8.1-6.6-8.1-11.8c0-2.4,0.5-4.5,1.4-6.5c0.9-1.9,2.2-3.5,3.8-4.8s3.4-2.2,5.5-2.9c2-0.7,4.2-1,6.5-1 c7.5,0,13.3,2.4,17.4,7.3l-4.3,6.2c-1-1-2.2-1.9-3.5-2.7c-1.4-0.8-2.9-1.4-4.5-1.9c-1.6-0.5-3.2-0.7-4.8-0.7c-2.5,0-4.5,0.5-6,1.6 c-1.4,1-2.2,2.6-2.2,4.6c0,0.8,0.2,1.5,0.6,2.2c0.4,0.7,0.9,1.2,1.4,1.7c0.5,0.5,1.3,0.9,2.3,1.4c1,0.5,1.9,0.8,2.6,1.1 s1.8,0.6,3,1c2.8,0.9,5.1,1.7,6.9,2.4c2.5,1,4.5,2.2,5.9,3.5c2.7,2.5,4.1,5.5,4.1,9.1c0,4.8-1.8,8.8-5.3,11.7 c-3.7,3-8.4,4.6-14.1,4.6c-4.2,0-8-0.9-11.4-2.6C1607.2,723.5,1604.4,721.2,1602.2,718.2z" class="st0"/><path d="M1648,701.3c0-4,0.7-7.7,2.2-11s3.4-6.2,5.8-8.4c2.4-2.2,5.2-4,8.3-5.2c3.1-1.2,6.4-1.9,9.8-1.9 c2.1,0,4.2,0.2,6.1,0.5c1.9,0.3,3.6,0.8,5,1.3c1.4,0.6,2.6,1.1,3.6,1.6c1.1,0.5,2,1.1,2.7,1.8s1.3,1.1,1.6,1.4 c0.3,0.3,0.5,0.5,0.7,0.8l-3.6,7.5c-0.5-0.5-1-1-1.4-1.3c-0.4-0.4-1.1-0.9-2.1-1.6c-1-0.7-2-1.2-3-1.6c-1-0.4-2.3-0.8-3.8-1.1 c-1.6-0.3-3.2-0.5-4.9-0.5c-2.3,0-4.4,0.4-6.4,1.2c-2,0.8-3.8,2-5.3,3.5c-1.5,1.5-2.7,3.3-3.6,5.5c-0.9,2.2-1.3,4.6-1.3,7.2 c0,5.3,1.5,9.7,4.6,13.1c3.1,3.4,7.1,5.1,12,5.1c1.9,0,3.7-0.2,5.4-0.7c1.7-0.4,3.2-1,4.3-1.6c1.2-0.6,2.2-1.3,3.1-1.9 c0.9-0.6,1.6-1.2,2-1.6l0.6-0.7l3.6,7.5c-0.1,0.1-0.2,0.2-0.3,0.3c-0.6,0.6-1.1,1.1-1.6,1.5c-0.5,0.4-1.3,1-2.6,1.8 s-2.5,1.5-3.9,2c-1.3,0.5-3.1,1-5.2,1.4c-2.1,0.4-4.4,0.6-6.9,0.6c-3.4,0-6.7-0.6-9.8-1.9s-5.8-3-8.2-5.2c-2.4-2.2-4.2-5-5.6-8.4 C1648.7,708.9,1648,705.2,1648,701.3z" class="st0"/><path d="M1702.8,726.6v-73.9h10.2v31h0.2c1.4-2.6,3.5-4.8,6.2-6.5c2.7-1.7,5.9-2.5,9.4-2.5c2.8,0,5.3,0.4,7.5,1.1 c2.2,0.7,3.9,1.7,5.2,3c1.3,1.2,2.4,2.8,3.3,4.7s1.4,3.8,1.7,5.9c0.3,2,0.5,4.4,0.5,6.9v30.3h-10.2v-28.8c0-1.6-0.1-3.1-0.2-4.3 c-0.1-1.2-0.4-2.5-0.8-3.9s-1-2.4-1.8-3.3c-0.7-0.9-1.8-1.6-3.1-2.2c-1.3-0.6-2.9-0.9-4.7-0.9c-2.2,0-4.2,0.5-6,1.4 c-1.7,0.9-3.1,2.2-4.2,3.9c-1.1,1.7-1.8,3.6-2.4,5.7c-0.5,2.2-0.8,4.6-0.8,7.2v25.1H1702.8z" class="st0"/><path d="M1761.6,663.5c-1.3-1.2-1.9-2.7-1.9-4.6c0-1.8,0.6-3.4,1.9-4.5c1.3-1.2,2.9-1.8,4.9-1.8 c1.9,0,3.5,0.6,4.8,1.8c1.3,1.2,1.9,2.7,1.9,4.5c0,1.8-0.6,3.4-1.9,4.6s-2.8,1.8-4.8,1.8C1764.5,665.3,1762.9,664.7,1761.6,663.5z M1761.3,726.6v-50.9h10.4v50.9H1761.3z" class="st0"/><path d="M1782.7,701.3c0-4,0.7-7.7,2.2-11s3.4-6.2,5.8-8.4c2.4-2.2,5.2-4,8.3-5.2c3.1-1.2,6.4-1.9,9.8-1.9 c2.1,0,4.2,0.2,6.1,0.5c1.9,0.3,3.6,0.8,5,1.3c1.4,0.6,2.6,1.1,3.6,1.6c1.1,0.5,2,1.1,2.7,1.8s1.3,1.1,1.6,1.4 c0.3,0.3,0.5,0.5,0.7,0.8l-3.6,7.5c-0.5-0.5-1-1-1.4-1.3c-0.4-0.4-1.1-0.9-2.1-1.6c-1-0.7-2-1.2-3-1.6c-1-0.4-2.3-0.8-3.8-1.1 c-1.6-0.3-3.2-0.5-4.9-0.5c-2.3,0-4.4,0.4-6.4,1.2c-2,0.8-3.8,2-5.3,3.5c-1.5,1.5-2.7,3.3-3.6,5.5c-0.9,2.2-1.3,4.6-1.3,7.2 c0,5.3,1.5,9.7,4.6,13.1c3.1,3.4,7.1,5.1,12,5.1c1.9,0,3.7-0.2,5.4-0.7c1.7-0.4,3.2-1,4.3-1.6c1.2-0.6,2.2-1.3,3.1-1.9 c0.9-0.6,1.6-1.2,2-1.6l0.6-0.7l3.6,7.5c-0.1,0.1-0.2,0.2-0.3,0.3c-0.6,0.6-1.1,1.1-1.6,1.5c-0.5,0.4-1.3,1-2.6,1.8 s-2.5,1.5-3.9,2c-1.3,0.5-3.1,1-5.2,1.4c-2.1,0.4-4.4,0.6-6.9,0.6c-3.4,0-6.7-0.6-9.8-1.9s-5.8-3-8.2-5.2c-2.4-2.2-4.2-5-5.6-8.4 C1783.4,708.9,1782.7,705.2,1782.7,701.3z" class="st0"/><path d="M1837.5,726.6v-73.9h10.2v31h0.2c1.4-2.6,3.5-4.8,6.2-6.5c2.7-1.7,5.9-2.5,9.4-2.5c2.8,0,5.3,0.4,7.5,1.1 c2.2,0.7,3.9,1.7,5.2,3c1.3,1.2,2.4,2.8,3.3,4.7s1.4,3.8,1.7,5.9c0.3,2,0.5,4.4,0.5,6.9v30.3h-10.2v-28.8c0-1.6-0.1-3.1-0.2-4.3 c-0.1-1.2-0.4-2.5-0.8-3.9s-1-2.4-1.8-3.3c-0.7-0.9-1.8-1.6-3.1-2.2c-1.3-0.6-2.9-0.9-4.7-0.9c-2.2,0-4.2,0.5-6,1.4 c-1.7,0.9-3.1,2.2-4.2,3.9c-1.1,1.7-1.8,3.6-2.4,5.7c-0.5,2.2-0.8,4.6-0.8,7.2v25.1H1837.5z" class="st0"/><path d="M1890.2,684v-8.3h7.4v-15.3h10.4v15.3h12.1v8.3H1908v23c0,2.6,0.1,4.5,0.2,5.9c0.1,1.3,0.5,2.5,1.1,3.5 c1,1.8,2.8,2.6,5.3,2.6c0.9,0,1.7-0.1,2.6-0.3c0.9-0.2,1.5-0.4,1.9-0.6l0.7-0.3l0.6,8.2c-0.1,0.1-0.3,0.1-0.5,0.2 c-0.2,0.1-0.6,0.2-1.3,0.4c-0.7,0.2-1.3,0.4-2,0.5c-0.7,0.1-1.5,0.3-2.5,0.4c-1,0.1-2,0.2-3,0.2c-4.9,0-8.5-1.8-10.9-5.3 c-1-1.5-1.7-3.4-2.1-5.6c-0.3-2.2-0.5-5.4-0.5-9.6V684H1890.2z" class="st0"/><path d="M1924.5,701.1c0-3.9,0.7-7.5,2.1-10.8c1.4-3.3,3.2-6.1,5.6-8.4c2.3-2.3,5.1-4,8.2-5.3c3.1-1.2,6.5-1.9,10-1.9 c4.7,0,8.8,1,12.5,3.1c3.7,2.1,6.6,4.9,8.6,8.6c2.1,3.7,3.1,7.9,3.1,12.6c0,0.6,0,1.2-0.1,2c0,0.7-0.1,1.3-0.2,1.8l0,0.7h-39.4 c0.3,5,1.9,8.9,4.8,11.7c3,2.8,6.8,4.3,11.6,4.3c1.5,0,3-0.1,4.5-0.4c1.5-0.3,2.8-0.6,3.8-0.9c1.1-0.4,2.1-0.8,3.2-1.3 c1.1-0.5,1.9-0.9,2.5-1.3s1.2-0.8,1.8-1.2c0.6-0.4,0.9-0.6,1-0.7l4.4,5.8c0,0-0.2,0.1-0.5,0.4c-0.3,0.3-0.6,0.6-0.9,0.9 c-0.3,0.3-0.8,0.7-1.3,1.1s-1.2,0.9-1.9,1.3s-1.5,0.9-2.4,1.3c-0.9,0.5-1.9,0.9-3,1.3s-2.3,0.7-3.5,1c-1.2,0.3-2.6,0.5-4.2,0.7 c-1.5,0.2-3.1,0.3-4.8,0.3c-5,0-9.4-1.1-13.3-3.3c-3.9-2.2-6.9-5.3-9-9.4C1925.5,711.1,1924.5,706.4,1924.5,701.1z M1934.9,696.7 h29.7c0-1.2-0.2-2.5-0.5-3.7c-0.4-1.3-0.9-2.6-1.7-3.9c-0.8-1.3-1.7-2.5-2.8-3.5c-1.1-1-2.5-1.9-4.2-2.5c-1.7-0.6-3.5-1-5.5-1 c-2,0-3.8,0.3-5.4,0.9c-1.7,0.6-3.1,1.4-4.2,2.4s-2.1,2.2-2.9,3.5c-0.8,1.3-1.4,2.6-1.8,3.9C1935.2,694.1,1935,695.4,1934.9,696.7 z" class="st0"/><path d="M2006.2,746.5v-70.8h9.9v8h0.2c4.5-5.9,10.5-8.9,18.1-8.9c4.9,0,9.3,1.1,13.1,3.4c3.8,2.3,6.6,5.4,8.6,9.4 c2,4,3,8.5,3,13.5c0,3.8-0.6,7.3-1.8,10.6c-1.2,3.3-2.8,6.1-5,8.5c-2.1,2.4-4.7,4.3-7.9,5.6c-3.1,1.4-6.5,2-10.3,2 c-3.9,0-7.4-0.8-10.3-2.4c-2.9-1.6-5.4-3.8-7.2-6.7l-0.1-0.1v27.9H2006.2z M2017.9,691.8c-1.2,2.7-1.9,5.8-1.9,9.2 s0.6,6.5,1.9,9.2c1.2,2.7,3.1,4.9,5.6,6.5c2.5,1.6,5.4,2.4,8.7,2.4s6.2-0.8,8.7-2.4c2.5-1.6,4.3-3.7,5.6-6.5 c1.3-2.7,1.9-5.8,1.9-9.2s-0.6-6.5-1.9-9.2c-1.3-2.7-3.1-4.8-5.6-6.4s-5.4-2.4-8.7-2.4s-6.2,0.8-8.7,2.4 S2019.2,689.1,2017.9,691.8z" class="st0"/><path d="M2069.5,726.6v-50.9h10.4l-0.1,8h0.3c0.8-1.9,1.9-3.6,3.1-4.9s2.7-2.3,4.3-3c1.6-0.7,3.3-1,5.1-1 c1,0,2,0.1,2.9,0.2c0.9,0.1,1.5,0.3,1.9,0.4l0.6,0.2l-0.6,8.7h-0.5c-1.6,0-3.4,0-5.5,0c-2,0-3.7,0.5-5.1,1.4s-2.5,1.9-3.3,2.9 c-2,3.1-3.1,7.4-3.1,12.8v25.3H2069.5z" class="st0"/><path d="M2106.1,663.5c-1.3-1.2-1.9-2.7-1.9-4.6c0-1.8,0.6-3.4,1.9-4.5c1.3-1.2,2.9-1.8,4.9-1.8 c1.9,0,3.5,0.6,4.8,1.8c1.3,1.2,1.9,2.7,1.9,4.5c0,1.8-0.6,3.4-1.9,4.6s-2.8,1.8-4.8,1.8C2109,665.3,2107.4,664.7,2106.1,663.5z M2105.8,726.6v-50.9h10.4v50.9H2105.8z" class="st0"/><path d="M2123.6,675.6h10.8l15.1,38.3l14.9-38.3h10.7l-21.2,50.9h-9L2123.6,675.6z" class="st0"/><path d="M2177.9,712c0-3.2,0.8-6,2.5-8.3c1.7-2.3,4-4,7-5.2c2.9-1.2,6.4-1.8,10.4-2l13.6-0.5V694 c0-3.6-1.1-6.3-3.4-8.2c-2.3-1.9-5.3-2.8-9.1-2.8c-2.2,0-4.5,0.3-6.9,0.9s-4.1,1.2-5.3,1.7c-1.2,0.5-2.2,1.1-3.1,1.6l-3.1-7.1 c6-3.6,12.4-5.4,19.1-5.4c2.1,0,4,0.1,5.7,0.4c1.7,0.3,3.2,0.7,4.6,1.2c1.4,0.5,2.6,1.1,3.6,1.8c1,0.7,2,1.5,2.9,2.4 c1.9,1.9,3.2,4.1,4.1,6.6c0.9,2.5,1.3,5.8,1.3,9.9v29.6h-10l-0.1-6.4c-0.1,0.1-0.1,0.1-0.2,0.2c-0.7,0.7-1.2,1.3-1.7,1.7 c-0.4,0.4-1.2,1-2.3,1.8c-1.1,0.8-2.1,1.4-3.1,1.9c-1,0.5-2.3,0.9-3.9,1.3c-1.6,0.4-3.2,0.6-4.9,0.6c-2.4,0-4.6-0.4-6.7-1.1 c-2.1-0.7-4-1.8-5.6-3.1c-1.6-1.3-2.9-3-3.8-5C2178.4,716.6,2177.9,714.4,2177.9,712z M2188.1,711.6c0,1.6,0.4,3.1,1.2,4.4 c0.8,1.3,2,2.4,3.6,3.2c1.6,0.8,3.5,1.2,5.7,1.2c1.6,0,3.1-0.2,4.5-0.7c1.4-0.5,2.7-1.1,3.8-1.9c1.1-0.8,2-1.6,2.7-2.3 c0.7-0.8,1.4-1.6,2-2.4v-10.9l-11.9,0.7c-3.9,0.2-6.8,1.1-8.7,2.6C2189,707.1,2188.1,709.1,2188.1,711.6z" class="st0"/><path d="M2229.5,684v-8.3h7.4v-15.3h10.4v15.3h12.1v8.3h-12.1v23c0,2.6,0.1,4.5,0.2,5.9c0.1,1.3,0.5,2.5,1.1,3.5 c1,1.8,2.8,2.6,5.3,2.6c0.9,0,1.7-0.1,2.6-0.3c0.9-0.2,1.5-0.4,1.9-0.6l0.7-0.3l0.6,8.2c-0.1,0.1-0.3,0.1-0.5,0.2 s-0.6,0.2-1.3,0.4c-0.7,0.2-1.3,0.4-2,0.5c-0.7,0.1-1.5,0.3-2.5,0.4c-1,0.1-2,0.2-3,0.2c-4.9,0-8.5-1.8-10.9-5.3 c-1-1.5-1.7-3.4-2.1-5.6c-0.3-2.2-0.5-5.4-0.5-9.6V684H2229.5z" class="st0"/><path d="M2270,681.6c0-1,0.2-2,0.5-2.8c0.3-0.8,0.8-1.6,1.4-2.1c0.6-0.6,1.3-1,2.1-1.3c0.8-0.3,1.7-0.5,2.7-0.5 c1.9,0,3.5,0.6,4.8,1.8c1.2,1.2,1.9,2.9,1.9,4.9c0,2-0.6,3.7-1.9,4.9c-1.2,1.2-2.8,1.8-4.8,1.8c-2,0-3.6-0.6-4.9-1.8 C2270.6,685.2,2270,683.6,2270,681.6z M2270,721c0-1.3,0.3-2.5,0.9-3.6c0.6-1,1.4-1.8,2.4-2.4c1-0.5,2.2-0.8,3.5-0.8 c2,0,3.5,0.6,4.8,1.8c1.2,1.2,1.8,2.9,1.8,4.9c0,2-0.6,3.6-1.8,4.8s-2.8,1.8-4.8,1.8c-2,0-3.6-0.6-4.9-1.8 C2270.6,724.6,2270,723,2270,721z" class="st0"/><path d="M1087.2,844.5v-73.9h22.2c6,0,11.3,0.9,16,2.7c4.7,1.8,8.6,4.1,11.6,6.9c1.5,1.4,2.8,2.9,4.1,4.5 c1.2,1.6,2.5,3.5,3.6,5.8c1.2,2.2,2.1,4.8,2.8,7.8c0.7,2.9,1,6,1,9.3c0,3.3-0.3,6.4-1,9.3s-1.6,5.5-2.8,7.7 c-1.2,2.2-2.4,4.1-3.6,5.8c-1.2,1.6-2.6,3.1-4.1,4.5c-3,2.8-6.9,5.1-11.6,6.9s-10.1,2.7-16,2.7H1087.2z M1097.6,835.6h11.9 c4.3,0,8.1-0.6,11.4-1.9c3.3-1.2,6.1-2.9,8.3-5c5.9-5.6,8.8-12.6,8.8-21.2s-2.9-15.6-8.8-21.2c-1.1-1-2.2-1.9-3.6-2.7 c-1.3-0.8-2.8-1.5-4.4-2.2c-1.6-0.6-3.4-1.1-5.4-1.5c-2-0.4-4.1-0.5-6.3-0.5h-11.9V835.6z" class="st0"/><path d="M1160.2,781.5c-1.3-1.2-1.9-2.7-1.9-4.6c0-1.8,0.6-3.4,1.9-4.5c1.3-1.2,2.9-1.8,4.9-1.8 c1.9,0,3.5,0.6,4.8,1.8c1.3,1.2,1.9,2.7,1.9,4.5c0,1.8-0.6,3.4-1.9,4.6s-2.8,1.8-4.8,1.8C1163.1,783.3,1161.5,782.7,1160.2,781.5z M1159.9,844.5v-50.9h10.4v50.9H1159.9z" class="st0"/><path d="M1181.3,819c0-3.9,0.7-7.5,2.1-10.8c1.4-3.3,3.2-6.1,5.6-8.4c2.3-2.3,5.1-4,8.2-5.3c3.1-1.2,6.5-1.9,10-1.9 c4.7,0,8.8,1,12.5,3.1c3.7,2.1,6.6,4.9,8.6,8.6c2.1,3.7,3.1,7.9,3.1,12.6c0,0.6,0,1.2-0.1,2c0,0.7-0.1,1.3-0.2,1.8l0,0.7h-39.4 c0.3,5,1.9,8.9,4.8,11.7c3,2.8,6.8,4.3,11.6,4.3c1.5,0,3-0.1,4.5-0.4c1.5-0.3,2.8-0.6,3.8-0.9c1.1-0.4,2.1-0.8,3.2-1.3 c1.1-0.5,1.9-0.9,2.5-1.3s1.2-0.8,1.8-1.2c0.6-0.4,0.9-0.6,1-0.7l4.4,5.8c0,0-0.2,0.1-0.5,0.4c-0.3,0.3-0.6,0.6-0.9,0.9 c-0.3,0.3-0.8,0.7-1.3,1.1s-1.2,0.9-1.9,1.3s-1.5,0.9-2.4,1.3c-0.9,0.5-1.9,0.9-3,1.3s-2.3,0.7-3.5,1c-1.2,0.3-2.6,0.5-4.2,0.7 c-1.5,0.2-3.1,0.3-4.8,0.3c-5,0-9.4-1.1-13.3-3.3c-3.9-2.2-6.9-5.3-9-9.4C1182.4,829,1181.3,824.3,1181.3,819z M1191.8,814.6h29.7 c0-1.2-0.2-2.5-0.5-3.7c-0.4-1.3-0.9-2.6-1.7-3.9c-0.8-1.3-1.7-2.5-2.8-3.5c-1.1-1-2.5-1.9-4.2-2.5c-1.7-0.6-3.5-1-5.5-1 c-2,0-3.8,0.3-5.4,0.9c-1.7,0.6-3.1,1.4-4.2,2.4s-2.1,2.2-2.9,3.5c-0.8,1.3-1.4,2.6-1.8,3.9 C1192.1,812.1,1191.9,813.4,1191.8,814.6z" class="st0"/><path d="M1263.7,844.5v-73.9h41v8.7h-30.7v24.6h28.8v8.7h-28.8v31.9H1263.7z" class="st0"/><path d="M1308.7,829.9c0-3.2,0.8-6,2.5-8.3c1.7-2.3,4-4,7-5.2c2.9-1.2,6.4-1.8,10.4-2l13.6-0.5v-1.9 c0-3.6-1.1-6.3-3.4-8.2c-2.3-1.9-5.3-2.8-9.1-2.8c-2.2,0-4.5,0.3-6.9,0.9s-4.1,1.2-5.3,1.7c-1.2,0.5-2.2,1.1-3.1,1.6l-3.1-7.1 c6-3.6,12.4-5.4,19.1-5.4c2.1,0,4,0.1,5.7,0.4c1.7,0.3,3.2,0.7,4.6,1.2c1.4,0.5,2.6,1.1,3.6,1.8c1,0.7,2,1.5,2.9,2.4 c1.9,1.9,3.2,4.1,4.1,6.6c0.9,2.5,1.3,5.8,1.3,9.9v29.6h-10l-0.1-6.4c-0.1,0.1-0.1,0.1-0.2,0.2c-0.7,0.7-1.2,1.3-1.7,1.7 c-0.4,0.4-1.2,1-2.3,1.8c-1.1,0.8-2.1,1.4-3.1,1.9c-1,0.5-2.3,0.9-3.9,1.3c-1.6,0.4-3.2,0.6-4.9,0.6c-2.4,0-4.6-0.4-6.7-1.1 c-2.1-0.7-4-1.8-5.6-3.1c-1.6-1.3-2.9-3-3.8-5C1309.2,834.5,1308.7,832.3,1308.7,829.9z M1318.9,829.6c0,1.6,0.4,3.1,1.2,4.4 c0.8,1.3,2,2.4,3.6,3.2c1.6,0.8,3.5,1.2,5.7,1.2c1.6,0,3.1-0.2,4.5-0.7c1.4-0.5,2.7-1.1,3.8-1.9c1.1-0.8,2-1.6,2.7-2.3 c0.7-0.8,1.4-1.6,2-2.4v-10.9l-11.9,0.7c-3.9,0.2-6.8,1.1-8.7,2.6C1319.9,825,1318.9,827,1318.9,829.6z" class="st0"/><path d="M1365.7,844.5v-50.9h10.4l-0.1,8.1h0.3c1.3-2.5,3.2-4.6,5.9-6.4c2.6-1.7,5.5-2.6,8.7-2.6c3.8,0,7,0.8,9.6,2.5 c2.6,1.7,4.5,4.2,5.6,7.5c1.8-3.2,4-5.7,6.7-7.4s5.9-2.6,9.4-2.6c2.7,0,5,0.4,7,1.1c2,0.8,3.7,1.8,5,3c1.3,1.3,2.3,2.8,3.1,4.7 c0.8,1.8,1.4,3.7,1.7,5.7c0.3,2,0.5,4.1,0.5,6.5v30.9h-10.2v-29.7c0-1.3-0.1-2.6-0.2-3.7c-0.1-1.1-0.4-2.4-0.8-3.6 c-0.4-1.3-0.9-2.4-1.6-3.3c-0.7-0.9-1.6-1.6-2.7-2.2c-1.2-0.6-2.5-0.9-4.1-0.9c-2.6,0-4.9,0.8-6.7,2.4s-3.2,3.6-4.1,6.1 c-0.9,2.5-1.3,5.3-1.3,8.4v26.5h-10.4v-29.7c0-1.6-0.1-3-0.2-4.3c-0.2-1.3-0.5-2.5-0.9-3.7c-0.4-1.2-1-2.2-1.7-3 c-0.7-0.8-1.5-1.5-2.6-1.9s-2.3-0.7-3.8-0.7c-2.6,0-4.9,0.8-6.8,2.4s-3.3,3.6-4.1,6.1c-0.9,2.5-1.3,5.3-1.3,8.4v26.5H1365.7z" class="st0"/><path d="M1453.8,781.5c-1.3-1.2-1.9-2.7-1.9-4.6c0-1.8,0.6-3.4,1.9-4.5c1.3-1.2,2.9-1.8,4.9-1.8 c1.9,0,3.5,0.6,4.8,1.8c1.3,1.2,1.9,2.7,1.9,4.5c0,1.8-0.6,3.4-1.9,4.6s-2.8,1.8-4.8,1.8C1456.7,783.3,1455,782.7,1453.8,781.5z M1453.4,844.5v-50.9h10.4v50.9H1453.4z" class="st0"/><path d="M1478.8,844.5v-73.9h10.2v73.9H1478.8z" class="st0"/><path d="M1504.4,781.5c-1.3-1.2-1.9-2.7-1.9-4.6c0-1.8,0.6-3.4,1.9-4.5c1.3-1.2,2.9-1.8,4.9-1.8 c1.9,0,3.5,0.6,4.8,1.8c1.3,1.2,1.9,2.7,1.9,4.5c0,1.8-0.6,3.4-1.9,4.6s-2.8,1.8-4.8,1.8C1507.2,783.3,1505.6,782.7,1504.4,781.5z M1504,844.5v-50.9h10.4v50.9H1504z" class="st0"/><path d="M1525.5,819c0-3.9,0.7-7.5,2.1-10.8c1.4-3.3,3.2-6.1,5.6-8.4c2.3-2.3,5.1-4,8.2-5.3c3.1-1.2,6.5-1.9,10-1.9 c4.7,0,8.8,1,12.5,3.1c3.7,2.1,6.6,4.9,8.6,8.6c2.1,3.7,3.1,7.9,3.1,12.6c0,0.6,0,1.2-0.1,2c0,0.7-0.1,1.3-0.2,1.8l0,0.7h-39.4 c0.3,5,1.9,8.9,4.8,11.7c3,2.8,6.8,4.3,11.6,4.3c1.5,0,3-0.1,4.5-0.4c1.5-0.3,2.8-0.6,3.8-0.9c1.1-0.4,2.1-0.8,3.2-1.3 c1.1-0.5,1.9-0.9,2.5-1.3s1.2-0.8,1.8-1.2c0.6-0.4,0.9-0.6,1-0.7l4.4,5.8c0,0-0.2,0.1-0.5,0.4c-0.3,0.3-0.6,0.6-0.9,0.9 c-0.3,0.3-0.8,0.7-1.3,1.1s-1.2,0.9-1.9,1.3s-1.5,0.9-2.4,1.3c-0.9,0.5-1.9,0.9-3,1.3s-2.3,0.7-3.5,1c-1.2,0.3-2.6,0.5-4.2,0.7 c-1.5,0.2-3.1,0.3-4.8,0.3c-5,0-9.4-1.1-13.3-3.3c-3.9-2.2-6.9-5.3-9-9.4C1526.5,829,1525.5,824.3,1525.5,819z M1535.9,814.6h29.7 c0-1.2-0.2-2.5-0.5-3.7c-0.4-1.3-0.9-2.6-1.7-3.9c-0.8-1.3-1.7-2.5-2.8-3.5c-1.1-1-2.5-1.9-4.2-2.5c-1.7-0.6-3.5-1-5.5-1 c-2,0-3.8,0.3-5.4,0.9c-1.7,0.6-3.1,1.4-4.2,2.4s-2.1,2.2-2.9,3.5c-0.8,1.3-1.4,2.6-1.8,3.9C1536.2,812.1,1536,813.4,1535.9,814.6 z" class="st0"/><path d="M1607.8,844.5v-73.9h43.2v8.7h-32.9v22.1h31v8.7h-31v25.8h33.7v8.7H1607.8z" class="st0"/><path d="M1663.6,844.5v-50.9h10.4l-0.1,8.1h0.3c1.4-2.7,3.5-4.8,6.2-6.5c2.7-1.7,5.8-2.5,9.3-2.5 c2.8,0,5.3,0.4,7.5,1.1c2.2,0.7,3.9,1.7,5.3,3c1.3,1.3,2.4,2.8,3.3,4.7c0.9,1.9,1.4,3.9,1.8,6c0.3,2.1,0.5,4.4,0.5,7v30.1h-10.4 v-28.4c0-1.9-0.1-3.5-0.2-4.9c-0.2-1.4-0.5-2.7-0.9-4.1c-0.4-1.3-1-2.4-1.8-3.2c-0.8-0.8-1.8-1.5-3.1-2c-1.3-0.5-2.8-0.8-4.6-0.8 c-1.3,0-2.5,0.2-3.7,0.5c-1.1,0.3-2.2,0.8-3,1.3c-0.9,0.6-1.7,1.3-2.4,2.1c-0.7,0.8-1.3,1.8-1.8,2.8c-0.5,1-0.9,2.1-1.2,3.3 c-0.3,1.2-0.6,2.4-0.7,3.7c-0.1,1.3-0.2,2.6-0.2,4.1v25.6H1663.6z" class="st0"/><path d="M1718,818.3c0-3.2,0.4-6.1,1.3-8.9c0.9-2.7,2.1-5.1,3.6-7.2s3.3-3.8,5.4-5.2s4.3-2.5,6.7-3.3 c2.4-0.7,4.9-1.1,7.6-1.1c4.1,0,7.7,0.9,10.8,2.6c3,1.7,5.4,3.9,7,6.5h0.3l-0.1-8.1h10.2v40.2c0,5.5-0.4,10-1.3,13.4 c-0.9,3.4-2.3,6.3-4.2,8.5c-1.1,1.3-2.2,2.5-3.4,3.5c-1.2,1-2.7,2-4.5,3c-1.8,1-3.9,1.8-6.5,2.4c-2.5,0.6-5.3,0.8-8.3,0.8 c-7.9,0-15.4-2.5-22.4-7.4c-0.1-0.1-0.2-0.2-0.3-0.2l4.8-7.1c1.6,1.4,4.2,2.9,7.7,4.3c3.5,1.4,7,2.1,10.4,2.1 c3.4,0,6.3-0.5,8.6-1.6c2.3-1.1,4.1-2.4,5.3-4c1.1-1.3,2-3.2,2.8-5.7c0.7-2.4,1.1-5.3,1.1-8.6v-2.6h-0.2c-1.9,2.8-4.3,5-7.3,6.6 c-3,1.6-6.5,2.5-10.5,2.5c-3.3,0-6.4-0.6-9.4-1.7c-2.9-1.2-5.5-2.8-7.8-5c-2.2-2.1-4-4.8-5.4-8.1 C1718.7,825.8,1718,822.2,1718,818.3z M1730.2,809.5c-1.2,2.6-1.8,5.5-1.8,8.8c0,3.3,0.6,6.2,1.8,8.8c1.2,2.6,3.1,4.7,5.6,6.2 c2.5,1.6,5.4,2.3,8.8,2.3c3.4,0,6.4-0.8,8.8-2.4c2.5-1.6,4.3-3.6,5.5-6.2c1.2-2.6,1.8-5.5,1.8-8.7c0-3.3-0.6-6.2-1.8-8.8 c-1.2-2.6-3.1-4.7-5.6-6.2c-2.5-1.6-5.4-2.4-8.8-2.4c-3.4,0-6.3,0.8-8.8,2.4C1733.3,804.8,1731.5,806.9,1730.2,809.5z" class="st0"/><path d="M1781.5,819c0-3.9,0.7-7.5,2.1-10.8c1.4-3.3,3.2-6.1,5.6-8.4c2.3-2.3,5.1-4,8.2-5.3c3.1-1.2,6.5-1.9,10-1.9 c4.7,0,8.8,1,12.5,3.1c3.7,2.1,6.6,4.9,8.6,8.6c2.1,3.7,3.1,7.9,3.1,12.6c0,0.6,0,1.2-0.1,2c0,0.7-0.1,1.3-0.2,1.8l0,0.7h-39.4 c0.3,5,1.9,8.9,4.8,11.7c3,2.8,6.8,4.3,11.6,4.3c1.5,0,3-0.1,4.5-0.4c1.5-0.3,2.8-0.6,3.8-0.9c1.1-0.4,2.1-0.8,3.2-1.3 c1.1-0.5,1.9-0.9,2.5-1.3s1.2-0.8,1.8-1.2c0.6-0.4,0.9-0.6,1-0.7l4.4,5.8c0,0-0.2,0.1-0.5,0.4c-0.3,0.3-0.6,0.6-0.9,0.9 c-0.3,0.3-0.8,0.7-1.3,1.1s-1.2,0.9-1.9,1.3s-1.5,0.9-2.4,1.3c-0.9,0.5-1.9,0.9-3,1.3s-2.3,0.7-3.5,1c-1.2,0.3-2.6,0.5-4.2,0.7 c-1.5,0.2-3.1,0.3-4.8,0.3c-5,0-9.4-1.1-13.3-3.3c-3.9-2.2-6.9-5.3-9-9.4C1782.6,829,1781.5,824.3,1781.5,819z M1792,814.6h29.7 c0-1.2-0.2-2.5-0.5-3.7c-0.4-1.3-0.9-2.6-1.7-3.9c-0.8-1.3-1.7-2.5-2.8-3.5c-1.1-1-2.5-1.9-4.2-2.5c-1.7-0.6-3.5-1-5.5-1 c-2,0-3.8,0.3-5.4,0.9c-1.7,0.6-3.1,1.4-4.2,2.4s-2.1,2.2-2.9,3.5c-0.8,1.3-1.4,2.6-1.8,3.9C1792.3,812.1,1792,813.4,1792,814.6z" class="st0"/><path d="M1842.1,844.5v-73.9h10.2v73.9H1842.1z" class="st0"/><path d="M1862,836.1l4.9-5.8c1.9,2.2,4.2,3.9,7,5.2c2.8,1.3,5.5,1.9,8,1.9c1.2,0,2.4-0.1,3.5-0.4 c1.1-0.2,2.1-0.6,3.1-1.1c1-0.5,1.7-1.2,2.3-2.2c0.6-0.9,0.8-2.1,0.8-3.4c0-0.7-0.1-1.4-0.4-2.1c-0.3-0.6-0.7-1.2-1.3-1.7 c-0.6-0.5-1.1-0.9-1.7-1.3c-0.6-0.4-1.3-0.8-2.1-1.1s-1.6-0.6-2.1-0.8c-0.6-0.2-1.3-0.4-2.1-0.7c-0.8-0.2-1.4-0.4-1.7-0.6 c-0.6-0.2-1.4-0.4-2.2-0.7c-0.8-0.3-1.4-0.5-1.8-0.6c-0.4-0.1-0.8-0.3-1.4-0.5c-0.5-0.2-1.1-0.5-1.7-0.8 c-5.4-2.6-8.1-6.6-8.1-11.8c0-2.4,0.5-4.5,1.4-6.5c0.9-1.9,2.2-3.5,3.8-4.8s3.4-2.2,5.5-2.9c2-0.7,4.2-1,6.5-1 c7.5,0,13.3,2.4,17.4,7.3l-4.3,6.2c-1-1-2.2-1.9-3.5-2.7s-2.9-1.4-4.5-1.9c-1.6-0.5-3.2-0.7-4.8-0.7c-2.5,0-4.5,0.5-5.9,1.6 c-1.4,1-2.2,2.6-2.2,4.6c0,0.8,0.2,1.5,0.6,2.2c0.4,0.7,0.9,1.2,1.4,1.7c0.5,0.5,1.3,0.9,2.3,1.4c1,0.5,1.9,0.8,2.6,1.1 s1.8,0.6,3,1c2.8,0.9,5.1,1.7,6.9,2.4c2.5,1,4.5,2.2,5.9,3.5c2.7,2.5,4.1,5.5,4.1,9.1c0,4.8-1.8,8.8-5.3,11.7 c-3.7,3-8.4,4.6-14.1,4.6c-4.2,0-8-0.9-11.4-2.6C1867,841.4,1864.2,839.1,1862,836.1z" class="st0"/><path d="M1933.2,781.5c-1.3-1.2-1.9-2.7-1.9-4.6c0-1.8,0.6-3.4,1.9-4.5c1.3-1.2,2.9-1.8,4.9-1.8 c1.9,0,3.5,0.6,4.8,1.8c1.3,1.2,1.9,2.7,1.9,4.5c0,1.8-0.6,3.4-1.9,4.6s-2.8,1.8-4.8,1.8C1936,783.3,1934.4,782.7,1933.2,781.5z M1932.8,844.5v-50.9h10.4v50.9H1932.8z" class="st0"/><path d="M1957.7,844.5v-50.9h10.4l-0.1,8.1h0.3c1.4-2.7,3.5-4.8,6.2-6.5c2.7-1.7,5.8-2.5,9.3-2.5 c2.8,0,5.3,0.4,7.5,1.1c2.2,0.7,3.9,1.7,5.3,3c1.3,1.3,2.4,2.8,3.3,4.7c0.9,1.9,1.4,3.9,1.8,6c0.3,2.1,0.5,4.4,0.5,7v30.1h-10.4 v-28.4c0-1.9-0.1-3.5-0.2-4.9c-0.2-1.4-0.5-2.7-0.9-4.1c-0.4-1.3-1-2.4-1.8-3.2c-0.8-0.8-1.8-1.5-3.1-2c-1.3-0.5-2.8-0.8-4.6-0.8 c-1.3,0-2.5,0.2-3.7,0.5c-1.1,0.3-2.2,0.8-3,1.3c-0.9,0.6-1.7,1.3-2.4,2.1c-0.7,0.8-1.3,1.8-1.8,2.8c-0.5,1-0.9,2.1-1.2,3.3 c-0.3,1.2-0.6,2.4-0.7,3.7c-0.1,1.3-0.2,2.6-0.2,4.1v25.6H1957.7z" class="st0"/><path d="M2037.9,844.5v-73.9h19.9c4,0,7.3,0.2,10.1,0.7s5.2,1.4,7.4,2.8c5.3,3.4,8,8.3,8,14.9c0,3.8-1.1,7.2-3.2,10.1 c-2.1,3-4.8,4.9-8,5.9v0.3c3.3,0.7,6.2,1.8,8.6,3.4c2.4,1.6,4.3,3.7,5.7,6.2c1.4,2.5,2,5.4,2,8.6c0,2.5-0.4,4.7-1.1,6.8 c-0.7,2.1-1.6,3.8-2.7,5.2c-1.1,1.4-2.5,2.8-4.1,4.1c-2.2,1.8-4.8,3-7.8,3.7c-3,0.7-6.6,1.1-10.9,1.1H2037.9z M2048.3,802h8.7 c2.8,0,5-0.2,6.7-0.5s3.2-0.9,4.3-1.7c1-0.7,1.8-1.4,2.4-2.2s1.2-1.7,1.7-3c0.5-1.3,0.8-2.8,0.8-4.4c0-4.5-1.6-7.6-4.9-9.4 c-0.9-0.5-1.8-0.9-2.8-1.1c-1-0.3-2-0.5-3.2-0.6c-1.2-0.1-2.6-0.2-4.2-0.2h-9.5V802z M2048.3,836h11.1c2,0,3.6,0,4.8-0.1 c1.2-0.1,2.6-0.3,4.2-0.7c1.6-0.4,2.9-1,4-1.8c1.9-1.2,3.2-2.7,4.1-4.4c0.9-1.7,1.3-3.7,1.3-6c0-2.3-0.4-4.3-1.3-5.9 c-0.9-1.6-2.2-3-4.1-4.3c-1.6-1.1-3.5-1.9-5.5-2.2c-2-0.3-4.5-0.5-7.4-0.5h-11.1V836z" class="st0"/><path d="M2099.7,844.5v-50.9h10.4l-0.1,8h0.3c0.8-1.9,1.9-3.6,3.1-4.9s2.7-2.3,4.3-3c1.6-0.7,3.3-1,5.1-1 c1,0,2,0.1,2.9,0.2c0.9,0.1,1.5,0.3,1.9,0.4l0.6,0.2l-0.6,8.7h-0.5c-1.6,0-3.4,0-5.5,0c-2,0-3.7,0.5-5.1,1.4s-2.5,1.9-3.3,2.9 c-2,3.1-3.1,7.4-3.1,12.8v25.3H2099.7z" class="st0"/><path d="M2136.2,781.5c-1.3-1.2-1.9-2.7-1.9-4.6c0-1.8,0.6-3.4,1.9-4.5c1.3-1.2,2.9-1.8,4.9-1.8 c1.9,0,3.5,0.6,4.8,1.8c1.3,1.2,1.9,2.7,1.9,4.5c0,1.8-0.6,3.4-1.9,4.6s-2.8,1.8-4.8,1.8C2139.1,783.3,2137.5,782.7,2136.2,781.5z M2135.9,844.5v-50.9h10.4v50.9H2135.9z" class="st0"/><path d="M2157.3,819c0-3.9,0.7-7.5,2.1-10.8c1.4-3.3,3.2-6.1,5.6-8.4c2.3-2.3,5.1-4,8.2-5.3c3.1-1.2,6.5-1.9,10-1.9 c4.7,0,8.8,1,12.5,3.1c3.7,2.1,6.6,4.9,8.6,8.6c2.1,3.7,3.1,7.9,3.1,12.6c0,0.6,0,1.2-0.1,2c0,0.7-0.1,1.3-0.2,1.8l0,0.7h-39.4 c0.3,5,1.9,8.9,4.8,11.7c3,2.8,6.8,4.3,11.6,4.3c1.5,0,3-0.1,4.5-0.4c1.5-0.3,2.8-0.6,3.8-0.9c1.1-0.4,2.1-0.8,3.2-1.3 c1.1-0.5,1.9-0.9,2.5-1.3s1.2-0.8,1.8-1.2c0.6-0.4,0.9-0.6,1-0.7l4.4,5.8c0,0-0.2,0.1-0.5,0.4c-0.3,0.3-0.6,0.6-0.9,0.9 c-0.3,0.3-0.8,0.7-1.3,1.1s-1.2,0.9-1.9,1.3s-1.5,0.9-2.4,1.3c-0.9,0.5-1.9,0.9-3,1.3s-2.3,0.7-3.5,1c-1.2,0.3-2.6,0.5-4.2,0.7 c-1.5,0.2-3.1,0.3-4.8,0.3c-5,0-9.4-1.1-13.3-3.3c-3.9-2.2-6.9-5.3-9-9.4C2158.4,829,2157.3,824.3,2157.3,819z M2167.8,814.6h29.7 c0-1.2-0.2-2.5-0.5-3.7c-0.4-1.3-0.9-2.6-1.7-3.9c-0.8-1.3-1.7-2.5-2.8-3.5c-1.1-1-2.5-1.9-4.2-2.5c-1.7-0.6-3.5-1-5.5-1 c-2,0-3.8,0.3-5.4,0.9c-1.7,0.6-3.1,1.4-4.2,2.4s-2.1,2.2-2.9,3.5c-0.8,1.3-1.4,2.6-1.8,3.9 C2168.1,812.1,2167.9,813.4,2167.8,814.6z" class="st0"/><path d="M2212,802v-8.3h7.3v-5.1c0-6.2,1.1-10.7,3.4-13.6c1.3-1.6,3-2.9,5-4c2-1.1,4.4-1.6,7.1-1.6 c1.8,0,3.4,0.1,4.8,0.3c1.5,0.2,2.5,0.4,3.1,0.6l0.9,0.3l-0.7,8c-2-0.6-3.9-0.9-5.8-0.9c-1.3,0-2.4,0.2-3.4,0.6 c-1,0.4-1.7,0.9-2.3,1.5c-0.6,0.6-1,1.4-1.3,2.3c-0.3,1-0.5,1.9-0.6,2.9c-0.1,1-0.2,2-0.2,3.3v5.5h12.1v8.3h-12.1v42.5h-10.2V802 H2212z" class="st0"/><path d="M2243.1,819c0-3.9,0.7-7.5,2.1-10.8c1.4-3.3,3.2-6.1,5.6-8.4c2.3-2.3,5.1-4,8.2-5.3s6.5-1.9,10-1.9 c4.7,0,8.8,1,12.5,3.1s6.6,4.9,8.6,8.6c2.1,3.7,3.1,7.9,3.1,12.6c0,0.6,0,1.2-0.1,2c0,0.7-0.1,1.3-0.2,1.8l0,0.7h-39.4 c0.3,5,1.9,8.9,4.8,11.7c3,2.8,6.8,4.3,11.6,4.3c1.5,0,3-0.1,4.5-0.4c1.5-0.3,2.8-0.6,3.8-0.9c1.1-0.4,2.2-0.8,3.2-1.3 c1.1-0.5,1.9-0.9,2.5-1.3s1.2-0.8,1.8-1.2c0.6-0.4,0.9-0.6,1-0.7l4.4,5.8c0,0-0.2,0.1-0.5,0.4c-0.3,0.3-0.6,0.6-0.9,0.9 c-0.3,0.3-0.8,0.7-1.4,1.1s-1.2,0.9-1.9,1.3s-1.5,0.9-2.4,1.3c-0.9,0.5-1.9,0.9-3,1.3s-2.3,0.7-3.5,1c-1.2,0.3-2.6,0.5-4.2,0.7 c-1.5,0.2-3.1,0.3-4.8,0.3c-5,0-9.4-1.1-13.3-3.3s-6.9-5.3-9-9.4C2244.2,829,2243.1,824.3,2243.1,819z M2253.5,814.6h29.7 c0-1.2-0.2-2.5-0.5-3.7c-0.4-1.3-0.9-2.6-1.7-3.9c-0.8-1.3-1.7-2.5-2.8-3.5c-1.1-1-2.5-1.9-4.2-2.5c-1.7-0.6-3.5-1-5.5-1 c-2,0-3.8,0.3-5.4,0.9c-1.7,0.6-3.1,1.4-4.2,2.4c-1.1,1-2.1,2.2-2.9,3.5c-0.8,1.3-1.4,2.6-1.8,3.9 C2253.8,812.1,2253.6,813.4,2253.5,814.6z" class="st0"/><path d="M2303.1,844.5v-50.9h10.4l-0.1,8.1h0.3c1.4-2.7,3.5-4.8,6.2-6.5c2.7-1.7,5.8-2.5,9.3-2.5 c2.8,0,5.3,0.4,7.5,1.1c2.2,0.7,3.9,1.7,5.3,3c1.3,1.3,2.4,2.8,3.3,4.7c0.9,1.9,1.4,3.9,1.8,6c0.3,2.1,0.5,4.4,0.5,7v30.1h-10.4 v-28.4c0-1.9-0.1-3.5-0.2-4.9c-0.2-1.4-0.5-2.7-0.9-4.1c-0.4-1.3-1-2.4-1.8-3.2c-0.8-0.8-1.8-1.5-3.1-2c-1.3-0.5-2.8-0.8-4.6-0.8 c-1.3,0-2.5,0.2-3.7,0.5c-1.1,0.3-2.2,0.8-3,1.3c-0.9,0.6-1.7,1.3-2.4,2.1c-0.7,0.8-1.3,1.8-1.8,2.8c-0.5,1-0.9,2.1-1.2,3.3 c-0.3,1.2-0.6,2.4-0.7,3.7c-0.1,1.3-0.2,2.6-0.2,4.1v25.6H2303.1z" class="st0"/><path d="M2380.4,811.2c0-17.1,5.2-33.5,15.6-49.2l6.5,3.6c-1.4,2.1-2.8,4.8-4.3,8c-1.4,3.2-2.8,6.7-4.2,10.7 s-2.4,8.3-3.2,13.1c-0.8,4.8-1.2,9.4-1.2,13.8c0,4.5,0.4,9.1,1.2,13.8c0.8,4.8,1.9,9.1,3.2,13.1c1.3,4,2.7,7.6,4.2,10.7 c1.4,3.2,2.9,5.8,4.3,8l-6.5,3.5C2385.6,844.6,2380.4,828.3,2380.4,811.2z" class="st0"/><path d="M2412.2,778.8v-8.3h24.6v73.9h-10.2v-65.6H2412.2z" class="st0"/><path d="M2458.6,778.8v-8.3h50.3l2.8,5.9l-35.6,68h-10.9l35-65.6H2458.6z" class="st0"/><path d="M2518,795.1c0-3.6,0.6-6.9,1.8-10c1.2-3.1,2.8-5.8,5-8.1c2.1-2.3,4.8-4.1,8-5.4c3.2-1.3,6.7-2,10.5-2 c9.7,0,17.2,4.3,22.3,12.8c1.4,2.4,2.6,5.6,3.6,9.6c1,4,1.5,8.9,1.5,14.5c0,6.3-0.8,12-2.3,17.1c-1.6,5.1-3.6,9.2-6.3,12.6 c-5.2,6.5-12.1,9.8-20.8,9.8c-1.8,0-3.5-0.1-5.2-0.4c-1.7-0.2-3.1-0.5-4.3-0.8c-1.2-0.3-2.5-0.7-3.8-1.3c-1.3-0.6-2.3-1-2.9-1.4 s-1.4-0.8-2.4-1.5s-1.5-1.1-1.7-1.2c-0.1-0.1-0.5-0.4-1.1-0.9l4.4-6.8c1.8,1.6,4.1,3,7.1,4.2c3,1.2,6.2,1.8,9.7,1.8 c2.1,0,3.9-0.3,5.6-0.8c1.7-0.5,3.1-1.3,4.4-2.2c1.3-1,2.5-2.2,3.6-3.8c4.1-5.5,6.2-13.4,6.2-24c-0.7,1.4-1.5,2.8-2.6,4 c-1,1.2-2.3,2.4-3.9,3.6c-1.6,1.1-3.5,2-5.8,2.7c-2.3,0.7-4.9,1-7.6,1c-2.9,0-5.7-0.5-8.5-1.6c-2.7-1.1-5.2-2.6-7.3-4.5 c-2.1-1.9-3.8-4.4-5.1-7.3S2518,798.6,2518,795.1z M2528.2,793.8c0,2.1,0.3,4.1,1,6c0.7,1.9,1.6,3.6,2.8,5.1 c1.2,1.5,2.8,2.7,4.8,3.6c2,0.9,4.2,1.3,6.6,1.3c2.5,0,4.7-0.4,6.8-1.3c2-0.9,3.6-2.1,4.9-3.6c1.2-1.5,2.2-3.2,2.9-5.1 c0.7-1.9,1-3.9,1-6s-0.3-4.1-1-6c-0.7-1.9-1.6-3.6-2.9-5.1c-1.2-1.5-2.9-2.7-4.9-3.6c-2-0.9-4.3-1.3-6.8-1.3c-2,0-3.8,0.3-5.5,0.9 c-1.7,0.6-3.1,1.4-4.3,2.4c-1.2,1-2.2,2.2-3,3.6s-1.4,2.8-1.8,4.4C2528.4,790.5,2528.2,792.1,2528.2,793.8z" class="st0"/><path d="M2582.9,778.8v-8.3h24.6v73.9h-10.2v-65.6H2582.9z" class="st0"/><path d="M2622.9,819.2V811h49.5v8.3H2622.9z" class="st0"/><path d="M2679,778.8v-8.3h24.6v73.9h-10.2v-65.6H2679z" class="st0"/><path d="M2725,824.1c0-4.7,1.2-8.6,3.7-11.9c2.5-3.3,5.9-5.6,10.1-6.9v-0.4c-1.1-0.4-2.2-0.9-3.1-1.4 c-0.9-0.5-2-1.2-3.1-2.1c-1.1-0.9-2-1.9-2.8-3.1c-0.8-1.1-1.4-2.5-1.9-4.2c-0.5-1.7-0.8-3.6-0.8-5.7c0-2.9,0.6-5.6,1.9-8 c1.3-2.4,2.9-4.4,5.1-6c2.1-1.6,4.6-2.8,7.4-3.6c2.8-0.9,5.8-1.3,8.9-1.3c3.1,0,6.1,0.4,8.9,1.3c2.8,0.9,5.3,2.1,7.4,3.6 c2.1,1.6,3.8,3.6,5.1,6c1.3,2.4,1.9,5.1,1.9,8c0,2.1-0.3,4-0.8,5.7c-0.5,1.7-1.1,3.1-1.9,4.3s-1.7,2.2-2.8,3.1 c-1.1,0.9-2.1,1.6-3,2.1c-0.9,0.5-2,1-3.1,1.4v0.3c2.1,0.7,3.9,1.6,5.6,2.8c1.7,1.2,3.2,2.5,4.4,4.1c1.2,1.6,2.2,3.4,2.9,5.4 c0.7,2,1,4.2,1,6.6c0,3.4-0.6,6.4-1.9,9.2c-1.3,2.7-3.1,5-5.4,6.8c-2.3,1.8-5,3.2-8.1,4.1c-3.1,1-6.5,1.4-10.1,1.4 s-7-0.5-10.1-1.4c-3.1-1-5.8-2.3-8-4.1c-2.3-1.8-4-4.1-5.3-6.8C2725.7,830.5,2725,827.5,2725,824.1z M2735.2,823.3 c0,2.2,0.4,4.1,1.2,5.9c0.8,1.8,1.9,3.3,3.3,4.5c1.4,1.2,3,2.1,4.8,2.8c1.8,0.7,3.8,1,5.9,1c2.1,0,4-0.3,5.9-1 c1.9-0.7,3.5-1.6,4.8-2.8c1.4-1.2,2.5-2.7,3.3-4.5c0.8-1.8,1.2-3.8,1.2-5.9c0-2.9-0.7-5.4-2-7.5c-1.3-2.2-3.1-3.8-5.4-4.9 s-4.9-1.7-7.8-1.7c-4.4,0-8.1,1.3-10.9,3.8C2736.6,815.6,2735.2,819,2735.2,823.3z M2737.3,789.3c0,3.7,1.2,6.5,3.6,8.5 s5.6,3.1,9.4,3.1c3.8,0,7-1,9.4-3.1s3.6-4.9,3.6-8.5c0-1.5-0.2-2.8-0.6-4.1s-1-2.3-1.8-3.2c-0.8-0.9-1.7-1.7-2.8-2.3 c-1.1-0.7-2.3-1.1-3.6-1.5c-1.3-0.3-2.7-0.5-4.2-0.5c-1.9,0-3.6,0.3-5.2,0.8c-1.6,0.5-3,1.3-4.2,2.2c-1.2,1-2.1,2.2-2.8,3.7 C2737.7,785.9,2737.3,787.5,2737.3,789.3z" class="st0"/><path d="M2786.6,833.3l5.8-6c0.8,1.4,1.8,2.7,3.1,3.9c1.2,1.2,2.7,2.2,4.2,3.1c1.6,0.9,3.3,1.6,5.2,2.1 c1.9,0.5,3.9,0.8,5.9,0.8c1.7,0,3.4-0.2,5-0.6s3.2-1,4.7-1.9c1.5-0.9,2.8-1.9,3.9-3.2c1.1-1.3,2-2.8,2.6-4.6c0.6-1.8,1-3.8,1-6 c0-1.8-0.2-3.5-0.7-5.1s-1.1-3-1.9-4.1c-0.8-1.2-1.7-2.2-2.8-3.1c-1.1-0.9-2.3-1.7-3.5-2.2c-1.3-0.6-2.6-1-4-1.3 c-1.4-0.3-2.8-0.4-4.2-0.4c-1.6,0-3.3,0.2-4.9,0.5c-1.6,0.3-3.1,0.8-4.6,1.4c-1.5,0.6-2.7,1.3-3.6,2.2l-5.2-3.1l6.5-34.7h37.2v8.3 h-29.7l-3.9,19.7c2.8-1.6,6.3-2.3,10.5-2.3c1.7,0,3.5,0.2,5.2,0.5c1.7,0.3,3.4,0.8,5.1,1.5c1.7,0.7,3.2,1.5,4.7,2.5 c1.5,1,2.8,2.1,4.1,3.5s2.3,2.9,3.2,4.5c0.9,1.6,1.6,3.5,2.1,5.5s0.8,4.2,0.8,6.5c0,2.6-0.4,5.1-1.1,7.5c-0.7,2.4-1.7,4.4-3,6.2 c-1.3,1.8-2.8,3.4-4.5,4.9c-1.7,1.4-3.6,2.6-5.6,3.6s-4.2,1.6-6.4,2.1c-2.2,0.5-4.5,0.7-6.9,0.7c-2.7,0-5.2-0.3-7.6-0.8 c-2.4-0.6-4.5-1.3-6.2-2.2c-1.7-0.9-3.3-1.9-4.8-3.1c-1.5-1.2-2.6-2.3-3.5-3.3C2787.9,835.3,2787.2,834.3,2786.6,833.3z" class="st0"/><path d="M2850.5,824.1c0-4.7,1.2-8.6,3.7-11.9c2.5-3.3,5.9-5.6,10.1-6.9v-0.4c-1.1-0.4-2.2-0.9-3.1-1.4 c-0.9-0.5-2-1.2-3.1-2.1c-1.1-0.9-2-1.9-2.8-3.1c-0.8-1.1-1.4-2.5-1.9-4.2c-0.5-1.7-0.8-3.6-0.8-5.7c0-2.9,0.6-5.6,1.9-8 c1.3-2.4,2.9-4.4,5.1-6c2.1-1.6,4.6-2.8,7.4-3.6c2.8-0.9,5.8-1.3,8.9-1.3c3.1,0,6.1,0.4,8.9,1.3c2.8,0.9,5.3,2.1,7.4,3.6 c2.1,1.6,3.8,3.6,5.1,6c1.3,2.4,1.9,5.1,1.9,8c0,2.1-0.3,4-0.8,5.7c-0.5,1.7-1.1,3.1-1.9,4.3s-1.7,2.2-2.8,3.1 c-1.1,0.9-2.1,1.6-3,2.1c-0.9,0.5-2,1-3.1,1.4v0.3c2.1,0.7,3.9,1.6,5.6,2.8c1.7,1.2,3.2,2.5,4.4,4.1c1.2,1.6,2.2,3.4,2.9,5.4 c0.7,2,1,4.2,1,6.6c0,3.4-0.6,6.4-1.9,9.2c-1.3,2.7-3.1,5-5.4,6.8c-2.3,1.8-5,3.2-8.1,4.1c-3.1,1-6.5,1.4-10.1,1.4 s-7-0.5-10.1-1.4c-3.1-1-5.8-2.3-8-4.1c-2.3-1.8-4-4.1-5.3-6.8C2851.2,830.5,2850.5,827.5,2850.5,824.1z M2860.7,823.3 c0,2.2,0.4,4.1,1.2,5.9c0.8,1.8,1.9,3.3,3.3,4.5c1.4,1.2,3,2.1,4.8,2.8c1.8,0.7,3.8,1,5.9,1c2.1,0,4-0.3,5.9-1 c1.9-0.7,3.5-1.6,4.8-2.8c1.4-1.2,2.5-2.7,3.3-4.5c0.8-1.8,1.2-3.8,1.2-5.9c0-2.9-0.7-5.4-2-7.5c-1.3-2.2-3.1-3.8-5.4-4.9 s-4.9-1.7-7.8-1.7c-4.4,0-8.1,1.3-10.9,3.8C2862.1,815.6,2860.7,819,2860.7,823.3z M2862.9,789.3c0,3.7,1.2,6.5,3.6,8.5 s5.6,3.1,9.4,3.1c3.8,0,7-1,9.4-3.1s3.6-4.9,3.6-8.5c0-1.5-0.2-2.8-0.6-4.1s-1-2.3-1.8-3.2c-0.8-0.9-1.7-1.7-2.8-2.3 c-1.1-0.7-2.3-1.1-3.6-1.5c-1.3-0.3-2.7-0.5-4.2-0.5c-1.9,0-3.6,0.3-5.2,0.8c-1.6,0.5-3,1.3-4.2,2.2c-1.2,1-2.1,2.2-2.8,3.7 C2863.2,785.9,2862.9,787.5,2862.9,789.3z" class="st0"/><path d="M2910.1,856.8c1.4-2.1,2.8-4.8,4.3-8s2.8-6.7,4.2-10.7c1.3-4,2.4-8.4,3.2-13.1c0.8-4.8,1.2-9.4,1.2-13.8 c0-4.5-0.4-9.1-1.2-13.8c-0.8-4.8-1.9-9.1-3.2-13.1c-1.3-4-2.7-7.5-4.2-10.7s-2.9-5.8-4.3-8l6.5-3.6c10.7,15.6,16,32,16,49.2 c0,17.2-5.3,33.6-16,49.2L2910.1,856.8z" class="st0"/></g></g></svg>