<svg id="Layer_1" data-name="Layer 1" xmlns="http://www.w3.org/2000/svg" width="1106.28mm" height="407.46mm" viewBox="0 0 3135.9 1155">
  <defs>
    <style>
      .cls-1 {
        fill: #fff;
      }
    </style>
  </defs>
  <title>onlineedition-qr-code</title>
  <g>
    <g>
      <rect class="cls-1" x="444.55" y="245" width="22.9" height="22.9"/>
      <rect class="cls-1" x="490.45" y="245" width="22.9" height="22.9"/>
      <rect class="cls-1" x="513.35" y="245" width="22.9" height="22.9"/>
      <rect class="cls-1" x="536.35" y="245" width="22.9" height="22.9"/>
      <rect class="cls-1" x="605.15" y="245" width="22.9" height="22.9"/>
      <rect class="cls-1" x="628.05" y="245" width="22.9" height="22.9"/>
      <rect class="cls-1" x="673.85" y="245" width="22.9" height="22.9"/>
      <rect class="cls-1" x="719.75" y="245" width="22.9" height="22.9"/>
      <rect class="cls-1" x="444.55" y="267.9" width="22.9" height="22.9"/>
      <rect class="cls-1" x="467.55" y="267.9" width="22.9" height="22.9"/>
      <rect class="cls-1" x="490.45" y="267.9" width="22.9" height="22.9"/>
      <rect class="cls-1" x="513.35" y="267.9" width="22.9" height="22.9"/>
      <rect class="cls-1" x="536.35" y="267.9" width="22.9" height="22.9"/>
      <rect class="cls-1" x="628.05" y="267.9" width="22.9" height="22.9"/>
      <rect class="cls-1" x="696.85" y="267.9" width="22.9" height="22.9"/>
      <rect class="cls-1" x="444.55" y="290.9" width="22.9" height="22.9"/>
      <rect class="cls-1" x="467.55" y="290.9" width="22.9" height="22.9"/>
      <rect class="cls-1" x="490.45" y="290.9" width="22.9" height="22.9"/>
      <rect class="cls-1" x="536.35" y="290.9" width="22.9" height="22.9"/>
      <rect class="cls-1" x="605.15" y="290.9" width="22.9" height="22.9"/>
      <rect class="cls-1" x="628.05" y="290.9" width="22.9" height="22.9"/>
      <rect class="cls-1" x="490.45" y="313.8" width="22.9" height="22.9"/>
      <rect class="cls-1" x="628.05" y="313.8" width="22.9" height="22.9"/>
      <rect class="cls-1" x="650.95" y="313.8" width="22.9" height="22.9"/>
      <rect class="cls-1" x="444.55" y="336.7" width="22.9" height="22.9"/>
      <rect class="cls-1" x="582.15" y="336.7" width="22.9" height="22.9"/>
      <rect class="cls-1" x="605.15" y="336.7" width="22.9" height="22.9"/>
      <rect class="cls-1" x="628.05" y="336.7" width="22.9" height="22.9"/>
      <rect class="cls-1" x="650.95" y="336.7" width="22.9" height="22.9"/>
      <rect class="cls-1" x="673.85" y="336.7" width="22.9" height="22.9"/>
      <rect class="cls-1" x="696.85" y="336.7" width="22.9" height="22.9"/>
      <rect class="cls-1" x="467.55" y="359.7" width="22.9" height="22.9"/>
      <rect class="cls-1" x="536.35" y="359.7" width="22.9" height="22.9"/>
      <rect class="cls-1" x="605.15" y="359.7" width="22.9" height="22.9"/>
      <rect class="cls-1" x="628.05" y="359.7" width="22.9" height="22.9"/>
      <rect class="cls-1" x="673.85" y="359.7" width="22.9" height="22.9"/>
      <rect class="cls-1" x="444.55" y="382.6" width="22.9" height="22.9"/>
      <rect class="cls-1" x="490.45" y="382.6" width="22.9" height="22.9"/>
      <rect class="cls-1" x="536.35" y="382.6" width="22.9" height="22.9"/>
      <rect class="cls-1" x="582.15" y="382.6" width="22.9" height="22.9"/>
      <rect class="cls-1" x="628.05" y="382.6" width="22.9" height="22.9"/>
      <rect class="cls-1" x="673.85" y="382.6" width="22.9" height="22.9"/>
      <rect class="cls-1" x="719.75" y="382.6" width="22.9" height="22.9"/>
      <rect class="cls-1" x="467.55" y="405.5" width="22.9" height="22.9"/>
      <rect class="cls-1" x="513.35" y="405.5" width="22.9" height="22.9"/>
      <rect class="cls-1" x="559.25" y="405.5" width="22.9" height="22.9"/>
      <rect class="cls-1" x="605.15" y="405.5" width="22.9" height="22.9"/>
      <rect class="cls-1" x="628.05" y="405.5" width="22.9" height="22.9"/>
      <rect class="cls-1" x="673.85" y="405.5" width="22.9" height="22.9"/>
      <rect class="cls-1" x="696.85" y="405.5" width="22.9" height="22.9"/>
      <rect class="cls-1" x="261.15" y="428.4" width="22.9" height="22.9"/>
      <rect class="cls-1" x="329.95" y="428.4" width="22.9" height="22.9"/>
      <rect class="cls-1" x="352.85" y="428.4" width="22.9" height="22.9"/>
      <rect class="cls-1" x="375.75" y="428.4" width="22.9" height="22.9"/>
      <rect class="cls-1" x="398.75" y="428.4" width="22.9" height="22.9"/>
      <rect class="cls-1" x="421.65" y="428.4" width="22.9" height="22.9"/>
      <rect class="cls-1" x="444.55" y="428.4" width="22.9" height="22.9"/>
      <rect class="cls-1" x="467.55" y="428.4" width="22.9" height="22.9"/>
      <rect class="cls-1" x="490.45" y="428.4" width="22.9" height="22.9"/>
      <rect class="cls-1" x="513.35" y="428.4" width="22.9" height="22.9"/>
      <rect class="cls-1" x="559.25" y="428.4" width="22.9" height="22.9"/>
      <rect class="cls-1" x="650.95" y="428.4" width="22.9" height="22.9"/>
      <rect class="cls-1" x="742.65" y="428.4" width="22.9" height="22.9"/>
      <rect class="cls-1" x="811.45" y="428.4" width="22.9" height="22.9"/>
      <rect class="cls-1" x="857.35" y="428.4" width="22.9" height="22.9"/>
      <rect class="cls-1" x="880.25" y="428.4" width="22.9" height="22.9"/>
      <rect class="cls-1" x="903.25" y="428.4" width="22.9" height="22.9"/>
      <rect class="cls-1" x="261.15" y="451.4" width="22.9" height="22.9"/>
      <rect class="cls-1" x="284.05" y="451.4" width="22.9" height="22.9"/>
      <rect class="cls-1" x="352.85" y="451.4" width="22.9" height="22.9"/>
      <rect class="cls-1" x="375.75" y="451.4" width="22.9" height="22.9"/>
      <rect class="cls-1" x="421.65" y="451.4" width="22.9" height="22.9"/>
      <rect class="cls-1" x="444.55" y="451.4" width="22.9" height="22.9"/>
      <rect class="cls-1" x="467.55" y="451.4" width="22.9" height="22.9"/>
      <rect class="cls-1" x="490.45" y="451.4" width="22.9" height="22.9"/>
      <rect class="cls-1" x="513.35" y="451.4" width="22.9" height="22.9"/>
      <rect class="cls-1" x="536.35" y="451.4" width="22.9" height="22.9"/>
      <rect class="cls-1" x="559.25" y="451.4" width="22.9" height="22.9"/>
      <rect class="cls-1" x="628.05" y="451.4" width="22.9" height="22.9"/>
      <rect class="cls-1" x="696.85" y="451.4" width="22.9" height="22.9"/>
      <rect class="cls-1" x="788.55" y="451.4" width="22.9" height="22.9"/>
      <rect class="cls-1" x="811.45" y="451.4" width="22.9" height="22.9"/>
      <rect class="cls-1" x="857.35" y="451.4" width="22.9" height="22.9"/>
      <rect class="cls-1" x="880.25" y="451.4" width="22.9" height="22.9"/>
      <rect class="cls-1" x="306.95" y="474.3" width="22.9" height="22.9"/>
      <rect class="cls-1" x="352.85" y="474.3" width="22.9" height="22.9"/>
      <rect class="cls-1" x="398.75" y="474.3" width="22.9" height="22.9"/>
      <rect class="cls-1" x="444.55" y="474.3" width="22.9" height="22.9"/>
      <rect class="cls-1" x="559.25" y="474.3" width="22.9" height="22.9"/>
      <rect class="cls-1" x="605.15" y="474.3" width="22.9" height="22.9"/>
      <rect class="cls-1" x="628.05" y="474.3" width="22.9" height="22.9"/>
      <rect class="cls-1" x="673.85" y="474.3" width="22.9" height="22.9"/>
      <rect class="cls-1" x="765.65" y="474.3" width="22.9" height="22.9"/>
      <rect class="cls-1" x="811.45" y="474.3" width="22.9" height="22.9"/>
      <rect class="cls-1" x="857.35" y="474.3" width="22.9" height="22.9"/>
      <rect class="cls-1" x="261.15" y="497.2" width="22.9" height="22.9"/>
      <rect class="cls-1" x="284.05" y="497.2" width="22.9" height="22.9"/>
      <rect class="cls-1" x="329.95" y="497.2" width="22.9" height="22.9"/>
      <rect class="cls-1" x="444.55" y="497.2" width="22.9" height="22.9"/>
      <rect class="cls-1" x="467.55" y="497.2" width="22.9" height="22.9"/>
      <rect class="cls-1" x="536.35" y="497.2" width="22.9" height="22.9"/>
      <rect class="cls-1" x="559.25" y="497.2" width="22.9" height="22.9"/>
      <rect class="cls-1" x="628.05" y="497.2" width="22.9" height="22.9"/>
      <rect class="cls-1" x="650.95" y="497.2" width="22.9" height="22.9"/>
      <rect class="cls-1" x="673.85" y="497.2" width="22.9" height="22.9"/>
      <rect class="cls-1" x="719.75" y="497.2" width="22.9" height="22.9"/>
      <rect class="cls-1" x="765.65" y="497.2" width="22.9" height="22.9"/>
      <rect class="cls-1" x="788.55" y="497.2" width="22.9" height="22.9"/>
      <rect class="cls-1" x="834.45" y="497.2" width="22.9" height="22.9"/>
      <rect class="cls-1" x="903.25" y="497.2" width="22.9" height="22.9"/>
      <rect class="cls-1" x="306.95" y="520.2" width="22.9" height="22.9"/>
      <rect class="cls-1" x="329.95" y="520.2" width="22.9" height="22.9"/>
      <rect class="cls-1" x="352.85" y="520.2" width="22.9" height="22.9"/>
      <rect class="cls-1" x="398.75" y="520.2" width="22.9" height="22.9"/>
      <rect class="cls-1" x="467.55" y="520.2" width="22.9" height="22.9"/>
      <rect class="cls-1" x="559.25" y="520.2" width="22.9" height="22.9"/>
      <rect class="cls-1" x="605.15" y="520.2" width="22.9" height="22.9"/>
      <rect class="cls-1" x="628.05" y="520.2" width="22.9" height="22.9"/>
      <rect class="cls-1" x="696.85" y="520.2" width="22.9" height="22.9"/>
      <rect class="cls-1" x="719.75" y="520.2" width="22.9" height="22.9"/>
      <rect class="cls-1" x="765.65" y="520.2" width="22.9" height="22.9"/>
      <rect class="cls-1" x="788.55" y="520.2" width="22.9" height="22.9"/>
      <rect class="cls-1" x="903.25" y="520.2" width="22.9" height="22.9"/>
      <rect class="cls-1" x="261.15" y="543.1" width="22.9" height="22.9"/>
      <rect class="cls-1" x="284.05" y="543.1" width="22.9" height="22.9"/>
      <rect class="cls-1" x="306.95" y="543.1" width="22.9" height="22.9"/>
      <rect class="cls-1" x="352.85" y="543.1" width="22.9" height="22.9"/>
      <rect class="cls-1" x="421.65" y="543.1" width="22.9" height="22.9"/>
      <rect class="cls-1" x="513.35" y="543.1" width="22.9" height="22.9"/>
      <rect class="cls-1" x="536.35" y="543.1" width="22.9" height="22.9"/>
      <rect class="cls-1" x="559.25" y="543.1" width="22.9" height="22.9"/>
      <rect class="cls-1" x="582.15" y="543.1" width="22.9" height="22.9"/>
      <rect class="cls-1" x="628.05" y="543.1" width="22.9" height="22.9"/>
      <rect class="cls-1" x="650.95" y="543.1" width="22.9" height="22.9"/>
      <rect class="cls-1" x="673.85" y="543.1" width="22.9" height="22.9"/>
      <rect class="cls-1" x="765.65" y="543.1" width="22.9" height="22.9"/>
      <rect class="cls-1" x="788.55" y="543.1" width="22.9" height="22.9"/>
      <rect class="cls-1" x="811.45" y="543.1" width="22.9" height="22.9"/>
      <rect class="cls-1" x="834.45" y="543.1" width="22.9" height="22.9"/>
      <rect class="cls-1" x="857.35" y="543.1" width="22.9" height="22.9"/>
      <rect class="cls-1" x="880.25" y="543.1" width="22.9" height="22.9"/>
      <rect class="cls-1" x="903.25" y="543.1" width="22.9" height="22.9"/>
      <rect class="cls-1" x="261.15" y="566" width="22.9" height="22.9"/>
      <rect class="cls-1" x="284.05" y="566" width="22.9" height="22.9"/>
      <rect class="cls-1" x="306.95" y="566" width="22.9" height="22.9"/>
      <rect class="cls-1" x="352.85" y="566" width="22.9" height="22.9"/>
      <rect class="cls-1" x="398.75" y="566" width="22.9" height="22.9"/>
      <rect class="cls-1" x="444.55" y="566" width="22.9" height="22.9"/>
      <rect class="cls-1" x="513.35" y="566" width="22.9" height="22.9"/>
      <rect class="cls-1" x="559.25" y="566" width="22.9" height="22.9"/>
      <rect class="cls-1" x="628.05" y="566" width="22.9" height="22.9"/>
      <rect class="cls-1" x="673.85" y="566" width="22.9" height="22.9"/>
      <rect class="cls-1" x="696.85" y="566" width="22.9" height="22.9"/>
      <rect class="cls-1" x="719.75" y="566" width="22.9" height="22.9"/>
      <rect class="cls-1" x="742.65" y="566" width="22.9" height="22.9"/>
      <rect class="cls-1" x="788.55" y="566" width="22.9" height="22.9"/>
      <rect class="cls-1" x="811.45" y="566" width="22.9" height="22.9"/>
      <rect class="cls-1" x="857.35" y="566" width="22.9" height="22.9"/>
      <rect class="cls-1" x="903.25" y="566" width="22.9" height="22.9"/>
      <rect class="cls-1" x="261.15" y="589" width="22.9" height="22.9"/>
      <rect class="cls-1" x="284.05" y="589" width="22.9" height="22.9"/>
      <rect class="cls-1" x="306.95" y="589" width="22.9" height="22.9"/>
      <rect class="cls-1" x="375.75" y="589" width="22.9" height="22.9"/>
      <rect class="cls-1" x="421.65" y="589" width="22.9" height="22.9"/>
      <rect class="cls-1" x="605.15" y="589" width="22.9" height="22.9"/>
      <rect class="cls-1" x="696.85" y="589" width="22.9" height="22.9"/>
      <rect class="cls-1" x="742.65" y="589" width="22.9" height="22.9"/>
      <rect class="cls-1" x="765.65" y="589" width="22.9" height="22.9"/>
      <rect class="cls-1" x="788.55" y="589" width="22.9" height="22.9"/>
      <rect class="cls-1" x="857.35" y="589" width="22.9" height="22.9"/>
      <rect class="cls-1" x="903.25" y="589" width="22.9" height="22.9"/>
      <rect class="cls-1" x="306.95" y="611.9" width="22.9" height="22.9"/>
      <rect class="cls-1" x="375.75" y="611.9" width="22.9" height="22.9"/>
      <rect class="cls-1" x="398.75" y="611.9" width="22.9" height="22.9"/>
      <rect class="cls-1" x="421.65" y="611.9" width="22.9" height="22.9"/>
      <rect class="cls-1" x="444.55" y="611.9" width="22.9" height="22.9"/>
      <rect class="cls-1" x="467.55" y="611.9" width="22.9" height="22.9"/>
      <rect class="cls-1" x="490.45" y="611.9" width="22.9" height="22.9"/>
      <rect class="cls-1" x="513.35" y="611.9" width="22.9" height="22.9"/>
      <rect class="cls-1" x="582.15" y="611.9" width="22.9" height="22.9"/>
      <rect class="cls-1" x="719.75" y="611.9" width="22.9" height="22.9"/>
      <rect class="cls-1" x="788.55" y="611.9" width="22.9" height="22.9"/>
      <rect class="cls-1" x="834.45" y="611.9" width="22.9" height="22.9"/>
      <rect class="cls-1" x="261.15" y="634.8" width="22.9" height="22.9"/>
      <rect class="cls-1" x="329.95" y="634.8" width="22.9" height="22.9"/>
      <rect class="cls-1" x="352.85" y="634.8" width="22.9" height="22.9"/>
      <rect class="cls-1" x="375.75" y="634.8" width="22.9" height="22.9"/>
      <rect class="cls-1" x="421.65" y="634.8" width="22.9" height="22.9"/>
      <rect class="cls-1" x="536.35" y="634.8" width="22.9" height="22.9"/>
      <rect class="cls-1" x="559.25" y="634.8" width="22.9" height="22.9"/>
      <rect class="cls-1" x="582.15" y="634.8" width="22.9" height="22.9"/>
      <rect class="cls-1" x="628.05" y="634.8" width="22.9" height="22.9"/>
      <rect class="cls-1" x="650.95" y="634.8" width="22.9" height="22.9"/>
      <rect class="cls-1" x="673.85" y="634.8" width="22.9" height="22.9"/>
      <rect class="cls-1" x="696.85" y="634.8" width="22.9" height="22.9"/>
      <rect class="cls-1" x="719.75" y="634.8" width="22.9" height="22.9"/>
      <rect class="cls-1" x="811.45" y="634.8" width="22.9" height="22.9"/>
      <rect class="cls-1" x="857.35" y="634.8" width="22.9" height="22.9"/>
      <rect class="cls-1" x="880.25" y="634.8" width="22.9" height="22.9"/>
      <rect class="cls-1" x="261.15" y="657.8" width="22.9" height="22.9"/>
      <rect class="cls-1" x="284.05" y="657.8" width="22.9" height="22.9"/>
      <rect class="cls-1" x="306.95" y="657.8" width="22.9" height="22.9"/>
      <rect class="cls-1" x="398.75" y="657.8" width="22.9" height="22.9"/>
      <rect class="cls-1" x="444.55" y="657.8" width="22.9" height="22.9"/>
      <rect class="cls-1" x="467.55" y="657.8" width="22.9" height="22.9"/>
      <rect class="cls-1" x="490.45" y="657.8" width="22.9" height="22.9"/>
      <rect class="cls-1" x="605.15" y="657.8" width="22.9" height="22.9"/>
      <rect class="cls-1" x="650.95" y="657.8" width="22.9" height="22.9"/>
      <rect class="cls-1" x="696.85" y="657.8" width="22.9" height="22.9"/>
      <rect class="cls-1" x="719.75" y="657.8" width="22.9" height="22.9"/>
      <rect class="cls-1" x="765.65" y="657.8" width="22.9" height="22.9"/>
      <rect class="cls-1" x="811.45" y="657.8" width="22.9" height="22.9"/>
      <rect class="cls-1" x="834.45" y="657.8" width="22.9" height="22.9"/>
      <rect class="cls-1" x="903.25" y="657.8" width="22.9" height="22.9"/>
      <rect class="cls-1" x="261.15" y="680.7" width="22.9" height="22.9"/>
      <rect class="cls-1" x="284.05" y="680.7" width="22.9" height="22.9"/>
      <rect class="cls-1" x="352.85" y="680.7" width="22.9" height="22.9"/>
      <rect class="cls-1" x="375.75" y="680.7" width="22.9" height="22.9"/>
      <rect class="cls-1" x="467.55" y="680.7" width="22.9" height="22.9"/>
      <rect class="cls-1" x="513.35" y="680.7" width="22.9" height="22.9"/>
      <rect class="cls-1" x="536.35" y="680.7" width="22.9" height="22.9"/>
      <rect class="cls-1" x="582.15" y="680.7" width="22.9" height="22.9"/>
      <rect class="cls-1" x="628.05" y="680.7" width="22.9" height="22.9"/>
      <rect class="cls-1" x="742.65" y="680.7" width="22.9" height="22.9"/>
      <rect class="cls-1" x="811.45" y="680.7" width="22.9" height="22.9"/>
      <rect class="cls-1" x="834.45" y="680.7" width="22.9" height="22.9"/>
      <rect class="cls-1" x="857.35" y="680.7" width="22.9" height="22.9"/>
      <rect class="cls-1" x="261.15" y="703.6" width="22.9" height="22.9"/>
      <rect class="cls-1" x="284.05" y="703.6" width="22.9" height="22.9"/>
      <rect class="cls-1" x="398.75" y="703.6" width="22.9" height="22.9"/>
      <rect class="cls-1" x="421.65" y="703.6" width="22.9" height="22.9"/>
      <rect class="cls-1" x="467.55" y="703.6" width="22.9" height="22.9"/>
      <rect class="cls-1" x="513.35" y="703.6" width="22.9" height="22.9"/>
      <rect class="cls-1" x="536.35" y="703.6" width="22.9" height="22.9"/>
      <rect class="cls-1" x="559.25" y="703.6" width="22.9" height="22.9"/>
      <rect class="cls-1" x="582.15" y="703.6" width="22.9" height="22.9"/>
      <rect class="cls-1" x="605.15" y="703.6" width="22.9" height="22.9"/>
      <rect class="cls-1" x="628.05" y="703.6" width="22.9" height="22.9"/>
      <rect class="cls-1" x="650.95" y="703.6" width="22.9" height="22.9"/>
      <rect class="cls-1" x="719.75" y="703.6" width="22.9" height="22.9"/>
      <rect class="cls-1" x="742.65" y="703.6" width="22.9" height="22.9"/>
      <rect class="cls-1" x="765.65" y="703.6" width="22.9" height="22.9"/>
      <rect class="cls-1" x="788.55" y="703.6" width="22.9" height="22.9"/>
      <rect class="cls-1" x="811.45" y="703.6" width="22.9" height="22.9"/>
      <rect class="cls-1" x="834.45" y="703.6" width="22.9" height="22.9"/>
      <rect class="cls-1" x="857.35" y="703.6" width="22.9" height="22.9"/>
      <rect class="cls-1" x="880.25" y="703.6" width="22.9" height="22.9"/>
      <rect class="cls-1" x="444.55" y="726.6" width="22.9" height="22.9"/>
      <rect class="cls-1" x="513.35" y="726.6" width="22.9" height="22.9"/>
      <rect class="cls-1" x="536.35" y="726.6" width="22.9" height="22.9"/>
      <rect class="cls-1" x="582.15" y="726.6" width="22.9" height="22.9"/>
      <rect class="cls-1" x="605.15" y="726.6" width="22.9" height="22.9"/>
      <rect class="cls-1" x="673.85" y="726.6" width="22.9" height="22.9"/>
      <rect class="cls-1" x="719.75" y="726.6" width="22.9" height="22.9"/>
      <rect class="cls-1" x="811.45" y="726.6" width="22.9" height="22.9"/>
      <rect class="cls-1" x="834.45" y="726.6" width="22.9" height="22.9"/>
      <rect class="cls-1" x="444.55" y="749.5" width="22.9" height="22.9"/>
      <rect class="cls-1" x="467.55" y="749.5" width="22.9" height="22.9"/>
      <rect class="cls-1" x="490.45" y="749.5" width="22.9" height="22.9"/>
      <rect class="cls-1" x="582.15" y="749.5" width="22.9" height="22.9"/>
      <rect class="cls-1" x="605.15" y="749.5" width="22.9" height="22.9"/>
      <rect class="cls-1" x="696.85" y="749.5" width="22.9" height="22.9"/>
      <rect class="cls-1" x="719.75" y="749.5" width="22.9" height="22.9"/>
      <rect class="cls-1" x="765.65" y="749.5" width="22.9" height="22.9"/>
      <rect class="cls-1" x="811.45" y="749.5" width="22.9" height="22.9"/>
      <rect class="cls-1" x="834.45" y="749.5" width="22.9" height="22.9"/>
      <rect class="cls-1" x="444.55" y="772.4" width="22.9" height="22.9"/>
      <rect class="cls-1" x="490.45" y="772.4" width="22.9" height="22.9"/>
      <rect class="cls-1" x="536.35" y="772.4" width="22.9" height="22.9"/>
      <rect class="cls-1" x="582.15" y="772.4" width="22.9" height="22.9"/>
      <rect class="cls-1" x="650.95" y="772.4" width="22.9" height="22.9"/>
      <rect class="cls-1" x="673.85" y="772.4" width="22.9" height="22.9"/>
      <rect class="cls-1" x="696.85" y="772.4" width="22.9" height="22.9"/>
      <rect class="cls-1" x="719.75" y="772.4" width="22.9" height="22.9"/>
      <rect class="cls-1" x="811.45" y="772.4" width="22.9" height="22.9"/>
      <rect class="cls-1" x="903.25" y="772.4" width="22.9" height="22.9"/>
      <rect class="cls-1" x="444.55" y="795.3" width="22.9" height="22.9"/>
      <rect class="cls-1" x="490.45" y="795.3" width="22.9" height="22.9"/>
      <rect class="cls-1" x="513.35" y="795.3" width="22.9" height="22.9"/>
      <rect class="cls-1" x="559.25" y="795.3" width="22.9" height="22.9"/>
      <rect class="cls-1" x="582.15" y="795.3" width="22.9" height="22.9"/>
      <rect class="cls-1" x="605.15" y="795.3" width="22.9" height="22.9"/>
      <rect class="cls-1" x="628.05" y="795.3" width="22.9" height="22.9"/>
      <rect class="cls-1" x="696.85" y="795.3" width="22.9" height="22.9"/>
      <rect class="cls-1" x="719.75" y="795.3" width="22.9" height="22.9"/>
      <rect class="cls-1" x="742.65" y="795.3" width="22.9" height="22.9"/>
      <rect class="cls-1" x="765.65" y="795.3" width="22.9" height="22.9"/>
      <rect class="cls-1" x="788.55" y="795.3" width="22.9" height="22.9"/>
      <rect class="cls-1" x="811.45" y="795.3" width="22.9" height="22.9"/>
      <rect class="cls-1" x="834.45" y="795.3" width="22.9" height="22.9"/>
      <rect class="cls-1" x="880.25" y="795.3" width="22.9" height="22.9"/>
      <rect class="cls-1" x="903.25" y="795.3" width="22.9" height="22.9"/>
      <rect class="cls-1" x="444.55" y="818.3" width="22.9" height="22.9"/>
      <rect class="cls-1" x="490.45" y="818.3" width="22.9" height="22.9"/>
      <rect class="cls-1" x="536.35" y="818.3" width="22.9" height="22.9"/>
      <rect class="cls-1" x="605.15" y="818.3" width="22.9" height="22.9"/>
      <rect class="cls-1" x="628.05" y="818.3" width="22.9" height="22.9"/>
      <rect class="cls-1" x="673.85" y="818.3" width="22.9" height="22.9"/>
      <rect class="cls-1" x="719.75" y="818.3" width="22.9" height="22.9"/>
      <rect class="cls-1" x="903.25" y="818.3" width="22.9" height="22.9"/>
      <rect class="cls-1" x="536.35" y="841.2" width="22.9" height="22.9"/>
      <rect class="cls-1" x="559.25" y="841.2" width="22.9" height="22.9"/>
      <rect class="cls-1" x="582.15" y="841.2" width="22.9" height="22.9"/>
      <rect class="cls-1" x="605.15" y="841.2" width="22.9" height="22.9"/>
      <rect class="cls-1" x="628.05" y="841.2" width="22.9" height="22.9"/>
      <rect class="cls-1" x="742.65" y="841.2" width="22.9" height="22.9"/>
      <rect class="cls-1" x="788.55" y="841.2" width="22.9" height="22.9"/>
      <rect class="cls-1" x="811.45" y="841.2" width="22.9" height="22.9"/>
      <rect class="cls-1" x="857.35" y="841.2" width="22.9" height="22.9"/>
      <rect class="cls-1" x="880.25" y="841.2" width="22.9" height="22.9"/>
      <rect class="cls-1" x="903.25" y="841.2" width="22.9" height="22.9"/>
      <rect class="cls-1" x="467.55" y="864.1" width="22.9" height="22.9"/>
      <rect class="cls-1" x="559.25" y="864.1" width="22.9" height="22.9"/>
      <rect class="cls-1" x="605.15" y="864.1" width="22.9" height="22.9"/>
      <rect class="cls-1" x="742.65" y="864.1" width="22.9" height="22.9"/>
      <rect class="cls-1" x="834.45" y="864.1" width="22.9" height="22.9"/>
      <rect class="cls-1" x="857.35" y="864.1" width="22.9" height="22.9"/>
      <rect class="cls-1" x="903.25" y="864.1" width="22.9" height="22.9"/>
      <rect class="cls-1" x="444.55" y="887.1" width="22.9" height="22.9"/>
      <rect class="cls-1" x="490.45" y="887.1" width="22.9" height="22.9"/>
      <rect class="cls-1" x="582.15" y="887.1" width="22.9" height="22.9"/>
      <rect class="cls-1" x="673.85" y="887.1" width="22.9" height="22.9"/>
      <rect class="cls-1" x="696.85" y="887.1" width="22.9" height="22.9"/>
      <rect class="cls-1" x="719.75" y="887.1" width="22.9" height="22.9"/>
      <rect class="cls-1" x="811.45" y="887.1" width="22.9" height="22.9"/>
      <rect x="285.25" y="269.1" width="112.4" height="112.4"/>
      <path class="cls-1" d="M397.55,245H261.15V405.6h160.5V245Zm0,136.4H285.25V269.1h112.3Z"/>
      <rect x="789.65" y="269.1" width="112.4" height="112.4"/>
      <path class="cls-1" d="M902.05,245H765.55V405.6h160.6V245Zm0,136.4H789.65V269.1h112.4Z"/>
      <rect x="285.25" y="773.6" width="112.4" height="112.4"/>
      <path class="cls-1" d="M397.55,749.5H261.15V910h160.5V749.5Zm0,136.4H285.25V773.6h112.3Z"/>
      <rect class="cls-1" x="306.95" y="290.9" width="68.8" height="68.8"/>
      <rect class="cls-1" x="811.45" y="290.9" width="68.8" height="68.8"/>
      <rect class="cls-1" x="306.95" y="795.3" width="68.8" height="68.8"/>
    </g>
    <g>
      <path class="cls-1" d="M1018.5,394.8v-75.2H1029v75.2Z"/>
      <path class="cls-1" d="M1044.42,394.8V343H1055l-.1,8.2h.29a17,17,0,0,1,6.29-6.59,17.81,17.81,0,0,1,9.5-2.54,23.51,23.51,0,0,1,7.6,1.12,14.62,14.62,0,0,1,5.34,3.05,14.87,14.87,0,0,1,3.36,4.81,23.32,23.32,0,0,1,1.79,6.05,46.65,46.65,0,0,1,.49,7.08V394.8H1079V365.9a43.9,43.9,0,0,0-.24-5,21.34,21.34,0,0,0-.9-4.13,8.8,8.8,0,0,0-1.83-3.3,8.43,8.43,0,0,0-3.12-2.05,12.58,12.58,0,0,0-4.68-.78,14,14,0,0,0-3.75.49,11,11,0,0,0-3.09,1.37,10.85,10.85,0,0,0-2.41,2.17,14.63,14.63,0,0,0-1.83,2.81,17.64,17.64,0,0,0-1.24,3.34,25.94,25.94,0,0,0-.71,3.81,37.38,37.38,0,0,0-.22,4.13v26Z"/>
      <path class="cls-1" d="M1099.84,368.88a30.18,30.18,0,0,1,3-13.7,23.29,23.29,0,0,1,8.74-9.59,24.51,24.51,0,0,1,13.14-3.52,22.78,22.78,0,0,1,10.66,2.39,20,20,0,0,1,7.43,6.55h.2v-31.4h10.4v75.2H1143.4V386.6h-.2a22.82,22.82,0,0,1-5,5.22,19.92,19.92,0,0,1-6.16,3.17,23.89,23.89,0,0,1-7.11,1,26.34,26.34,0,0,1-8.49-1.34,22.4,22.4,0,0,1-7-3.78,24.33,24.33,0,0,1-5.19-5.81,27.21,27.21,0,0,1-3.31-7.5A32.47,32.47,0,0,1,1099.84,368.88Zm10.55-.1a22.4,22.4,0,0,0,1.15,7.29,18.1,18.1,0,0,0,3.23,5.84,14.3,14.3,0,0,0,5.21,3.88,16.81,16.81,0,0,0,6.94,1.4,16,16,0,0,0,8.85-2.43,15.4,15.4,0,0,0,5.7-6.58,23.78,23.78,0,0,0,0-18.78,15.27,15.27,0,0,0-5.7-6.53,17.53,17.53,0,0,0-17.73,0,15.21,15.21,0,0,0-5.72,6.53A21.85,21.85,0,0,0,1110.39,368.78Z"/>
      <path class="cls-1" d="M1167.86,374V342.9h10.35v30.6a32.35,32.35,0,0,0,.17,3.51,25.77,25.77,0,0,0,.56,3.19,8.88,8.88,0,0,0,1.17,2.83,10.06,10.06,0,0,0,1.93,2.17,7.81,7.81,0,0,0,2.91,1.49,14.41,14.41,0,0,0,4,.51,12.41,12.41,0,0,0,5.87-1.34,10.48,10.48,0,0,0,4-3.68,18.23,18.23,0,0,0,2.25-5.26,25,25,0,0,0,.76-6.28V342.9h10.55v51.9h-10.25l-.1-7.52a16,16,0,0,1-6.43,6.34A19.36,19.36,0,0,1,1186,396q-9.7,0-14.33-6Q1167.86,384.84,1167.86,374Z"/>
      <path class="cls-1" d="M1221.67,386.3l5-5.86a21.73,21.73,0,0,0,15.28,7.19,16.36,16.36,0,0,0,3.59-.38,12.46,12.46,0,0,0,3.15-1.16,5.84,5.84,0,0,0,2.32-2.22,6.61,6.61,0,0,0,.85-3.43,5,5,0,0,0-.44-2.1,5.13,5.13,0,0,0-1.29-1.73,16.71,16.71,0,0,0-1.73-1.35,11.82,11.82,0,0,0-2.17-1.11q-1.29-.52-2.15-.83t-2.15-.68a17.81,17.81,0,0,1-1.73-.57q-1-.28-2.2-.68l-1.81-.59q-.59-.19-1.39-.52a18,18,0,0,1-1.68-.8q-8.2-4-8.2-12.06a14.76,14.76,0,0,1,1.44-6.58,13.62,13.62,0,0,1,3.88-4.84,18,18,0,0,1,5.57-2.91,21.23,21.23,0,0,1,6.59-1q11.43,0,17.68,7.43l-4.39,6.36a18.06,18.06,0,0,0-3.59-2.74,19.27,19.27,0,0,0-4.57-1.94,17.91,17.91,0,0,0-4.93-.71,10.19,10.19,0,0,0-6.05,1.58,5.38,5.38,0,0,0-2.2,4.66,4.19,4.19,0,0,0,.61,2.2,7,7,0,0,0,1.44,1.73,10.52,10.52,0,0,0,2.34,1.42,27.31,27.31,0,0,0,2.69,1.11l3,1q4.35,1.42,7,2.41a18,18,0,0,1,6,3.59,12.15,12.15,0,0,1,4.15,9.27,14.87,14.87,0,0,1-5.37,11.94q-5.66,4.64-14.36,4.64a25.61,25.61,0,0,1-11.6-2.6A23.69,23.69,0,0,1,1221.67,386.3Z"/>
      <path class="cls-1" d="M1266.3,351.54v-8.4h7.52V327.62h10.55v15.53h12.3v8.4h-12.3V375q0,3.92.22,6a8.55,8.55,0,0,0,1.1,3.52q1.51,2.69,5.37,2.69a11.52,11.52,0,0,0,2.66-.32,11.28,11.28,0,0,0,2-.61l.68-.29.63,8.32a3.82,3.82,0,0,1-.49.19l-1.29.41q-1,.31-2,.53t-2.59.41a25,25,0,0,1-3.08.19q-7.46,0-11.11-5.37a13.85,13.85,0,0,1-2.1-5.69,69,69,0,0,1-.52-9.79V351.54Z"/>
      <path class="cls-1" d="M1305.56,394.8V343h10.55l-.1,8.15h.29a16.72,16.72,0,0,1,3.2-5,12.8,12.8,0,0,1,4.35-3,13.27,13.27,0,0,1,5.2-1,18.48,18.48,0,0,1,2.93.22,13.94,13.94,0,0,1,2,.42l.59.18-.63,8.81h-6.1a9.46,9.46,0,0,0-5.2,1.39,12.63,12.63,0,0,0-3.34,2.94q-3.13,4.72-3.12,13V394.8Z"/>
      <path class="cls-1" d="M1342.78,330.67a6.13,6.13,0,0,1-1.92-4.64,6.05,6.05,0,0,1,1.92-4.61,6.92,6.92,0,0,1,4.94-1.81,6.78,6.78,0,0,1,4.85,1.81,6.07,6.07,0,0,1,1.91,4.61,6.15,6.15,0,0,1-1.91,4.64,6.73,6.73,0,0,1-4.85,1.83A6.87,6.87,0,0,1,1342.78,330.67Zm-.36,64.14V343H1353V394.8Z"/>
      <path class="cls-1" d="M1364.25,368.88a28.6,28.6,0,0,1,2.1-11,24.87,24.87,0,0,1,5.66-8.52,25.39,25.39,0,0,1,8.35-5.35,27.21,27.21,0,0,1,10.16-1.9,25.64,25.64,0,0,1,12.75,3.15A22.37,22.37,0,0,1,1412,354a25.88,25.88,0,0,1,3.14,12.82q0,.88-.07,2t-.17,1.86l0,.68h-40.08q.39,7.58,4.93,11.92a16.32,16.32,0,0,0,11.77,4.34,27.3,27.3,0,0,0,4.58-.39,23.86,23.86,0,0,0,3.92-1,35.28,35.28,0,0,0,3.28-1.35,23.7,23.7,0,0,0,2.55-1.35q.91-.58,1.84-1.21l1-.68,4.46,5.93a2.42,2.42,0,0,0-.47.42q-.42.43-.94.88t-1.37,1.13a16.43,16.43,0,0,1-1.94,1.3q-1.08.63-2.45,1.35a21.05,21.05,0,0,1-3.07,1.3q-1.69.58-3.58,1a37.36,37.36,0,0,1-4.24.72,42.22,42.22,0,0,1-4.86.27,27,27,0,0,1-13.5-3.32,23,23,0,0,1-9.16-9.52A30.21,30.21,0,0,1,1364.25,368.88Zm10.64-4.44h30.22a14.35,14.35,0,0,0-.54-3.81,16.74,16.74,0,0,0-4.61-7.52,13,13,0,0,0-4.22-2.54,15.4,15.4,0,0,0-5.57-1,16,16,0,0,0-5.52.93,12.87,12.87,0,0,0-4.25,2.47,17.16,17.16,0,0,0-4.81,7.5A16.31,16.31,0,0,0,1374.89,364.43Z"/>
      <path class="cls-1" d="M1421.86,368.13a29.94,29.94,0,0,1,1.31-9,23.92,23.92,0,0,1,3.65-7.29,24.93,24.93,0,0,1,5.45-5.33,22.85,22.85,0,0,1,6.82-3.32,26.84,26.84,0,0,1,7.69-1.1,22.06,22.06,0,0,1,11,2.6,19.39,19.39,0,0,1,7.14,6.58h.34l-.15-8.25h10.35v40.92a55.34,55.34,0,0,1-1.37,13.62,21.8,21.8,0,0,1-4.3,8.69,25.82,25.82,0,0,1-3.47,3.56,30,30,0,0,1-4.59,3.1,24.11,24.11,0,0,1-6.57,2.39,39.33,39.33,0,0,1-31.27-6.65,2.21,2.21,0,0,0-.29-.2l4.94-7.26a32.64,32.64,0,0,0,18.49,6.57,20.47,20.47,0,0,0,8.75-1.66,14.93,14.93,0,0,0,5.43-4.06,16.14,16.14,0,0,0,2.81-5.77,30.8,30.8,0,0,0,1.1-8.7v-2.64h-.2a20.88,20.88,0,0,1-7.38,6.75,21.83,21.83,0,0,1-10.71,2.51,25.63,25.63,0,0,1-9.52-1.78,24.38,24.38,0,0,1-7.93-5,23.26,23.26,0,0,1-5.45-8.24A28.87,28.87,0,0,1,1421.86,368.13Zm12.43-8.91a22.09,22.09,0,0,0,0,17.85,14.83,14.83,0,0,0,5.7,6.33,16.6,16.6,0,0,0,8.95,2.37,16.4,16.4,0,0,0,9-2.4,15,15,0,0,0,5.62-6.31,20.5,20.5,0,0,0,1.86-8.9,21.06,21.06,0,0,0-1.83-8.95,14.67,14.67,0,0,0-5.65-6.36,18,18,0,0,0-17.95,0A15,15,0,0,0,1434.29,359.22Z"/>
      <path class="cls-1" d="M1486.46,368.88a28.6,28.6,0,0,1,2.1-11,24.87,24.87,0,0,1,5.66-8.52,25.39,25.39,0,0,1,8.35-5.35,27.21,27.21,0,0,1,10.16-1.9,25.64,25.64,0,0,1,12.75,3.15,22.37,22.37,0,0,1,8.77,8.79,25.88,25.88,0,0,1,3.14,12.82q0,.88-.08,2t-.17,1.86l0,.68H1497q.39,7.58,4.93,11.92a16.32,16.32,0,0,0,11.77,4.34,27.31,27.31,0,0,0,4.58-.39,23.88,23.88,0,0,0,3.92-1,35.34,35.34,0,0,0,3.28-1.35,23.74,23.74,0,0,0,2.55-1.35q.91-.58,1.84-1.21l1-.68,4.46,5.93a2.41,2.41,0,0,0-.47.42q-.42.43-.94.88t-1.37,1.13a16.43,16.43,0,0,1-1.94,1.3q-1.08.63-2.45,1.35a21.1,21.1,0,0,1-3.07,1.3q-1.69.58-3.58,1a37.37,37.37,0,0,1-4.24.72,42.2,42.2,0,0,1-4.86.27,27,27,0,0,1-13.5-3.32,23,23,0,0,1-9.16-9.52A30.21,30.21,0,0,1,1486.46,368.88Zm10.64-4.44h30.22a14.37,14.37,0,0,0-.54-3.81,16.74,16.74,0,0,0-4.61-7.52,13,13,0,0,0-4.22-2.54,15.4,15.4,0,0,0-5.57-1,16,16,0,0,0-5.52.93,12.86,12.86,0,0,0-4.25,2.47,17.16,17.16,0,0,0-4.81,7.5A16.31,16.31,0,0,0,1497.11,364.43Z"/>
      <path class="cls-1" d="M1542.57,386.3l5-5.86a21.73,21.73,0,0,0,15.28,7.19,16.36,16.36,0,0,0,3.59-.38,12.46,12.46,0,0,0,3.15-1.16,5.85,5.85,0,0,0,2.32-2.22,6.61,6.61,0,0,0,.85-3.43,5,5,0,0,0-.44-2.1,5.13,5.13,0,0,0-1.29-1.73,16.76,16.76,0,0,0-1.73-1.35,11.82,11.82,0,0,0-2.17-1.11q-1.29-.52-2.15-.83t-2.15-.68a17.77,17.77,0,0,1-1.73-.57q-1-.28-2.2-.68l-1.81-.59q-.59-.19-1.39-.52a18,18,0,0,1-1.68-.8q-8.2-4-8.2-12.06a14.76,14.76,0,0,1,1.44-6.58,13.62,13.62,0,0,1,3.88-4.84,18,18,0,0,1,5.57-2.91,21.23,21.23,0,0,1,6.59-1q11.43,0,17.68,7.43l-4.39,6.36a18.09,18.09,0,0,0-3.59-2.74,19.27,19.27,0,0,0-4.57-1.94,17.91,17.91,0,0,0-4.93-.71,10.19,10.19,0,0,0-6.05,1.58,5.38,5.38,0,0,0-2.2,4.66,4.19,4.19,0,0,0,.61,2.2,7,7,0,0,0,1.44,1.73,10.5,10.5,0,0,0,2.34,1.42,27.31,27.31,0,0,0,2.69,1.11l3,1q4.34,1.42,7,2.41a18,18,0,0,1,6,3.59,12.15,12.15,0,0,1,4.15,9.27,14.87,14.87,0,0,1-5.37,11.94q-5.66,4.64-14.36,4.64a25.61,25.61,0,0,1-11.6-2.6A23.69,23.69,0,0,1,1542.57,386.3Z"/>
      <path class="cls-1" d="M1589.15,369.07a28.27,28.27,0,0,1,2.2-11.22,24.85,24.85,0,0,1,5.88-8.58,27,27,0,0,1,18.38-7.2,37.86,37.86,0,0,1,6.23.49,24.76,24.76,0,0,1,5.05,1.33q2.1.84,3.71,1.65a13.67,13.67,0,0,1,2.76,1.8q1.15,1,1.59,1.41a10.31,10.31,0,0,1,.73.76l-3.71,7.63-1.44-1.34a20.19,20.19,0,0,0-2.12-1.59,17.51,17.51,0,0,0-3-1.66,22.7,22.7,0,0,0-3.88-1.15,23.37,23.37,0,0,0-5-.51,16.81,16.81,0,0,0-6.52,1.27,16.56,16.56,0,0,0-5.35,3.54,16.28,16.28,0,0,0-3.64,5.64,19.73,19.73,0,0,0-1.34,7.37q0,8.15,4.71,13.31a15.81,15.81,0,0,0,12.23,5.15,22,22,0,0,0,5.49-.68,19.56,19.56,0,0,0,4.42-1.64,29.83,29.83,0,0,0,3.13-1.93,16.69,16.69,0,0,0,2-1.61l.63-.68,3.71,7.61-.34.29q-.88.92-1.59,1.54a24.46,24.46,0,0,1-2.61,1.86,22.1,22.1,0,0,1-3.93,2,30.7,30.7,0,0,1-5.3,1.42,37.08,37.08,0,0,1-7,.63,26.61,26.61,0,0,1-18.29-7.25,24.48,24.48,0,0,1-5.71-8.54A28.92,28.92,0,0,1,1589.15,369.07Z"/>
      <path class="cls-1" d="M1644.86,394.8v-75.2h10.35V351.2h.2a17.2,17.2,0,0,1,6.33-6.57,18,18,0,0,1,9.61-2.56,23.62,23.62,0,0,1,7.63,1.12,14.9,14.9,0,0,1,5.34,3,14.1,14.1,0,0,1,3.31,4.74,23,23,0,0,1,1.73,6,48.45,48.45,0,0,1,.46,7V394.8h-10.35V365.46a43.38,43.38,0,0,0-.2-4.39,19.4,19.4,0,0,0-.86-4,9.73,9.73,0,0,0-1.79-3.37,8.53,8.53,0,0,0-3.13-2.2,11.89,11.89,0,0,0-4.79-.88,12.48,12.48,0,0,0-6.07,1.44,11.48,11.48,0,0,0-4.26,4,19,19,0,0,0-2.4,5.83,31.64,31.64,0,0,0-.78,7.3V394.8Z"/>
      <path class="cls-1" d="M1704.74,330.67a6.13,6.13,0,0,1-1.92-4.64,6.05,6.05,0,0,1,1.92-4.61,6.92,6.92,0,0,1,4.94-1.81,6.78,6.78,0,0,1,4.85,1.81,6.08,6.08,0,0,1,1.91,4.61,6.15,6.15,0,0,1-1.91,4.64,6.73,6.73,0,0,1-4.85,1.83A6.86,6.86,0,0,1,1704.74,330.67Zm-.36,64.14V343h10.55V394.8Z"/>
      <path class="cls-1" d="M1726.21,369.07a28.27,28.27,0,0,1,2.2-11.22,24.85,24.85,0,0,1,5.88-8.58,27,27,0,0,1,18.38-7.2,37.86,37.86,0,0,1,6.23.49,24.76,24.76,0,0,1,5.05,1.33q2.1.84,3.71,1.65a13.67,13.67,0,0,1,2.76,1.8q1.15,1,1.59,1.41a10.31,10.31,0,0,1,.73.76l-3.71,7.63-1.44-1.34a20.19,20.19,0,0,0-2.12-1.59,17.51,17.51,0,0,0-3-1.66,22.7,22.7,0,0,0-3.88-1.15,23.37,23.37,0,0,0-5-.51,16.81,16.81,0,0,0-6.52,1.27,16.56,16.56,0,0,0-5.35,3.54,16.28,16.28,0,0,0-3.64,5.64,19.73,19.73,0,0,0-1.34,7.37q0,8.15,4.71,13.31a15.81,15.81,0,0,0,12.23,5.15,22,22,0,0,0,5.49-.68,19.56,19.56,0,0,0,4.42-1.64,29.83,29.83,0,0,0,3.13-1.93,16.69,16.69,0,0,0,2-1.61l.63-.68,3.71,7.61-.34.29q-.88.92-1.59,1.54a24.46,24.46,0,0,1-2.61,1.86,22.1,22.1,0,0,1-3.93,2,30.7,30.7,0,0,1-5.3,1.42,37.08,37.08,0,0,1-7,.63,26.61,26.61,0,0,1-18.29-7.25,24.48,24.48,0,0,1-5.71-8.54A28.92,28.92,0,0,1,1726.21,369.07Z"/>
      <path class="cls-1" d="M1781.92,394.8v-75.2h10.35V351.2h.2a17.2,17.2,0,0,1,6.33-6.57,18,18,0,0,1,9.61-2.56,23.62,23.62,0,0,1,7.63,1.12,14.9,14.9,0,0,1,5.34,3,14.1,14.1,0,0,1,3.31,4.74,23,23,0,0,1,1.73,6,48.45,48.45,0,0,1,.46,7V394.8h-10.35V365.46a43.38,43.38,0,0,0-.2-4.39,19.4,19.4,0,0,0-.86-4,9.73,9.73,0,0,0-1.79-3.37,8.53,8.53,0,0,0-3.13-2.2,11.89,11.89,0,0,0-4.79-.88,12.48,12.48,0,0,0-6.07,1.44,11.48,11.48,0,0,0-4.26,4,19,19,0,0,0-2.4,5.83,31.64,31.64,0,0,0-.78,7.3V394.8Z"/>
      <path class="cls-1" d="M1835.63,351.54v-8.4h7.52V327.62h10.55v15.53H1866v8.4h-12.3V375q0,3.92.22,6a8.55,8.55,0,0,0,1.1,3.52q1.51,2.69,5.37,2.69a11.52,11.52,0,0,0,2.66-.32,11.31,11.31,0,0,0,2-.61l.68-.29.63,8.32a3.85,3.85,0,0,1-.49.19l-1.29.41q-1,.31-2,.53t-2.59.41a25,25,0,0,1-3.08.19q-7.46,0-11.11-5.37a13.83,13.83,0,0,1-2.09-5.69,69,69,0,0,1-.52-9.79V351.54Z"/>
      <path class="cls-1" d="M1870.45,368.88a28.59,28.59,0,0,1,2.1-11,24.87,24.87,0,0,1,5.66-8.52,25.39,25.39,0,0,1,8.35-5.35,27.21,27.21,0,0,1,10.16-1.9,25.64,25.64,0,0,1,12.75,3.15,22.37,22.37,0,0,1,8.77,8.79,25.87,25.87,0,0,1,3.14,12.82q0,.88-.08,2t-.17,1.86l0,.68H1881q.39,7.58,4.93,11.92a16.32,16.32,0,0,0,11.77,4.34,27.31,27.31,0,0,0,4.58-.39,23.88,23.88,0,0,0,3.92-1,35.23,35.23,0,0,0,3.28-1.35,23.74,23.74,0,0,0,2.55-1.35q.91-.58,1.84-1.21l1-.68,4.46,5.93a2.39,2.39,0,0,0-.47.42q-.42.43-.94.88t-1.37,1.13a16.5,16.5,0,0,1-1.94,1.3q-1.08.63-2.45,1.35a21,21,0,0,1-3.07,1.3q-1.69.58-3.58,1a37.39,37.39,0,0,1-4.24.72,42.23,42.23,0,0,1-4.86.27,27,27,0,0,1-13.5-3.32,23,23,0,0,1-9.16-9.52A30.2,30.2,0,0,1,1870.45,368.88Zm10.64-4.44h30.22a14.37,14.37,0,0,0-.54-3.81,16.74,16.74,0,0,0-4.61-7.52,13,13,0,0,0-4.22-2.54,15.4,15.4,0,0,0-5.57-1,16,16,0,0,0-5.52.93,12.86,12.86,0,0,0-4.25,2.47,17.16,17.16,0,0,0-4.81,7.5A16.29,16.29,0,0,0,1881.09,364.43Z"/>
      <path class="cls-1" d="M1953.6,415.07V343h10.06v8.11h.2a21.89,21.89,0,0,1,18.41-9,25,25,0,0,1,13.28,3.49,23,23,0,0,1,8.77,9.57,30.33,30.33,0,0,1,3,13.75,31.18,31.18,0,0,1-1.81,10.74,26.41,26.41,0,0,1-5,8.62,22.64,22.64,0,0,1-8,5.71,25.83,25.83,0,0,1-10.44,2.08,22,22,0,0,1-10.5-2.39,19.75,19.75,0,0,1-7.37-6.84l-.1-.1v28.37Zm12-55.67a24.09,24.09,0,0,0,0,18.78,15.17,15.17,0,0,0,5.69,6.58,17.29,17.29,0,0,0,17.68,0,15.34,15.34,0,0,0,5.71-6.58,23.81,23.81,0,0,0,0-18.78,15.21,15.21,0,0,0-5.71-6.53,17.44,17.44,0,0,0-17.68,0A15,15,0,0,0,1965.57,359.4Z"/>
      <path class="cls-1" d="M2018.06,394.8V343h10.55l-.1,8.15h.29a16.71,16.71,0,0,1,3.2-5,12.79,12.79,0,0,1,4.35-3,13.27,13.27,0,0,1,5.2-1,18.49,18.49,0,0,1,2.93.22,13.94,13.94,0,0,1,2,.42l.59.18-.63,8.81h-6.1a9.46,9.46,0,0,0-5.2,1.39,12.63,12.63,0,0,0-3.34,2.94q-3.13,4.72-3.12,13V394.8Z"/>
      <path class="cls-1" d="M2055.28,330.67a6.13,6.13,0,0,1-1.92-4.64,6.05,6.05,0,0,1,1.92-4.61,6.92,6.92,0,0,1,4.94-1.81,6.78,6.78,0,0,1,4.85,1.81A6.07,6.07,0,0,1,2067,326a6.15,6.15,0,0,1-1.91,4.64,6.73,6.73,0,0,1-4.85,1.83A6.87,6.87,0,0,1,2055.28,330.67Zm-.36,64.14V343h10.55V394.8Z"/>
      <path class="cls-1" d="M2073.13,343h10.94l15.38,39,15.19-39h10.84L2103.9,394.8h-9.13Z"/>
      <path class="cls-1" d="M2128.36,380a13.85,13.85,0,0,1,2.59-8.45,15.6,15.6,0,0,1,7.08-5.27,33.48,33.48,0,0,1,10.6-2.05l13.82-.56v-2q0-5.44-3.49-8.33t-9.3-2.88a27.82,27.82,0,0,0-7,.94,36.49,36.49,0,0,0-5.4,1.75q-1.78.8-3.2,1.6l-3.17-7.24a37.46,37.46,0,0,1,19.43-5.45,37.08,37.08,0,0,1,5.79.42,24.09,24.09,0,0,1,4.69,1.2,18.41,18.41,0,0,1,3.66,1.83,19.06,19.06,0,0,1,3,2.42,18.22,18.22,0,0,1,4.2,6.69,30.64,30.64,0,0,1,1.37,10.11V394.8h-10.16l-.1-6.54-.24.24q-1,1.08-1.71,1.73a26.49,26.49,0,0,1-2.32,1.88,19.82,19.82,0,0,1-3.2,2,20.15,20.15,0,0,1-4,1.34,21.17,21.17,0,0,1-5,.59,20.64,20.64,0,0,1-6.84-1.12,18.38,18.38,0,0,1-5.69-3.15,14.43,14.43,0,0,1-3.91-5.08A15.52,15.52,0,0,1,2128.36,380Zm10.35-.34a8.45,8.45,0,0,0,1.22,4.49,8.67,8.67,0,0,0,3.69,3.22,12.89,12.89,0,0,0,5.79,1.22,14.42,14.42,0,0,0,4.59-.73,13.87,13.87,0,0,0,3.83-1.93,20.94,20.94,0,0,0,2.76-2.37,19.94,19.94,0,0,0,2-2.44V369.95l-12.11.73q-6,.29-8.89,2.69A7.74,7.74,0,0,0,2138.71,379.62Z"/>
      <path class="cls-1" d="M2180.85,351.54v-8.4h7.52V327.62h10.55v15.53h12.3v8.4h-12.3V375q0,3.92.22,6a8.55,8.55,0,0,0,1.1,3.52q1.51,2.69,5.37,2.69a11.52,11.52,0,0,0,2.66-.32,11.31,11.31,0,0,0,2-.61l.68-.29.63,8.32a3.85,3.85,0,0,1-.49.19l-1.29.41q-1,.31-2,.53t-2.59.41a25,25,0,0,1-3.08.19q-7.46,0-11.11-5.37a13.83,13.83,0,0,1-2.09-5.69,69,69,0,0,1-.52-9.79V351.54Z"/>
      <path class="cls-1" d="M2222.06,349.05a7.51,7.51,0,0,1,.53-2.86A6.37,6.37,0,0,1,2224,344a6.27,6.27,0,0,1,2.16-1.37,7.63,7.63,0,0,1,2.77-.49,6.6,6.6,0,0,1,4.84,1.88,7.47,7.47,0,0,1,0,10,6.6,6.6,0,0,1-4.84,1.88,6.79,6.79,0,0,1-5-1.88A6.61,6.61,0,0,1,2222.06,349.05Zm0,40.09a7.28,7.28,0,0,1,.89-3.64,6.07,6.07,0,0,1,2.43-2.42,7.37,7.37,0,0,1,3.55-.83,6.58,6.58,0,0,1,4.86,1.88,6.76,6.76,0,0,1,1.88,5,6.53,6.53,0,0,1-1.88,4.91,6.68,6.68,0,0,1-4.86,1.83,6.88,6.88,0,0,1-5-1.83A6.49,6.49,0,0,1,2222.06,389.14Z"/>
      <path class="cls-1" d="M1018.5,514.8v-75.2h22.64a44.94,44.94,0,0,1,16.32,2.79,37,37,0,0,1,11.78,7,38.32,38.32,0,0,1,4.15,4.57,39.68,39.68,0,0,1,3.68,5.89,33.05,33.05,0,0,1,2.81,7.9,44.49,44.49,0,0,1,0,19,32.4,32.4,0,0,1-2.81,7.87,41.28,41.28,0,0,1-3.68,5.87,34.54,34.54,0,0,1-4.15,4.53,36.5,36.5,0,0,1-11.78,7,45,45,0,0,1-16.32,2.78Zm10.55-9h12.11a32.91,32.91,0,0,0,11.62-1.91,24.33,24.33,0,0,0,8.4-5.09q8.94-8.51,8.94-21.57t-8.94-21.57a23,23,0,0,0-3.61-2.76,26.16,26.16,0,0,0-4.49-2.2,30.1,30.1,0,0,0-5.52-1.49,36.56,36.56,0,0,0-6.4-.54H1029Z"/>
      <path class="cls-1" d="M1092.83,450.67a6.13,6.13,0,0,1-1.92-4.64,6.05,6.05,0,0,1,1.92-4.61,6.92,6.92,0,0,1,4.94-1.81,6.78,6.78,0,0,1,4.85,1.81,6.07,6.07,0,0,1,1.91,4.61,6.15,6.15,0,0,1-1.91,4.64,6.73,6.73,0,0,1-4.85,1.83A6.87,6.87,0,0,1,1092.83,450.67Zm-.36,64.14V463H1103V514.8Z"/>
      <path class="cls-1" d="M1114.3,488.88a28.6,28.6,0,0,1,2.1-11,24.87,24.87,0,0,1,5.66-8.52,25.39,25.39,0,0,1,8.35-5.35,27.21,27.21,0,0,1,10.16-1.9,25.64,25.64,0,0,1,12.75,3.15,22.37,22.37,0,0,1,8.77,8.79,25.88,25.88,0,0,1,3.14,12.82q0,.88-.07,2t-.17,1.86l0,.68h-40.08q.39,7.58,4.93,11.92a16.32,16.32,0,0,0,11.77,4.34,27.3,27.3,0,0,0,4.58-.39,23.86,23.86,0,0,0,3.92-1,35.28,35.28,0,0,0,3.28-1.35,23.7,23.7,0,0,0,2.55-1.35q.91-.58,1.84-1.21l1-.68,4.46,5.93a2.42,2.42,0,0,0-.47.42q-.42.43-.94.88t-1.37,1.13a16.43,16.43,0,0,1-1.94,1.3q-1.08.63-2.45,1.35a21.05,21.05,0,0,1-3.07,1.3q-1.69.58-3.58,1a37.36,37.36,0,0,1-4.24.72,42.22,42.22,0,0,1-4.86.27,27,27,0,0,1-13.5-3.32,23,23,0,0,1-9.16-9.52A30.21,30.21,0,0,1,1114.3,488.88Zm10.64-4.44h30.22a14.35,14.35,0,0,0-.54-3.81,16.74,16.74,0,0,0-4.61-7.52,13,13,0,0,0-4.22-2.54,15.4,15.4,0,0,0-5.57-1,16,16,0,0,0-5.52.93,12.87,12.87,0,0,0-4.25,2.47,17.16,17.16,0,0,0-4.81,7.5A16.31,16.31,0,0,0,1124.94,484.43Z"/>
      <path class="cls-1" d="M1198.13,514.8v-75.2h41.75v8.84h-31.2v25H1238v8.84h-29.3V514.8Z"/>
      <path class="cls-1" d="M1243.94,500a13.85,13.85,0,0,1,2.59-8.45,15.6,15.6,0,0,1,7.08-5.27,33.48,33.48,0,0,1,10.6-2.05l13.82-.56v-2q0-5.44-3.49-8.33t-9.3-2.88a27.82,27.82,0,0,0-7,.94,36.51,36.51,0,0,0-5.4,1.75q-1.78.8-3.2,1.6l-3.17-7.24a37.46,37.46,0,0,1,19.43-5.45,37.07,37.07,0,0,1,5.79.42,24.09,24.09,0,0,1,4.69,1.2,18.39,18.39,0,0,1,3.66,1.83,19,19,0,0,1,3,2.42,18.21,18.21,0,0,1,4.2,6.69,30.64,30.64,0,0,1,1.37,10.11V514.8h-10.16l-.1-6.54-.24.24q-1,1.08-1.71,1.73a26.41,26.41,0,0,1-2.32,1.88,19.8,19.8,0,0,1-3.2,2,20.15,20.15,0,0,1-4,1.34,21.17,21.17,0,0,1-5,.59,20.64,20.64,0,0,1-6.84-1.12,18.38,18.38,0,0,1-5.69-3.15,14.43,14.43,0,0,1-3.91-5.08A15.53,15.53,0,0,1,1243.94,500Zm10.35-.34a8.45,8.45,0,0,0,1.22,4.49,8.67,8.67,0,0,0,3.69,3.22,12.89,12.89,0,0,0,5.79,1.22,14.42,14.42,0,0,0,4.59-.73,13.87,13.87,0,0,0,3.83-1.93,20.91,20.91,0,0,0,2.76-2.37,19.9,19.9,0,0,0,2-2.44V489.95l-12.11.73q-6,.29-8.89,2.69A7.74,7.74,0,0,0,1254.29,499.62Z"/>
      <path class="cls-1" d="M1301.85,514.8V463h10.55l-.1,8.2h.29a17.12,17.12,0,0,1,6-6.47,15.77,15.77,0,0,1,8.89-2.66,17.39,17.39,0,0,1,9.73,2.59,14.51,14.51,0,0,1,5.71,7.62,20,20,0,0,1,6.85-7.57,17.55,17.55,0,0,1,9.59-2.64,20.62,20.62,0,0,1,7.17,1.15,13.6,13.6,0,0,1,5,3.1,15.91,15.91,0,0,1,3.18,4.74,23.22,23.22,0,0,1,1.74,5.79,41,41,0,0,1,.49,6.57v31.4h-10.35V484.63a34,34,0,0,0-.2-3.78,21.76,21.76,0,0,0-.78-3.71,10.52,10.52,0,0,0-1.58-3.32,7.76,7.76,0,0,0-2.78-2.25,9.21,9.21,0,0,0-4.21-.9,10.23,10.23,0,0,0-6.85,2.42,14.11,14.11,0,0,0-4.19,6.23,25.63,25.63,0,0,0-1.34,8.54v27h-10.55V484.63a35.74,35.74,0,0,0-.24-4.39,17.65,17.65,0,0,0-.9-3.78,10.27,10.27,0,0,0-1.68-3.08,7.12,7.12,0,0,0-2.68-2,9.44,9.44,0,0,0-3.85-.73,10.33,10.33,0,0,0-6.87,2.42,13.85,13.85,0,0,0-4.19,6.23,26.06,26.06,0,0,0-1.32,8.54v27Z"/>
      <path class="cls-1" d="M1391.51,450.67a6.13,6.13,0,0,1-1.92-4.64,6.05,6.05,0,0,1,1.92-4.61,6.92,6.92,0,0,1,4.94-1.81,6.78,6.78,0,0,1,4.85,1.81,6.07,6.07,0,0,1,1.91,4.61,6.15,6.15,0,0,1-1.91,4.64,6.73,6.73,0,0,1-4.85,1.83A6.87,6.87,0,0,1,1391.51,450.67Zm-.36,64.14V463h10.55V514.8Z"/>
      <path class="cls-1" d="M1417,514.8v-75.2h10.35v75.2Z"/>
      <path class="cls-1" d="M1443,450.67a6.13,6.13,0,0,1-1.92-4.64,6.05,6.05,0,0,1,1.92-4.61,6.92,6.92,0,0,1,4.94-1.81,6.78,6.78,0,0,1,4.85,1.81,6.07,6.07,0,0,1,1.91,4.61,6.15,6.15,0,0,1-1.91,4.64,6.73,6.73,0,0,1-4.85,1.83A6.87,6.87,0,0,1,1443,450.67Zm-.36,64.14V463h10.55V514.8Z"/>
      <path class="cls-1" d="M1464.44,488.88a28.6,28.6,0,0,1,2.1-11,24.87,24.87,0,0,1,5.66-8.52,25.39,25.39,0,0,1,8.35-5.35,27.21,27.21,0,0,1,10.16-1.9,25.64,25.64,0,0,1,12.75,3.15,22.37,22.37,0,0,1,8.77,8.79,25.88,25.88,0,0,1,3.14,12.82q0,.88-.08,2t-.17,1.86l0,.68H1475q.39,7.58,4.93,11.92a16.32,16.32,0,0,0,11.77,4.34,27.3,27.3,0,0,0,4.58-.39,23.86,23.86,0,0,0,3.92-1,35.28,35.28,0,0,0,3.28-1.35,23.74,23.74,0,0,0,2.55-1.35q.91-.58,1.84-1.21l1-.68,4.46,5.93a2.41,2.41,0,0,0-.47.42q-.42.43-.94.88t-1.37,1.13a16.43,16.43,0,0,1-1.94,1.3q-1.08.63-2.45,1.35a21.1,21.1,0,0,1-3.07,1.3q-1.69.58-3.58,1a37.36,37.36,0,0,1-4.24.72,42.22,42.22,0,0,1-4.86.27,27,27,0,0,1-13.5-3.32,23,23,0,0,1-9.16-9.52A30.21,30.21,0,0,1,1464.44,488.88Zm10.64-4.44h30.22a14.37,14.37,0,0,0-.54-3.81,16.74,16.74,0,0,0-4.61-7.52,13,13,0,0,0-4.22-2.54,15.4,15.4,0,0,0-5.57-1,16,16,0,0,0-5.52.93,12.87,12.87,0,0,0-4.25,2.47,17.16,17.16,0,0,0-4.81,7.5A16.31,16.31,0,0,0,1475.09,484.43Z"/>
      <path class="cls-1" d="M1548.28,514.8v-75.2h44v8.84h-33.45v22.46h31.59v8.84h-31.59V506h34.33v8.84Z"/>
      <path class="cls-1" d="M1605,514.8V463h10.55l-.1,8.2h.29a17,17,0,0,1,6.29-6.59,17.81,17.81,0,0,1,9.5-2.54,23.52,23.52,0,0,1,7.6,1.12,14.62,14.62,0,0,1,5.34,3.05,14.89,14.89,0,0,1,3.36,4.81,23.34,23.34,0,0,1,1.79,6.05,46.58,46.58,0,0,1,.49,7.08V514.8h-10.55V485.9a44,44,0,0,0-.24-5,21.34,21.34,0,0,0-.9-4.13,8.8,8.8,0,0,0-1.83-3.3,8.42,8.42,0,0,0-3.12-2.05,12.57,12.57,0,0,0-4.68-.78,14,14,0,0,0-3.75.49,11,11,0,0,0-3.09,1.37,10.85,10.85,0,0,0-2.41,2.17,14.65,14.65,0,0,0-1.83,2.81,17.64,17.64,0,0,0-1.24,3.34,26,26,0,0,0-.71,3.81,37.38,37.38,0,0,0-.22,4.13v26Z"/>
      <path class="cls-1" d="M1660.39,488.13a29.94,29.94,0,0,1,1.31-9,23.94,23.94,0,0,1,3.65-7.29,24.92,24.92,0,0,1,5.45-5.33,22.84,22.84,0,0,1,6.82-3.32,26.84,26.84,0,0,1,7.69-1.1,22.06,22.06,0,0,1,11,2.6,19.39,19.39,0,0,1,7.14,6.58h.34l-.15-8.25H1714v40.92a55.32,55.32,0,0,1-1.37,13.62,21.79,21.79,0,0,1-4.3,8.69,25.79,25.79,0,0,1-3.47,3.56,30,30,0,0,1-4.59,3.1,24.11,24.11,0,0,1-6.57,2.39,39.33,39.33,0,0,1-31.27-6.65,2.21,2.21,0,0,0-.29-.2l4.94-7.26a32.64,32.64,0,0,0,18.49,6.57,20.47,20.47,0,0,0,8.75-1.66,14.93,14.93,0,0,0,5.43-4.06,16.14,16.14,0,0,0,2.81-5.77,30.78,30.78,0,0,0,1.1-8.7v-2.64h-.2a20.88,20.88,0,0,1-7.38,6.75,21.83,21.83,0,0,1-10.71,2.51,25.63,25.63,0,0,1-9.52-1.78,24.38,24.38,0,0,1-7.93-5,23.25,23.25,0,0,1-5.45-8.24A28.87,28.87,0,0,1,1660.39,488.13Zm12.43-8.91a22.1,22.1,0,0,0,0,17.85,14.83,14.83,0,0,0,5.7,6.33,16.6,16.6,0,0,0,8.95,2.37,16.4,16.4,0,0,0,9-2.4,15,15,0,0,0,5.62-6.31,20.51,20.51,0,0,0,1.86-8.9,21.07,21.07,0,0,0-1.83-8.95,14.67,14.67,0,0,0-5.65-6.36,18,18,0,0,0-17.95,0A15,15,0,0,0,1672.82,479.22Z"/>
      <path class="cls-1" d="M1725,488.88a28.59,28.59,0,0,1,2.1-11,24.87,24.87,0,0,1,5.66-8.52,25.39,25.39,0,0,1,8.35-5.35,27.21,27.21,0,0,1,10.16-1.9,25.64,25.64,0,0,1,12.75,3.15,22.37,22.37,0,0,1,8.77,8.79,25.88,25.88,0,0,1,3.14,12.82q0,.88-.08,2t-.17,1.86l0,.68h-40.08q.39,7.58,4.93,11.92a16.32,16.32,0,0,0,11.77,4.34,27.31,27.31,0,0,0,4.58-.39,23.88,23.88,0,0,0,3.92-1,35.34,35.34,0,0,0,3.28-1.35,23.74,23.74,0,0,0,2.55-1.35q.91-.58,1.84-1.21l1-.68,4.46,5.93a2.41,2.41,0,0,0-.47.42q-.42.43-.94.88t-1.37,1.13a16.43,16.43,0,0,1-1.94,1.3q-1.08.63-2.45,1.35a21.1,21.1,0,0,1-3.07,1.3q-1.69.58-3.58,1a37.37,37.37,0,0,1-4.24.72,42.2,42.2,0,0,1-4.86.27,27,27,0,0,1-13.5-3.32,23,23,0,0,1-9.16-9.52A30.2,30.2,0,0,1,1725,488.88Zm10.64-4.44h30.22a14.37,14.37,0,0,0-.54-3.81,16.74,16.74,0,0,0-4.61-7.52,13,13,0,0,0-4.22-2.54,15.4,15.4,0,0,0-5.57-1,16,16,0,0,0-5.52.93,12.86,12.86,0,0,0-4.25,2.47,17.16,17.16,0,0,0-4.81,7.5A16.29,16.29,0,0,0,1735.63,484.43Z"/>
      <path class="cls-1" d="M1786.61,514.8v-75.2H1797v75.2Z"/>
      <path class="cls-1" d="M1806.87,506.3l5-5.86a21.73,21.73,0,0,0,15.28,7.19,16.36,16.36,0,0,0,3.59-.38,12.46,12.46,0,0,0,3.15-1.16,5.85,5.85,0,0,0,2.32-2.22,6.61,6.61,0,0,0,.85-3.43,5,5,0,0,0-.44-2.1,5.13,5.13,0,0,0-1.29-1.73,16.76,16.76,0,0,0-1.73-1.35,11.82,11.82,0,0,0-2.17-1.11q-1.29-.52-2.15-.83t-2.15-.68a17.77,17.77,0,0,1-1.73-.57q-1-.28-2.2-.68l-1.81-.59q-.59-.19-1.39-.52a18,18,0,0,1-1.68-.8q-8.2-4-8.2-12.06a14.76,14.76,0,0,1,1.44-6.58,13.62,13.62,0,0,1,3.88-4.84,18,18,0,0,1,5.57-2.91,21.23,21.23,0,0,1,6.59-1q11.43,0,17.68,7.43l-4.39,6.36a18.09,18.09,0,0,0-3.59-2.74,19.27,19.27,0,0,0-4.57-1.94,17.91,17.91,0,0,0-4.93-.71,10.19,10.19,0,0,0-6.05,1.58,5.38,5.38,0,0,0-2.2,4.66,4.19,4.19,0,0,0,.61,2.2,7,7,0,0,0,1.44,1.73,10.5,10.5,0,0,0,2.34,1.42,27.31,27.31,0,0,0,2.69,1.11l3,1q4.34,1.42,7,2.41a18,18,0,0,1,6,3.59,12.15,12.15,0,0,1,4.15,9.27,14.87,14.87,0,0,1-5.37,11.94Q1835.73,516,1827,516a25.61,25.61,0,0,1-11.6-2.6A23.69,23.69,0,0,1,1806.87,506.3Z"/>
      <path class="cls-1" d="M1879.3,450.67a6.13,6.13,0,0,1-1.92-4.64,6.05,6.05,0,0,1,1.92-4.61,6.92,6.92,0,0,1,4.94-1.81,6.78,6.78,0,0,1,4.85,1.81A6.07,6.07,0,0,1,1891,446a6.15,6.15,0,0,1-1.91,4.64,6.73,6.73,0,0,1-4.85,1.83A6.87,6.87,0,0,1,1879.3,450.67Zm-.36,64.14V463h10.55V514.8Z"/>
      <path class="cls-1" d="M1904.24,514.8V463h10.55l-.1,8.2h.29a17,17,0,0,1,6.29-6.59,17.81,17.81,0,0,1,9.5-2.54,23.52,23.52,0,0,1,7.6,1.12,14.62,14.62,0,0,1,5.34,3.05,14.87,14.87,0,0,1,3.36,4.81,23.34,23.34,0,0,1,1.79,6.05,46.72,46.72,0,0,1,.49,7.08V514.8h-10.55V485.9a44,44,0,0,0-.24-5,21.27,21.27,0,0,0-.9-4.13,8.79,8.79,0,0,0-1.83-3.3,8.42,8.42,0,0,0-3.12-2.05,12.57,12.57,0,0,0-4.68-.78,14,14,0,0,0-3.75.49,10.49,10.49,0,0,0-5.51,3.54,14.65,14.65,0,0,0-1.83,2.81,17.64,17.64,0,0,0-1.24,3.34,25.88,25.88,0,0,0-.71,3.81,37.38,37.38,0,0,0-.22,4.13v26Z"/>
      <path class="cls-1" d="M1985.88,514.8v-75.2h20.24a62.48,62.48,0,0,1,10.32.73,19.71,19.71,0,0,1,7.49,2.81q8.1,5.14,8.1,15.18a17.21,17.21,0,0,1-3.26,10.32,15.55,15.55,0,0,1-8.12,6v.3a24.75,24.75,0,0,1,8.76,3.48,17.26,17.26,0,0,1,5.77,6.27,18.12,18.12,0,0,1,2.07,8.76,21.24,21.24,0,0,1-1.07,6.9,18.58,18.58,0,0,1-2.76,5.34,24,24,0,0,1-4.22,4.19,20.08,20.08,0,0,1-7.9,3.78,47.85,47.85,0,0,1-11.07,1.1Zm10.55-43.26h8.84a40.87,40.87,0,0,0,6.81-.46,10.56,10.56,0,0,0,4.42-1.76,17.44,17.44,0,0,0,2.44-2.19,10.11,10.11,0,0,0,1.76-3.09,12.32,12.32,0,0,0,.78-4.51q0-6.8-5-9.55a15.45,15.45,0,0,0-2.83-1.16,18.48,18.48,0,0,0-3.22-.63,40.23,40.23,0,0,0-4.3-.19h-9.72Zm0,34.67h11.33q3,0,4.86-.1a22.08,22.08,0,0,0,4.22-.71,12.75,12.75,0,0,0,4.1-1.79,12.34,12.34,0,0,0,4.17-4.48,13.1,13.1,0,0,0,1.34-6.14,12.26,12.26,0,0,0-1.34-6,12.73,12.73,0,0,0-4.17-4.35,13.72,13.72,0,0,0-5.62-2.23,47.63,47.63,0,0,0-7.57-.51h-11.33Z"/>
      <path class="cls-1" d="M2048.72,514.8V463h10.55l-.1,8.15h.29a16.71,16.71,0,0,1,3.2-5,12.79,12.79,0,0,1,4.35-3,13.27,13.27,0,0,1,5.2-1,18.49,18.49,0,0,1,2.93.22,13.94,13.94,0,0,1,2,.42l.59.18-.63,8.81h-6.1a9.46,9.46,0,0,0-5.2,1.39,12.63,12.63,0,0,0-3.34,2.94q-3.13,4.72-3.12,13V514.8Z"/>
      <path class="cls-1" d="M2085.94,450.67A6.13,6.13,0,0,1,2084,446a6.05,6.05,0,0,1,1.92-4.61,6.92,6.92,0,0,1,4.94-1.81,6.78,6.78,0,0,1,4.85,1.81,6.07,6.07,0,0,1,1.91,4.61,6.15,6.15,0,0,1-1.91,4.64,6.73,6.73,0,0,1-4.85,1.83A6.87,6.87,0,0,1,2085.94,450.67Zm-.36,64.14V463h10.55V514.8Z"/>
      <path class="cls-1" d="M2107.41,488.88a28.59,28.59,0,0,1,2.1-11,24.87,24.87,0,0,1,5.66-8.52,25.39,25.39,0,0,1,8.35-5.35,27.21,27.21,0,0,1,10.16-1.9,25.64,25.64,0,0,1,12.75,3.15,22.37,22.37,0,0,1,8.77,8.79,25.87,25.87,0,0,1,3.14,12.82q0,.88-.08,2t-.17,1.86l0,.68H2118q.39,7.58,4.93,11.92a16.32,16.32,0,0,0,11.77,4.34,27.31,27.31,0,0,0,4.58-.39,23.88,23.88,0,0,0,3.92-1,35.23,35.23,0,0,0,3.28-1.35,23.74,23.74,0,0,0,2.55-1.35q.91-.58,1.84-1.21l1-.68,4.46,5.93a2.39,2.39,0,0,0-.47.42q-.42.43-.94.88t-1.37,1.13a16.5,16.5,0,0,1-1.94,1.3q-1.08.63-2.45,1.35A21,21,0,0,1,2146,514q-1.69.58-3.58,1a37.39,37.39,0,0,1-4.24.72,42.23,42.23,0,0,1-4.86.27,27,27,0,0,1-13.5-3.32,23,23,0,0,1-9.16-9.52A30.2,30.2,0,0,1,2107.41,488.88Zm10.64-4.44h30.22a14.37,14.37,0,0,0-.54-3.81,16.74,16.74,0,0,0-4.61-7.52,13,13,0,0,0-4.22-2.54,15.4,15.4,0,0,0-5.57-1,16,16,0,0,0-5.52.93,12.86,12.86,0,0,0-4.25,2.47,17.16,17.16,0,0,0-4.81,7.5A16.29,16.29,0,0,0,2118.06,484.43Z"/>
      <path class="cls-1" d="M2163,471.54v-8.4h7.42v-5.22q0-9.47,3.5-13.87a15.93,15.93,0,0,1,5.11-4.05,15.59,15.59,0,0,1,7.26-1.61,38.29,38.29,0,0,1,4.93.29,15.27,15.27,0,0,1,3.13.63l.93.31-.68,8.09a19.8,19.8,0,0,0-5.91-.93,9,9,0,0,0-3.42.59,6.33,6.33,0,0,0-2.32,1.52,6.52,6.52,0,0,0-1.34,2.38,14.24,14.24,0,0,0-.66,2.9,28.91,28.91,0,0,0-.17,3.35v5.61h12.35v8.4H2180.8V514.8h-10.35V471.54Z"/>
      <path class="cls-1" d="M2194.67,488.88a28.59,28.59,0,0,1,2.1-11,24.87,24.87,0,0,1,5.66-8.52,25.39,25.39,0,0,1,8.35-5.35,27.21,27.21,0,0,1,10.16-1.9,25.64,25.64,0,0,1,12.75,3.15,22.37,22.37,0,0,1,8.77,8.79,25.87,25.87,0,0,1,3.14,12.82q0,.88-.08,2t-.17,1.86l0,.68h-40.08q.39,7.58,4.93,11.92a16.32,16.32,0,0,0,11.77,4.34,27.31,27.31,0,0,0,4.58-.39,23.88,23.88,0,0,0,3.92-1,35.23,35.23,0,0,0,3.28-1.35,23.74,23.74,0,0,0,2.55-1.35q.91-.58,1.84-1.21l1-.68,4.46,5.93a2.39,2.39,0,0,0-.47.42q-.42.43-.94.88t-1.37,1.13a16.5,16.5,0,0,1-1.94,1.3q-1.08.63-2.45,1.35a21,21,0,0,1-3.07,1.3q-1.69.58-3.58,1a37.39,37.39,0,0,1-4.24.72,42.23,42.23,0,0,1-4.86.27,27,27,0,0,1-13.5-3.32,23,23,0,0,1-9.16-9.52A30.2,30.2,0,0,1,2194.67,488.88Zm10.64-4.44h30.22a14.37,14.37,0,0,0-.54-3.81,16.74,16.74,0,0,0-4.61-7.52,13,13,0,0,0-4.22-2.54,15.4,15.4,0,0,0-5.57-1,16,16,0,0,0-5.52.93,12.86,12.86,0,0,0-4.25,2.47,17.16,17.16,0,0,0-4.81,7.5A16.29,16.29,0,0,0,2205.31,484.43Z"/>
      <path class="cls-1" d="M2255.75,514.8V463h10.55l-.1,8.2h.29a17,17,0,0,1,6.29-6.59,17.81,17.81,0,0,1,9.5-2.54,23.52,23.52,0,0,1,7.6,1.12,14.62,14.62,0,0,1,5.34,3.05,14.87,14.87,0,0,1,3.36,4.81,23.34,23.34,0,0,1,1.79,6.05,46.72,46.72,0,0,1,.49,7.08V514.8h-10.55V485.9a44,44,0,0,0-.24-5,21.27,21.27,0,0,0-.9-4.13,8.79,8.79,0,0,0-1.83-3.3,8.42,8.42,0,0,0-3.12-2.05,12.57,12.57,0,0,0-4.68-.78,14,14,0,0,0-3.75.49,10.49,10.49,0,0,0-5.51,3.54,14.65,14.65,0,0,0-1.83,2.81,17.64,17.64,0,0,0-1.24,3.34,25.88,25.88,0,0,0-.71,3.81,37.38,37.38,0,0,0-.22,4.13v26Z"/>
      <path class="cls-1" d="M2334.41,480.89q0-26.1,15.92-50l6.64,3.61a60.57,60.57,0,0,0-4.35,8.11,113.3,113.3,0,0,0-4.22,10.89,91.61,91.61,0,0,0-3.3,13.33,78.79,78.79,0,0,0,0,28.17,92.45,92.45,0,0,0,3.3,13.35,112.21,112.21,0,0,0,4.22,10.91,60.57,60.57,0,0,0,4.35,8.11l-6.64,3.56Q2334.41,507,2334.41,480.89Z"/>
      <path class="cls-1" d="M2366.79,448v-8.4h25v75.2h-10.35V448Z"/>
      <path class="cls-1" d="M2414,448v-8.4h51.22l2.88,6-36.23,69.16h-11.13l35.6-66.8Z"/>
      <path class="cls-1" d="M2474.4,464.55a28.92,28.92,0,0,1,1.79-10.22,24.56,24.56,0,0,1,5.07-8.28,23.31,23.31,0,0,1,8.13-5.54,27.35,27.35,0,0,1,10.68-2q14.83,0,22.7,13a35.38,35.38,0,0,1,3.7,9.72A62.71,62.71,0,0,1,2528,476a58.74,58.74,0,0,1-2.38,17.37,39.26,39.26,0,0,1-6.37,12.79q-7.93,10-21.2,10a38.21,38.21,0,0,1-5.31-.36,43.72,43.72,0,0,1-4.41-.82,23.39,23.39,0,0,1-3.84-1.35q-2-.89-3-1.37a20.42,20.42,0,0,1-2.47-1.57q-1.52-1.09-1.69-1.23l-1.16-1,4.49-6.88a24.13,24.13,0,0,0,7.26,4.31,26,26,0,0,0,9.85,1.85,19.29,19.29,0,0,0,5.71-.78,13.88,13.88,0,0,0,4.46-2.28,19.78,19.78,0,0,0,3.68-3.84q6.29-8.32,6.29-24.38a18.86,18.86,0,0,1-2.61,4.06,21.81,21.81,0,0,1-4,3.63,19.42,19.42,0,0,1-5.95,2.78,27.63,27.63,0,0,1-7.78,1,23.44,23.44,0,0,1-8.62-1.63,23.78,23.78,0,0,1-7.4-4.58,21.55,21.55,0,0,1-5.19-7.42A24.11,24.11,0,0,1,2474.4,464.55Zm10.35-1.31a18.7,18.7,0,0,0,1,6.12,16.84,16.84,0,0,0,2.88,5.22,12.94,12.94,0,0,0,4.88,3.64,16.43,16.43,0,0,0,6.75,1.33,17.08,17.08,0,0,0,6.87-1.33,13.05,13.05,0,0,0,5-3.64,17,17,0,0,0,2.93-5.22,18.93,18.93,0,0,0,0-12.28,16.69,16.69,0,0,0-2.93-5.19,13.4,13.4,0,0,0-5-3.64,16.8,16.8,0,0,0-6.87-1.36,17.16,17.16,0,0,0-5.58.87,13.08,13.08,0,0,0-4.36,2.43,15.17,15.17,0,0,0-3.07,3.64,16.38,16.38,0,0,0-1.88,4.46A19.88,19.88,0,0,0,2484.76,463.24Z"/>
      <path class="cls-1" d="M2540.47,448v-8.4h25v75.2h-10.35V448Z"/>
      <path class="cls-1" d="M2583.88,489.31v-8.84h26.37v8.84Z"/>
      <path class="cls-1" d="M2616.74,448v-8.4h25v75.2h-10.35V448Z"/>
      <path class="cls-1" d="M2663.52,494.05a19.34,19.34,0,0,1,3.81-12.1,20.21,20.21,0,0,1,10.25-7v-.43a25.57,25.57,0,0,1-3.15-1.38,18.67,18.67,0,0,1-3.13-2.16,15,15,0,0,1-2.86-3.11,15.7,15.7,0,0,1-1.95-4.32,20,20,0,0,1-.79-5.78,17.51,17.51,0,0,1,7.07-14.26,24.37,24.37,0,0,1,7.51-3.71,32.17,32.17,0,0,1,18.11,0,24.38,24.38,0,0,1,7.51,3.71,17.51,17.51,0,0,1,7.07,14.26,20.06,20.06,0,0,1-.79,5.78,16.64,16.64,0,0,1-1.92,4.35,14.52,14.52,0,0,1-2.81,3.13,19.06,19.06,0,0,1-3.1,2.19,28.26,28.26,0,0,1-3.15,1.46v.27a22.81,22.81,0,0,1,5.73,2.81,20.29,20.29,0,0,1,4.47,4.16,17.85,17.85,0,0,1,2.92,5.48,20.91,20.91,0,0,1,1,6.67,21.78,21.78,0,0,1-2,9.35,18.83,18.83,0,0,1-5.47,6.94,25.24,25.24,0,0,1-8.27,4.21,37.14,37.14,0,0,1-20.63,0,24.52,24.52,0,0,1-8.18-4.21,19,19,0,0,1-5.4-6.94A21.86,21.86,0,0,1,2663.52,494.05Zm10.35-.83a14.65,14.65,0,0,0,1.22,6,12.64,12.64,0,0,0,3.34,4.56,15.63,15.63,0,0,0,4.93,2.82,17.61,17.61,0,0,0,6,1,17.83,17.83,0,0,0,6-1,15.29,15.29,0,0,0,4.93-2.82,12.79,12.79,0,0,0,3.32-4.56,14.66,14.66,0,0,0,1.22-6,14.26,14.26,0,0,0-2-7.64,13,13,0,0,0-5.52-5,18,18,0,0,0-7.93-1.69,16.11,16.11,0,0,0-11.13,3.87A13.27,13.27,0,0,0,2673.87,493.22Zm2.2-34.52a10.74,10.74,0,0,0,3.71,8.7,16.24,16.24,0,0,0,19.14,0,10.74,10.74,0,0,0,3.71-8.7,12.56,12.56,0,0,0-.66-4.16,10.09,10.09,0,0,0-1.86-3.29,11.55,11.55,0,0,0-2.86-2.39,13.36,13.36,0,0,0-3.66-1.49,17.6,17.6,0,0,0-4.25-.5,17,17,0,0,0-5.25.78,12.69,12.69,0,0,0-4.22,2.27,10.05,10.05,0,0,0-2.81,3.73A12.23,12.23,0,0,0,2676.06,458.7Z"/>
      <path class="cls-1" d="M2726.16,503.39l5.91-6.13a18,18,0,0,0,3.13,3.92,21.62,21.62,0,0,0,4.3,3.19,22.19,22.19,0,0,0,5.32,2.14,23.26,23.26,0,0,0,6,.78,21.29,21.29,0,0,0,5.08-.61,17.16,17.16,0,0,0,4.74-1.95,16.71,16.71,0,0,0,4-3.26,13.93,13.93,0,0,0,2.69-4.72,18.45,18.45,0,0,0,1-6.11,19,19,0,0,0-.68-5.18,14.17,14.17,0,0,0-1.9-4.19,16.27,16.27,0,0,0-2.88-3.19,15.1,15.1,0,0,0-3.61-2.29,19.7,19.7,0,0,0-4-1.31,21,21,0,0,0-4.29-.44,26.85,26.85,0,0,0-5,.46,23.31,23.31,0,0,0-4.68,1.39,13.52,13.52,0,0,0-3.68,2.19l-5.32-3.21,6.57-35.26h37.82V448h-30.26l-3.92,20a21.57,21.57,0,0,1,10.73-2.39,28.22,28.22,0,0,1,5.27.5,26.71,26.71,0,0,1,5.17,1.54,27.72,27.72,0,0,1,4.8,2.54,22.33,22.33,0,0,1,4.17,3.58,24.56,24.56,0,0,1,3.31,4.57A22.58,22.58,0,0,1,2778,484a27.45,27.45,0,0,1,.78,6.64,26.22,26.22,0,0,1-1.08,7.61,22.36,22.36,0,0,1-3,6.36,25.55,25.55,0,0,1-10.29,8.59,32.64,32.64,0,0,1-6.52,2.18,32.13,32.13,0,0,1-7,.76,34,34,0,0,1-7.74-.86,27.7,27.7,0,0,1-6.32-2.21,29,29,0,0,1-4.86-3.12,25,25,0,0,1-3.56-3.37A23.5,23.5,0,0,1,2726.16,503.39Z"/>
      <path class="cls-1" d="M2791.25,494.05a19.34,19.34,0,0,1,3.81-12.1,20.21,20.21,0,0,1,10.25-7v-.43a25.57,25.57,0,0,1-3.15-1.38A18.67,18.67,0,0,1,2799,471a15,15,0,0,1-2.86-3.11,15.7,15.7,0,0,1-1.95-4.32,20,20,0,0,1-.79-5.78,17.51,17.51,0,0,1,7.07-14.26,24.37,24.37,0,0,1,7.51-3.71,32.17,32.17,0,0,1,18.11,0,24.38,24.38,0,0,1,7.51,3.71,17.51,17.51,0,0,1,7.07,14.26,20.06,20.06,0,0,1-.79,5.78,16.64,16.64,0,0,1-1.92,4.35,14.52,14.52,0,0,1-2.81,3.13,19.06,19.06,0,0,1-3.1,2.19,28.26,28.26,0,0,1-3.15,1.46v.27a22.81,22.81,0,0,1,5.73,2.81,20.29,20.29,0,0,1,4.47,4.16,17.85,17.85,0,0,1,2.92,5.48,20.91,20.91,0,0,1,1,6.67,21.78,21.78,0,0,1-2,9.35,18.83,18.83,0,0,1-5.47,6.94,25.24,25.24,0,0,1-8.27,4.21,37.14,37.14,0,0,1-20.63,0,24.52,24.52,0,0,1-8.18-4.21,19,19,0,0,1-5.4-6.94A21.86,21.86,0,0,1,2791.25,494.05Zm10.35-.83a14.65,14.65,0,0,0,1.22,6,12.64,12.64,0,0,0,3.34,4.56,15.63,15.63,0,0,0,4.93,2.82,17.61,17.61,0,0,0,6,1,17.83,17.83,0,0,0,6-1,15.29,15.29,0,0,0,4.93-2.82,12.79,12.79,0,0,0,3.32-4.56,14.66,14.66,0,0,0,1.22-6,14.26,14.26,0,0,0-2-7.64,13,13,0,0,0-5.52-5,18,18,0,0,0-7.93-1.69,16.11,16.11,0,0,0-11.13,3.87A13.27,13.27,0,0,0,2801.6,493.22Zm2.2-34.52a10.74,10.74,0,0,0,3.71,8.7,16.24,16.24,0,0,0,19.14,0,10.74,10.74,0,0,0,3.71-8.7,12.56,12.56,0,0,0-.66-4.16,10.09,10.09,0,0,0-1.86-3.29,11.55,11.55,0,0,0-2.86-2.39,13.36,13.36,0,0,0-3.66-1.49,17.6,17.6,0,0,0-4.25-.5,17,17,0,0,0-5.25.78,12.69,12.69,0,0,0-4.22,2.27,10.05,10.05,0,0,0-2.81,3.73A12.23,12.23,0,0,0,2803.8,458.7Z"/>
      <path class="cls-1" d="M2851.85,527.35a62.5,62.5,0,0,0,4.37-8.11,108.37,108.37,0,0,0,4.25-10.91,92.7,92.7,0,0,0,3.3-13.35,78.79,78.79,0,0,0,0-28.17,91.87,91.87,0,0,0-3.3-13.33,109.38,109.38,0,0,0-4.25-10.89,62.5,62.5,0,0,0-4.37-8.11l6.64-3.61q16.26,23.78,16.26,50t-16.26,50Z"/>
      <path class="cls-1" d="M1014.43,701.81a31.53,31.53,0,0,1,0-18.59,24.59,24.59,0,0,1,3.91-7.57,26,26,0,0,1,13.35-9.07,30.8,30.8,0,0,1,17,0,26,26,0,0,1,13.35,9.08,24.62,24.62,0,0,1,3.91,7.58,30,30,0,0,1,1.4,9.29,30.87,30.87,0,0,1-.91,7.57,26.65,26.65,0,0,1-2.53,6.5,25.12,25.12,0,0,1-3.91,5.27l5.81,6.63-4.79,4.27-6-6.94a28.55,28.55,0,0,1-14.8,3.9,29.87,29.87,0,0,1-8.48-1.2,25.79,25.79,0,0,1-7.45-3.54,26.42,26.42,0,0,1-5.9-5.59A24.72,24.72,0,0,1,1014.43,701.81Zm6.15-9.46a23.28,23.28,0,0,0,1.56,8.63,18.34,18.34,0,0,0,4.24,6.54,19.22,19.22,0,0,0,6.24,4,20,20,0,0,0,7.55,1.44,20.27,20.27,0,0,0,10.08-2.57l-4.44-5,4.82-4.31,4.51,5.2a21.12,21.12,0,0,0,4.65-13.93,23.25,23.25,0,0,0-1.56-8.64,18.5,18.5,0,0,0-4.22-6.52,19,19,0,0,0-6.22-4,20.82,20.82,0,0,0-15.21,0,19,19,0,0,0-6.22,4,18.5,18.5,0,0,0-4.22,6.52A23.24,23.24,0,0,0,1020.59,692.35Z"/>
      <path class="cls-1" d="M1075.92,718.8V666.17h14.82q8,0,12.64,3.66a13.42,13.42,0,0,1,2.69,2.92,13.6,13.6,0,0,1,1.75,3.76,15.44,15.44,0,0,1,.63,4.46,16.17,16.17,0,0,1-.71,4.9,13,13,0,0,1-1.86,3.81,13.39,13.39,0,0,1-2.73,2.76,14.38,14.38,0,0,1-3.19,1.86,17.49,17.49,0,0,1-3.37,1l15,23.51h-8.92L1089,696.07h-5.67V718.8Zm7.38-28.75h5.43a32,32,0,0,0,5.21-.34,8.5,8.5,0,0,0,3.61-1.5,7.77,7.77,0,0,0,2.56-3,9.76,9.76,0,0,0,.79-4.1,9.37,9.37,0,0,0-.8-4,7.8,7.8,0,0,0-2.55-3,8.07,8.07,0,0,0-1.81-1,9.09,9.09,0,0,0-2.15-.56q-1.2-.17-2.22-.24t-2.63-.07h-5.43Z"/>
      <path class="cls-1" d="M1113.18,701v-6.19h18.46V701Z"/>
      <path class="cls-1" d="M1136.35,692.5a29.39,29.39,0,0,1,2.07-11.14,24.64,24.64,0,0,1,5.66-8.58,25.72,25.72,0,0,1,8.55-5.44,28.53,28.53,0,0,1,10.6-2,32.18,32.18,0,0,1,6.6.65,23.69,23.69,0,0,1,5.4,1.75,30.69,30.69,0,0,1,3.85,2.15,21.89,21.89,0,0,1,2.82,2.25l-3.08,6a12.48,12.48,0,0,0-2.26-2.11,24.09,24.09,0,0,0-3.38-2.1,19.84,19.84,0,0,0-4.49-1.63,21.73,21.73,0,0,0-5.14-.62,20.61,20.61,0,0,0-7.86,1.48,18.14,18.14,0,0,0-6.22,4.14,18.73,18.73,0,0,0-4.07,6.55,23.76,23.76,0,0,0-1.47,8.47,23.37,23.37,0,0,0,1.49,8.46,19,19,0,0,0,4.08,6.53,18.35,18.35,0,0,0,6.22,4.16,20.31,20.31,0,0,0,7.83,1.5,22.38,22.38,0,0,0,9-1.74,19.47,19.47,0,0,0,6.75-4.73l3.18,5.47a19.48,19.48,0,0,1-3,2.78,26.45,26.45,0,0,1-4,2.42,23.26,23.26,0,0,1-5.49,1.85,31.8,31.8,0,0,1-6.7.68,28.75,28.75,0,0,1-10.68-2,25.35,25.35,0,0,1-8.55-5.48,24.67,24.67,0,0,1-5.61-8.63A29.93,29.93,0,0,1,1136.35,692.5Z"/>
      <path class="cls-1" d="M1186.12,700.83a19.73,19.73,0,0,1,1.49-7.69,17.54,17.54,0,0,1,4.07-6,18.53,18.53,0,0,1,6.12-3.85,20.57,20.57,0,0,1,7.57-1.38,20.28,20.28,0,0,1,7.51,1.38,18.35,18.35,0,0,1,6.07,3.85,17.67,17.67,0,0,1,4,6,20.62,20.62,0,0,1,0,15.36,17.52,17.52,0,0,1-4,6,18.28,18.28,0,0,1-6.07,3.81,20.53,20.53,0,0,1-7.51,1.37,22.38,22.38,0,0,1-4.49-.44,18.66,18.66,0,0,1-4.07-1.32,19.78,19.78,0,0,1-3.55-2.1,16.19,16.19,0,0,1-3-2.84,19.38,19.38,0,0,1-2.24-3.47,17.42,17.42,0,0,1-1.44-4.08A21,21,0,0,1,1186.12,700.83Zm7.38-.24a14.71,14.71,0,0,0,1.42,6.55,11.16,11.16,0,0,0,4.14,4.62,11.55,11.55,0,0,0,6.31,1.72,11.34,11.34,0,0,0,6.22-1.72,11.08,11.08,0,0,0,4.1-4.62,14.87,14.87,0,0,0,1.4-6.55,14.6,14.6,0,0,0-1.4-6.46,11.18,11.18,0,0,0-10.32-6.36,11.47,11.47,0,0,0-6.31,1.74,11.3,11.3,0,0,0-4.14,4.62A14.44,14.44,0,0,0,1193.5,700.59Z"/>
      <path class="cls-1" d="M1229.66,700.65a21.12,21.12,0,0,1,2.13-9.59,16.3,16.3,0,0,1,6.12-6.72,17.15,17.15,0,0,1,9.2-2.46,15.94,15.94,0,0,1,7.46,1.67,14,14,0,0,1,5.2,4.58h.14v-22h7.28V718.8h-7v-5.74H1260a16,16,0,0,1-3.48,3.65,13.93,13.93,0,0,1-4.31,2.22,16.74,16.74,0,0,1-5,.73,18.42,18.42,0,0,1-5.95-.94,15.68,15.68,0,0,1-4.89-2.65,17,17,0,0,1-3.63-4.07,19,19,0,0,1-2.32-5.25A22.71,22.71,0,0,1,1229.66,700.65Zm7.38-.07a15.68,15.68,0,0,0,.8,5.1,12.66,12.66,0,0,0,2.26,4.09,10,10,0,0,0,3.65,2.71,11.77,11.77,0,0,0,4.86,1,11.17,11.17,0,0,0,6.2-1.7,10.78,10.78,0,0,0,4-4.6,16.65,16.65,0,0,0,0-13.14,10.69,10.69,0,0,0-4-4.57,12.27,12.27,0,0,0-12.41,0,10.66,10.66,0,0,0-4,4.57A15.3,15.3,0,0,0,1237,700.59Z"/>
      <path class="cls-1" d="M1275.16,700.65a20,20,0,0,1,1.47-7.72,17.4,17.4,0,0,1,4-6,17.76,17.76,0,0,1,5.84-3.74,19,19,0,0,1,7.11-1.33,17.94,17.94,0,0,1,8.92,2.21,15.64,15.64,0,0,1,6.14,6.15,18.11,18.11,0,0,1,2.2,9q0,.62-.05,1.4t-.12,1.3l0,.48h-28.06a11.89,11.89,0,0,0,3.45,8.34,11.43,11.43,0,0,0,8.24,3,19.1,19.1,0,0,0,3.21-.27,16.65,16.65,0,0,0,2.74-.68,24.44,24.44,0,0,0,2.3-.95,16.45,16.45,0,0,0,1.78-.95l1.29-.84.69-.47,3.12,4.15a1.72,1.72,0,0,0-.33.3q-.29.3-.66.61t-1,.79a11.58,11.58,0,0,1-1.36.91q-.76.44-1.72.94a14.64,14.64,0,0,1-2.15.91q-1.18.4-2.51.72a26.14,26.14,0,0,1-3,.51,29.39,29.39,0,0,1-3.4.19,18.9,18.9,0,0,1-9.45-2.32,16.07,16.07,0,0,1-6.41-6.67A21.14,21.14,0,0,1,1275.16,700.65Zm7.45-3.11h21.16a10,10,0,0,0-.38-2.67,11.72,11.72,0,0,0-3.23-5.26,9.11,9.11,0,0,0-3-1.78,10.78,10.78,0,0,0-3.9-.68,11.18,11.18,0,0,0-3.86.65,9,9,0,0,0-3,1.73,12,12,0,0,0-3.37,5.25A11.41,11.41,0,0,0,1282.61,697.54Z"/>
      <path class="cls-1" d="M1329.57,712.85l3.49-4.1a15.22,15.22,0,0,0,10.7,5,11.43,11.43,0,0,0,2.51-.26,8.7,8.7,0,0,0,2.2-.81,4.09,4.09,0,0,0,1.62-1.56,4.62,4.62,0,0,0,.6-2.4,3.52,3.52,0,0,0-.31-1.47,3.59,3.59,0,0,0-.91-1.21,11.49,11.49,0,0,0-1.21-.94,8.26,8.26,0,0,0-1.52-.78q-.91-.36-1.5-.58t-1.5-.48a12.33,12.33,0,0,1-1.21-.4q-.68-.2-1.54-.48l-1.26-.41q-.41-.13-1-.36a12.83,12.83,0,0,1-1.18-.56q-5.74-2.81-5.74-8.44a10.33,10.33,0,0,1,1-4.61,9.54,9.54,0,0,1,2.72-3.39,12.63,12.63,0,0,1,3.9-2,14.87,14.87,0,0,1,4.61-.71q8,0,12.37,5.2l-3.08,4.45a12.64,12.64,0,0,0-2.51-1.92,13.47,13.47,0,0,0-3.2-1.36,12.56,12.56,0,0,0-3.45-.5,7.13,7.13,0,0,0-4.24,1.11,3.76,3.76,0,0,0-1.54,3.26,2.93,2.93,0,0,0,.43,1.54,4.85,4.85,0,0,0,1,1.21,7.36,7.36,0,0,0,1.64,1,19.11,19.11,0,0,0,1.88.78l2.12.71q3,1,4.89,1.69a12.61,12.61,0,0,1,4.2,2.52,8.51,8.51,0,0,1,2.91,6.49,10.41,10.41,0,0,1-3.76,8.36,15.34,15.34,0,0,1-10,3.25,17.94,17.94,0,0,1-8.12-1.82A16.59,16.59,0,0,1,1329.57,712.85Z"/>
      <path class="cls-1" d="M1362.18,700.79a19.79,19.79,0,0,1,1.54-7.86,17.39,17.39,0,0,1,4.12-6,18.9,18.9,0,0,1,12.87-5,26.42,26.42,0,0,1,4.36.35,17.23,17.23,0,0,1,3.54.93q1.47.59,2.6,1.16a9.59,9.59,0,0,1,1.93,1.26q.8.69,1.11,1a7.09,7.09,0,0,1,.51.54l-2.6,5.34-1-.94a14.32,14.32,0,0,0-1.49-1.11,12.26,12.26,0,0,0-2.12-1.16,16,16,0,0,0-2.72-.8,16.42,16.42,0,0,0-3.47-.36,11.77,11.77,0,0,0-4.56.89,11.62,11.62,0,0,0-3.74,2.48,11.41,11.41,0,0,0-2.55,3.95,13.81,13.81,0,0,0-.94,5.16,13.26,13.26,0,0,0,3.3,9.31,11.07,11.07,0,0,0,8.56,3.61,15.38,15.38,0,0,0,3.85-.48,13.73,13.73,0,0,0,3.09-1.14,21,21,0,0,0,2.19-1.35,11.63,11.63,0,0,0,1.4-1.13l.44-.48,2.6,5.32-.24.2q-.62.64-1.11,1.08a17.17,17.17,0,0,1-1.83,1.3,15.58,15.58,0,0,1-2.75,1.42,21.45,21.45,0,0,1-3.71,1,25.93,25.93,0,0,1-4.89.44,18.63,18.63,0,0,1-12.8-5.07,17.13,17.13,0,0,1-4-6A20.24,20.24,0,0,1,1362.18,700.79Z"/>
      <path class="cls-1" d="M1397.76,708.41a9.7,9.7,0,0,1,1.81-5.91,10.92,10.92,0,0,1,5-3.69,23.44,23.44,0,0,1,7.42-1.44l9.67-.39v-1.37a7.13,7.13,0,0,0-2.44-5.83,9.9,9.9,0,0,0-6.51-2,19.48,19.48,0,0,0-4.92.66,25.52,25.52,0,0,0-3.78,1.22q-1.25.56-2.24,1.12l-2.22-5.07a26.59,26.59,0,0,1,17.65-3.53,16.82,16.82,0,0,1,3.28.84,12.84,12.84,0,0,1,2.56,1.28,13.34,13.34,0,0,1,2.07,1.69,12.75,12.75,0,0,1,2.94,4.68,21.45,21.45,0,0,1,1,7.08V718.8h-7.11l-.07-4.58-.17.17q-.72.75-1.2,1.21a18.69,18.69,0,0,1-1.62,1.32,13.83,13.83,0,0,1-2.24,1.38,14,14,0,0,1-2.79.94,14.82,14.82,0,0,1-3.5.41,14.45,14.45,0,0,1-4.79-.79,12.86,12.86,0,0,1-4-2.21,10.09,10.09,0,0,1-2.73-3.55A10.86,10.86,0,0,1,1397.76,708.41Zm7.25-.24a5.92,5.92,0,0,0,.85,3.14,6.07,6.07,0,0,0,2.58,2.26,9,9,0,0,0,4.05.85,10.09,10.09,0,0,0,3.21-.51,9.68,9.68,0,0,0,2.68-1.35,14.63,14.63,0,0,0,1.93-1.66,13.93,13.93,0,0,0,1.4-1.71v-7.79l-8.48.51q-4.2.21-6.22,1.88A5.42,5.42,0,0,0,1405,708.17Z"/>
      <path class="cls-1" d="M1438.3,718.8V682.54h7.38l-.07,5.74h.2a11.88,11.88,0,0,1,4.4-4.61,12.47,12.47,0,0,1,6.65-1.78,16.46,16.46,0,0,1,5.32.79,10.24,10.24,0,0,1,3.74,2.14,10.43,10.43,0,0,1,2.35,3.37,16.34,16.34,0,0,1,1.25,4.24,32.68,32.68,0,0,1,.34,5V718.8h-7.38V698.57a30.75,30.75,0,0,0-.17-3.49,14.94,14.94,0,0,0-.63-2.89,6.17,6.17,0,0,0-1.28-2.31,5.91,5.91,0,0,0-2.18-1.44,8.81,8.81,0,0,0-3.27-.55,9.77,9.77,0,0,0-2.63.34,7.69,7.69,0,0,0-2.17,1,7.61,7.61,0,0,0-1.69,1.52,10.22,10.22,0,0,0-1.28,2,12.37,12.37,0,0,0-.87,2.34,18.08,18.08,0,0,0-.49,2.67,26.15,26.15,0,0,0-.15,2.89V718.8Z"/>
      <path class="cls-1" d="M1479.52,718.8V682.54h7.38l-.07,5.74h.2a11.88,11.88,0,0,1,4.4-4.61,12.47,12.47,0,0,1,6.65-1.78,16.46,16.46,0,0,1,5.32.79,10.25,10.25,0,0,1,3.74,2.14,10.45,10.45,0,0,1,2.35,3.37,16.32,16.32,0,0,1,1.25,4.24,32.67,32.67,0,0,1,.34,5V718.8h-7.38V698.57a30.86,30.86,0,0,0-.17-3.49,14.94,14.94,0,0,0-.63-2.89,6.17,6.17,0,0,0-1.28-2.31,5.91,5.91,0,0,0-2.18-1.44,8.81,8.81,0,0,0-3.27-.55,9.77,9.77,0,0,0-2.63.34,7.69,7.69,0,0,0-2.17,1,7.61,7.61,0,0,0-1.69,1.52,10.22,10.22,0,0,0-1.28,2,12.37,12.37,0,0,0-.87,2.34,18.08,18.08,0,0,0-.49,2.67,26.15,26.15,0,0,0-.15,2.89V718.8Z"/>
      <path class="cls-1" d="M1518.31,700.65a20,20,0,0,1,1.47-7.72,17.39,17.39,0,0,1,4-6,17.76,17.76,0,0,1,5.84-3.74,19,19,0,0,1,7.11-1.33,17.93,17.93,0,0,1,8.92,2.21,15.64,15.64,0,0,1,6.14,6.15,18.11,18.11,0,0,1,2.2,9q0,.62-.05,1.4t-.12,1.3l0,.48h-28.06a11.89,11.89,0,0,0,3.45,8.34,11.43,11.43,0,0,0,8.24,3,19.09,19.09,0,0,0,3.21-.27,16.65,16.65,0,0,0,2.74-.68,24.39,24.39,0,0,0,2.3-.95,16.47,16.47,0,0,0,1.78-.95l1.29-.84.69-.47,3.12,4.15a1.73,1.73,0,0,0-.33.3q-.29.3-.66.61t-1,.79a11.63,11.63,0,0,1-1.36.91q-.75.44-1.72.94a14.62,14.62,0,0,1-2.15.91q-1.18.4-2.51.72a26.13,26.13,0,0,1-3,.51,29.4,29.4,0,0,1-3.4.19,18.91,18.91,0,0,1-9.45-2.32,16.07,16.07,0,0,1-6.41-6.67A21.14,21.14,0,0,1,1518.31,700.65Zm7.45-3.11h21.16a10.07,10.07,0,0,0-.38-2.67,11.72,11.72,0,0,0-3.23-5.26,9.1,9.1,0,0,0-3-1.78,10.79,10.79,0,0,0-3.9-.68,11.18,11.18,0,0,0-3.86.65,9,9,0,0,0-3,1.73,12,12,0,0,0-3.37,5.25A11.39,11.39,0,0,0,1525.76,697.54Z"/>
      <path class="cls-1" d="M1561.07,718.8V682.54h7.38l-.07,5.74h.2a11.88,11.88,0,0,1,4.4-4.61,12.47,12.47,0,0,1,6.65-1.78,16.46,16.46,0,0,1,5.32.79,10.25,10.25,0,0,1,3.74,2.14,10.45,10.45,0,0,1,2.35,3.37,16.32,16.32,0,0,1,1.25,4.24,32.67,32.67,0,0,1,.34,5V718.8h-7.38V698.57a30.86,30.86,0,0,0-.17-3.49,15,15,0,0,0-.63-2.89,6.17,6.17,0,0,0-1.28-2.31,5.91,5.91,0,0,0-2.18-1.44,8.81,8.81,0,0,0-3.27-.55,9.77,9.77,0,0,0-2.63.34,7.7,7.7,0,0,0-2.17,1,7.61,7.61,0,0,0-1.69,1.52,10.19,10.19,0,0,0-1.28,2,12.34,12.34,0,0,0-.87,2.34,18.08,18.08,0,0,0-.49,2.67,26.15,26.15,0,0,0-.15,2.89V718.8Z"/>
      <path class="cls-1" d="M1601.91,729.5l5.33-18.8h7.49l-7,18.8Z"/>
      <path class="cls-1" d="M1640.06,704.24V682.47h7.25v21.42a22.62,22.62,0,0,0,.12,2.46,18,18,0,0,0,.39,2.23,6.22,6.22,0,0,0,.82,2,7.05,7.05,0,0,0,1.35,1.52,5.45,5.45,0,0,0,2,1,10.09,10.09,0,0,0,2.81.36,8.7,8.7,0,0,0,4.11-.94,7.34,7.34,0,0,0,2.83-2.58,12.74,12.74,0,0,0,1.58-3.68,17.48,17.48,0,0,0,.53-4.4V682.47h7.38V718.8h-7.18l-.07-5.26a11.2,11.2,0,0,1-4.5,4.44,13.56,13.56,0,0,1-6.73,1.68q-6.79,0-10-4.2Q1640.06,711.83,1640.06,704.24Z"/>
      <path class="cls-1" d="M1681.21,718.8V682.54h7.38l-.07,5.74h.2a12,12,0,0,1,4.18-4.53,11,11,0,0,1,6.22-1.86,12.17,12.17,0,0,1,6.81,1.81,10.16,10.16,0,0,1,4,5.33,14,14,0,0,1,4.8-5.3,12.29,12.29,0,0,1,6.71-1.85,14.46,14.46,0,0,1,5,.8,9.53,9.53,0,0,1,3.53,2.17,11.16,11.16,0,0,1,2.23,3.32,16.25,16.25,0,0,1,1.21,4.05,28.63,28.63,0,0,1,.34,4.6v22h-7.25V697.68a23.82,23.82,0,0,0-.14-2.65,15.21,15.21,0,0,0-.55-2.6,7.33,7.33,0,0,0-1.11-2.32,5.43,5.43,0,0,0-1.94-1.57,6.43,6.43,0,0,0-2.95-.63,7.17,7.17,0,0,0-4.79,1.69,9.88,9.88,0,0,0-2.93,4.36,18,18,0,0,0-.94,6V718.8h-7.38V697.68a25.13,25.13,0,0,0-.17-3.08A12.36,12.36,0,0,0,1703,692a7.2,7.2,0,0,0-1.18-2.15,5,5,0,0,0-1.87-1.38,6.61,6.61,0,0,0-2.69-.51,7.24,7.24,0,0,0-4.81,1.69,9.7,9.7,0,0,0-2.93,4.36,18.24,18.24,0,0,0-.92,6V718.8Z"/>
      <path class="cls-1" d="M1755.18,718.8v-4.49l21.19-25.8h-20.13v-5.88h29.46V687l-21.12,25.74h22.18v6Z"/>
      <path class="cls-1" d="M1793,704.24V682.47h7.25v21.42a22.62,22.62,0,0,0,.12,2.46,18,18,0,0,0,.39,2.23,6.22,6.22,0,0,0,.82,2,7.05,7.05,0,0,0,1.35,1.52,5.45,5.45,0,0,0,2,1,10.09,10.09,0,0,0,2.81.36,8.7,8.7,0,0,0,4.11-.94,7.34,7.34,0,0,0,2.83-2.58,12.74,12.74,0,0,0,1.58-3.68,17.48,17.48,0,0,0,.53-4.4V682.47h7.38V718.8H1817l-.07-5.26a11.2,11.2,0,0,1-4.5,4.44,13.56,13.56,0,0,1-6.73,1.68q-6.79,0-10-4.2Q1793,711.83,1793,704.24Z"/>
      <path class="cls-1" d="M1834.16,718.8V682.54h7.38l-.07,5.7h.21a11.68,11.68,0,0,1,2.24-3.5,9,9,0,0,1,3-2.13,9.31,9.31,0,0,1,3.64-.71,12.83,12.83,0,0,1,2.05.15,9.65,9.65,0,0,1,1.37.29l.41.12-.44,6.17h-4.27a6.62,6.62,0,0,0-3.64,1,8.84,8.84,0,0,0-2.34,2.06q-2.19,3.3-2.19,9.13v18Z"/>
      <path class="cls-1" d="M1014.43,785.81a31.53,31.53,0,0,1,0-18.59,24.59,24.59,0,0,1,3.91-7.57,26,26,0,0,1,13.35-9.07,30.8,30.8,0,0,1,17,0,26,26,0,0,1,13.35,9.07,24.6,24.6,0,0,1,3.91,7.57,31.53,31.53,0,0,1,0,18.59,24.73,24.73,0,0,1-3.91,7.58,26.42,26.42,0,0,1-5.9,5.59,25.79,25.79,0,0,1-7.45,3.54,30.73,30.73,0,0,1-17,0,25.79,25.79,0,0,1-7.45-3.54,26.42,26.42,0,0,1-5.9-5.59A24.72,24.72,0,0,1,1014.43,785.81Zm6.15-9.46a23.28,23.28,0,0,0,1.56,8.63,18.34,18.34,0,0,0,4.24,6.54,19.22,19.22,0,0,0,6.24,4,20.74,20.74,0,0,0,15.18,0,19,19,0,0,0,6.22-4,18.47,18.47,0,0,0,4.22-6.54,24.76,24.76,0,0,0,0-17.27,18.5,18.5,0,0,0-4.22-6.52,19,19,0,0,0-6.22-4,20.82,20.82,0,0,0-15.21,0,19,19,0,0,0-6.22,4,18.5,18.5,0,0,0-4.22,6.52A23.24,23.24,0,0,0,1020.59,776.35Z"/>
      <path class="cls-1" d="M1075.14,802.8V766.54h7.38l-.07,5.74h.2a11.88,11.88,0,0,1,4.4-4.61,12.47,12.47,0,0,1,6.65-1.78,16.46,16.46,0,0,1,5.32.79,10.24,10.24,0,0,1,3.74,2.14,10.43,10.43,0,0,1,2.35,3.37,16.34,16.34,0,0,1,1.25,4.24,32.68,32.68,0,0,1,.34,5V802.8h-7.38V782.57a30.75,30.75,0,0,0-.17-3.49,14.94,14.94,0,0,0-.63-2.89,6.17,6.17,0,0,0-1.28-2.31,5.91,5.91,0,0,0-2.18-1.44,8.81,8.81,0,0,0-3.27-.55,9.77,9.77,0,0,0-2.63.34,7.69,7.69,0,0,0-2.17,1,7.61,7.61,0,0,0-1.69,1.52,10.22,10.22,0,0,0-1.28,2,12.37,12.37,0,0,0-.87,2.34,18.08,18.08,0,0,0-.49,2.67,26.15,26.15,0,0,0-.15,2.89V802.8Z"/>
      <path class="cls-1" d="M1116.73,802.8V750.17H1124V802.8Z"/>
      <path class="cls-1" d="M1134.93,757.91a4.29,4.29,0,0,1-1.35-3.25,4.24,4.24,0,0,1,1.35-3.23,4.85,4.85,0,0,1,3.46-1.26,4.75,4.75,0,0,1,3.4,1.26,4.25,4.25,0,0,1,1.34,3.23,4.31,4.31,0,0,1-1.34,3.25,4.71,4.71,0,0,1-3.4,1.28A4.81,4.81,0,0,1,1134.93,757.91Zm-.25,44.89V766.54h7.38V802.8Z"/>
      <path class="cls-1" d="M1152.38,802.8V766.54h7.38l-.07,5.74h.2a11.88,11.88,0,0,1,4.4-4.61,12.47,12.47,0,0,1,6.65-1.78,16.46,16.46,0,0,1,5.32.79,10.24,10.24,0,0,1,3.74,2.14,10.43,10.43,0,0,1,2.35,3.37,16.34,16.34,0,0,1,1.25,4.24,32.68,32.68,0,0,1,.34,5V802.8h-7.38V782.57a30.75,30.75,0,0,0-.17-3.49,14.94,14.94,0,0,0-.63-2.89,6.17,6.17,0,0,0-1.28-2.31,5.91,5.91,0,0,0-2.18-1.44,8.81,8.81,0,0,0-3.27-.55,9.77,9.77,0,0,0-2.63.34,7.69,7.69,0,0,0-2.17,1,7.61,7.61,0,0,0-1.69,1.52,10.22,10.22,0,0,0-1.28,2,12.37,12.37,0,0,0-.87,2.34,18.08,18.08,0,0,0-.49,2.67,26.15,26.15,0,0,0-.15,2.89V802.8Z"/>
      <path class="cls-1" d="M1191.18,784.65a20,20,0,0,1,1.47-7.72,17.4,17.4,0,0,1,4-6,17.76,17.76,0,0,1,5.84-3.74,19,19,0,0,1,7.11-1.33,17.94,17.94,0,0,1,8.92,2.21,15.64,15.64,0,0,1,6.14,6.15,18.11,18.11,0,0,1,2.2,9q0,.62-.05,1.4t-.12,1.3l0,.48h-28.06a11.89,11.89,0,0,0,3.45,8.34,11.43,11.43,0,0,0,8.24,3,19.1,19.1,0,0,0,3.21-.27,16.65,16.65,0,0,0,2.74-.68,24.44,24.44,0,0,0,2.3-.95,16.45,16.45,0,0,0,1.78-.95l1.29-.84.69-.47,3.12,4.15a1.72,1.72,0,0,0-.33.3q-.29.3-.66.61t-1,.79a11.58,11.58,0,0,1-1.36.91q-.76.44-1.72.94a14.64,14.64,0,0,1-2.15.91q-1.18.4-2.51.72a26.14,26.14,0,0,1-3,.51,29.39,29.39,0,0,1-3.4.19,18.9,18.9,0,0,1-9.45-2.32,16.07,16.07,0,0,1-6.41-6.67A21.14,21.14,0,0,1,1191.18,784.65Zm7.45-3.11h21.16a10,10,0,0,0-.38-2.67,11.72,11.72,0,0,0-3.23-5.26,9.11,9.11,0,0,0-3-1.78,10.78,10.78,0,0,0-3.9-.68,11.18,11.18,0,0,0-3.86.65,9,9,0,0,0-3,1.73,12,12,0,0,0-3.37,5.25A11.41,11.41,0,0,0,1198.63,781.54Z"/>
      <path class="cls-1" d="M1230.82,785v-6.19h18.46V785Z"/>
      <path class="cls-1" d="M1257,802.8V750.17h30.8v6.19h-23.41v15.72h22.11v6.19h-22.11v18.35h24v6.19Z"/>
      <path class="cls-1" d="M1293.54,784.65a21.12,21.12,0,0,1,2.13-9.59,16.3,16.3,0,0,1,6.12-6.72,17.15,17.15,0,0,1,9.2-2.46,15.94,15.94,0,0,1,7.46,1.67,14,14,0,0,1,5.2,4.58h.14v-22h7.28V802.8h-7v-5.74h-.14a16,16,0,0,1-3.48,3.65,13.93,13.93,0,0,1-4.31,2.22,16.74,16.74,0,0,1-5,.73,18.42,18.42,0,0,1-5.95-.94,15.68,15.68,0,0,1-4.89-2.65,17,17,0,0,1-3.63-4.07,19,19,0,0,1-2.32-5.25A22.71,22.71,0,0,1,1293.54,784.65Zm7.38-.07a15.68,15.68,0,0,0,.8,5.1,12.66,12.66,0,0,0,2.26,4.09,10,10,0,0,0,3.65,2.71,11.77,11.77,0,0,0,4.86,1,11.17,11.17,0,0,0,6.2-1.7,10.78,10.78,0,0,0,4-4.6,16.65,16.65,0,0,0,0-13.14,10.69,10.69,0,0,0-4-4.57,12.27,12.27,0,0,0-12.41,0,10.66,10.66,0,0,0-4,4.57A15.3,15.3,0,0,0,1300.93,784.59Z"/>
      <path class="cls-1" d="M1342,757.91a4.29,4.29,0,0,1-1.35-3.25,4.24,4.24,0,0,1,1.35-3.23,4.85,4.85,0,0,1,3.46-1.26,4.75,4.75,0,0,1,3.4,1.26,4.25,4.25,0,0,1,1.34,3.23,4.31,4.31,0,0,1-1.34,3.25,4.71,4.71,0,0,1-3.4,1.28A4.81,4.81,0,0,1,1342,757.91Zm-.25,44.89V766.54h7.38V802.8Z"/>
      <path class="cls-1" d="M1355.65,772.52v-5.88h5.26V755.77h7.38v10.87h8.61v5.88h-8.61v16.42q0,2.74.15,4.18a6,6,0,0,0,.77,2.47,3.94,3.94,0,0,0,3.76,1.88,8.06,8.06,0,0,0,1.86-.22,7.81,7.81,0,0,0,1.38-.43l.48-.21.44,5.83-.34.14-.91.29c-.47.15-.94.27-1.42.37s-1.08.2-1.81.29a17.61,17.61,0,0,1-2.15.13q-5.22,0-7.78-3.76a9.69,9.69,0,0,1-1.47-4,48.26,48.26,0,0,1-.36-6.85V772.52Z"/>
      <path class="cls-1" d="M1383.65,757.91a4.29,4.29,0,0,1-1.35-3.25,4.24,4.24,0,0,1,1.35-3.23,4.85,4.85,0,0,1,3.46-1.26,4.75,4.75,0,0,1,3.4,1.26,4.25,4.25,0,0,1,1.34,3.23,4.31,4.31,0,0,1-1.34,3.25,4.71,4.71,0,0,1-3.4,1.28A4.81,4.81,0,0,1,1383.65,757.91Zm-.25,44.89V766.54h7.38V802.8Z"/>
      <path class="cls-1" d="M1398.68,784.83a19.73,19.73,0,0,1,1.49-7.69,17.54,17.54,0,0,1,4.07-6,18.53,18.53,0,0,1,6.12-3.85,20.57,20.57,0,0,1,7.57-1.38,20.28,20.28,0,0,1,7.51,1.38,18.35,18.35,0,0,1,6.07,3.85,17.67,17.67,0,0,1,4,6,20.62,20.62,0,0,1,0,15.36,17.52,17.52,0,0,1-4,6,18.28,18.28,0,0,1-6.07,3.81,20.53,20.53,0,0,1-7.51,1.37,22.38,22.38,0,0,1-4.49-.44,18.66,18.66,0,0,1-4.07-1.32,19.78,19.78,0,0,1-3.55-2.1,16.19,16.19,0,0,1-3-2.84,19.38,19.38,0,0,1-2.24-3.47,17.42,17.42,0,0,1-1.44-4.08A21,21,0,0,1,1398.68,784.83Zm7.38-.24a14.71,14.71,0,0,0,1.42,6.55,11.16,11.16,0,0,0,4.14,4.62,11.55,11.55,0,0,0,6.31,1.72,11.34,11.34,0,0,0,6.22-1.72,11.08,11.08,0,0,0,4.1-4.62,14.87,14.87,0,0,0,1.4-6.55,14.6,14.6,0,0,0-1.4-6.46,11.18,11.18,0,0,0-10.32-6.36,11.47,11.47,0,0,0-6.31,1.74,11.3,11.3,0,0,0-4.14,4.62A14.44,14.44,0,0,0,1406.06,784.59Z"/>
      <path class="cls-1" d="M1444.65,802.8V766.54H1452l-.07,5.74h.2a11.88,11.88,0,0,1,4.4-4.61,12.47,12.47,0,0,1,6.65-1.78,16.46,16.46,0,0,1,5.32.79,10.24,10.24,0,0,1,3.74,2.14,10.43,10.43,0,0,1,2.35,3.37,16.34,16.34,0,0,1,1.25,4.24,32.68,32.68,0,0,1,.34,5V802.8h-7.38V782.57a30.75,30.75,0,0,0-.17-3.49,14.94,14.94,0,0,0-.63-2.89,6.17,6.17,0,0,0-1.28-2.31,5.91,5.91,0,0,0-2.18-1.44,8.81,8.81,0,0,0-3.27-.55,9.77,9.77,0,0,0-2.63.34,7.69,7.69,0,0,0-2.17,1,7.61,7.61,0,0,0-1.69,1.52,10.22,10.22,0,0,0-1.28,2,12.37,12.37,0,0,0-.87,2.34,18.08,18.08,0,0,0-.49,2.67,26.15,26.15,0,0,0-.15,2.89V802.8Z"/>
      <path class="cls-1" d="M1497.6,802.8v-4.49l21.19-25.8h-20.13v-5.88h29.46V771L1507,796.79h22.18v6Z"/>
      <path class="cls-1" d="M1535.43,788.24V766.47h7.25v21.42a22.62,22.62,0,0,0,.12,2.46,18,18,0,0,0,.39,2.23,6.22,6.22,0,0,0,.82,2,7.05,7.05,0,0,0,1.35,1.52,5.45,5.45,0,0,0,2,1,10.09,10.09,0,0,0,2.81.36,8.7,8.7,0,0,0,4.11-.94,7.34,7.34,0,0,0,2.83-2.58,12.74,12.74,0,0,0,1.58-3.68,17.48,17.48,0,0,0,.53-4.4V766.47h7.38V802.8h-7.18l-.07-5.26a11.2,11.2,0,0,1-4.5,4.44,13.56,13.56,0,0,1-6.73,1.68q-6.79,0-10-4.2Q1535.43,795.83,1535.43,788.24Z"/>
      <path class="cls-1" d="M1589.3,784.13a21,21,0,0,1,.92-6.32,16.76,16.76,0,0,1,2.56-5.1,17.45,17.45,0,0,1,3.82-3.73,16,16,0,0,1,4.77-2.33,18.78,18.78,0,0,1,5.38-.77,15.45,15.45,0,0,1,7.67,1.82,13.57,13.57,0,0,1,5,4.6h.24l-.1-5.78h7.25v28.64a38.75,38.75,0,0,1-1,9.54,15.26,15.26,0,0,1-3,6.08,18.07,18.07,0,0,1-2.43,2.5,21,21,0,0,1-3.22,2.17,16.88,16.88,0,0,1-4.6,1.67,27.52,27.52,0,0,1-21.89-4.66l-.2-.14,3.46-5.08a22.85,22.85,0,0,0,12.94,4.6,14.34,14.34,0,0,0,6.13-1.16,10.45,10.45,0,0,0,3.8-2.84,11.28,11.28,0,0,0,2-4,21.54,21.54,0,0,0,.77-6.09v-1.85h-.14a14.63,14.63,0,0,1-5.17,4.72,15.28,15.28,0,0,1-7.5,1.76,18,18,0,0,1-6.66-1.25,17.05,17.05,0,0,1-5.55-3.53,16.29,16.29,0,0,1-3.82-5.77A20.21,20.21,0,0,1,1589.3,784.13Zm8.7-6.24a15.47,15.47,0,0,0,0,12.49,10.38,10.38,0,0,0,4,4.43,11.62,11.62,0,0,0,6.26,1.66,11.49,11.49,0,0,0,6.3-1.68,10.5,10.5,0,0,0,3.94-4.42,14.34,14.34,0,0,0,1.3-6.23,14.74,14.74,0,0,0-1.28-6.26,10.27,10.27,0,0,0-4-4.45,12.6,12.6,0,0,0-12.56,0A10.5,10.5,0,0,0,1598,777.89Z"/>
      <path class="cls-1" d="M1634.52,784.65a20,20,0,0,1,1.47-7.72,17.39,17.39,0,0,1,4-6,17.76,17.76,0,0,1,5.84-3.74,19,19,0,0,1,7.11-1.33,17.93,17.93,0,0,1,8.92,2.21,15.64,15.64,0,0,1,6.14,6.15,18.11,18.11,0,0,1,2.2,9q0,.62-.05,1.4t-.12,1.3l0,.48H1641.9a11.89,11.89,0,0,0,3.45,8.34,11.43,11.43,0,0,0,8.24,3,19.09,19.09,0,0,0,3.21-.27,16.65,16.65,0,0,0,2.74-.68,24.39,24.39,0,0,0,2.3-.95,16.47,16.47,0,0,0,1.78-.95l1.29-.84.69-.47,3.12,4.15a1.73,1.73,0,0,0-.33.3q-.29.3-.66.61t-1,.79a11.63,11.63,0,0,1-1.36.91q-.75.44-1.72.94a14.62,14.62,0,0,1-2.15.91q-1.18.4-2.51.72a26.13,26.13,0,0,1-3,.51,29.4,29.4,0,0,1-3.4.19,18.91,18.91,0,0,1-9.45-2.32,16.07,16.07,0,0,1-6.41-6.67A21.14,21.14,0,0,1,1634.52,784.65Zm7.45-3.11h21.16a10.07,10.07,0,0,0-.38-2.67,11.72,11.72,0,0,0-3.23-5.26,9.1,9.1,0,0,0-3-1.78,10.79,10.79,0,0,0-3.9-.68,11.18,11.18,0,0,0-3.86.65,9,9,0,0,0-3,1.73,12,12,0,0,0-3.37,5.25A11.39,11.39,0,0,0,1642,781.54Z"/>
      <path class="cls-1" d="M1677.66,802.8V750.17h7.25V802.8Z"/>
      <path class="cls-1" d="M1692.28,792.41a9.7,9.7,0,0,1,1.81-5.91,10.92,10.92,0,0,1,5-3.69,23.43,23.43,0,0,1,7.42-1.44l9.67-.39v-1.37a7.13,7.13,0,0,0-2.44-5.83,9.9,9.9,0,0,0-6.51-2,19.48,19.48,0,0,0-4.92.66,25.55,25.55,0,0,0-3.78,1.22q-1.25.56-2.24,1.12l-2.22-5.07a26.21,26.21,0,0,1,13.6-3.82,26,26,0,0,1,4,.29,16.82,16.82,0,0,1,3.28.84,12.82,12.82,0,0,1,2.56,1.28,13.37,13.37,0,0,1,2.07,1.69,12.76,12.76,0,0,1,2.94,4.68,21.45,21.45,0,0,1,1,7.08V802.8h-7.11l-.07-4.58-.17.17q-.72.75-1.2,1.21a18.64,18.64,0,0,1-1.62,1.32,13.85,13.85,0,0,1-2.24,1.38,14,14,0,0,1-2.79.94,14.82,14.82,0,0,1-3.5.41,14.45,14.45,0,0,1-4.79-.79,12.86,12.86,0,0,1-4-2.21,10.1,10.1,0,0,1-2.73-3.55A10.87,10.87,0,0,1,1692.28,792.41Zm7.25-.24a5.91,5.91,0,0,0,.85,3.14,6.07,6.07,0,0,0,2.58,2.26,9,9,0,0,0,4.05.85,10.09,10.09,0,0,0,3.21-.51,9.68,9.68,0,0,0,2.68-1.35,14.61,14.61,0,0,0,1.93-1.66,14,14,0,0,0,1.4-1.71v-7.79l-8.48.51q-4.2.21-6.22,1.88A5.42,5.42,0,0,0,1699.53,792.17Z"/>
      <path class="cls-1" d="M1732.82,802.8V766.54h7.38l-.07,5.74h.2a11.88,11.88,0,0,1,4.4-4.61,12.47,12.47,0,0,1,6.65-1.78,16.46,16.46,0,0,1,5.32.79,10.25,10.25,0,0,1,3.74,2.14,10.45,10.45,0,0,1,2.35,3.37,16.32,16.32,0,0,1,1.25,4.24,32.67,32.67,0,0,1,.34,5V802.8H1757V782.57a30.86,30.86,0,0,0-.17-3.49,15,15,0,0,0-.63-2.89,6.17,6.17,0,0,0-1.28-2.31,5.91,5.91,0,0,0-2.18-1.44,8.81,8.81,0,0,0-3.27-.55,9.77,9.77,0,0,0-2.63.34,7.7,7.7,0,0,0-2.17,1,7.61,7.61,0,0,0-1.69,1.52,10.19,10.19,0,0,0-1.28,2,12.34,12.34,0,0,0-.87,2.34,18.08,18.08,0,0,0-.49,2.67,26.15,26.15,0,0,0-.15,2.89V802.8Z"/>
      <path class="cls-1" d="M1771.62,784.13a21,21,0,0,1,.92-6.32,16.76,16.76,0,0,1,2.56-5.1,17.45,17.45,0,0,1,3.82-3.73,16,16,0,0,1,4.77-2.33,18.78,18.78,0,0,1,5.38-.77,15.45,15.45,0,0,1,7.67,1.82,13.57,13.57,0,0,1,5,4.6h.24l-.1-5.78h7.25v28.64a38.75,38.75,0,0,1-1,9.54,15.26,15.26,0,0,1-3,6.08,18.07,18.07,0,0,1-2.43,2.5,21,21,0,0,1-3.22,2.17,16.88,16.88,0,0,1-4.6,1.67,27.52,27.52,0,0,1-21.89-4.66l-.2-.14,3.46-5.08a22.85,22.85,0,0,0,12.94,4.6,14.34,14.34,0,0,0,6.13-1.16,10.45,10.45,0,0,0,3.8-2.84,11.28,11.28,0,0,0,2-4,21.54,21.54,0,0,0,.77-6.09v-1.85h-.14a14.63,14.63,0,0,1-5.17,4.72,15.28,15.28,0,0,1-7.5,1.76,18,18,0,0,1-6.66-1.25,17.05,17.05,0,0,1-5.55-3.53,16.29,16.29,0,0,1-3.82-5.77A20.21,20.21,0,0,1,1771.62,784.13Zm8.7-6.24a15.47,15.47,0,0,0,0,12.49,10.38,10.38,0,0,0,4,4.43,11.62,11.62,0,0,0,6.26,1.66,11.49,11.49,0,0,0,6.3-1.68,10.5,10.5,0,0,0,3.94-4.42,14.34,14.34,0,0,0,1.3-6.23,14.74,14.74,0,0,0-1.28-6.26,10.27,10.27,0,0,0-4-4.45,12.6,12.6,0,0,0-12.56,0A10.5,10.5,0,0,0,1780.32,777.89Z"/>
      <path class="cls-1" d="M1816.84,784.65a20,20,0,0,1,1.47-7.72,17.39,17.39,0,0,1,4-6,17.76,17.76,0,0,1,5.84-3.74,19,19,0,0,1,7.11-1.33,17.94,17.94,0,0,1,8.92,2.21,15.64,15.64,0,0,1,6.14,6.15,18.1,18.1,0,0,1,2.2,9q0,.62-.05,1.4t-.12,1.3l0,.48h-28.06a11.89,11.89,0,0,0,3.45,8.34,11.43,11.43,0,0,0,8.24,3,19.09,19.09,0,0,0,3.21-.27,16.66,16.66,0,0,0,2.74-.68,24.61,24.61,0,0,0,2.3-.95,16.53,16.53,0,0,0,1.78-.95l1.29-.84.69-.47,3.12,4.15a1.71,1.71,0,0,0-.33.3q-.3.3-.66.61t-1,.79a11.61,11.61,0,0,1-1.36.91q-.76.44-1.72.94a14.65,14.65,0,0,1-2.15.91q-1.19.4-2.51.72a26.19,26.19,0,0,1-3,.51,29.4,29.4,0,0,1-3.4.19,18.9,18.9,0,0,1-9.45-2.32,16.06,16.06,0,0,1-6.41-6.67A21.14,21.14,0,0,1,1816.84,784.65Zm7.45-3.11h21.16a10.07,10.07,0,0,0-.38-2.67,11.7,11.7,0,0,0-3.23-5.26,9.09,9.09,0,0,0-3-1.78,10.79,10.79,0,0,0-3.9-.68,11.18,11.18,0,0,0-3.86.65,9,9,0,0,0-3,1.73,12,12,0,0,0-3.37,5.25A11.34,11.34,0,0,0,1824.29,781.54Z"/>
      <path class="cls-1" d="M1859.59,802.8V766.54H1867l-.07,5.74h.2a11.88,11.88,0,0,1,4.4-4.61,12.47,12.47,0,0,1,6.65-1.78,16.47,16.47,0,0,1,5.32.79,10.24,10.24,0,0,1,3.74,2.14,10.43,10.43,0,0,1,2.35,3.37,16.32,16.32,0,0,1,1.25,4.24,32.67,32.67,0,0,1,.34,5V802.8h-7.38V782.57a30.86,30.86,0,0,0-.17-3.49,14.91,14.91,0,0,0-.63-2.89,6.16,6.16,0,0,0-1.28-2.31,5.91,5.91,0,0,0-2.18-1.44,8.8,8.8,0,0,0-3.27-.55,9.77,9.77,0,0,0-2.63.34,7.68,7.68,0,0,0-2.17,1,7.59,7.59,0,0,0-1.69,1.52,10.24,10.24,0,0,0-1.28,2,12.34,12.34,0,0,0-.87,2.34,18.08,18.08,0,0,0-.49,2.67,26.15,26.15,0,0,0-.15,2.89V802.8Z"/>
    </g>
  </g>
</svg>
