<svg id="Layer_1" data-name="Layer 1" xmlns="http://www.w3.org/2000/svg" width="830.07mm" height="502.53mm" viewBox="0 0 2352.96 1424.5">
  <defs>
    <style>
      .cls-1 {
        fill: #fff;
      }
    </style>
  </defs>
  <title>onlineedition_qrcode</title>
  <rect class="cls-1" y="269.5" width="1155" height="1155"/>
  <rect class="cls-1" x="1617.96" width="35" height="35"/>
  <rect class="cls-1" x="1687.96" width="35" height="35"/>
  <rect class="cls-1" x="1722.96" width="35" height="35"/>
  <rect class="cls-1" x="1757.96" width="35" height="35"/>
  <rect class="cls-1" x="1862.96" width="35" height="35"/>
  <rect class="cls-1" x="1897.96" width="35" height="35"/>
  <rect class="cls-1" x="1967.96" width="35" height="35"/>
  <rect class="cls-1" x="2037.96" width="35" height="35"/>
  <rect class="cls-1" x="1617.96" y="35" width="35" height="35"/>
  <rect class="cls-1" x="1652.96" y="35" width="35" height="35"/>
  <rect class="cls-1" x="1687.96" y="35" width="35" height="35"/>
  <rect class="cls-1" x="1722.96" y="35" width="35" height="35"/>
  <rect class="cls-1" x="1757.96" y="35" width="35" height="35"/>
  <rect class="cls-1" x="1897.96" y="35" width="35" height="35"/>
  <rect class="cls-1" x="2002.96" y="35" width="35" height="35"/>
  <rect class="cls-1" x="1617.96" y="70" width="35" height="35"/>
  <rect class="cls-1" x="1652.96" y="70" width="35" height="35"/>
  <rect class="cls-1" x="1687.96" y="70" width="35" height="35"/>
  <rect class="cls-1" x="1757.96" y="70" width="35" height="35"/>
  <rect class="cls-1" x="1862.96" y="70" width="35" height="35"/>
  <rect class="cls-1" x="1897.96" y="70" width="35" height="35"/>
  <rect class="cls-1" x="1687.96" y="105" width="35" height="35"/>
  <rect class="cls-1" x="1897.96" y="105" width="35" height="35"/>
  <rect class="cls-1" x="1932.96" y="105" width="35" height="35"/>
  <rect class="cls-1" x="1617.96" y="140" width="35" height="35"/>
  <rect class="cls-1" x="1827.96" y="140" width="35" height="35"/>
  <rect class="cls-1" x="1862.96" y="140" width="35" height="35"/>
  <rect class="cls-1" x="1897.96" y="140" width="35" height="35"/>
  <rect class="cls-1" x="1932.96" y="140" width="35" height="35"/>
  <rect class="cls-1" x="1967.96" y="140" width="35" height="35"/>
  <rect class="cls-1" x="2002.96" y="140" width="35" height="35"/>
  <rect class="cls-1" x="1652.96" y="175" width="35" height="35"/>
  <rect class="cls-1" x="1757.96" y="175" width="35" height="35"/>
  <rect class="cls-1" x="1862.96" y="175" width="35" height="35"/>
  <rect class="cls-1" x="1897.96" y="175" width="35" height="35"/>
  <rect class="cls-1" x="1967.96" y="175" width="35" height="35"/>
  <rect class="cls-1" x="1617.96" y="210" width="35" height="35"/>
  <rect class="cls-1" x="1687.96" y="210" width="35" height="35"/>
  <rect class="cls-1" x="1757.96" y="210" width="35" height="35"/>
  <rect class="cls-1" x="1827.96" y="210" width="35" height="35"/>
  <rect class="cls-1" x="1897.96" y="210" width="35" height="35"/>
  <rect class="cls-1" x="1967.96" y="210" width="35" height="35"/>
  <rect class="cls-1" x="2037.96" y="210" width="35" height="35"/>
  <rect class="cls-1" x="1652.96" y="245" width="35" height="35"/>
  <rect class="cls-1" x="1722.96" y="245" width="35" height="35"/>
  <rect class="cls-1" x="1792.96" y="245" width="35" height="35"/>
  <rect class="cls-1" x="1862.96" y="245" width="35" height="35"/>
  <rect class="cls-1" x="1897.96" y="245" width="35" height="35"/>
  <rect class="cls-1" x="1967.96" y="245" width="35" height="35"/>
  <rect class="cls-1" x="2002.96" y="245" width="35" height="35"/>
  <rect class="cls-1" x="1337.96" y="280" width="35" height="35"/>
  <rect class="cls-1" x="1442.96" y="280" width="35" height="35"/>
  <rect class="cls-1" x="1477.96" y="280" width="35" height="35"/>
  <rect class="cls-1" x="1512.96" y="280" width="35" height="35"/>
  <rect class="cls-1" x="1547.96" y="280" width="35" height="35"/>
  <rect class="cls-1" x="1582.96" y="280" width="35" height="35"/>
  <rect class="cls-1" x="1617.96" y="280" width="35" height="35"/>
  <rect class="cls-1" x="1652.96" y="280" width="35" height="35"/>
  <rect class="cls-1" x="1687.96" y="280" width="35" height="35"/>
  <rect class="cls-1" x="1722.96" y="280" width="35" height="35"/>
  <rect class="cls-1" x="1792.96" y="280" width="35" height="35"/>
  <rect class="cls-1" x="1932.96" y="280" width="35" height="35"/>
  <rect class="cls-1" x="2072.96" y="280" width="35" height="35"/>
  <rect class="cls-1" x="2177.96" y="280" width="35" height="35"/>
  <rect class="cls-1" x="2247.96" y="280" width="35" height="35"/>
  <rect class="cls-1" x="2282.96" y="280" width="35" height="35"/>
  <rect class="cls-1" x="2317.96" y="280" width="35" height="35"/>
  <rect class="cls-1" x="1337.96" y="315" width="35" height="35"/>
  <rect class="cls-1" x="1372.96" y="315" width="35" height="35"/>
  <rect class="cls-1" x="1477.96" y="315" width="35" height="35"/>
  <rect class="cls-1" x="1512.96" y="315" width="35" height="35"/>
  <rect class="cls-1" x="1582.96" y="315" width="35" height="35"/>
  <rect class="cls-1" x="1617.96" y="315" width="35" height="35"/>
  <rect class="cls-1" x="1652.96" y="315" width="35" height="35"/>
  <rect class="cls-1" x="1687.96" y="315" width="35" height="35"/>
  <rect class="cls-1" x="1722.96" y="315" width="35" height="35"/>
  <rect class="cls-1" x="1757.96" y="315" width="35" height="35"/>
  <rect class="cls-1" x="1792.96" y="315" width="35" height="35"/>
  <rect class="cls-1" x="1897.96" y="315" width="35" height="35"/>
  <rect class="cls-1" x="2002.96" y="315" width="35" height="35"/>
  <rect class="cls-1" x="2142.96" y="315" width="35" height="35"/>
  <rect class="cls-1" x="2177.96" y="315" width="35" height="35"/>
  <rect class="cls-1" x="2247.96" y="315" width="35" height="35"/>
  <rect class="cls-1" x="2282.96" y="315" width="35" height="35"/>
  <rect class="cls-1" x="1407.96" y="350" width="35" height="35"/>
  <rect class="cls-1" x="1477.96" y="350" width="35" height="35"/>
  <rect class="cls-1" x="1547.96" y="350" width="35" height="35"/>
  <rect class="cls-1" x="1617.96" y="350" width="35" height="35"/>
  <rect class="cls-1" x="1792.96" y="350" width="35" height="35"/>
  <rect class="cls-1" x="1862.96" y="350" width="35" height="35"/>
  <rect class="cls-1" x="1897.96" y="350" width="35" height="35"/>
  <rect class="cls-1" x="1967.96" y="350" width="35" height="35"/>
  <rect class="cls-1" x="2107.96" y="350" width="35" height="35"/>
  <rect class="cls-1" x="2177.96" y="350" width="35" height="35"/>
  <rect class="cls-1" x="2247.96" y="350" width="35" height="35"/>
  <rect class="cls-1" x="1337.96" y="385" width="35" height="35"/>
  <rect class="cls-1" x="1372.96" y="385" width="35" height="35"/>
  <rect class="cls-1" x="1442.96" y="385" width="35" height="35"/>
  <rect class="cls-1" x="1617.96" y="385" width="35" height="35"/>
  <rect class="cls-1" x="1652.96" y="385" width="35" height="35"/>
  <rect class="cls-1" x="1757.96" y="385" width="35" height="35"/>
  <rect class="cls-1" x="1792.96" y="385" width="35" height="35"/>
  <rect class="cls-1" x="1897.96" y="385" width="35" height="35"/>
  <rect class="cls-1" x="1932.96" y="385" width="35" height="35"/>
  <rect class="cls-1" x="1967.96" y="385" width="35" height="35"/>
  <rect class="cls-1" x="2037.96" y="385" width="35" height="35"/>
  <rect class="cls-1" x="2107.96" y="385" width="35" height="35"/>
  <rect class="cls-1" x="2142.96" y="385" width="35" height="35"/>
  <rect class="cls-1" x="2212.96" y="385" width="35" height="35"/>
  <rect class="cls-1" x="2317.96" y="385" width="35" height="35"/>
  <rect class="cls-1" x="1407.96" y="420" width="35" height="35"/>
  <rect class="cls-1" x="1442.96" y="420" width="35" height="35"/>
  <rect class="cls-1" x="1477.96" y="420" width="35" height="35"/>
  <rect class="cls-1" x="1547.96" y="420" width="35" height="35"/>
  <rect class="cls-1" x="1652.96" y="420" width="35" height="35"/>
  <rect class="cls-1" x="1792.96" y="420" width="35" height="35"/>
  <rect class="cls-1" x="1862.96" y="420" width="35" height="35"/>
  <rect class="cls-1" x="1897.96" y="420" width="35" height="35"/>
  <rect class="cls-1" x="2002.96" y="420" width="35" height="35"/>
  <rect class="cls-1" x="2037.96" y="420" width="35" height="35"/>
  <rect class="cls-1" x="2107.96" y="420" width="35" height="35"/>
  <rect class="cls-1" x="2142.96" y="420" width="35" height="35"/>
  <rect class="cls-1" x="2317.96" y="420" width="35" height="35"/>
  <rect class="cls-1" x="1337.96" y="455" width="35" height="35"/>
  <rect class="cls-1" x="1372.96" y="455" width="35" height="35"/>
  <rect class="cls-1" x="1407.96" y="455" width="35" height="35"/>
  <rect class="cls-1" x="1477.96" y="455" width="35" height="35"/>
  <rect class="cls-1" x="1582.96" y="455" width="35" height="35"/>
  <rect class="cls-1" x="1722.96" y="455" width="35" height="35"/>
  <rect class="cls-1" x="1757.96" y="455" width="35" height="35"/>
  <rect class="cls-1" x="1792.96" y="455" width="35" height="35"/>
  <rect class="cls-1" x="1827.96" y="455" width="35" height="35"/>
  <rect class="cls-1" x="1897.96" y="455" width="35" height="35"/>
  <rect class="cls-1" x="1932.96" y="455" width="35" height="35"/>
  <rect class="cls-1" x="1967.96" y="455" width="35" height="35"/>
  <rect class="cls-1" x="2107.96" y="455" width="35" height="35"/>
  <rect class="cls-1" x="2142.96" y="455" width="35" height="35"/>
  <rect class="cls-1" x="2177.96" y="455" width="35" height="35"/>
  <rect class="cls-1" x="2212.96" y="455" width="35" height="35"/>
  <rect class="cls-1" x="2247.96" y="455" width="35" height="35"/>
  <rect class="cls-1" x="2282.96" y="455" width="35" height="35"/>
  <rect class="cls-1" x="2317.96" y="455" width="35" height="35"/>
  <rect class="cls-1" x="1337.96" y="490" width="35" height="35"/>
  <rect class="cls-1" x="1372.96" y="490" width="35" height="35"/>
  <rect class="cls-1" x="1407.96" y="490" width="35" height="35"/>
  <rect class="cls-1" x="1477.96" y="490" width="35" height="35"/>
  <rect class="cls-1" x="1547.96" y="490" width="35" height="35"/>
  <rect class="cls-1" x="1617.96" y="490" width="35" height="35"/>
  <rect class="cls-1" x="1722.96" y="490" width="35" height="35"/>
  <rect class="cls-1" x="1792.96" y="490" width="35" height="35"/>
  <rect class="cls-1" x="1897.96" y="490" width="35" height="35"/>
  <rect class="cls-1" x="1967.96" y="490" width="35" height="35"/>
  <rect class="cls-1" x="2002.96" y="490" width="35" height="35"/>
  <rect class="cls-1" x="2037.96" y="490" width="35" height="35"/>
  <rect class="cls-1" x="2072.96" y="490" width="35" height="35"/>
  <rect class="cls-1" x="2142.96" y="490" width="35" height="35"/>
  <rect class="cls-1" x="2177.96" y="490" width="35" height="35"/>
  <rect class="cls-1" x="2247.96" y="490" width="35" height="35"/>
  <rect class="cls-1" x="2317.96" y="490" width="35" height="35"/>
  <rect class="cls-1" x="1337.96" y="525" width="35" height="35"/>
  <rect class="cls-1" x="1372.96" y="525" width="35" height="35"/>
  <rect class="cls-1" x="1407.96" y="525" width="35" height="35"/>
  <rect class="cls-1" x="1512.96" y="525" width="35" height="35"/>
  <rect class="cls-1" x="1582.96" y="525" width="35" height="35"/>
  <rect class="cls-1" x="1862.96" y="525" width="35" height="35"/>
  <rect class="cls-1" x="2002.96" y="525" width="35" height="35"/>
  <rect class="cls-1" x="2072.96" y="525" width="35" height="35"/>
  <rect class="cls-1" x="2107.96" y="525" width="35" height="35"/>
  <rect class="cls-1" x="2142.96" y="525" width="35" height="35"/>
  <rect class="cls-1" x="2247.96" y="525" width="35" height="35"/>
  <rect class="cls-1" x="2317.96" y="525" width="35" height="35"/>
  <rect class="cls-1" x="1407.96" y="560" width="35" height="35"/>
  <rect class="cls-1" x="1512.96" y="560" width="35" height="35"/>
  <rect class="cls-1" x="1547.96" y="560" width="35" height="35"/>
  <rect class="cls-1" x="1582.96" y="560" width="35" height="35"/>
  <rect class="cls-1" x="1617.96" y="560" width="35" height="35"/>
  <rect class="cls-1" x="1652.96" y="560" width="35" height="35"/>
  <rect class="cls-1" x="1687.96" y="560" width="35" height="35"/>
  <rect class="cls-1" x="1722.96" y="560" width="35" height="35"/>
  <rect class="cls-1" x="1827.96" y="560" width="35" height="35"/>
  <rect class="cls-1" x="2037.96" y="560" width="35" height="35"/>
  <rect class="cls-1" x="2142.96" y="560" width="35" height="35"/>
  <rect class="cls-1" x="2212.96" y="560" width="35" height="35"/>
  <rect class="cls-1" x="1337.96" y="595" width="35" height="35"/>
  <rect class="cls-1" x="1442.96" y="595" width="35" height="35"/>
  <rect class="cls-1" x="1477.96" y="595" width="35" height="35"/>
  <rect class="cls-1" x="1512.96" y="595" width="35" height="35"/>
  <rect class="cls-1" x="1582.96" y="595" width="35" height="35"/>
  <rect class="cls-1" x="1757.96" y="595" width="35" height="35"/>
  <rect class="cls-1" x="1792.96" y="595" width="35" height="35"/>
  <rect class="cls-1" x="1827.96" y="595" width="35" height="35"/>
  <rect class="cls-1" x="1897.96" y="595" width="35" height="35"/>
  <rect class="cls-1" x="1932.96" y="595" width="35" height="35"/>
  <rect class="cls-1" x="1967.96" y="595" width="35" height="35"/>
  <rect class="cls-1" x="2002.96" y="595" width="35" height="35"/>
  <rect class="cls-1" x="2037.96" y="595" width="35" height="35"/>
  <rect class="cls-1" x="2177.96" y="595" width="35" height="35"/>
  <rect class="cls-1" x="2247.96" y="595" width="35" height="35"/>
  <rect class="cls-1" x="2282.96" y="595" width="35" height="35"/>
  <rect class="cls-1" x="1337.96" y="630" width="35" height="35"/>
  <rect class="cls-1" x="1372.96" y="630" width="35" height="35"/>
  <rect class="cls-1" x="1407.96" y="630" width="35" height="35"/>
  <rect class="cls-1" x="1547.96" y="630" width="35" height="35"/>
  <rect class="cls-1" x="1617.96" y="630" width="35" height="35"/>
  <rect class="cls-1" x="1652.96" y="630" width="35" height="35"/>
  <rect class="cls-1" x="1687.96" y="630" width="35" height="35"/>
  <rect class="cls-1" x="1862.96" y="630" width="35" height="35"/>
  <rect class="cls-1" x="1932.96" y="630" width="35" height="35"/>
  <rect class="cls-1" x="2002.96" y="630" width="35" height="35"/>
  <rect class="cls-1" x="2037.96" y="630" width="35" height="35"/>
  <rect class="cls-1" x="2107.96" y="630" width="35" height="35"/>
  <rect class="cls-1" x="2177.96" y="630" width="35" height="35"/>
  <rect class="cls-1" x="2212.96" y="630" width="35" height="35"/>
  <rect class="cls-1" x="2317.96" y="630" width="35" height="35"/>
  <rect class="cls-1" x="1337.96" y="665" width="35" height="35"/>
  <rect class="cls-1" x="1372.96" y="665" width="35" height="35"/>
  <rect class="cls-1" x="1477.96" y="665" width="35" height="35"/>
  <rect class="cls-1" x="1512.96" y="665" width="35" height="35"/>
  <rect class="cls-1" x="1652.96" y="665" width="35" height="35"/>
  <rect class="cls-1" x="1722.96" y="665" width="35" height="35"/>
  <rect class="cls-1" x="1757.96" y="665" width="35" height="35"/>
  <rect class="cls-1" x="1827.96" y="665" width="35" height="35"/>
  <rect class="cls-1" x="1897.96" y="665" width="35" height="35"/>
  <rect class="cls-1" x="2072.96" y="665" width="35" height="35"/>
  <rect class="cls-1" x="2177.96" y="665" width="35" height="35"/>
  <rect class="cls-1" x="2212.96" y="665" width="35" height="35"/>
  <rect class="cls-1" x="2247.96" y="665" width="35" height="35"/>
  <rect class="cls-1" x="1337.96" y="700" width="35" height="35"/>
  <rect class="cls-1" x="1372.96" y="700" width="35" height="35"/>
  <rect class="cls-1" x="1547.96" y="700" width="35" height="35"/>
  <rect class="cls-1" x="1582.96" y="700" width="35" height="35"/>
  <rect class="cls-1" x="1652.96" y="700" width="35" height="35"/>
  <rect class="cls-1" x="1722.96" y="700" width="35" height="35"/>
  <rect class="cls-1" x="1757.96" y="700" width="35" height="35"/>
  <rect class="cls-1" x="1792.96" y="700" width="35" height="35"/>
  <rect class="cls-1" x="1827.96" y="700" width="35" height="35"/>
  <rect class="cls-1" x="1862.96" y="700" width="35" height="35"/>
  <rect class="cls-1" x="1897.96" y="700" width="35" height="35"/>
  <rect class="cls-1" x="1932.96" y="700" width="35" height="35"/>
  <rect class="cls-1" x="2037.96" y="700" width="35" height="35"/>
  <rect class="cls-1" x="2072.96" y="700" width="35" height="35"/>
  <rect class="cls-1" x="2107.96" y="700" width="35" height="35"/>
  <rect class="cls-1" x="2142.96" y="700" width="35" height="35"/>
  <rect class="cls-1" x="2177.96" y="700" width="35" height="35"/>
  <rect class="cls-1" x="2212.96" y="700" width="35" height="35"/>
  <rect class="cls-1" x="2247.96" y="700" width="35" height="35"/>
  <rect class="cls-1" x="2282.96" y="700" width="35" height="35"/>
  <rect class="cls-1" x="1617.96" y="735" width="35" height="35"/>
  <rect class="cls-1" x="1722.96" y="735" width="35" height="35"/>
  <rect class="cls-1" x="1757.96" y="735" width="35" height="35"/>
  <rect class="cls-1" x="1827.96" y="735" width="35" height="35"/>
  <rect class="cls-1" x="1862.96" y="735" width="35" height="35"/>
  <rect class="cls-1" x="1967.96" y="735" width="35" height="35"/>
  <rect class="cls-1" x="2037.96" y="735" width="35" height="35"/>
  <rect class="cls-1" x="2177.96" y="735" width="35" height="35"/>
  <rect class="cls-1" x="2212.96" y="735" width="35" height="35"/>
  <rect class="cls-1" x="1617.96" y="770" width="35" height="35"/>
  <rect class="cls-1" x="1652.96" y="770" width="35" height="35"/>
  <rect class="cls-1" x="1687.96" y="770" width="35" height="35"/>
  <rect class="cls-1" x="1827.96" y="770" width="35" height="35"/>
  <rect class="cls-1" x="1862.96" y="770" width="35" height="35"/>
  <rect class="cls-1" x="2002.96" y="770" width="35" height="35"/>
  <rect class="cls-1" x="2037.96" y="770" width="35" height="35"/>
  <rect class="cls-1" x="2107.96" y="770" width="35" height="35"/>
  <rect class="cls-1" x="2177.96" y="770" width="35" height="35"/>
  <rect class="cls-1" x="2212.96" y="770" width="35" height="35"/>
  <rect class="cls-1" x="1617.96" y="805" width="35" height="35"/>
  <rect class="cls-1" x="1687.96" y="805" width="35" height="35"/>
  <rect class="cls-1" x="1757.96" y="805" width="35" height="35"/>
  <rect class="cls-1" x="1827.96" y="805" width="35" height="35"/>
  <rect class="cls-1" x="1932.96" y="805" width="35" height="35"/>
  <rect class="cls-1" x="1967.96" y="805" width="35" height="35"/>
  <rect class="cls-1" x="2002.96" y="805" width="35" height="35"/>
  <rect class="cls-1" x="2037.96" y="805" width="35" height="35"/>
  <rect class="cls-1" x="2177.96" y="805" width="35" height="35"/>
  <rect class="cls-1" x="2317.96" y="805" width="35" height="35"/>
  <rect class="cls-1" x="1617.96" y="840" width="35" height="35"/>
  <rect class="cls-1" x="1687.96" y="840" width="35" height="35"/>
  <rect class="cls-1" x="1722.96" y="840" width="35" height="35"/>
  <rect class="cls-1" x="1792.96" y="840" width="35" height="35"/>
  <rect class="cls-1" x="1827.96" y="840" width="35" height="35"/>
  <rect class="cls-1" x="1862.96" y="840" width="35" height="35"/>
  <rect class="cls-1" x="1897.96" y="840" width="35" height="35"/>
  <rect class="cls-1" x="2002.96" y="840" width="35" height="35"/>
  <rect class="cls-1" x="2037.96" y="840" width="35" height="35"/>
  <rect class="cls-1" x="2072.96" y="840" width="35" height="35"/>
  <rect class="cls-1" x="2107.96" y="840" width="35" height="35"/>
  <rect class="cls-1" x="2142.96" y="840" width="35" height="35"/>
  <rect class="cls-1" x="2177.96" y="840" width="35" height="35"/>
  <rect class="cls-1" x="2212.96" y="840" width="35" height="35"/>
  <rect class="cls-1" x="2282.96" y="840" width="35" height="35"/>
  <rect class="cls-1" x="2317.96" y="840" width="35" height="35"/>
  <rect class="cls-1" x="1617.96" y="875" width="35" height="35"/>
  <rect class="cls-1" x="1687.96" y="875" width="35" height="35"/>
  <rect class="cls-1" x="1757.96" y="875" width="35" height="35"/>
  <rect class="cls-1" x="1862.96" y="875" width="35" height="35"/>
  <rect class="cls-1" x="1897.96" y="875" width="35" height="35"/>
  <rect class="cls-1" x="1967.96" y="875" width="35" height="35"/>
  <rect class="cls-1" x="2037.96" y="875" width="35" height="35"/>
  <rect class="cls-1" x="2317.96" y="875" width="35" height="35"/>
  <rect class="cls-1" x="1757.96" y="910" width="35" height="35"/>
  <rect class="cls-1" x="1792.96" y="910" width="35" height="35"/>
  <rect class="cls-1" x="1827.96" y="910" width="35" height="35"/>
  <rect class="cls-1" x="1862.96" y="910" width="35" height="35"/>
  <rect class="cls-1" x="1897.96" y="910" width="35" height="35"/>
  <rect class="cls-1" x="2072.96" y="910" width="35" height="35"/>
  <rect class="cls-1" x="2142.96" y="910" width="35" height="35"/>
  <rect class="cls-1" x="2177.96" y="910" width="35" height="35"/>
  <rect class="cls-1" x="2247.96" y="910" width="35" height="35"/>
  <rect class="cls-1" x="2282.96" y="910" width="35" height="35"/>
  <rect class="cls-1" x="2317.96" y="910" width="35" height="35"/>
  <rect class="cls-1" x="1652.96" y="945" width="35" height="35"/>
  <rect class="cls-1" x="1792.96" y="945" width="35" height="35"/>
  <rect class="cls-1" x="1862.96" y="945" width="35" height="35"/>
  <rect class="cls-1" x="2072.96" y="945" width="35" height="35"/>
  <rect class="cls-1" x="2212.96" y="945" width="35" height="35"/>
  <rect class="cls-1" x="2247.96" y="945" width="35" height="35"/>
  <rect class="cls-1" x="2317.96" y="945" width="35" height="35"/>
  <rect class="cls-1" x="1617.96" y="980" width="35" height="35"/>
  <rect class="cls-1" x="1687.96" y="980" width="35" height="35"/>
  <rect class="cls-1" x="1827.96" y="980" width="35" height="35"/>
  <rect class="cls-1" x="1967.96" y="980" width="35" height="35"/>
  <rect class="cls-1" x="2002.96" y="980" width="35" height="35"/>
  <rect class="cls-1" x="2037.96" y="980" width="35" height="35"/>
  <rect class="cls-1" x="2177.96" y="980" width="35" height="35"/>
  <rect x="1374.71" y="36.75" width="171.5" height="171.5"/>
  <path class="cls-1" d="M2869.34-287H2661.09V-42h245V-287Zm0,208.25h-171.5v-171.5h171.5Z" transform="translate(-1323.13 287)"/>
  <rect x="2144.71" y="36.75" width="171.5" height="171.5"/>
  <path class="cls-1" d="M3639.34-287H3431.09V-42h245V-287Zm0,208.25h-171.5v-171.5h171.5Z" transform="translate(-1323.13 287)"/>
  <rect x="1374.71" y="806.75" width="171.5" height="171.5"/>
  <path class="cls-1" d="M2869.34,483H2661.09V728h245V483Zm0,208.25h-171.5V519.75h171.5Z" transform="translate(-1323.13 287)"/>
  <rect class="cls-1" x="1407.96" y="70" width="105" height="105"/>
  <rect class="cls-1" x="2177.96" y="70" width="105" height="105"/>
  <rect class="cls-1" x="1407.96" y="840" width="105" height="105"/>
</svg>
