<?xml version="1.0" encoding="UTF-8"?>
<svg id="Layer_1" xmlns="http://www.w3.org/2000/svg" version="1.1" viewBox="0 0 3135.9 1155">
  <!-- Generator: Adobe Illustrator 29.6.1, SVG Export Plug-In . SVG Version: 2.1.1 Build 9)  -->
  <defs>
    <style>
      .st0 {
        fill: #fff;
      }
    </style>
  </defs>
  <g>
    <rect class="st0" x="444.5" y="245" width="22.9" height="22.9"/>
    <rect class="st0" x="490.5" y="245" width="22.9" height="22.9"/>
    <rect class="st0" x="513.3" y="245" width="22.9" height="22.9"/>
    <rect class="st0" x="536.3" y="245" width="22.9" height="22.9"/>
    <rect class="st0" x="605.2" y="245" width="22.9" height="22.9"/>
    <rect class="st0" x="628" y="245" width="22.9" height="22.9"/>
    <rect class="st0" x="673.8" y="245" width="22.9" height="22.9"/>
    <rect class="st0" x="719.8" y="245" width="22.9" height="22.9"/>
    <rect class="st0" x="444.5" y="267.9" width="22.9" height="22.9"/>
    <rect class="st0" x="467.5" y="267.9" width="22.9" height="22.9"/>
    <rect class="st0" x="490.5" y="267.9" width="22.9" height="22.9"/>
    <rect class="st0" x="513.3" y="267.9" width="22.9" height="22.9"/>
    <rect class="st0" x="536.3" y="267.9" width="22.9" height="22.9"/>
    <rect class="st0" x="628" y="267.9" width="22.9" height="22.9"/>
    <rect class="st0" x="696.8" y="267.9" width="22.9" height="22.9"/>
    <rect class="st0" x="444.5" y="290.9" width="22.9" height="22.9"/>
    <rect class="st0" x="467.5" y="290.9" width="22.9" height="22.9"/>
    <rect class="st0" x="490.5" y="290.9" width="22.9" height="22.9"/>
    <rect class="st0" x="536.3" y="290.9" width="22.9" height="22.9"/>
    <rect class="st0" x="605.2" y="290.9" width="22.9" height="22.9"/>
    <rect class="st0" x="628" y="290.9" width="22.9" height="22.9"/>
    <rect class="st0" x="490.5" y="313.8" width="22.9" height="22.9"/>
    <rect class="st0" x="628" y="313.8" width="22.9" height="22.9"/>
    <rect class="st0" x="651" y="313.8" width="22.9" height="22.9"/>
    <rect class="st0" x="444.5" y="336.7" width="22.9" height="22.9"/>
    <rect class="st0" x="582.2" y="336.7" width="22.9" height="22.9"/>
    <rect class="st0" x="605.2" y="336.7" width="22.9" height="22.9"/>
    <rect class="st0" x="628" y="336.7" width="22.9" height="22.9"/>
    <rect class="st0" x="651" y="336.7" width="22.9" height="22.9"/>
    <rect class="st0" x="673.8" y="336.7" width="22.9" height="22.9"/>
    <rect class="st0" x="696.8" y="336.7" width="22.9" height="22.9"/>
    <rect class="st0" x="467.5" y="359.7" width="22.9" height="22.9"/>
    <rect class="st0" x="536.3" y="359.7" width="22.9" height="22.9"/>
    <rect class="st0" x="605.2" y="359.7" width="22.9" height="22.9"/>
    <rect class="st0" x="628" y="359.7" width="22.9" height="22.9"/>
    <rect class="st0" x="673.8" y="359.7" width="22.9" height="22.9"/>
    <rect class="st0" x="444.5" y="382.6" width="22.9" height="22.9"/>
    <rect class="st0" x="490.5" y="382.6" width="22.9" height="22.9"/>
    <rect class="st0" x="536.3" y="382.6" width="22.9" height="22.9"/>
    <rect class="st0" x="582.2" y="382.6" width="22.9" height="22.9"/>
    <rect class="st0" x="628" y="382.6" width="22.9" height="22.9"/>
    <rect class="st0" x="673.8" y="382.6" width="22.9" height="22.9"/>
    <rect class="st0" x="719.8" y="382.6" width="22.9" height="22.9"/>
    <rect class="st0" x="467.5" y="405.5" width="22.9" height="22.9"/>
    <rect class="st0" x="513.3" y="405.5" width="22.9" height="22.9"/>
    <rect class="st0" x="559.2" y="405.5" width="22.9" height="22.9"/>
    <rect class="st0" x="605.2" y="405.5" width="22.9" height="22.9"/>
    <rect class="st0" x="628" y="405.5" width="22.9" height="22.9"/>
    <rect class="st0" x="673.8" y="405.5" width="22.9" height="22.9"/>
    <rect class="st0" x="696.8" y="405.5" width="22.9" height="22.9"/>
    <rect class="st0" x="261.1" y="428.4" width="22.9" height="22.9"/>
    <rect class="st0" x="330" y="428.4" width="22.9" height="22.9"/>
    <rect class="st0" x="352.9" y="428.4" width="22.9" height="22.9"/>
    <rect class="st0" x="375.8" y="428.4" width="22.9" height="22.9"/>
    <rect class="st0" x="398.8" y="428.4" width="22.9" height="22.9"/>
    <rect class="st0" x="421.6" y="428.4" width="22.9" height="22.9"/>
    <rect class="st0" x="444.5" y="428.4" width="22.9" height="22.9"/>
    <rect class="st0" x="467.5" y="428.4" width="22.9" height="22.9"/>
    <rect class="st0" x="490.5" y="428.4" width="22.9" height="22.9"/>
    <rect class="st0" x="513.3" y="428.4" width="22.9" height="22.9"/>
    <rect class="st0" x="559.2" y="428.4" width="22.9" height="22.9"/>
    <rect class="st0" x="651" y="428.4" width="22.9" height="22.9"/>
    <rect class="st0" x="742.7" y="428.4" width="22.9" height="22.9"/>
    <rect class="st0" x="811.5" y="428.4" width="22.9" height="22.9"/>
    <rect class="st0" x="857.3" y="428.4" width="22.9" height="22.9"/>
    <rect class="st0" x="880.2" y="428.4" width="22.9" height="22.9"/>
    <rect class="st0" x="903.2" y="428.4" width="22.9" height="22.9"/>
    <rect class="st0" x="261.1" y="451.4" width="22.9" height="22.9"/>
    <rect class="st0" x="284" y="451.4" width="22.9" height="22.9"/>
    <rect class="st0" x="352.9" y="451.4" width="22.9" height="22.9"/>
    <rect class="st0" x="375.8" y="451.4" width="22.9" height="22.9"/>
    <rect class="st0" x="421.6" y="451.4" width="22.9" height="22.9"/>
    <rect class="st0" x="444.5" y="451.4" width="22.9" height="22.9"/>
    <rect class="st0" x="467.5" y="451.4" width="22.9" height="22.9"/>
    <rect class="st0" x="490.5" y="451.4" width="22.9" height="22.9"/>
    <rect class="st0" x="513.3" y="451.4" width="22.9" height="22.9"/>
    <rect class="st0" x="536.3" y="451.4" width="22.9" height="22.9"/>
    <rect class="st0" x="559.2" y="451.4" width="22.9" height="22.9"/>
    <rect class="st0" x="628" y="451.4" width="22.9" height="22.9"/>
    <rect class="st0" x="696.8" y="451.4" width="22.9" height="22.9"/>
    <rect class="st0" x="788.5" y="451.4" width="22.9" height="22.9"/>
    <rect class="st0" x="811.5" y="451.4" width="22.9" height="22.9"/>
    <rect class="st0" x="857.3" y="451.4" width="22.9" height="22.9"/>
    <rect class="st0" x="880.2" y="451.4" width="22.9" height="22.9"/>
    <rect class="st0" x="307" y="474.3" width="22.9" height="22.9"/>
    <rect class="st0" x="352.9" y="474.3" width="22.9" height="22.9"/>
    <rect class="st0" x="398.8" y="474.3" width="22.9" height="22.9"/>
    <rect class="st0" x="444.5" y="474.3" width="22.9" height="22.9"/>
    <rect class="st0" x="559.2" y="474.3" width="22.9" height="22.9"/>
    <rect class="st0" x="605.2" y="474.3" width="22.9" height="22.9"/>
    <rect class="st0" x="628" y="474.3" width="22.9" height="22.9"/>
    <rect class="st0" x="673.8" y="474.3" width="22.9" height="22.9"/>
    <rect class="st0" x="765.7" y="474.3" width="22.9" height="22.9"/>
    <rect class="st0" x="811.5" y="474.3" width="22.9" height="22.9"/>
    <rect class="st0" x="857.3" y="474.3" width="22.9" height="22.9"/>
    <rect class="st0" x="261.1" y="497.2" width="22.9" height="22.9"/>
    <rect class="st0" x="284" y="497.2" width="22.9" height="22.9"/>
    <rect class="st0" x="330" y="497.2" width="22.9" height="22.9"/>
    <rect class="st0" x="444.5" y="497.2" width="22.9" height="22.9"/>
    <rect class="st0" x="467.5" y="497.2" width="22.9" height="22.9"/>
    <rect class="st0" x="536.3" y="497.2" width="22.9" height="22.9"/>
    <rect class="st0" x="559.2" y="497.2" width="22.9" height="22.9"/>
    <rect class="st0" x="628" y="497.2" width="22.9" height="22.9"/>
    <rect class="st0" x="651" y="497.2" width="22.9" height="22.9"/>
    <rect class="st0" x="673.8" y="497.2" width="22.9" height="22.9"/>
    <rect class="st0" x="719.8" y="497.2" width="22.9" height="22.9"/>
    <rect class="st0" x="765.7" y="497.2" width="22.9" height="22.9"/>
    <rect class="st0" x="788.5" y="497.2" width="22.9" height="22.9"/>
    <rect class="st0" x="834.5" y="497.2" width="22.9" height="22.9"/>
    <rect class="st0" x="903.2" y="497.2" width="22.9" height="22.9"/>
    <rect class="st0" x="307" y="520.2" width="22.9" height="22.9"/>
    <rect class="st0" x="330" y="520.2" width="22.9" height="22.9"/>
    <rect class="st0" x="352.9" y="520.2" width="22.9" height="22.9"/>
    <rect class="st0" x="398.8" y="520.2" width="22.9" height="22.9"/>
    <rect class="st0" x="467.5" y="520.2" width="22.9" height="22.9"/>
    <rect class="st0" x="559.2" y="520.2" width="22.9" height="22.9"/>
    <rect class="st0" x="605.2" y="520.2" width="22.9" height="22.9"/>
    <rect class="st0" x="628" y="520.2" width="22.9" height="22.9"/>
    <rect class="st0" x="696.8" y="520.2" width="22.9" height="22.9"/>
    <rect class="st0" x="719.8" y="520.2" width="22.9" height="22.9"/>
    <rect class="st0" x="765.7" y="520.2" width="22.9" height="22.9"/>
    <rect class="st0" x="788.5" y="520.2" width="22.9" height="22.9"/>
    <rect class="st0" x="903.2" y="520.2" width="22.9" height="22.9"/>
    <rect class="st0" x="261.1" y="543.1" width="22.9" height="22.9"/>
    <rect class="st0" x="284" y="543.1" width="22.9" height="22.9"/>
    <rect class="st0" x="307" y="543.1" width="22.9" height="22.9"/>
    <rect class="st0" x="352.9" y="543.1" width="22.9" height="22.9"/>
    <rect class="st0" x="421.6" y="543.1" width="22.9" height="22.9"/>
    <rect class="st0" x="513.3" y="543.1" width="22.9" height="22.9"/>
    <rect class="st0" x="536.3" y="543.1" width="22.9" height="22.9"/>
    <rect class="st0" x="559.2" y="543.1" width="22.9" height="22.9"/>
    <rect class="st0" x="582.2" y="543.1" width="22.9" height="22.9"/>
    <rect class="st0" x="628" y="543.1" width="22.9" height="22.9"/>
    <rect class="st0" x="651" y="543.1" width="22.9" height="22.9"/>
    <rect class="st0" x="673.8" y="543.1" width="22.9" height="22.9"/>
    <rect class="st0" x="765.7" y="543.1" width="22.9" height="22.9"/>
    <rect class="st0" x="788.5" y="543.1" width="22.9" height="22.9"/>
    <rect class="st0" x="811.5" y="543.1" width="22.9" height="22.9"/>
    <rect class="st0" x="834.5" y="543.1" width="22.9" height="22.9"/>
    <rect class="st0" x="857.3" y="543.1" width="22.9" height="22.9"/>
    <rect class="st0" x="880.2" y="543.1" width="22.9" height="22.9"/>
    <rect class="st0" x="903.2" y="543.1" width="22.9" height="22.9"/>
    <rect class="st0" x="261.1" y="566" width="22.9" height="22.9"/>
    <rect class="st0" x="284" y="566" width="22.9" height="22.9"/>
    <rect class="st0" x="307" y="566" width="22.9" height="22.9"/>
    <rect class="st0" x="352.9" y="566" width="22.9" height="22.9"/>
    <rect class="st0" x="398.8" y="566" width="22.9" height="22.9"/>
    <rect class="st0" x="444.5" y="566" width="22.9" height="22.9"/>
    <rect class="st0" x="513.3" y="566" width="22.9" height="22.9"/>
    <rect class="st0" x="559.2" y="566" width="22.9" height="22.9"/>
    <rect class="st0" x="628" y="566" width="22.9" height="22.9"/>
    <rect class="st0" x="673.8" y="566" width="22.9" height="22.9"/>
    <rect class="st0" x="696.8" y="566" width="22.9" height="22.9"/>
    <rect class="st0" x="719.8" y="566" width="22.9" height="22.9"/>
    <rect class="st0" x="742.7" y="566" width="22.9" height="22.9"/>
    <rect class="st0" x="788.5" y="566" width="22.9" height="22.9"/>
    <rect class="st0" x="811.5" y="566" width="22.9" height="22.9"/>
    <rect class="st0" x="857.3" y="566" width="22.9" height="22.9"/>
    <rect class="st0" x="903.2" y="566" width="22.9" height="22.9"/>
    <rect class="st0" x="261.1" y="589" width="22.9" height="22.9"/>
    <rect class="st0" x="284" y="589" width="22.9" height="22.9"/>
    <rect class="st0" x="307" y="589" width="22.9" height="22.9"/>
    <rect class="st0" x="375.8" y="589" width="22.9" height="22.9"/>
    <rect class="st0" x="421.6" y="589" width="22.9" height="22.9"/>
    <rect class="st0" x="605.2" y="589" width="22.9" height="22.9"/>
    <rect class="st0" x="696.8" y="589" width="22.9" height="22.9"/>
    <rect class="st0" x="742.7" y="589" width="22.9" height="22.9"/>
    <rect class="st0" x="765.7" y="589" width="22.9" height="22.9"/>
    <rect class="st0" x="788.5" y="589" width="22.9" height="22.9"/>
    <rect class="st0" x="857.3" y="589" width="22.9" height="22.9"/>
    <rect class="st0" x="903.2" y="589" width="22.9" height="22.9"/>
    <rect class="st0" x="307" y="611.9" width="22.9" height="22.9"/>
    <rect class="st0" x="375.8" y="611.9" width="22.9" height="22.9"/>
    <rect class="st0" x="398.8" y="611.9" width="22.9" height="22.9"/>
    <rect class="st0" x="421.6" y="611.9" width="22.9" height="22.9"/>
    <rect class="st0" x="444.5" y="611.9" width="22.9" height="22.9"/>
    <rect class="st0" x="467.5" y="611.9" width="22.9" height="22.9"/>
    <rect class="st0" x="490.5" y="611.9" width="22.9" height="22.9"/>
    <rect class="st0" x="513.3" y="611.9" width="22.9" height="22.9"/>
    <rect class="st0" x="582.2" y="611.9" width="22.9" height="22.9"/>
    <rect class="st0" x="719.8" y="611.9" width="22.9" height="22.9"/>
    <rect class="st0" x="788.5" y="611.9" width="22.9" height="22.9"/>
    <rect class="st0" x="834.5" y="611.9" width="22.9" height="22.9"/>
    <rect class="st0" x="261.1" y="634.8" width="22.9" height="22.9"/>
    <rect class="st0" x="330" y="634.8" width="22.9" height="22.9"/>
    <rect class="st0" x="352.9" y="634.8" width="22.9" height="22.9"/>
    <rect class="st0" x="375.8" y="634.8" width="22.9" height="22.9"/>
    <rect class="st0" x="421.6" y="634.8" width="22.9" height="22.9"/>
    <rect class="st0" x="536.3" y="634.8" width="22.9" height="22.9"/>
    <rect class="st0" x="559.2" y="634.8" width="22.9" height="22.9"/>
    <rect class="st0" x="582.2" y="634.8" width="22.9" height="22.9"/>
    <rect class="st0" x="628" y="634.8" width="22.9" height="22.9"/>
    <rect class="st0" x="651" y="634.8" width="22.9" height="22.9"/>
    <rect class="st0" x="673.8" y="634.8" width="22.9" height="22.9"/>
    <rect class="st0" x="696.8" y="634.8" width="22.9" height="22.9"/>
    <rect class="st0" x="719.8" y="634.8" width="22.9" height="22.9"/>
    <rect class="st0" x="811.5" y="634.8" width="22.9" height="22.9"/>
    <rect class="st0" x="857.3" y="634.8" width="22.9" height="22.9"/>
    <rect class="st0" x="880.2" y="634.8" width="22.9" height="22.9"/>
    <rect class="st0" x="261.1" y="657.8" width="22.9" height="22.9"/>
    <rect class="st0" x="284" y="657.8" width="22.9" height="22.9"/>
    <rect class="st0" x="307" y="657.8" width="22.9" height="22.9"/>
    <rect class="st0" x="398.8" y="657.8" width="22.9" height="22.9"/>
    <rect class="st0" x="444.5" y="657.8" width="22.9" height="22.9"/>
    <rect class="st0" x="467.5" y="657.8" width="22.9" height="22.9"/>
    <rect class="st0" x="490.5" y="657.8" width="22.9" height="22.9"/>
    <rect class="st0" x="605.2" y="657.8" width="22.9" height="22.9"/>
    <rect class="st0" x="651" y="657.8" width="22.9" height="22.9"/>
    <rect class="st0" x="696.8" y="657.8" width="22.9" height="22.9"/>
    <rect class="st0" x="719.8" y="657.8" width="22.9" height="22.9"/>
    <rect class="st0" x="765.7" y="657.8" width="22.9" height="22.9"/>
    <rect class="st0" x="811.5" y="657.8" width="22.9" height="22.9"/>
    <rect class="st0" x="834.5" y="657.8" width="22.9" height="22.9"/>
    <rect class="st0" x="903.2" y="657.8" width="22.9" height="22.9"/>
    <rect class="st0" x="261.1" y="680.7" width="22.9" height="22.9"/>
    <rect class="st0" x="284" y="680.7" width="22.9" height="22.9"/>
    <rect class="st0" x="352.9" y="680.7" width="22.9" height="22.9"/>
    <rect class="st0" x="375.8" y="680.7" width="22.9" height="22.9"/>
    <rect class="st0" x="467.5" y="680.7" width="22.9" height="22.9"/>
    <rect class="st0" x="513.3" y="680.7" width="22.9" height="22.9"/>
    <rect class="st0" x="536.3" y="680.7" width="22.9" height="22.9"/>
    <rect class="st0" x="582.2" y="680.7" width="22.9" height="22.9"/>
    <rect class="st0" x="628" y="680.7" width="22.9" height="22.9"/>
    <rect class="st0" x="742.7" y="680.7" width="22.9" height="22.9"/>
    <rect class="st0" x="811.5" y="680.7" width="22.9" height="22.9"/>
    <rect class="st0" x="834.5" y="680.7" width="22.9" height="22.9"/>
    <rect class="st0" x="857.3" y="680.7" width="22.9" height="22.9"/>
    <rect class="st0" x="261.1" y="703.6" width="22.9" height="22.9"/>
    <rect class="st0" x="284" y="703.6" width="22.9" height="22.9"/>
    <rect class="st0" x="398.8" y="703.6" width="22.9" height="22.9"/>
    <rect class="st0" x="421.6" y="703.6" width="22.9" height="22.9"/>
    <rect class="st0" x="467.5" y="703.6" width="22.9" height="22.9"/>
    <rect class="st0" x="513.3" y="703.6" width="22.9" height="22.9"/>
    <rect class="st0" x="536.3" y="703.6" width="22.9" height="22.9"/>
    <rect class="st0" x="559.2" y="703.6" width="22.9" height="22.9"/>
    <rect class="st0" x="582.2" y="703.6" width="22.9" height="22.9"/>
    <rect class="st0" x="605.2" y="703.6" width="22.9" height="22.9"/>
    <rect class="st0" x="628" y="703.6" width="22.9" height="22.9"/>
    <rect class="st0" x="651" y="703.6" width="22.9" height="22.9"/>
    <rect class="st0" x="719.8" y="703.6" width="22.9" height="22.9"/>
    <rect class="st0" x="742.7" y="703.6" width="22.9" height="22.9"/>
    <rect class="st0" x="765.7" y="703.6" width="22.9" height="22.9"/>
    <rect class="st0" x="788.5" y="703.6" width="22.9" height="22.9"/>
    <rect class="st0" x="811.5" y="703.6" width="22.9" height="22.9"/>
    <rect class="st0" x="834.5" y="703.6" width="22.9" height="22.9"/>
    <rect class="st0" x="857.3" y="703.6" width="22.9" height="22.9"/>
    <rect class="st0" x="880.2" y="703.6" width="22.9" height="22.9"/>
    <rect class="st0" x="444.5" y="726.6" width="22.9" height="22.9"/>
    <rect class="st0" x="513.3" y="726.6" width="22.9" height="22.9"/>
    <rect class="st0" x="536.3" y="726.6" width="22.9" height="22.9"/>
    <rect class="st0" x="582.2" y="726.6" width="22.9" height="22.9"/>
    <rect class="st0" x="605.2" y="726.6" width="22.9" height="22.9"/>
    <rect class="st0" x="673.8" y="726.6" width="22.9" height="22.9"/>
    <rect class="st0" x="719.8" y="726.6" width="22.9" height="22.9"/>
    <rect class="st0" x="811.5" y="726.6" width="22.9" height="22.9"/>
    <rect class="st0" x="834.5" y="726.6" width="22.9" height="22.9"/>
    <rect class="st0" x="444.5" y="749.5" width="22.9" height="22.9"/>
    <rect class="st0" x="467.5" y="749.5" width="22.9" height="22.9"/>
    <rect class="st0" x="490.5" y="749.5" width="22.9" height="22.9"/>
    <rect class="st0" x="582.2" y="749.5" width="22.9" height="22.9"/>
    <rect class="st0" x="605.2" y="749.5" width="22.9" height="22.9"/>
    <rect class="st0" x="696.8" y="749.5" width="22.9" height="22.9"/>
    <rect class="st0" x="719.8" y="749.5" width="22.9" height="22.9"/>
    <rect class="st0" x="765.7" y="749.5" width="22.9" height="22.9"/>
    <rect class="st0" x="811.5" y="749.5" width="22.9" height="22.9"/>
    <rect class="st0" x="834.5" y="749.5" width="22.9" height="22.9"/>
    <rect class="st0" x="444.5" y="772.4" width="22.9" height="22.9"/>
    <rect class="st0" x="490.5" y="772.4" width="22.9" height="22.9"/>
    <rect class="st0" x="536.3" y="772.4" width="22.9" height="22.9"/>
    <rect class="st0" x="582.2" y="772.4" width="22.9" height="22.9"/>
    <rect class="st0" x="651" y="772.4" width="22.9" height="22.9"/>
    <rect class="st0" x="673.8" y="772.4" width="22.9" height="22.9"/>
    <rect class="st0" x="696.8" y="772.4" width="22.9" height="22.9"/>
    <rect class="st0" x="719.8" y="772.4" width="22.9" height="22.9"/>
    <rect class="st0" x="811.5" y="772.4" width="22.9" height="22.9"/>
    <rect class="st0" x="903.2" y="772.4" width="22.9" height="22.9"/>
    <rect class="st0" x="444.5" y="795.3" width="22.9" height="22.9"/>
    <rect class="st0" x="490.5" y="795.3" width="22.9" height="22.9"/>
    <rect class="st0" x="513.3" y="795.3" width="22.9" height="22.9"/>
    <rect class="st0" x="559.2" y="795.3" width="22.9" height="22.9"/>
    <rect class="st0" x="582.2" y="795.3" width="22.9" height="22.9"/>
    <rect class="st0" x="605.2" y="795.3" width="22.9" height="22.9"/>
    <rect class="st0" x="628" y="795.3" width="22.9" height="22.9"/>
    <rect class="st0" x="696.8" y="795.3" width="22.9" height="22.9"/>
    <rect class="st0" x="719.8" y="795.3" width="22.9" height="22.9"/>
    <rect class="st0" x="742.7" y="795.3" width="22.9" height="22.9"/>
    <rect class="st0" x="765.7" y="795.3" width="22.9" height="22.9"/>
    <rect class="st0" x="788.5" y="795.3" width="22.9" height="22.9"/>
    <rect class="st0" x="811.5" y="795.3" width="22.9" height="22.9"/>
    <rect class="st0" x="834.5" y="795.3" width="22.9" height="22.9"/>
    <rect class="st0" x="880.2" y="795.3" width="22.9" height="22.9"/>
    <rect class="st0" x="903.2" y="795.3" width="22.9" height="22.9"/>
    <rect class="st0" x="444.5" y="818.3" width="22.9" height="22.9"/>
    <rect class="st0" x="490.5" y="818.3" width="22.9" height="22.9"/>
    <rect class="st0" x="536.3" y="818.3" width="22.9" height="22.9"/>
    <rect class="st0" x="605.2" y="818.3" width="22.9" height="22.9"/>
    <rect class="st0" x="628" y="818.3" width="22.9" height="22.9"/>
    <rect class="st0" x="673.8" y="818.3" width="22.9" height="22.9"/>
    <rect class="st0" x="719.8" y="818.3" width="22.9" height="22.9"/>
    <rect class="st0" x="903.2" y="818.3" width="22.9" height="22.9"/>
    <rect class="st0" x="536.3" y="841.2" width="22.9" height="22.9"/>
    <rect class="st0" x="559.2" y="841.2" width="22.9" height="22.9"/>
    <rect class="st0" x="582.2" y="841.2" width="22.9" height="22.9"/>
    <rect class="st0" x="605.2" y="841.2" width="22.9" height="22.9"/>
    <rect class="st0" x="628" y="841.2" width="22.9" height="22.9"/>
    <rect class="st0" x="742.7" y="841.2" width="22.9" height="22.9"/>
    <rect class="st0" x="788.5" y="841.2" width="22.9" height="22.9"/>
    <rect class="st0" x="811.5" y="841.2" width="22.9" height="22.9"/>
    <rect class="st0" x="857.3" y="841.2" width="22.9" height="22.9"/>
    <rect class="st0" x="880.2" y="841.2" width="22.9" height="22.9"/>
    <rect class="st0" x="903.2" y="841.2" width="22.9" height="22.9"/>
    <rect class="st0" x="467.5" y="864.1" width="22.9" height="22.9"/>
    <rect class="st0" x="559.2" y="864.1" width="22.9" height="22.9"/>
    <rect class="st0" x="605.2" y="864.1" width="22.9" height="22.9"/>
    <rect class="st0" x="742.7" y="864.1" width="22.9" height="22.9"/>
    <rect class="st0" x="834.5" y="864.1" width="22.9" height="22.9"/>
    <rect class="st0" x="857.3" y="864.1" width="22.9" height="22.9"/>
    <rect class="st0" x="903.2" y="864.1" width="22.9" height="22.9"/>
    <rect class="st0" x="444.5" y="887.1" width="22.9" height="22.9"/>
    <rect class="st0" x="490.5" y="887.1" width="22.9" height="22.9"/>
    <rect class="st0" x="582.2" y="887.1" width="22.9" height="22.9"/>
    <rect class="st0" x="673.8" y="887.1" width="22.9" height="22.9"/>
    <rect class="st0" x="696.8" y="887.1" width="22.9" height="22.9"/>
    <rect class="st0" x="719.8" y="887.1" width="22.9" height="22.9"/>
    <rect class="st0" x="811.5" y="887.1" width="22.9" height="22.9"/>
    <rect x="285.2" y="269.1" width="112.4" height="112.4"/>
    <path class="st0" d="M397.5,245h-136.4v160.6h160.5v-160.6h-24.1ZM397.5,381.4h-112.3v-112.3h112.3v112.3Z"/>
    <rect x="789.7" y="269.1" width="112.4" height="112.4"/>
    <path class="st0" d="M902,245h-136.5v160.6h160.6v-160.6h-24.1ZM902,381.4h-112.4v-112.3h112.4v112.3Z"/>
    <rect x="285.2" y="773.6" width="112.4" height="112.4"/>
    <path class="st0" d="M397.5,749.5h-136.4v160.5h160.5v-160.5h-24.1ZM397.5,885.9h-112.3v-112.3h112.3v112.3Z"/>
    <rect class="st0" x="307" y="290.9" width="68.8" height="68.8"/>
    <rect class="st0" x="811.5" y="290.9" width="68.8" height="68.8"/>
    <rect class="st0" x="307" y="795.3" width="68.8" height="68.8"/>
  </g>
  <path class="st0" d="M1018.5,394.8v-75.2h10.5v75.2h-10.5Z"/>
  <path class="st0" d="M1044.4,394.8v-51.8h10.6v8.2c0,0,.2,0,.2,0,1.5-2.7,3.6-5,6.3-6.6,2.9-1.7,6.2-2.6,9.5-2.5,2.6,0,5.1.3,7.6,1.1,2,.6,3.8,1.7,5.3,3,1.4,1.4,2.6,3,3.4,4.8.9,1.9,1.5,4,1.8,6,.3,2.3.5,4.7.5,7.1v30.6h-10.6v-28.9c0-1.7,0-3.3-.2-5-.2-1.4-.5-2.8-.9-4.1-.4-1.2-1-2.3-1.8-3.3-.9-.9-1.9-1.6-3.1-2-1.5-.6-3.1-.8-4.7-.8-1.3,0-2.5.2-3.8.5-1.1.3-2.1.8-3.1,1.4-.9.6-1.7,1.3-2.4,2.2-.7.9-1.3,1.8-1.8,2.8-.5,1.1-.9,2.2-1.2,3.3-.3,1.3-.6,2.5-.7,3.8-.1,1.4-.2,2.8-.2,4.1v26h-10.6Z"/>
  <path class="st0" d="M1099.8,368.9c0-4.7.9-9.4,3-13.7,1.9-4,5-7.3,8.7-9.6,4-2.4,8.5-3.6,13.1-3.5,3.7,0,7.4.7,10.7,2.4,3,1.5,5.5,3.8,7.4,6.5h.2v-31.4h10.4v75.2h-10v-8.2h-.2c-1.4,2-3.1,3.8-5,5.2-1.9,1.4-3.9,2.5-6.2,3.2-2.3.7-4.7,1-7.1,1-2.9,0-5.8-.4-8.5-1.3-2.5-.8-4.9-2.1-7-3.8-2-1.6-3.8-3.6-5.2-5.8-1.5-2.3-2.6-4.8-3.3-7.5-.8-2.8-1.1-5.8-1.1-8.7ZM1110.4,368.8c0,2.5.4,4.9,1.2,7.3.7,2.1,1.8,4.1,3.2,5.8,1.4,1.7,3.2,3,5.2,3.9,2.2,1,4.6,1.4,6.9,1.4,3.1,0,6.2-.8,8.8-2.4,2.5-1.6,4.5-3.9,5.7-6.6,2.6-6,2.6-12.8,0-18.8-1.2-2.7-3.2-4.9-5.7-6.5-5.5-3.2-12.3-3.2-17.7,0-2.5,1.6-4.5,3.8-5.7,6.5-1.3,2.9-2,6.1-1.9,9.4Z"/>
  <path class="st0" d="M1167.9,374v-31.1h10.3v30.6c0,1.2,0,2.3.2,3.5.1,1.1.3,2.1.6,3.2.2,1,.6,2,1.2,2.8.5.8,1.2,1.5,1.9,2.2.9.7,1.8,1.2,2.9,1.5,1.3.4,2.6.5,4,.5,2,0,4.1-.4,5.9-1.3,1.6-.9,3-2.1,4-3.7,1-1.6,1.8-3.4,2.2-5.3.5-2.1.8-4.2.8-6.3v-27.7h10.6v51.9h-10.2v-7.5c-1.6,2.7-3.8,4.9-6.5,6.3-2.9,1.6-6.2,2.4-9.6,2.4-6.5,0-11.2-2-14.3-6-2.5-3.4-3.8-8.8-3.8-16Z"/>
  <path class="st0" d="M1221.7,386.3l5-5.9c3.9,4.4,9.4,7,15.3,7.2,1.2,0,2.4-.1,3.6-.4,1.1-.2,2.2-.6,3.2-1.2,1-.5,1.8-1.3,2.3-2.2.6-1,.9-2.2.8-3.4,0-.7-.1-1.4-.4-2.1-.3-.7-.7-1.3-1.3-1.7-.5-.5-1.1-.9-1.7-1.4-.7-.4-1.4-.8-2.2-1.1-.9-.3-1.6-.6-2.2-.8-.6-.2-1.3-.4-2.2-.7-.6-.2-1.2-.4-1.7-.6-.7-.2-1.4-.4-2.2-.7l-1.8-.6c-.4-.1-.9-.3-1.4-.5-.6-.2-1.1-.5-1.7-.8-5.5-2.7-8.2-6.7-8.2-12.1,0-2.3.5-4.5,1.4-6.6.9-1.9,2.2-3.5,3.9-4.8,1.7-1.3,3.6-2.3,5.6-2.9,2.1-.7,4.4-1,6.6-1,7.6,0,13.5,2.5,17.7,7.4l-4.4,6.4c-1.1-1.1-2.3-2-3.6-2.7-1.4-.8-3-1.5-4.6-1.9-1.6-.5-3.3-.7-4.9-.7-2.1-.1-4.2.4-6.1,1.6-1.5,1.1-2.3,2.8-2.2,4.7,0,.8.2,1.5.6,2.2.4.7.9,1.2,1.4,1.7.7.6,1.5,1.1,2.3,1.4.9.4,1.8.8,2.7,1.1l3,1c2.9.9,5.2,1.8,7,2.4,2.2.8,4.3,2,6,3.6,2.7,2.3,4.2,5.7,4.2,9.3.2,4.6-1.8,9-5.4,11.9-3.8,3.1-8.6,4.6-14.4,4.6-4,0-8-.8-11.6-2.6-3.4-1.7-6.3-4.1-8.6-7.1Z"/>
  <path class="st0" d="M1266.3,351.5v-8.4h7.5v-15.5h10.6v15.5h12.3v8.4h-12.3v23.5c0,2.6,0,4.6.2,6,.1,1.2.5,2.4,1.1,3.5,1,1.8,2.8,2.7,5.4,2.7.9,0,1.8-.1,2.7-.3.7-.1,1.4-.3,2-.6l.7-.3.6,8.3c-.2,0-.3.1-.5.2l-1.3.4c-.7.2-1.3.4-2,.5-.7.1-1.5.3-2.6.4-1,.1-2.1.2-3.1.2-5,0-8.7-1.8-11.1-5.4-1.1-1.7-1.8-3.7-2.1-5.7-.4-3.2-.6-6.5-.5-9.8v-23.6h-7.6Z"/>
  <path class="st0" d="M1305.6,394.8v-51.8h10.6v8.1c0,0,.2,0,.2,0,.8-1.8,1.8-3.5,3.2-5,1.2-1.3,2.7-2.3,4.3-3,1.6-.7,3.4-1,5.2-1,1,0,2,0,2.9.2.7,0,1.3.2,2,.4l.6.2-.6,8.8h-6.1c-1.8,0-3.6.4-5.2,1.4-1.3.8-2.4,1.8-3.3,2.9-2.1,3.1-3.1,7.5-3.1,13v25.7h-10.6Z"/>
  <path class="st0" d="M1342.8,330.7c-1.3-1.2-2-2.9-1.9-4.6,0-1.7.6-3.4,1.9-4.6,1.3-1.2,3.1-1.9,4.9-1.8,1.8,0,3.5.6,4.8,1.8,1.3,1.2,2,2.9,1.9,4.6,0,1.7-.6,3.4-1.9,4.6-1.3,1.2-3.1,1.9-4.8,1.8-1.8,0-3.6-.6-4.9-1.8ZM1342.4,394.8v-51.8h10.6v51.8h-10.6Z"/>
  <path class="st0" d="M1364.2,368.9c0-3.8.7-7.5,2.1-11,1.3-3.2,3.2-6.1,5.7-8.5,2.4-2.3,5.2-4.1,8.3-5.4,3.2-1.3,6.7-1.9,10.2-1.9,4.5,0,8.8,1,12.8,3.1,3.7,2,6.7,5.1,8.7,8.7,2.1,3.9,3.2,8.3,3.1,12.8,0,.6,0,1.3,0,2,0,.7-.1,1.4-.2,1.9v.7h-40.1c.3,5.1,1.9,9,4.9,11.9,3.2,3,7.4,4.5,11.8,4.3,1.5,0,3.1-.1,4.6-.4,1.3-.2,2.6-.6,3.9-1,1.1-.4,2.2-.8,3.3-1.4.9-.4,1.7-.8,2.6-1.4.6-.4,1.2-.8,1.8-1.2l1-.7,4.5,5.9c-.2.1-.3.3-.5.4-.3.3-.6.6-.9.9s-.8.7-1.4,1.1c-.6.5-1.3.9-1.9,1.3-.7.4-1.5.9-2.4,1.4-1,.5-2,.9-3.1,1.3-1.1.4-2.3.7-3.6,1-1.4.3-2.8.6-4.2.7-1.6.2-3.2.3-4.9.3-4.7,0-9.4-1.1-13.5-3.3-3.9-2.2-7.1-5.5-9.2-9.5-2.3-4.4-3.4-9.3-3.3-14.2ZM1374.9,364.4h30.2c0-1.3-.2-2.6-.5-3.8-.8-2.9-2.4-5.5-4.6-7.5-1.2-1.1-2.7-2-4.2-2.5-1.8-.7-3.7-1-5.6-1-1.9,0-3.7.3-5.5.9-1.6.5-3,1.4-4.2,2.5-2.2,2-3.9,4.6-4.8,7.5-.4,1.3-.6,2.6-.7,4h0Z"/>
  <path class="st0" d="M1421.9,368.1c0-3,.4-6.1,1.3-9,.8-2.6,2-5.1,3.7-7.3,1.5-2,3.4-3.8,5.4-5.3,2.1-1.5,4.4-2.6,6.8-3.3,2.5-.7,5.1-1.1,7.7-1.1,3.8-.1,7.6.8,11,2.6,2.9,1.6,5.4,3.8,7.1,6.6h.3l-.2-8.2h10.3v40.9c.1,4.6-.4,9.2-1.4,13.6-.8,3.2-2.2,6.2-4.3,8.7-1,1.3-2.2,2.5-3.5,3.6-1.4,1.2-3,2.2-4.6,3.1-2.1,1.1-4.3,1.9-6.6,2.4-10.9,2.3-22.3-.1-31.3-6.6,0,0-.2-.1-.3-.2l4.9-7.3c5.3,4,11.8,6.3,18.5,6.6,3,0,6-.5,8.8-1.7,2.1-.9,4-2.3,5.4-4.1,1.3-1.7,2.3-3.7,2.8-5.8.8-2.8,1.2-5.8,1.1-8.7v-2.6h-.2c-1.9,2.8-4.4,5.1-7.4,6.8-3.3,1.7-7,2.6-10.7,2.5-3.3,0-6.5-.6-9.5-1.8-2.9-1.1-5.6-2.8-7.9-5-2.4-2.3-4.2-5.1-5.4-8.2-1.4-3.5-2.1-7.3-2.1-11ZM1434.3,359.2c-2.5,5.7-2.5,12.2,0,17.9,1.2,2.6,3.2,4.8,5.7,6.3,2.7,1.6,5.8,2.4,8.9,2.4,3.2,0,6.3-.7,9-2.4,2.4-1.5,4.4-3.7,5.6-6.3,1.3-2.8,1.9-5.8,1.9-8.9,0-3.1-.6-6.1-1.8-9-1.2-2.6-3.2-4.8-5.7-6.4-5.6-3.2-12.4-3.2-17.9,0-2.5,1.5-4.5,3.7-5.7,6.4Z"/>
  <path class="st0" d="M1486.5,368.9c0-3.8.7-7.5,2.1-11,1.3-3.2,3.2-6.1,5.7-8.5,2.4-2.3,5.2-4.1,8.3-5.4,3.2-1.3,6.7-1.9,10.2-1.9,4.5,0,8.8,1,12.8,3.1,3.7,2,6.7,5.1,8.8,8.8,2.1,3.9,3.2,8.3,3.1,12.8,0,.6,0,1.3,0,2,0,.7-.1,1.4-.2,1.9v.7h-40.1c.3,5.1,1.9,9,4.9,11.9,3.2,3,7.4,4.5,11.8,4.3,1.5,0,3.1-.1,4.6-.4,1.3-.2,2.6-.6,3.9-1,1.1-.4,2.2-.8,3.3-1.4.9-.4,1.7-.8,2.6-1.4.6-.4,1.2-.8,1.8-1.2l1-.7,4.5,5.9c-.2.1-.3.3-.5.4-.3.3-.6.6-.9.9-.3.3-.8.7-1.4,1.1-.6.5-1.3.9-1.9,1.3-.7.4-1.5.9-2.4,1.4-1,.5-2,.9-3.1,1.3-1.1.4-2.3.7-3.6,1-1.4.3-2.8.6-4.2.7-1.6.2-3.2.3-4.9.3-4.7,0-9.4-1.1-13.5-3.3-3.9-2.2-7.1-5.5-9.2-9.5-2.3-4.4-3.4-9.3-3.3-14.3ZM1497.1,364.4h30.2c0-1.3-.2-2.6-.5-3.8-.8-2.9-2.4-5.5-4.6-7.5-1.2-1.1-2.7-2-4.2-2.5-1.8-.7-3.7-1-5.6-1-1.9,0-3.7.3-5.5.9-1.6.5-3,1.4-4.2,2.5-2.2,2-3.9,4.6-4.8,7.5-.4,1.3-.6,2.6-.7,4h0Z"/>
  <path class="st0" d="M1542.6,386.3l5-5.9c3.9,4.4,9.4,7,15.3,7.2,1.2,0,2.4-.1,3.6-.4,1.1-.2,2.2-.6,3.2-1.2,1-.5,1.8-1.3,2.3-2.2.6-1,.9-2.2.8-3.4,0-.7-.1-1.4-.4-2.1-.3-.7-.7-1.3-1.3-1.7-.5-.5-1.1-.9-1.7-1.4-.7-.4-1.4-.8-2.2-1.1-.9-.3-1.6-.6-2.2-.8-.6-.2-1.3-.4-2.2-.7-.6-.2-1.2-.4-1.7-.6-.7-.2-1.4-.4-2.2-.7l-1.8-.6c-.4-.1-.9-.3-1.4-.5-.6-.2-1.1-.5-1.7-.8-5.5-2.7-8.2-6.7-8.2-12.1,0-2.3.5-4.5,1.4-6.6.9-1.9,2.2-3.5,3.9-4.8,1.7-1.3,3.6-2.3,5.6-2.9,2.1-.7,4.4-1,6.6-1,7.6,0,13.5,2.5,17.7,7.4l-4.4,6.4c-1.1-1.1-2.3-2-3.6-2.7-1.4-.8-3-1.5-4.6-1.9-1.6-.5-3.3-.7-4.9-.7-2.1-.1-4.2.4-6.1,1.6-1.5,1.1-2.3,2.8-2.2,4.7,0,.8.2,1.5.6,2.2.4.7.9,1.2,1.4,1.7.7.6,1.5,1.1,2.3,1.4.9.4,1.8.8,2.7,1.1l3,1c2.9.9,5.2,1.8,7,2.4,2.2.8,4.3,2,6,3.6,2.7,2.3,4.2,5.7,4.2,9.3.2,4.6-1.8,9-5.4,11.9-3.8,3.1-8.6,4.6-14.4,4.6-4,0-8-.8-11.6-2.6-3.4-1.7-6.3-4.1-8.6-7.1Z"/>
  <path class="st0" d="M1589.2,369.1c0-3.9.7-7.7,2.2-11.2,1.3-3.2,3.3-6.2,5.9-8.6,5-4.6,11.6-7.2,18.4-7.2,2.1,0,4.2.2,6.2.5,1.7.3,3.4.7,5.1,1.3,1.4.6,2.6,1.1,3.7,1.6,1,.5,1.9,1.1,2.8,1.8.8.7,1.3,1.1,1.6,1.4.3.2.5.5.7.8l-3.7,7.6-1.4-1.3c-.7-.6-1.4-1.1-2.1-1.6-.9-.7-1.9-1.2-3-1.7-1.3-.5-2.6-.9-3.9-1.1-1.6-.3-3.3-.5-5-.5-2.2,0-4.5.4-6.5,1.3-2,.8-3.8,2-5.3,3.5-1.6,1.6-2.8,3.5-3.6,5.6-.9,2.3-1.4,4.9-1.3,7.4,0,5.4,1.6,9.9,4.7,13.3,3.1,3.4,7.6,5.3,12.2,5.1,1.9,0,3.7-.2,5.5-.7,1.5-.4,3-.9,4.4-1.6,1.1-.6,2.1-1.2,3.1-1.9.7-.5,1.4-1,2-1.6l.6-.7,3.7,7.6-.3.3c-.6.6-1.1,1.1-1.6,1.5-.8.7-1.7,1.3-2.6,1.9-1.2.8-2.6,1.5-3.9,2-1.7.6-3.5,1.1-5.3,1.4-2.3.4-4.7.6-7,.6-6.8,0-13.3-2.6-18.3-7.2-2.5-2.4-4.4-5.3-5.7-8.5-1.4-3.5-2.1-7.3-2.1-11.1Z"/>
  <path class="st0" d="M1644.9,394.8v-75.2h10.3v31.6h.2c1.5-2.7,3.7-5,6.3-6.6,2.9-1.7,6.2-2.6,9.6-2.6,2.6,0,5.2.3,7.6,1.1,2,.6,3.8,1.6,5.3,3,1.4,1.3,2.5,2.9,3.3,4.7.8,1.9,1.4,3.9,1.7,6,.3,2.3.5,4.7.5,7v30.9h-10.3v-29.3c0-1.5,0-2.9-.2-4.4-.1-1.4-.4-2.7-.9-4-.4-1.2-1-2.4-1.8-3.4-.9-1-1.9-1.7-3.1-2.2-1.5-.6-3.1-.9-4.8-.9-2.1,0-4.2.5-6.1,1.4-1.7.9-3.2,2.3-4.3,4-1.1,1.8-1.9,3.8-2.4,5.8-.5,2.4-.8,4.8-.8,7.3v25.6h-10.3Z"/>
  <path class="st0" d="M1704.7,330.7c-1.3-1.2-2-2.9-1.9-4.6,0-1.7.6-3.4,1.9-4.6,1.3-1.2,3.1-1.9,4.9-1.8,1.8,0,3.5.6,4.8,1.8,1.3,1.2,2,2.9,1.9,4.6,0,1.7-.6,3.4-1.9,4.6-1.3,1.2-3.1,1.9-4.8,1.8-1.8,0-3.6-.6-4.9-1.8ZM1704.4,394.8v-51.8h10.6v51.8h-10.6Z"/>
  <path class="st0" d="M1726.2,369.1c0-3.9.7-7.7,2.2-11.2,1.3-3.2,3.3-6.2,5.9-8.6,5-4.6,11.6-7.2,18.4-7.2,2.1,0,4.2.2,6.2.5,1.7.3,3.4.7,5.1,1.3,1.4.6,2.6,1.1,3.7,1.6,1,.5,1.9,1.1,2.8,1.8.8.7,1.3,1.1,1.6,1.4.3.2.5.5.7.8l-3.7,7.6-1.4-1.3c-.7-.6-1.4-1.1-2.1-1.6-.9-.7-1.9-1.2-3-1.7-1.3-.5-2.6-.9-3.9-1.1-1.6-.3-3.3-.5-5-.5-2.2,0-4.5.4-6.5,1.3-2,.8-3.8,2-5.3,3.5-1.6,1.6-2.8,3.5-3.6,5.6-.9,2.3-1.4,4.9-1.3,7.4,0,5.4,1.6,9.9,4.7,13.3,3.1,3.4,7.6,5.3,12.2,5.1,1.9,0,3.7-.2,5.5-.7,1.5-.4,3-.9,4.4-1.6,1.1-.6,2.1-1.2,3.1-1.9.7-.5,1.4-1,2-1.6l.6-.7,3.7,7.6-.3.3c-.6.6-1.1,1.1-1.6,1.5-.8.7-1.7,1.3-2.6,1.9-1.2.8-2.6,1.5-3.9,2-1.7.6-3.5,1.1-5.3,1.4-2.3.4-4.7.6-7,.6-6.8,0-13.3-2.6-18.3-7.2-2.5-2.4-4.4-5.3-5.7-8.5-1.4-3.5-2.1-7.3-2.1-11.1Z"/>
  <path class="st0" d="M1781.9,394.8v-75.2h10.3v31.6h.2c1.5-2.7,3.7-5,6.3-6.6,2.9-1.7,6.2-2.6,9.6-2.6,2.6,0,5.2.3,7.6,1.1,2,.6,3.8,1.6,5.3,3,1.4,1.3,2.5,2.9,3.3,4.7.8,1.9,1.4,3.9,1.7,6,.3,2.3.5,4.7.5,7v30.9h-10.3v-29.3c0-1.5,0-2.9-.2-4.4-.1-1.4-.4-2.7-.9-4-.4-1.2-1-2.4-1.8-3.4-.9-1-1.9-1.7-3.1-2.2-1.5-.6-3.1-.9-4.8-.9-2.1,0-4.2.5-6.1,1.4-1.7.9-3.2,2.3-4.3,4-1.1,1.8-1.9,3.8-2.4,5.8-.5,2.4-.8,4.8-.8,7.3v25.6h-10.3Z"/>
  <path class="st0" d="M1835.6,351.5v-8.4h7.5v-15.5h10.6v15.5h12.3v8.4h-12.3v23.5c0,2.6,0,4.6.2,6,.1,1.2.5,2.4,1.1,3.5,1,1.8,2.8,2.7,5.4,2.7.9,0,1.8-.1,2.7-.3.7-.1,1.4-.3,2-.6l.7-.3.6,8.3c-.2,0-.3.1-.5.2l-1.3.4c-.7.2-1.3.4-2,.5-.7.1-1.5.3-2.6.4-1,.1-2.1.2-3.1.2-5,0-8.7-1.8-11.1-5.4-1.1-1.7-1.8-3.7-2.1-5.7-.4-3.2-.6-6.5-.5-9.8v-23.6h-7.6Z"/>
  <path class="st0" d="M1870.4,368.9c0-3.8.7-7.5,2.1-11,1.3-3.2,3.2-6.1,5.7-8.5,2.4-2.3,5.2-4.1,8.3-5.4,3.2-1.3,6.7-1.9,10.2-1.9,4.5,0,8.8,1,12.8,3.1,3.7,2,6.7,5.1,8.8,8.8,2.1,3.9,3.2,8.3,3.1,12.8,0,.6,0,1.3,0,2,0,.7-.1,1.4-.2,1.9v.7h-40.1c.3,5.1,1.9,9,4.9,11.9,3.2,3,7.4,4.5,11.8,4.3,1.5,0,3.1-.1,4.6-.4,1.3-.2,2.6-.6,3.9-1,1.1-.4,2.2-.8,3.3-1.4.9-.4,1.7-.8,2.6-1.4.6-.4,1.2-.8,1.8-1.2l1-.7,4.5,5.9c-.2.1-.3.3-.5.4-.3.3-.6.6-.9.9-.3.3-.8.7-1.4,1.1-.6.5-1.3.9-1.9,1.3-.7.4-1.5.9-2.4,1.4-1,.5-2,.9-3.1,1.3-1.1.4-2.3.7-3.6,1-1.4.3-2.8.6-4.2.7-1.6.2-3.2.3-4.9.3-4.7,0-9.4-1.1-13.5-3.3-3.9-2.2-7.1-5.5-9.2-9.5-2.3-4.4-3.4-9.3-3.3-14.3ZM1881.1,364.4h30.2c0-1.3-.2-2.6-.5-3.8-.8-2.9-2.4-5.5-4.6-7.5-1.2-1.1-2.7-2-4.2-2.5-1.8-.7-3.7-1-5.6-1-1.9,0-3.7.3-5.5.9-1.6.5-3,1.4-4.2,2.5-2.2,2-3.9,4.6-4.8,7.5-.4,1.3-.6,2.6-.7,4h0Z"/>
  <path class="st0" d="M1953.6,415.1v-72.1h10.1v8.1h.2c4.3-5.9,11.2-9.2,18.4-9,4.7,0,9.3,1.1,13.3,3.5,3.8,2.3,6.8,5.6,8.8,9.6,2.1,4.3,3.1,9,3,13.8,0,3.7-.6,7.3-1.8,10.7-1.1,3.2-2.8,6.1-5,8.6-2.2,2.5-4.9,4.4-8,5.7-3.3,1.4-6.9,2.1-10.4,2.1-3.6,0-7.3-.7-10.5-2.4-3-1.6-5.5-4-7.4-6.8h0c0-.1,0,28.3,0,28.3h-10.5ZM1965.6,359.4c-2.5,6-2.5,12.8,0,18.8,1.2,2.7,3.2,5,5.7,6.6,5.4,3.2,12.2,3.2,17.7,0,2.5-1.6,4.5-3.9,5.7-6.6,2.6-6,2.6-12.8,0-18.8-1.2-2.7-3.2-5-5.7-6.5-5.5-3.2-12.2-3.2-17.7,0-2.5,1.6-4.5,3.8-5.7,6.5h0Z"/>
  <path class="st0" d="M2018.1,394.8v-51.8h10.6v8.1c0,0,.2,0,.2,0,.8-1.8,1.8-3.5,3.2-5,1.2-1.3,2.7-2.3,4.3-3,1.6-.7,3.4-1,5.2-1,1,0,2,0,2.9.2.7,0,1.3.2,2,.4l.6.2-.6,8.8h-6.1c-1.8,0-3.6.4-5.2,1.4-1.3.8-2.4,1.8-3.3,2.9-2.1,3.1-3.1,7.5-3.1,13v25.7h-10.6Z"/>
  <path class="st0" d="M2055.3,330.7c-1.3-1.2-2-2.9-1.9-4.6,0-1.7.6-3.4,1.9-4.6,1.3-1.2,3.1-1.9,4.9-1.8,1.8,0,3.5.6,4.9,1.8,1.3,1.2,2,2.8,1.9,4.6,0,1.7-.6,3.4-1.9,4.6-1.3,1.2-3.1,1.9-4.9,1.8-1.8,0-3.6-.6-5-1.8ZM2054.9,394.8v-51.8h10.6v51.8h-10.6Z"/>
  <path class="st0" d="M2073.1,343h10.9l15.4,39,15.2-39h10.8l-21.6,51.8h-9.1l-21.6-51.8Z"/>
  <path class="st0" d="M2128.4,380c0-3,.8-6,2.6-8.5,1.8-2.4,4.3-4.2,7.1-5.3,3.4-1.3,7-1.9,10.6-2l13.8-.6v-2c0-3.6-1.2-6.4-3.5-8.3s-5.4-2.9-9.3-2.9c-2.4,0-4.7.3-7,.9-1.8.4-3.6,1-5.4,1.8-1.2.5-2.3,1.1-3.2,1.6l-3.2-7.2c5.9-3.6,12.6-5.4,19.4-5.5,1.9,0,3.9.1,5.8.4,1.6.2,3.2.6,4.7,1.2,1.3.5,2.5,1.1,3.7,1.8,1.1.7,2.1,1.5,3,2.4,1.9,1.9,3.3,4.2,4.2,6.7,1,3.3,1.5,6.7,1.4,10.1v30.1h-10.2v-6.5c-.1,0-.3.2-.3.2-.7.7-1.2,1.3-1.7,1.7-.7.7-1.5,1.3-2.3,1.9-1,.8-2.1,1.4-3.2,2-1.3.6-2.6,1-4,1.3-1.6.4-3.3.6-5,.6-2.3,0-4.6-.4-6.8-1.1-2.1-.7-4-1.8-5.7-3.1-1.7-1.4-3-3.1-3.9-5.1-1-2.1-1.5-4.4-1.5-6.7ZM2138.7,379.7c0,1.6.4,3.1,1.2,4.5.9,1.4,2.2,2.5,3.7,3.2,1.8.9,3.8,1.3,5.8,1.2,1.6,0,3.1-.2,4.6-.7,1.4-.4,2.7-1.1,3.8-1.9,1-.7,1.9-1.5,2.8-2.4.7-.8,1.4-1.6,2-2.4v-11.2l-12.1.7c-4,.2-7,1.1-8.9,2.7-1.9,1.5-3,3.8-2.9,6.2h0Z"/>
  <path class="st0" d="M2180.9,351.5v-8.4h7.5v-15.5h10.6v15.5h12.3v8.4h-12.3v23.5c0,2.6,0,4.6.2,6,.1,1.2.5,2.4,1.1,3.5,1,1.8,2.8,2.7,5.4,2.7.9,0,1.8-.1,2.7-.3.7-.1,1.4-.3,2-.6l.7-.3.6,8.3c-.2,0-.3.1-.5.2l-1.3.4c-.7.2-1.3.4-2,.5-.7.1-1.5.3-2.6.4-1,.1-2.1.2-3.1.2-5,0-8.7-1.8-11.1-5.4-1.1-1.7-1.8-3.7-2.1-5.7-.4-3.2-.6-6.5-.5-9.8v-23.6h-7.6Z"/>
  <path class="st0" d="M2222.1,349.1c0-1,.2-2,.5-2.9.3-.8.8-1.6,1.4-2.2.6-.6,1.4-1.1,2.2-1.4.9-.3,1.8-.5,2.8-.5,1.8,0,3.6.6,4.8,1.9,2.6,2.8,2.6,7.2,0,10-1.3,1.3-3,1.9-4.8,1.9-1.9,0-3.7-.6-5-1.9-1.3-1.3-2-3.1-1.9-5ZM2222.1,389.1c0-1.3.3-2.5.9-3.6.6-1,1.4-1.9,2.4-2.4,1.1-.6,2.3-.9,3.6-.8,1.8,0,3.6.6,4.9,1.9,1.3,1.3,2,3.1,1.9,5,0,1.8-.6,3.6-1.9,4.9-1.3,1.2-3.1,1.9-4.9,1.8-1.8,0-3.6-.6-5-1.8-1.3-1.3-2-3.1-1.9-4.9h0Z"/>
  <path class="st0" d="M1018.5,514.8v-75.2h22.6c5.6,0,11.1.9,16.3,2.8,4.3,1.6,8.3,4,11.8,7,1.5,1.4,2.9,2.9,4.2,4.6,1.4,1.9,2.6,3.8,3.7,5.9,1.3,2.5,2.2,5.2,2.8,7.9,1.4,6.3,1.4,12.7,0,19-.6,2.7-1.5,5.4-2.8,7.9-1.1,2.1-2.3,4-3.7,5.9-1.2,1.6-2.6,3.1-4.2,4.5-3.4,3.1-7.4,5.4-11.8,7-5.2,1.9-10.8,2.9-16.3,2.8h-22.6ZM1029.1,505.8h12.1c4,0,7.9-.6,11.6-1.9,3.1-1.1,6-2.8,8.4-5.1,6-5.7,8.9-12.9,8.9-21.6s-3-15.9-8.9-21.6c-1.1-1-2.3-2-3.6-2.8-1.4-.9-2.9-1.6-4.5-2.2-1.8-.7-3.6-1.2-5.5-1.5-2.1-.4-4.3-.5-6.4-.5h-12.2v57.1Z"/>
  <path class="st0" d="M1092.8,450.7c-1.3-1.2-2-2.9-1.9-4.6,0-1.7.6-3.4,1.9-4.6,1.3-1.2,3.1-1.9,4.9-1.8,1.8,0,3.5.6,4.8,1.8,1.3,1.2,2,2.9,1.9,4.6,0,1.7-.6,3.4-1.9,4.6-1.3,1.2-3.1,1.9-4.8,1.8-1.8,0-3.6-.6-4.9-1.8ZM1092.5,514.8v-51.8h10.5v51.8h-10.5Z"/>
  <path class="st0" d="M1114.3,488.9c0-3.8.7-7.5,2.1-11,1.3-3.2,3.2-6.1,5.7-8.5,2.4-2.3,5.2-4.1,8.3-5.4,3.2-1.3,6.7-1.9,10.2-1.9,4.5,0,8.8,1,12.8,3.1,3.7,2,6.7,5.1,8.8,8.8,2.1,3.9,3.2,8.3,3.1,12.8,0,.6,0,1.3,0,2,0,.7-.1,1.4-.2,1.9v.7h-40.1c.3,5.1,1.9,9,4.9,11.9,3.2,3,7.4,4.5,11.8,4.3,1.5,0,3.1-.1,4.6-.4,1.3-.2,2.6-.6,3.9-1,1.1-.4,2.2-.8,3.3-1.4.9-.4,1.7-.8,2.6-1.4.6-.4,1.2-.8,1.8-1.2l1-.7,4.5,5.9c-.2.1-.3.3-.5.4-.3.3-.6.6-.9.9-.3.3-.8.7-1.4,1.1-.6.5-1.3.9-1.9,1.3-.7.4-1.5.9-2.4,1.4-1,.5-2,.9-3.1,1.3-1.1.4-2.3.7-3.6,1-1.4.3-2.8.6-4.2.7-1.6.2-3.2.3-4.9.3-4.7,0-9.4-1.1-13.5-3.3-3.9-2.2-7.1-5.5-9.2-9.5-2.3-4.4-3.4-9.3-3.4-14.3ZM1124.9,484.4h30.2c0-1.3-.2-2.6-.5-3.8-.8-2.9-2.4-5.5-4.6-7.5-1.2-1.1-2.7-2-4.2-2.5-1.8-.7-3.7-1-5.6-1-1.9,0-3.7.3-5.5.9-1.6.5-3,1.4-4.2,2.5-2.2,2-3.9,4.6-4.8,7.5-.4,1.3-.6,2.6-.7,4h0Z"/>
  <path class="st0" d="M1198.1,514.8v-75.2h41.8v8.8h-31.2v25h29.3v8.8h-29.3v32.5h-10.6Z"/>
  <path class="st0" d="M1243.9,500c0-3,.8-6,2.6-8.5,1.8-2.4,4.3-4.2,7.1-5.3,3.4-1.3,7-1.9,10.6-2l13.8-.6v-2c0-3.6-1.2-6.4-3.5-8.3s-5.4-2.9-9.3-2.9c-2.4,0-4.7.3-7,.9-1.8.4-3.6,1-5.4,1.8-1.2.5-2.3,1.1-3.2,1.6l-3.2-7.2c5.9-3.6,12.6-5.4,19.4-5.5,1.9,0,3.9.1,5.8.4,1.6.2,3.2.6,4.7,1.2,1.3.5,2.5,1.1,3.7,1.8,1.1.7,2.1,1.5,3,2.4,1.9,1.9,3.3,4.2,4.2,6.7,1,3.3,1.5,6.7,1.4,10.1v30.1h-10.2v-6.5c0,0-.3.2-.3.2-.7.7-1.2,1.3-1.7,1.7-.7.7-1.5,1.3-2.3,1.9-1,.8-2.1,1.4-3.2,2-1.3.6-2.6,1-4,1.3-1.6.4-3.3.6-5,.6-2.3,0-4.6-.4-6.8-1.1-2.1-.7-4-1.8-5.7-3.1-1.7-1.4-3-3.1-3.9-5.1-1-2.1-1.5-4.4-1.5-6.7ZM1254.3,499.7c0,1.6.4,3.1,1.2,4.5.9,1.4,2.2,2.5,3.7,3.2,1.8.9,3.8,1.3,5.8,1.2,1.6,0,3.1-.2,4.6-.7,1.4-.4,2.7-1.1,3.8-1.9,1-.7,1.9-1.5,2.8-2.4.7-.8,1.4-1.6,2-2.4v-11.2l-12.1.7c-4,.2-7,1.1-8.9,2.7-1.9,1.5-2.9,3.8-2.9,6.2h0Z"/>
  <path class="st0" d="M1301.8,514.8v-51.8h10.6v8.2c0,0,.2,0,.2,0,1.4-2.6,3.5-4.9,6-6.5,2.6-1.8,5.7-2.7,8.9-2.7,3.4-.1,6.8.8,9.7,2.6,2.7,1.8,4.7,4.5,5.7,7.6,1.6-3.1,4-5.7,6.8-7.6,2.9-1.8,6.2-2.7,9.6-2.6,2.4,0,4.9.3,7.2,1.1,1.9.7,3.6,1.7,5,3.1,1.3,1.4,2.4,3,3.2,4.7.8,1.8,1.4,3.8,1.7,5.8.3,2.2.5,4.4.5,6.6v31.4h-10.3v-30.2c0-1.3,0-2.5-.2-3.8-.2-1.3-.4-2.5-.8-3.7-.3-1.2-.9-2.3-1.6-3.3-.7-1-1.7-1.7-2.8-2.2-1.3-.6-2.8-.9-4.2-.9-2.5,0-4.9.8-6.8,2.4-1.9,1.7-3.4,3.8-4.2,6.2-.9,2.8-1.4,5.6-1.3,8.5v27h-10.6v-30.2c0-1.5,0-2.9-.2-4.4-.2-1.3-.5-2.6-.9-3.8-.4-1.1-.9-2.2-1.7-3.1-.7-.9-1.6-1.6-2.7-2-1.2-.5-2.5-.8-3.8-.7-2.5,0-4.9.8-6.9,2.4-1.9,1.7-3.4,3.8-4.2,6.2-.9,2.8-1.4,5.6-1.3,8.5v27h-10.5Z"/>
  <path class="st0" d="M1391.5,450.7c-1.3-1.2-2-2.9-1.9-4.6,0-1.7.6-3.4,1.9-4.6,1.3-1.2,3.1-1.9,4.9-1.8,1.8,0,3.5.6,4.8,1.8,1.3,1.2,2,2.9,1.9,4.6,0,1.7-.6,3.4-1.9,4.6-1.3,1.2-3.1,1.9-4.8,1.8-1.8,0-3.6-.6-4.9-1.8ZM1391.2,514.8v-51.8h10.6v51.8h-10.6Z"/>
  <path class="st0" d="M1417,514.8v-75.2h10.3v75.2h-10.3Z"/>
  <path class="st0" d="M1443,450.7c-1.3-1.2-2-2.9-1.9-4.6,0-1.7.6-3.4,1.9-4.6,1.3-1.2,3.1-1.9,4.9-1.8,1.8,0,3.5.6,4.8,1.8,1.3,1.2,2,2.9,1.9,4.6,0,1.7-.6,3.4-1.9,4.6-1.3,1.2-3.1,1.9-4.8,1.8-1.8,0-3.6-.6-4.9-1.8ZM1442.6,514.8v-51.8h10.6v51.8h-10.6Z"/>
  <path class="st0" d="M1464.4,488.9c0-3.8.7-7.5,2.1-11,1.3-3.2,3.2-6.1,5.7-8.5,2.4-2.3,5.2-4.1,8.3-5.4,3.2-1.3,6.7-1.9,10.2-1.9,4.5,0,8.8,1,12.8,3.1,3.7,2,6.7,5.1,8.8,8.8,2.1,3.9,3.2,8.3,3.1,12.8,0,.6,0,1.3,0,2,0,.7-.1,1.4-.2,1.9v.7h-40.1c.3,5.1,1.9,9,4.9,11.9,3.2,3,7.4,4.5,11.8,4.3,1.5,0,3.1-.1,4.6-.4,1.3-.2,2.6-.6,3.9-1,1.1-.4,2.2-.8,3.3-1.4.9-.4,1.7-.8,2.6-1.4.6-.4,1.2-.8,1.8-1.2l1-.7,4.5,5.9c-.2.1-.3.3-.5.4-.3.3-.6.6-.9.9-.3.3-.8.7-1.4,1.1-.6.5-1.3.9-1.9,1.3-.7.4-1.5.9-2.4,1.4-1,.5-2,.9-3.1,1.3-1.1.4-2.3.7-3.6,1-1.4.3-2.8.6-4.2.7-1.6.2-3.2.3-4.9.3-4.7,0-9.4-1.1-13.5-3.3-3.9-2.2-7.1-5.5-9.2-9.5-2.3-4.4-3.4-9.3-3.3-14.3ZM1475.1,484.4h30.2c0-1.3-.2-2.6-.5-3.8-.8-2.9-2.4-5.5-4.6-7.5-1.2-1.1-2.7-2-4.2-2.5-1.8-.7-3.7-1-5.6-1-1.9,0-3.7.3-5.5.9-1.6.5-3,1.4-4.2,2.5-2.2,2-3.9,4.6-4.8,7.5-.4,1.3-.6,2.6-.7,4h0Z"/>
  <path class="st0" d="M1548.3,514.8v-75.2h44v8.8h-33.4v22.5h31.6v8.8h-31.6v26.3h34.3v8.8h-44.9Z"/>
  <path class="st0" d="M1605,514.8v-51.8h10.6v8.2c0,0,.2,0,.2,0,1.5-2.7,3.6-5,6.3-6.6,2.9-1.7,6.2-2.6,9.5-2.5,2.6,0,5.1.3,7.6,1.1,2,.6,3.8,1.7,5.3,3,1.4,1.4,2.6,3,3.4,4.8.9,1.9,1.5,4,1.8,6,.3,2.3.5,4.7.5,7.1v30.6h-10.6v-28.9c0-1.7,0-3.3-.2-5-.2-1.4-.5-2.8-.9-4.1-.4-1.2-1-2.3-1.8-3.3-.9-.9-1.9-1.6-3.1-2-1.5-.6-3.1-.8-4.7-.8-1.3,0-2.5.2-3.8.5-1.1.3-2.1.8-3.1,1.4-.9.6-1.7,1.3-2.4,2.2-.7.9-1.3,1.8-1.8,2.8-.5,1.1-.9,2.2-1.2,3.3-.3,1.3-.6,2.5-.7,3.8-.1,1.4-.2,2.8-.2,4.1v26h-10.5Z"/>
  <path class="st0" d="M1660.4,488.1c0-3,.4-6.1,1.3-9,.8-2.6,2-5.1,3.7-7.3,1.5-2,3.4-3.8,5.4-5.3,2.1-1.5,4.4-2.6,6.8-3.3,2.5-.7,5.1-1.1,7.7-1.1,3.8-.1,7.6.8,11,2.6,2.9,1.6,5.4,3.8,7.1,6.6h.3l-.2-8.2h10.4v40.9c.1,4.6-.4,9.2-1.4,13.6-.8,3.2-2.2,6.2-4.3,8.7-1,1.3-2.2,2.5-3.5,3.6-1.4,1.2-3,2.2-4.6,3.1-2.1,1.1-4.3,1.9-6.6,2.4-10.9,2.3-22.3-.1-31.3-6.7,0,0-.2-.1-.3-.2l4.9-7.3c5.3,4,11.8,6.3,18.5,6.6,3,0,6-.5,8.8-1.7,2.1-.9,4-2.3,5.4-4.1,1.3-1.7,2.3-3.7,2.8-5.8.8-2.8,1.2-5.8,1.1-8.7v-2.6h-.2c-1.9,2.8-4.4,5.1-7.4,6.8-3.3,1.7-7,2.6-10.7,2.5-3.3,0-6.5-.6-9.5-1.8-2.9-1.1-5.6-2.8-7.9-5-2.4-2.3-4.2-5.1-5.4-8.2-1.4-3.5-2.1-7.3-2.1-11ZM1672.8,479.2c-2.5,5.7-2.5,12.2,0,17.9,1.2,2.6,3.2,4.8,5.7,6.3,2.7,1.6,5.8,2.4,8.9,2.4,3.2,0,6.3-.7,9-2.4,2.4-1.5,4.4-3.7,5.6-6.3,1.3-2.8,1.9-5.8,1.9-8.9,0-3.1-.6-6.1-1.8-9-1.2-2.6-3.2-4.8-5.7-6.4-5.6-3.2-12.4-3.2-17.9,0-2.5,1.5-4.5,3.7-5.7,6.4h0Z"/>
  <path class="st0" d="M1725,488.9c0-3.8.7-7.5,2.1-11,1.3-3.2,3.2-6.1,5.7-8.5,2.4-2.3,5.2-4.1,8.3-5.4,3.2-1.3,6.7-1.9,10.2-1.9,4.5,0,8.8,1,12.8,3.1,3.7,2,6.7,5.1,8.8,8.8,2.1,3.9,3.2,8.3,3.1,12.8,0,.6,0,1.3,0,2,0,.7-.1,1.4-.2,1.9v.7h-40.1c.3,5.1,1.9,9,4.9,11.9,3.2,3,7.4,4.5,11.8,4.3,1.5,0,3.1-.1,4.6-.4,1.3-.2,2.6-.6,3.9-1,1.1-.4,2.2-.8,3.3-1.4.9-.4,1.7-.8,2.6-1.4.6-.4,1.2-.8,1.8-1.2l1-.7,4.5,5.9c-.2.1-.3.3-.5.4-.3.3-.6.6-.9.9-.3.3-.8.7-1.4,1.1-.6.5-1.3.9-1.9,1.3-.7.4-1.5.9-2.4,1.4-1,.5-2,.9-3.1,1.3-1.1.4-2.3.7-3.6,1-1.4.3-2.8.6-4.2.7-1.6.2-3.2.3-4.9.3-4.7,0-9.4-1.1-13.5-3.3-3.9-2.2-7.1-5.5-9.2-9.5-2.3-4.4-3.4-9.3-3.4-14.3ZM1735.6,484.4h30.2c0-1.3-.2-2.6-.5-3.8-.8-2.9-2.4-5.5-4.6-7.5-1.2-1.1-2.7-2-4.2-2.5-1.8-.7-3.7-1-5.6-1-1.9,0-3.7.3-5.5.9-1.6.5-3,1.4-4.2,2.5-2.2,2-3.9,4.6-4.8,7.5-.4,1.3-.6,2.6-.7,4h0Z"/>
  <path class="st0" d="M1786.6,514.8v-75.2h10.4v75.2h-10.4Z"/>
  <path class="st0" d="M1806.9,506.3l5-5.9c3.9,4.4,9.4,7,15.3,7.2,1.2,0,2.4-.1,3.6-.4,1.1-.2,2.2-.6,3.2-1.2,1-.5,1.8-1.3,2.3-2.2.6-1,.9-2.2.8-3.4,0-.7-.1-1.4-.4-2.1-.3-.7-.7-1.3-1.3-1.7-.5-.5-1.1-.9-1.7-1.4-.7-.4-1.4-.8-2.2-1.1-.9-.3-1.6-.6-2.2-.8-.6-.2-1.3-.4-2.2-.7-.6-.2-1.2-.4-1.7-.6-.7-.2-1.4-.4-2.2-.7l-1.8-.6c-.4-.1-.9-.3-1.4-.5-.6-.2-1.1-.5-1.7-.8-5.5-2.7-8.2-6.7-8.2-12.1,0-2.3.5-4.5,1.4-6.6.9-1.9,2.2-3.5,3.9-4.8,1.7-1.3,3.6-2.3,5.6-2.9,2.1-.7,4.4-1,6.6-1,7.6,0,13.5,2.5,17.7,7.4l-4.4,6.4c-1.1-1.1-2.3-2-3.6-2.7-1.4-.8-3-1.5-4.6-1.9-1.6-.5-3.3-.7-4.9-.7-2.1-.1-4.2.4-6.1,1.6-1.5,1.1-2.3,2.8-2.2,4.7,0,.8.2,1.5.6,2.2.4.7.9,1.2,1.4,1.7.7.6,1.5,1.1,2.3,1.4.9.4,1.8.8,2.7,1.1l3,1c2.9.9,5.2,1.8,7,2.4,2.2.8,4.3,2,6,3.6,2.7,2.3,4.2,5.7,4.2,9.3.2,4.6-1.8,9-5.4,11.9-3.8,3.1-8.6,4.6-14.4,4.6-4,0-8-.8-11.6-2.6-3.4-1.7-6.3-4.1-8.5-7.1Z"/>
  <path class="st0" d="M1879.3,450.7c-1.3-1.2-2-2.9-1.9-4.6,0-1.7.6-3.4,1.9-4.6,1.3-1.2,3.1-1.9,4.9-1.8,1.8,0,3.5.6,4.8,1.8,1.3,1.2,2,2.9,1.9,4.6,0,1.7-.6,3.4-1.9,4.6-1.3,1.2-3.1,1.9-4.8,1.8-1.8,0-3.6-.6-4.9-1.8ZM1878.9,514.8v-51.8h10.6v51.8h-10.6Z"/>
  <path class="st0" d="M1904.2,514.8v-51.8h10.6v8.2c0,0,.2,0,.2,0,1.5-2.7,3.6-5,6.3-6.6,2.9-1.7,6.2-2.6,9.5-2.5,2.6,0,5.1.3,7.6,1.1,2,.6,3.8,1.7,5.3,3,1.4,1.4,2.6,3,3.4,4.8.9,1.9,1.5,4,1.8,6,.3,2.3.5,4.7.5,7.1v30.6h-10.6v-28.9c0-1.7,0-3.3-.2-5-.2-1.4-.5-2.8-.9-4.1-.4-1.2-1-2.3-1.8-3.3-.9-.9-1.9-1.6-3.1-2-1.5-.6-3.1-.8-4.7-.8-1.3,0-2.5.2-3.8.5-2.2.6-4.1,1.8-5.5,3.5-.7.9-1.3,1.8-1.8,2.8-.5,1.1-.9,2.2-1.2,3.3-.3,1.3-.6,2.5-.7,3.8-.1,1.4-.2,2.8-.2,4.1v26h-10.5Z"/>
  <path class="st0" d="M1985.9,514.8v-75.2h20.2c3.5,0,6.9.2,10.3.7,2.7.4,5.2,1.4,7.5,2.8,5.4,3.4,8.1,8.5,8.1,15.2,0,3.7-1.1,7.3-3.3,10.3-2,2.8-4.8,5-8.1,6v.3c3.1.6,6.1,1.8,8.8,3.5,2.4,1.6,4.4,3.7,5.8,6.3,1.4,2.7,2.1,5.7,2.1,8.8,0,2.3-.3,4.7-1.1,6.9-.6,1.9-1.6,3.7-2.8,5.3-1.2,1.6-2.6,3-4.2,4.2-2.3,1.8-5,3.1-7.9,3.8-3.6.8-7.3,1.2-11.1,1.1h-24.3ZM1996.4,471.5h8.8c2.3,0,4.6-.1,6.8-.5,1.6-.2,3.1-.8,4.4-1.8.9-.7,1.7-1.4,2.4-2.2.8-.9,1.4-2,1.8-3.1.5-1.4.8-3,.8-4.5,0-4.5-1.7-7.7-5-9.5-.9-.5-1.9-.9-2.8-1.2-1.1-.3-2.1-.5-3.2-.6-1.4-.1-2.9-.2-4.3-.2h-9.7v23.5ZM1996.4,506.2h11.3c2,0,3.6,0,4.9-.1,1.4,0,2.8-.3,4.2-.7,1.5-.4,2.8-1,4.1-1.8,1.7-1.1,3.2-2.7,4.2-4.5.9-1.9,1.4-4,1.3-6.1,0-2.1-.4-4.1-1.3-6-1-1.8-2.5-3.3-4.2-4.4-1.7-1.2-3.6-1.9-5.6-2.2-2.5-.4-5-.5-7.6-.5h-11.3v26.3Z"/>
  <path class="st0" d="M2048.7,514.8v-51.8h10.6v8.1c-.1,0,.2,0,.2,0,.8-1.8,1.8-3.5,3.2-5,1.2-1.3,2.7-2.3,4.4-3,1.6-.7,3.4-1,5.2-1,1,0,2,0,2.9.2.7,0,1.3.2,2,.4l.6.2-.6,8.8h-6.1c-1.8,0-3.6.4-5.2,1.4-1.3.8-2.4,1.8-3.3,2.9-2.1,3.1-3.1,7.5-3.1,13v25.7h-10.6Z"/>
  <path class="st0" d="M2085.9,450.7c-1.3-1.2-2-2.9-1.9-4.7,0-1.7.6-3.4,1.9-4.6,1.3-1.2,3.1-1.9,4.9-1.8,1.8,0,3.5.6,4.9,1.8,1.3,1.2,2,2.9,1.9,4.6,0,1.7-.6,3.4-1.9,4.6-1.3,1.2-3.1,1.9-4.9,1.8-1.8,0-3.6-.6-4.9-1.8ZM2085.6,514.8v-51.8h10.6v51.8h-10.6Z"/>
  <path class="st0" d="M2107.4,488.9c0-3.8.7-7.5,2.1-11,1.3-3.2,3.2-6.1,5.7-8.5,2.4-2.3,5.2-4.1,8.4-5.4,3.2-1.3,6.7-1.9,10.2-1.9,4.5,0,8.8,1,12.8,3.1,3.7,2,6.7,5.1,8.8,8.8,2.1,3.9,3.2,8.3,3.1,12.8,0,.6,0,1.3,0,2,0,.7-.1,1.4-.2,1.9v.7h-40.1c.3,5.1,1.9,9,4.9,11.9,3.2,3,7.4,4.5,11.8,4.3,1.5,0,3.1-.1,4.6-.4,1.3-.2,2.6-.6,3.9-1,1.1-.4,2.2-.8,3.3-1.4.9-.4,1.7-.8,2.6-1.4.6-.4,1.2-.8,1.8-1.2l1-.7,4.5,5.9c-.2.1-.3.3-.5.4-.3.3-.6.6-.9.9-.3.3-.8.7-1.4,1.1-.6.5-1.3.9-1.9,1.3-.7.4-1.5.9-2.4,1.4-1,.5-2.1,1-3.2,1.3-1.1.4-2.3.7-3.6,1-1.4.3-2.8.6-4.2.7-1.6.2-3.2.3-4.9.3-4.7,0-9.4-1.1-13.5-3.3-3.9-2.2-7.1-5.5-9.2-9.5-2.2-4.4-3.4-9.3-3.2-14.3ZM2118,484.4h30.2c0-1.3-.2-2.6-.5-3.8-.8-2.9-2.4-5.5-4.6-7.5-1.2-1.1-2.7-2-4.2-2.5-1.8-.7-3.7-1-5.6-1-1.9,0-3.7.3-5.5.9-1.6.5-3,1.4-4.2,2.5-2.2,2-3.9,4.6-4.8,7.5-.4,1.3-.6,2.6-.7,4h0Z"/>
  <path class="st0" d="M2163,471.5v-8.4h7.4v-5.2c0-6.3,1.2-10.9,3.5-13.9,1.4-1.7,3.1-3.1,5.1-4,2.3-1.1,4.7-1.7,7.3-1.6,1.6,0,3.3,0,4.9.3,1.1.1,2.1.3,3.1.6l.9.3-.7,8.1c-1.9-.6-3.9-.9-5.9-.9-1.2,0-2.3.2-3.4.6-.9.3-1.7.8-2.3,1.5-.6.7-1.1,1.5-1.3,2.4-.3.9-.5,1.9-.7,2.9-.1,1.1-.2,2.2-.2,3.4v5.6h12.4v8.4h-12.3v43.3h-10.4v-43.3h-7.4Z"/>
  <path class="st0" d="M2194.7,488.9c0-3.8.7-7.5,2.1-11,1.3-3.2,3.2-6.1,5.7-8.5,2.4-2.3,5.2-4.1,8.4-5.4,3.2-1.3,6.7-1.9,10.2-1.9,4.5,0,8.8,1,12.8,3.1,3.7,2,6.7,5.1,8.8,8.8,2.1,3.9,3.2,8.3,3.1,12.8,0,.6,0,1.3,0,2,0,.7-.1,1.4-.2,1.9v.7h-40.1c.3,5.1,1.9,9,4.9,11.9,3.2,3,7.4,4.5,11.8,4.3,1.5,0,3.1-.1,4.6-.4,1.3-.2,2.6-.6,3.9-1,1.1-.4,2.2-.8,3.3-1.4.9-.4,1.7-.8,2.6-1.4.6-.4,1.2-.8,1.8-1.2l1-.7,4.5,5.9c-.2.1-.3.3-.5.4-.3.3-.6.6-.9.9-.3.3-.8.7-1.4,1.1-.6.5-1.3.9-1.9,1.3-.7.4-1.5.9-2.4,1.4-1,.5-2,.9-3.1,1.3-1.1.4-2.3.7-3.6,1-1.4.3-2.8.6-4.2.7-1.6.2-3.2.3-4.9.3-4.7,0-9.4-1.1-13.5-3.3-3.9-2.2-7.1-5.5-9.2-9.5-2.3-4.4-3.4-9.3-3.3-14.3ZM2205.3,484.4h30.2c0-1.3-.2-2.6-.5-3.8-.8-2.9-2.4-5.5-4.6-7.5-1.2-1.1-2.7-2-4.2-2.5-1.8-.7-3.7-1-5.6-1-1.9,0-3.7.3-5.5.9-1.6.5-3,1.4-4.2,2.5-2.2,2-3.9,4.6-4.8,7.5-.4,1.3-.6,2.6-.7,4h0Z"/>
  <path class="st0" d="M2255.8,514.8v-51.8h10.6v8.2c-.1,0,.2,0,.2,0,1.5-2.7,3.6-5,6.3-6.6,2.9-1.7,6.2-2.6,9.5-2.5,2.6,0,5.1.3,7.6,1.1,2,.6,3.8,1.7,5.3,3,1.4,1.4,2.6,3,3.4,4.8.9,1.9,1.5,4,1.8,6,.3,2.3.5,4.7.5,7.1v30.6h-10.6v-28.9c0-1.7,0-3.3-.2-5-.2-1.4-.5-2.8-.9-4.1-.4-1.2-1-2.3-1.8-3.3-.9-.9-1.9-1.6-3.1-2-1.5-.6-3.1-.8-4.7-.8-1.3,0-2.5.2-3.8.5-2.2.6-4.1,1.8-5.5,3.5-.7.9-1.3,1.8-1.8,2.8-.5,1.1-.9,2.2-1.2,3.3-.3,1.3-.6,2.5-.7,3.8-.1,1.4-.2,2.8-.2,4.1v26h-10.5Z"/>
  <path class="st0" d="M2334.4,480.9c0-17.4,5.3-34.1,15.9-50l6.6,3.6c-1.7,2.6-3.1,5.3-4.4,8.1-1.6,3.6-3,7.2-4.2,10.9-1.4,4.4-2.5,8.8-3.3,13.3-1.7,9.3-1.7,18.9,0,28.2.8,4.5,1.9,9,3.3,13.4,1.2,3.7,2.6,7.3,4.2,10.9,1.2,2.8,2.7,5.5,4.4,8.1l-6.6,3.6c-10.6-16-15.9-32.6-15.9-50Z"/>
  <path class="st0" d="M2366.8,448v-8.4h25v75.2h-10.4v-66.8h-14.6Z"/>
  <path class="st0" d="M2414,448v-8.4h51.2l2.9,6-36.2,69.2h-11.1l35.6-66.8h-42.3Z"/>
  <path class="st0" d="M2474.4,464.6c0-3.5.6-6.9,1.8-10.2,1.1-3.1,2.8-5.9,5.1-8.3,2.3-2.4,5.1-4.3,8.1-5.5,3.4-1.4,7-2.1,10.7-2,9.9,0,17.5,4.3,22.7,13,1.7,3,3,6.3,3.7,9.7,1.1,4.8,1.6,9.8,1.5,14.8,0,5.9-.7,11.7-2.4,17.4-1.3,4.6-3.5,9-6.4,12.8-5.3,6.7-12.4,10-21.2,10-1.8,0-3.6-.1-5.3-.4-1.5-.2-3-.5-4.4-.8-1.3-.3-2.6-.8-3.8-1.3-1.3-.6-2.3-1-3-1.4-.9-.5-1.7-1-2.5-1.6-1-.7-1.6-1.1-1.7-1.2l-1.2-1,4.5-6.9c2.1,1.9,4.6,3.3,7.3,4.3,3.1,1.2,6.5,1.9,9.9,1.9,1.9,0,3.9-.2,5.7-.8,1.6-.5,3.1-1.3,4.5-2.3,1.4-1.1,2.6-2.4,3.7-3.8,4.2-5.5,6.3-13.7,6.3-24.4-.7,1.5-1.6,2.8-2.6,4.1-1.2,1.4-2.5,2.6-4,3.6-1.8,1.3-3.8,2.2-5.9,2.8-2.5.7-5.2,1-7.8,1-3,0-5.9-.5-8.6-1.6-2.7-1.1-5.2-2.6-7.4-4.6-2.2-2.1-4-4.6-5.2-7.4-1.3-3.1-2-6.4-2-9.8ZM2484.8,463.2c0,2.1.3,4.1,1,6.1.6,1.9,1.6,3.7,2.9,5.2,1.3,1.6,3,2.8,4.9,3.6,2.1.9,4.4,1.4,6.8,1.3,2.4,0,4.7-.4,6.9-1.3,1.9-.8,3.6-2,5-3.6,1.3-1.6,2.3-3.3,2.9-5.2,1.4-4,1.4-8.3,0-12.3-.7-1.9-1.6-3.6-2.9-5.2-1.4-1.6-3.1-2.8-5-3.6-2.2-.9-4.5-1.4-6.9-1.4-1.9,0-3.8.3-5.6.9-1.6.5-3.1,1.3-4.4,2.4-1.2,1-2.2,2.3-3.1,3.6-.8,1.4-1.5,2.9-1.9,4.5-.4,1.6-.6,3.3-.6,5h0Z"/>
  <path class="st0" d="M2540.5,448v-8.4h25v75.2h-10.4v-66.8h-14.6Z"/>
  <path class="st0" d="M2583.9,489.3v-8.8h40.3v8.8h-40.3Z"/>
  <path class="st0" d="M2637.7,448v-8.4h25v75.2h-10.4v-66.8h-14.6Z"/>
  <path class="st0" d="M2684.5,494.1c-.1-4.3,1.2-8.6,3.8-12.1,2.6-3.4,6.2-5.8,10.2-7v-.4c-1.1-.4-2.1-.8-3.1-1.4-1.1-.6-2.2-1.3-3.1-2.2-1.1-.9-2.1-1.9-2.9-3.1-.9-1.3-1.5-2.8-1.9-4.3-.5-1.9-.8-3.8-.8-5.8,0-5.6,2.6-10.9,7.1-14.3,2.3-1.7,4.8-2.9,7.5-3.7,5.9-1.7,12.2-1.7,18.1,0,2.7.8,5.2,2,7.5,3.7,4.5,3.3,7.1,8.6,7.1,14.3,0,2-.2,3.9-.8,5.8-.4,1.5-1.1,3-1.9,4.4-.8,1.2-1.7,2.2-2.8,3.1-1,.8-2,1.6-3.1,2.2-1,.6-2.1,1-3.1,1.5v.3c2,.7,4,1.6,5.7,2.8,1.7,1.2,3.2,2.6,4.5,4.2,1.3,1.6,2.3,3.5,2.9,5.5.7,2.2,1,4.4,1,6.7,0,3.2-.6,6.4-2,9.4-1.2,2.7-3.1,5.1-5.5,6.9-2.5,1.9-5.3,3.3-8.3,4.2-6.7,1.9-13.9,1.9-20.6,0-3-.9-5.7-2.3-8.2-4.2-2.3-1.9-4.2-4.2-5.4-6.9-1.3-2.9-1.9-6.1-1.9-9.4ZM2694.9,493.2c0,2.1.4,4.1,1.2,6,.8,1.8,1.9,3.3,3.3,4.6,1.5,1.2,3.1,2.2,4.9,2.8,1.9.7,4,1,6,1,2,0,4.1-.3,6-1,1.8-.6,3.5-1.6,4.9-2.8,1.4-1.3,2.6-2.8,3.3-4.6.8-1.9,1.2-3.9,1.2-6,0-2.7-.6-5.3-2-7.6-1.3-2.2-3.2-3.9-5.5-5-2.5-1.2-5.2-1.7-7.9-1.7-4.1-.2-8,1.2-11.1,3.9-3,2.7-4.6,6.5-4.4,10.5ZM2697.1,458.7c-.2,3.3,1.2,6.5,3.7,8.7,5.7,4.2,13.4,4.2,19.1,0,2.5-2.2,3.9-5.4,3.7-8.7,0-1.4-.2-2.8-.7-4.2-.4-1.2-1-2.3-1.9-3.3-.8-.9-1.8-1.8-2.9-2.4-1.1-.7-2.4-1.2-3.7-1.5-1.4-.3-2.8-.5-4.2-.5-1.8,0-3.6.2-5.2.8-1.5.5-3,1.3-4.2,2.3-1.2,1-2.2,2.3-2.8,3.7-.7,1.6-1,3.3-1,5.1h0Z"/>
  <path class="st0" d="M2747.2,503.4l5.9-6.1c.9,1.4,1.9,2.8,3.1,3.9,1.3,1.2,2.7,2.3,4.3,3.2,1.7.9,3.5,1.7,5.3,2.1,2,.5,4,.8,6,.8,1.7,0,3.4-.2,5.1-.6,1.7-.4,3.3-1.1,4.7-2,1.5-.9,2.8-2,4-3.3,1.2-1.4,2.1-3,2.7-4.7.7-2,1-4,1-6.1,0-1.7-.2-3.5-.7-5.2-.4-1.5-1-2.9-1.9-4.2-.8-1.2-1.8-2.3-2.9-3.2-1.1-.9-2.3-1.7-3.6-2.3-1.3-.6-2.6-1-4-1.3-1.4-.3-2.8-.4-4.3-.4-1.7,0-3.4.2-5,.5-1.6.3-3.2.8-4.7,1.4-1.3.5-2.6,1.3-3.7,2.2l-5.3-3.2,6.6-35.3h37.8v8.4h-30.3l-3.9,20c3.3-1.7,7-2.5,10.7-2.4,1.8,0,3.5.2,5.3.5,1.8.3,3.5.9,5.2,1.5,1.7.7,3.3,1.5,4.8,2.5,1.5,1,2.9,2.2,4.2,3.6,1.3,1.4,2.4,2.9,3.3,4.6.9,1.8,1.6,3.7,2,5.7.5,2.2.8,4.4.8,6.6,0,2.6-.3,5.1-1.1,7.6-.7,2.3-1.7,4.4-3,6.4-2.6,3.7-6.2,6.7-10.3,8.6-2.1,1-4.3,1.7-6.5,2.2-2.3.5-4.6.8-7,.8-2.6,0-5.2-.3-7.7-.9-2.2-.5-4.3-1.2-6.3-2.2-1.7-.9-3.3-1.9-4.9-3.1-1.3-1-2.5-2.1-3.6-3.4-.8-1-1.6-2.1-2.2-3.2Z"/>
  <path class="st0" d="M2812.3,494.1c-.1-4.3,1.2-8.6,3.8-12.1,2.6-3.4,6.2-5.8,10.2-7v-.4c-1.1-.4-2.1-.8-3.1-1.4-1.1-.6-2.2-1.3-3.2-2.1-1.1-.9-2.1-1.9-2.9-3.1-.9-1.3-1.5-2.8-1.9-4.3-.5-1.9-.8-3.8-.8-5.8,0-5.6,2.6-10.9,7.1-14.3,2.3-1.7,4.8-2.9,7.5-3.7,5.9-1.7,12.2-1.7,18.1,0,2.7.8,5.2,2,7.5,3.7,4.5,3.3,7.1,8.6,7.1,14.3,0,2-.2,3.9-.8,5.8-.4,1.5-1.1,3-1.9,4.4-.8,1.2-1.7,2.2-2.8,3.1-1,.8-2,1.6-3.1,2.2-1,.6-2.1,1-3.1,1.5v.3c2,.7,4,1.6,5.7,2.8,1.7,1.2,3.2,2.6,4.5,4.2,1.3,1.6,2.3,3.5,2.9,5.5.7,2.2,1,4.4,1,6.7,0,3.2-.6,6.4-2,9.4-1.2,2.7-3.1,5.1-5.5,6.9-2.5,1.9-5.3,3.3-8.3,4.2-6.7,1.9-13.9,1.9-20.6,0-3-.9-5.7-2.3-8.2-4.2-2.3-1.9-4.2-4.2-5.4-6.9-1.3-3-1.9-6.2-1.8-9.4ZM2822.6,493.2c0,2.1.4,4.1,1.2,6,.8,1.8,1.9,3.3,3.3,4.6,1.5,1.2,3.1,2.2,4.9,2.8,1.9.7,4,1,6,1,2,0,4.1-.3,6-1,1.8-.6,3.5-1.6,4.9-2.8,1.4-1.3,2.6-2.8,3.3-4.6.8-1.9,1.2-3.9,1.2-6,0-2.7-.6-5.3-2-7.6-1.3-2.2-3.2-3.9-5.5-5-2.5-1.2-5.2-1.7-7.9-1.7-4.1-.2-8,1.2-11.1,3.9-3,2.7-4.6,6.5-4.4,10.5ZM2824.8,458.7c-.2,3.3,1.2,6.5,3.7,8.7,5.7,4.2,13.4,4.2,19.1,0,2.5-2.2,3.9-5.4,3.7-8.7,0-1.4-.2-2.8-.7-4.2-.4-1.2-1-2.3-1.9-3.3-.8-.9-1.8-1.8-2.9-2.4-1.1-.7-2.4-1.2-3.7-1.5-1.4-.3-2.8-.5-4.2-.5-1.8,0-3.6.2-5.2.8-1.5.5-3,1.3-4.2,2.3-1.2,1-2.2,2.3-2.8,3.7-.7,1.6-1,3.3-1,5.1Z"/>
  <path class="st0" d="M2872.9,527.4c1.7-2.6,3.1-5.3,4.4-8.1,1.6-3.6,3-7.2,4.2-10.9,1.4-4.4,2.5-8.8,3.3-13.4,1.7-9.3,1.7-18.9,0-28.2-.8-4.5-1.9-9-3.3-13.3-1.2-3.7-2.6-7.3-4.2-10.9-1.3-2.8-2.7-5.5-4.4-8.1l6.6-3.6c10.8,15.9,16.3,32.5,16.3,50s-5.4,34.1-16.3,50l-6.6-3.5Z"/>
  <path class="st0" d="M1014.4,701.8c-1.9-6.1-1.9-12.5,0-18.6.9-2.7,2.2-5.3,3.9-7.6,3.4-4.4,8.1-7.5,13.3-9.1,5.6-1.6,11.4-1.6,17,0,5.3,1.5,10,4.7,13.3,9.1,1.7,2.3,3.1,4.8,3.9,7.6,1,3,1.4,6.1,1.4,9.3,0,2.6-.3,5.1-.9,7.6-.6,2.3-1.4,4.5-2.5,6.5-1.1,1.9-2.4,3.7-3.9,5.3l5.8,6.6-4.8,4.3-6-6.9c-4.5,2.6-9.6,4-14.8,3.9-2.9,0-5.7-.4-8.5-1.2-2.7-.8-5.2-2-7.4-3.5-2.2-1.5-4.2-3.4-5.9-5.6-1.8-2.3-3.1-4.8-4-7.6ZM1020.6,692.4c0,2.9.5,5.9,1.6,8.6.9,2.5,2.4,4.7,4.2,6.5,1.8,1.7,3.9,3.1,6.2,4,2.4,1,5,1.5,7.6,1.4,3.5,0,7-.9,10.1-2.6l-4.4-5,4.8-4.3,4.5,5.2c3.2-3.9,4.8-8.9,4.7-13.9,0-3-.5-5.9-1.6-8.6-.9-2.4-2.4-4.7-4.2-6.5-1.8-1.7-3.9-3.1-6.2-4-4.9-1.9-10.3-1.9-15.2,0-2.3.9-4.4,2.3-6.2,4-1.9,1.9-3.3,4.1-4.2,6.5-1.1,2.8-1.6,5.7-1.6,8.6h0Z"/>
  <path class="st0" d="M1075.9,718.8v-52.6h14.8c5.3,0,9.5,1.2,12.6,3.7,1,.8,1.9,1.8,2.7,2.9.8,1.2,1.4,2.4,1.8,3.8.4,1.4.6,3,.6,4.5,0,1.7-.2,3.3-.7,4.9-.4,1.4-1,2.7-1.9,3.8-.8,1-1.7,2-2.7,2.8-1,.8-2.1,1.4-3.2,1.9-1.1.4-2.2.8-3.4,1l15,23.5h-8.9l-13.7-22.7h-5.7v22.7h-7.4ZM1083.3,690.1h5.4c1.7,0,3.5,0,5.2-.3,1.3-.2,2.5-.7,3.6-1.5,1.1-.8,2-1.8,2.6-3,.6-1.3.8-2.7.8-4.1,0-1.4-.2-2.7-.8-4-.6-1.2-1.5-2.2-2.6-3-.6-.4-1.2-.7-1.8-1-.7-.3-1.4-.5-2.2-.6-.8-.1-1.5-.2-2.2-.2-.7,0-1.6,0-2.6,0h-5.4v17.8Z"/>
  <path class="st0" d="M1113.2,701v-6.2h18.5v6.2h-18.5Z"/>
  <path class="st0" d="M1136.3,692.5c0-3.8.7-7.6,2.1-11.1,1.3-3.2,3.2-6.1,5.7-8.6,2.5-2.4,5.4-4.2,8.6-5.4,3.4-1.3,7-2,10.6-2,2.2,0,4.4.2,6.6.7,1.9.4,3.7,1,5.4,1.8,1.3.6,2.6,1.3,3.8,2.2,1,.7,1.9,1.4,2.8,2.2l-3.1,6c-.7-.8-1.4-1.5-2.3-2.1-1.1-.8-2.2-1.5-3.4-2.1-1.4-.7-2.9-1.3-4.5-1.6-1.7-.4-3.4-.6-5.1-.6-2.7,0-5.4.5-7.9,1.5-2.3.9-4.5,2.3-6.2,4.1-1.8,1.9-3.2,4.1-4.1,6.5-1,2.7-1.5,5.6-1.5,8.5,0,2.9.5,5.8,1.5,8.5.9,2.4,2.3,4.7,4.1,6.5,1.8,1.8,3.9,3.2,6.2,4.2,2.5,1,5.1,1.5,7.8,1.5,3.1,0,6.2-.5,9-1.7,2.6-1.1,4.9-2.7,6.8-4.7l3.2,5.5c-.9,1-1.9,2-3,2.8-1.3.9-2.6,1.7-4,2.4-1.7.8-3.6,1.5-5.5,1.8-2.2.5-4.4.7-6.7.7-3.7,0-7.3-.7-10.7-2-3.2-1.2-6.1-3.1-8.6-5.5-2.5-2.5-4.4-5.4-5.6-8.6-1.4-3.5-2.1-7.3-2.1-11.1Z"/>
  <path class="st0" d="M1186.1,700.8c0-2.6.5-5.3,1.5-7.7.9-2.3,2.3-4.3,4.1-6,1.8-1.7,3.8-3,6.1-3.8,2.4-.9,5-1.4,7.6-1.4,2.6,0,5.1.4,7.5,1.4,2.3.9,4.3,2.2,6.1,3.8,1.7,1.7,3.1,3.7,4,6,2,4.9,2,10.4,0,15.4-.9,2.3-2.3,4.3-4,6-1.8,1.7-3.8,3-6.1,3.8-2.4.9-4.9,1.4-7.5,1.4-1.5,0-3-.1-4.5-.4-1.4-.3-2.8-.7-4.1-1.3-1.3-.6-2.4-1.3-3.6-2.1-1.1-.8-2.1-1.8-3-2.8-.9-1.1-1.6-2.2-2.2-3.5-.6-1.3-1.1-2.7-1.4-4.1-.3-1.5-.5-3.1-.5-4.6ZM1193.5,700.6c0,2.3.4,4.5,1.4,6.5.9,1.9,2.4,3.5,4.1,4.6,1.9,1.2,4.1,1.8,6.3,1.7,2.2,0,4.4-.6,6.2-1.7,1.8-1.1,3.2-2.7,4.1-4.6,1-2,1.4-4.3,1.4-6.5,0-2.2-.4-4.4-1.4-6.5-1.9-4-5.9-6.5-10.3-6.4-2.2,0-4.4.6-6.3,1.7-1.8,1.1-3.2,2.7-4.1,4.6-1,2-1.5,4.2-1.4,6.5Z"/>
  <path class="st0" d="M1229.7,700.7c0-3.3.7-6.6,2.1-9.6,1.4-2.8,3.5-5.1,6.1-6.7,2.8-1.7,6-2.5,9.2-2.5,2.6,0,5.1.5,7.5,1.7,2.1,1.1,3.9,2.6,5.2,4.6h.1v-22h7.3v52.7h-7v-5.7h-.2c-1,1.4-2.1,2.6-3.5,3.7-1.3,1-2.8,1.7-4.3,2.2-1.6.5-3.3.7-5,.7-2,0-4-.3-5.9-.9-1.8-.6-3.4-1.5-4.9-2.7-1.4-1.2-2.6-2.5-3.6-4.1-1-1.6-1.8-3.4-2.3-5.2-.5-2-.8-4-.8-6.1ZM1237,700.6c0,1.7.3,3.5.8,5.1.5,1.5,1.3,2.9,2.3,4.1,1,1.2,2.2,2.1,3.7,2.7,1.5.7,3.2,1,4.9,1,2.2,0,4.3-.5,6.2-1.7,1.7-1.1,3.1-2.7,4-4.6,1.8-4.2,1.8-8.9,0-13.1-.9-1.9-2.3-3.5-4-4.6-3.8-2.2-8.6-2.2-12.4,0-1.7,1.1-3.1,2.7-4,4.6-.9,2.1-1.4,4.3-1.4,6.5h0Z"/>
  <path class="st0" d="M1275.2,700.7c0-2.6.5-5.3,1.5-7.7.9-2.3,2.3-4.3,4-6,1.7-1.6,3.7-2.9,5.8-3.7,2.3-.9,4.7-1.3,7.1-1.3,3.1,0,6.2.7,8.9,2.2,2.6,1.4,4.7,3.6,6.1,6.2,1.5,2.8,2.3,5.9,2.2,9,0,.4,0,.9,0,1.4,0,.5,0,1-.1,1.3v.5h-28.1c0,3.1,1.2,6.1,3.4,8.3,2.2,2.1,5.2,3.1,8.2,3,1.1,0,2.1,0,3.2-.3.9-.1,1.8-.4,2.7-.7.8-.3,1.6-.6,2.3-1,.6-.3,1.2-.6,1.8-1l1.3-.8.7-.5,3.1,4.2c-.1,0-.2.2-.3.3-.2.2-.4.4-.7.6-.2.2-.6.5-1,.8-.4.3-.9.6-1.4.9-.5.3-1.1.6-1.7.9-.7.4-1.4.7-2.2.9-.8.3-1.6.5-2.5.7-1,.2-2,.4-3,.5-1.1.1-2.3.2-3.4.2-3.3,0-6.6-.7-9.4-2.3-2.7-1.5-5-3.9-6.4-6.7-1.6-3.1-2.3-6.5-2.3-10ZM1282.6,697.5h21.2c0-.9-.1-1.8-.4-2.7-.6-2-1.7-3.8-3.2-5.3-.9-.8-1.9-1.4-3-1.8-1.2-.5-2.6-.7-3.9-.7-1.3,0-2.6.2-3.9.7-1.1.4-2.1,1-3,1.7-1.6,1.4-2.7,3.2-3.4,5.2-.3.9-.4,1.8-.4,2.8h0Z"/>
  <path class="st0" d="M1329.6,712.9l3.5-4.1c2.7,3,6.6,4.8,10.7,5,.8,0,1.7,0,2.5-.3.8-.2,1.5-.4,2.2-.8.7-.4,1.2-.9,1.6-1.6.4-.7.6-1.6.6-2.4,0-.5-.1-1-.3-1.5-.2-.5-.5-.9-.9-1.2-.4-.3-.8-.7-1.2-.9-.5-.3-1-.6-1.5-.8-.6-.2-1.1-.4-1.5-.6-.4-.1-.9-.3-1.5-.5-.4-.1-.8-.2-1.2-.4-.5-.1-1-.3-1.5-.5l-1.3-.4c-.3,0-.6-.2-1-.4-.4-.2-.8-.4-1.2-.6-3.8-1.9-5.7-4.7-5.7-8.4,0-1.6.3-3.2,1-4.6.6-1.3,1.6-2.5,2.7-3.4,1.2-.9,2.5-1.6,3.9-2,1.5-.5,3-.7,4.6-.7,5.3,0,9.5,1.7,12.4,5.2l-3.1,4.5c-.8-.7-1.6-1.4-2.5-1.9-1-.6-2.1-1-3.2-1.4-1.1-.3-2.3-.5-3.4-.5-1.5,0-3,.3-4.2,1.1-1,.8-1.6,2-1.5,3.3,0,.5.1,1.1.4,1.5.3.5.6.9,1,1.2.5.4,1.1.7,1.6,1,.6.3,1.2.6,1.9.8l2.1.7c2,.7,3.6,1.2,4.9,1.7,1.6.6,3,1.4,4.2,2.5,1.9,1.6,2.9,4,2.9,6.5.1,3.2-1.3,6.3-3.8,8.4-2.8,2.2-6.4,3.4-10,3.2-2.8,0-5.6-.6-8.1-1.8-2.4-1.2-4.4-2.9-6-5Z"/>
  <path class="st0" d="M1362.2,700.8c0-2.7.5-5.4,1.5-7.9.9-2.3,2.3-4.3,4.1-6,3.5-3.2,8.1-5,12.9-5,1.5,0,2.9.1,4.4.3,1.2.2,2.4.5,3.5.9,1,.4,1.8.8,2.6,1.2.7.3,1.3.8,1.9,1.3.5.5.9.8,1.1,1,.2.2.3.4.5.5l-2.6,5.3-1-.9c-.5-.4-1-.8-1.5-1.1-.7-.5-1.4-.8-2.1-1.2-.9-.3-1.8-.6-2.7-.8-1.1-.2-2.3-.4-3.5-.4-1.6,0-3.1.3-4.6.9-1.4.6-2.7,1.4-3.7,2.5-1.1,1.1-2,2.5-2.6,4-.6,1.6-1,3.4-.9,5.2-.1,3.4,1,6.7,3.3,9.3,2.2,2.4,5.3,3.7,8.6,3.6,1.3,0,2.6-.2,3.8-.5,1.1-.3,2.1-.6,3.1-1.1.8-.4,1.5-.9,2.2-1.3.5-.3,1-.7,1.4-1.1l.4-.5,2.6,5.3-.2.2c-.4.4-.8.8-1.1,1.1-.6.5-1.2.9-1.8,1.3-.9.6-1.8,1-2.8,1.4-1.2.4-2.4.8-3.7,1-1.6.3-3.2.4-4.9.4-4.8,0-9.3-1.8-12.8-5.1-1.7-1.7-3.1-3.7-4-6-1-2.5-1.5-5.2-1.5-7.9Z"/>
  <path class="st0" d="M1397.8,708.4c0-2.1.6-4.2,1.8-5.9,1.3-1.7,3-3,5-3.7,2.4-.9,4.9-1.4,7.4-1.4l9.7-.4v-1.4c.1-2.2-.8-4.4-2.4-5.8-1.9-1.4-4.2-2.1-6.5-2-1.7,0-3.3.2-4.9.7-1.3.3-2.6.7-3.8,1.2-.8.4-1.6.7-2.2,1.1l-2.2-5.1c5.3-3.2,11.5-4.4,17.7-3.5,1.1.2,2.2.5,3.3.8.9.3,1.8.8,2.6,1.3.7.5,1.4,1.1,2.1,1.7,1.3,1.3,2.3,2.9,2.9,4.7.7,2.3,1.1,4.7,1,7.1v21.1h-7.1v-4.6c0,0-.2.2-.2.2-.5.5-.9.9-1.2,1.2-.5.5-1.1.9-1.6,1.3-.7.5-1.5,1-2.2,1.4-.9.4-1.8.7-2.8.9-1.1.3-2.3.4-3.5.4-1.6,0-3.2-.3-4.8-.8-1.5-.5-2.8-1.2-4-2.2-1.2-1-2.1-2.2-2.7-3.5-.7-1.5-1.1-3.1-1.1-4.7ZM1405,708.2c0,1.1.3,2.2.8,3.1.6,1,1.5,1.8,2.6,2.3,1.3.6,2.7.9,4.1.8,1.1,0,2.2-.2,3.2-.5,1-.3,1.9-.8,2.7-1.3.7-.5,1.3-1.1,1.9-1.7.5-.5,1-1.1,1.4-1.7v-7.8l-8.5.5c-2.8.1-4.9.8-6.2,1.9-1.3,1.1-2.1,2.7-2,4.4h0Z"/>
  <path class="st0" d="M1438.3,718.8v-36.3h7.4v5.7c0,0,.1,0,.1,0,1-1.9,2.5-3.5,4.4-4.6,2-1.2,4.3-1.8,6.7-1.8,1.8,0,3.6.2,5.3.8,1.4.4,2.7,1.2,3.7,2.1,1,1,1.8,2.1,2.3,3.4.6,1.4,1,2.8,1.2,4.2.2,1.7.4,3.3.3,5v21.4h-7.4v-20.2c0-1.2,0-2.3-.2-3.5-.1-1-.3-1.9-.6-2.9-.3-.9-.7-1.6-1.3-2.3-.6-.6-1.4-1.1-2.2-1.4-1-.4-2.2-.6-3.3-.5-.9,0-1.8.1-2.6.3-.8.2-1.5.6-2.2,1-.6.4-1.2.9-1.7,1.5-.5.6-.9,1.3-1.3,2-.4.7-.7,1.5-.9,2.3-.2.9-.4,1.8-.5,2.7-.1,1-.2,1.9-.2,2.9v18.1h-7.4Z"/>
  <path class="st0" d="M1479.5,718.8v-36.3h7.4v5.7c0,0,.1,0,.1,0,1-1.9,2.5-3.5,4.4-4.6,2-1.2,4.3-1.8,6.7-1.8,1.8,0,3.6.2,5.3.8,1.4.4,2.7,1.2,3.7,2.1,1,1,1.8,2.1,2.3,3.4.6,1.4,1,2.8,1.2,4.2.2,1.7.4,3.3.3,5v21.4h-7.4v-20.2c0-1.2,0-2.3-.2-3.5-.1-1-.3-1.9-.6-2.9-.3-.9-.7-1.6-1.3-2.3-.6-.6-1.4-1.1-2.2-1.4-1-.4-2.2-.6-3.3-.5-.9,0-1.8.1-2.6.3-.8.2-1.5.6-2.2,1-.6.4-1.2.9-1.7,1.5-.5.6-.9,1.3-1.3,2-.4.7-.7,1.5-.9,2.3-.2.9-.4,1.8-.5,2.7-.1,1-.2,1.9-.2,2.9v18.1h-7.4Z"/>
  <path class="st0" d="M1518.3,700.7c0-2.6.5-5.3,1.5-7.7.9-2.3,2.3-4.3,4-6,1.7-1.6,3.7-2.9,5.8-3.7,2.3-.9,4.7-1.3,7.1-1.3,3.1,0,6.2.7,8.9,2.2,2.6,1.4,4.7,3.6,6.1,6.2,1.5,2.8,2.3,5.9,2.2,9,0,.4,0,.9,0,1.4s0,1-.1,1.3v.5h-28.1c0,3.1,1.2,6.1,3.4,8.3,2.2,2.1,5.2,3.1,8.2,3,1.1,0,2.1,0,3.2-.3.9-.1,1.8-.4,2.7-.7.8-.3,1.6-.6,2.3-1,.6-.3,1.2-.6,1.8-1l1.3-.8.7-.5,3.1,4.2c-.1,0-.2.2-.3.3-.2.2-.4.4-.7.6s-.6.5-1,.8c-.4.3-.9.6-1.4.9-.5.3-1.1.6-1.7.9-.7.4-1.4.7-2.2.9-.8.3-1.6.5-2.5.7-1,.2-2,.4-3,.5-1.1.1-2.3.2-3.4.2-3.3,0-6.6-.7-9.4-2.3-2.7-1.5-5-3.9-6.4-6.7-1.6-3.1-2.3-6.5-2.3-10ZM1525.8,697.5h21.2c0-.9-.1-1.8-.4-2.7-.6-2-1.7-3.8-3.2-5.3-.9-.8-1.9-1.4-3-1.8-1.2-.5-2.6-.7-3.9-.7-1.3,0-2.6.2-3.9.7-1.1.4-2.1,1-3,1.7-1.6,1.4-2.7,3.2-3.4,5.2-.3.9-.4,1.8-.4,2.8h0Z"/>
  <path class="st0" d="M1561.1,718.8v-36.3h7.4v5.7c0,0,.1,0,.1,0,1-1.9,2.5-3.5,4.4-4.6,2-1.2,4.3-1.8,6.7-1.8,1.8,0,3.6.2,5.3.8,1.4.4,2.7,1.2,3.7,2.1,1,1,1.8,2.1,2.3,3.4.6,1.4,1,2.8,1.2,4.2.2,1.7.4,3.3.3,5v21.4h-7.4v-20.2c0-1.2,0-2.3-.2-3.5-.1-1-.3-1.9-.6-2.9-.3-.9-.7-1.6-1.3-2.3-.6-.6-1.4-1.1-2.2-1.4-1-.4-2.2-.6-3.3-.5-.9,0-1.8.1-2.6.3-.8.2-1.5.6-2.2,1-.6.4-1.2.9-1.7,1.5-.5.6-.9,1.3-1.3,2-.4.7-.7,1.5-.9,2.3-.2.9-.4,1.8-.5,2.7-.1,1-.2,1.9-.2,2.9v18.1h-7.4Z"/>
  <path class="st0" d="M1601.9,729.5l5.3-18.8h7.5l-7,18.8h-5.8Z"/>
  <path class="st0" d="M1640.1,704.2v-21.8h7.2v21.4c0,.8,0,1.6.1,2.5,0,.8.2,1.5.4,2.2.2.7.4,1.4.8,2,.4.6.8,1.1,1.3,1.5.6.5,1.3.8,2,1,.9.3,1.9.4,2.8.4,1.4,0,2.8-.3,4.1-.9,1.2-.6,2.1-1.5,2.8-2.6.7-1.1,1.3-2.4,1.6-3.7.4-1.4.5-2.9.5-4.4v-19.4h7.4v36.3h-7.2v-5.3c-1.1,1.9-2.7,3.4-4.6,4.4-2.1,1.1-4.4,1.7-6.7,1.7-4.5,0-7.9-1.4-10-4.2-1.8-2.4-2.7-6.2-2.7-11.2Z"/>
  <path class="st0" d="M1681.2,718.8v-36.3h7.4v5.7c0,0,.1,0,.1,0,1-1.8,2.4-3.4,4.2-4.5,1.8-1.2,4-1.9,6.2-1.9,2.4,0,4.8.5,6.8,1.8,1.9,1.3,3.3,3.2,4,5.3,1.1-2.2,2.8-4,4.8-5.3,2-1.3,4.3-1.9,6.7-1.8,1.7,0,3.4.2,5,.8,1.3.5,2.5,1.2,3.5,2.2.9,1,1.7,2.1,2.2,3.3.6,1.3,1,2.7,1.2,4,.2,1.5.4,3.1.3,4.6v22h-7.2v-21.1c0-.9,0-1.8-.1-2.7-.1-.9-.3-1.8-.6-2.6-.2-.8-.6-1.6-1.1-2.3-.5-.7-1.2-1.2-1.9-1.6-.9-.4-1.9-.7-2.9-.6-1.7,0-3.5.6-4.8,1.7-1.4,1.2-2.4,2.7-2.9,4.4-.7,1.9-1,4-.9,6v18.8h-7.4v-21.1c0-1,0-2.1-.2-3.1-.1-.9-.3-1.8-.6-2.6-.3-.8-.7-1.5-1.2-2.2-.5-.6-1.1-1.1-1.9-1.4-.9-.4-1.8-.5-2.7-.5-1.8,0-3.5.6-4.8,1.7-1.4,1.2-2.4,2.7-2.9,4.4-.6,1.9-1,4-.9,6v18.8h-7.4Z"/>
  <path class="st0" d="M1755.2,718.8v-4.5l21.2-25.8h-20.1v-5.9h29.5v4.4l-21.1,25.7h22.2v6h-31.6Z"/>
  <path class="st0" d="M1793,704.2v-21.8h7.2v21.4c0,.8,0,1.6.1,2.5,0,.8.2,1.5.4,2.2.2.7.4,1.4.8,2,.4.6.8,1.1,1.3,1.5.6.5,1.3.8,2,1,.9.3,1.9.4,2.8.4,1.4,0,2.8-.3,4.1-.9,1.2-.6,2.1-1.5,2.8-2.6.7-1.1,1.3-2.4,1.6-3.7.4-1.4.5-2.9.5-4.4v-19.4h7.4v36.3h-7.2v-5.3c-1.1,1.9-2.7,3.4-4.6,4.4-2.1,1.1-4.4,1.7-6.7,1.7-4.5,0-7.9-1.4-10-4.2-1.8-2.4-2.7-6.2-2.7-11.2Z"/>
  <path class="st0" d="M1834.2,718.8v-36.3h7.4v5.7c0,0,.1,0,.1,0,.5-1.3,1.3-2.5,2.2-3.5.8-.9,1.9-1.6,3-2.1,1.2-.5,2.4-.7,3.6-.7.7,0,1.4,0,2.1.2.5,0,.9.2,1.4.3h.4c0,.1-.4,6.3-.4,6.3h-4.3c-1.3,0-2.5.3-3.6,1-.9.5-1.7,1.2-2.3,2.1-1.5,2.2-2.2,5.2-2.2,9.1v18h-7.4Z"/>
  <path class="st0" d="M1014.4,785.8c-1.9-6.1-1.9-12.5,0-18.6.9-2.7,2.2-5.3,3.9-7.6,3.4-4.4,8.1-7.5,13.3-9.1,5.6-1.6,11.4-1.6,17,0,5.3,1.5,10,4.7,13.3,9.1,1.7,2.3,3.1,4.8,3.9,7.6,1.9,6.1,1.9,12.5,0,18.6-.9,2.7-2.2,5.3-3.9,7.6-1.7,2.2-3.7,4-5.9,5.6-2.3,1.6-4.8,2.8-7.4,3.5-5.6,1.6-11.4,1.6-17,0-2.7-.8-5.2-2-7.4-3.5-2.2-1.5-4.2-3.4-5.9-5.6-1.7-2.3-3.1-4.8-3.9-7.6ZM1020.6,776.4c0,2.9.5,5.9,1.6,8.6.9,2.5,2.4,4.7,4.2,6.5,1.8,1.7,3.9,3.1,6.2,4,4.9,1.9,10.3,1.9,15.2,0,2.3-.9,4.4-2.3,6.2-4,1.9-1.9,3.3-4.1,4.2-6.5,2.1-5.6,2.1-11.7,0-17.3-.9-2.4-2.4-4.7-4.2-6.5-1.8-1.7-3.9-3.1-6.2-4-4.9-1.9-10.3-1.9-15.2,0-2.3.9-4.4,2.3-6.2,4-1.9,1.9-3.3,4.1-4.2,6.5-1.1,2.8-1.6,5.7-1.6,8.6h0Z"/>
  <path class="st0" d="M1075.1,802.8v-36.3h7.4v5.7c0,0,.1,0,.1,0,1-1.9,2.5-3.5,4.4-4.6,2-1.2,4.3-1.8,6.7-1.8,1.8,0,3.6.2,5.3.8,1.4.4,2.7,1.2,3.7,2.1,1,1,1.8,2.1,2.3,3.4.6,1.4,1,2.8,1.2,4.2.2,1.7.4,3.3.3,5v21.4h-7.4v-20.2c0-1.2,0-2.3-.2-3.5-.1-1-.3-1.9-.6-2.9-.3-.9-.7-1.6-1.3-2.3-.6-.6-1.4-1.1-2.2-1.4-1-.4-2.2-.6-3.3-.5-.9,0-1.8.1-2.6.3-.8.2-1.5.6-2.2,1-.6.4-1.2.9-1.7,1.5-.5.6-.9,1.3-1.3,2-.4.7-.7,1.5-.9,2.3-.2.9-.4,1.8-.5,2.7-.1,1-.2,1.9-.2,2.9v18.1h-7.4Z"/>
  <path class="st0" d="M1116.7,802.8v-52.6h7.3v52.6h-7.3Z"/>
  <path class="st0" d="M1134.9,757.9c-.9-.8-1.4-2-1.3-3.2,0-1.2.5-2.4,1.3-3.2.9-.9,2.2-1.3,3.5-1.3,1.3,0,2.5.4,3.4,1.3.9.8,1.4,2,1.3,3.2,0,1.2-.5,2.4-1.3,3.2-.9.9-2.1,1.3-3.4,1.3-1.3,0-2.5-.4-3.5-1.3ZM1134.7,802.8v-36.3h7.4v36.3h-7.4Z"/>
  <path class="st0" d="M1152.4,802.8v-36.3h7.4v5.7c0,0,.1,0,.1,0,1-1.9,2.5-3.5,4.4-4.6,2-1.2,4.3-1.8,6.7-1.8,1.8,0,3.6.2,5.3.8,1.4.4,2.7,1.2,3.7,2.1,1,1,1.8,2.1,2.3,3.4.6,1.4,1,2.8,1.2,4.2.2,1.7.4,3.3.3,5v21.4h-7.4v-20.2c0-1.2,0-2.3-.2-3.5-.1-1-.3-1.9-.6-2.9-.3-.9-.7-1.6-1.3-2.3-.6-.6-1.4-1.1-2.2-1.4-1-.4-2.2-.6-3.3-.5-.9,0-1.8.1-2.6.3-.8.2-1.5.6-2.2,1-.6.4-1.2.9-1.7,1.5-.5.6-.9,1.3-1.3,2-.4.7-.7,1.5-.9,2.3-.2.9-.4,1.8-.5,2.7-.1,1-.2,1.9-.2,2.9v18.1h-7.4Z"/>
  <path class="st0" d="M1191.2,784.7c0-2.6.5-5.3,1.5-7.7.9-2.3,2.3-4.3,4-6,1.7-1.6,3.7-2.9,5.8-3.7,2.3-.9,4.7-1.3,7.1-1.3,3.1,0,6.2.7,8.9,2.2,2.6,1.4,4.7,3.6,6.1,6.2,1.5,2.8,2.3,5.9,2.2,9,0,.4,0,.9,0,1.4,0,.5,0,1-.1,1.3v.5h-28.1c0,3.1,1.2,6.1,3.4,8.3,2.2,2.1,5.2,3.1,8.2,3,1.1,0,2.1,0,3.2-.3.9-.1,1.8-.4,2.7-.7.8-.3,1.6-.6,2.3-1,.6-.3,1.2-.6,1.8-1l1.3-.8.7-.5,3.1,4.2c-.1,0-.2.2-.3.3-.2.2-.4.4-.7.6-.2.2-.6.5-1,.8-.4.3-.9.6-1.4.9-.5.3-1.1.6-1.7.9-.7.4-1.4.7-2.2.9-.8.3-1.6.5-2.5.7-1,.2-2,.4-3,.5-1.1.1-2.3.2-3.4.2-3.3,0-6.6-.7-9.4-2.3-2.7-1.5-5-3.9-6.4-6.7-1.6-3.1-2.3-6.5-2.3-10ZM1198.6,781.5h21.2c0-.9-.1-1.8-.4-2.7-.6-2-1.7-3.8-3.2-5.3-.9-.8-1.9-1.4-3-1.8-1.2-.5-2.6-.7-3.9-.7-1.3,0-2.6.2-3.9.7-1.1.4-2.1,1-3,1.7-1.6,1.4-2.7,3.2-3.4,5.2-.3.9-.4,1.8-.4,2.8h0Z"/>
  <path class="st0" d="M1230.8,785v-6.2h18.5v6.2h-18.5Z"/>
  <path class="st0" d="M1257,802.8v-52.6h30.8v6.2h-23.4v15.7h22.1v6.2h-22.1v18.3h24v6.2h-31.4Z"/>
  <path class="st0" d="M1293.5,784.7c0-3.3.7-6.6,2.1-9.6,1.4-2.8,3.5-5.1,6.1-6.7,2.8-1.7,6-2.5,9.2-2.5,2.6,0,5.1.5,7.5,1.7,2.1,1.1,3.9,2.6,5.2,4.6h.1v-22h7.3v52.7h-7v-5.7h-.1c-1,1.4-2.1,2.6-3.5,3.7-1.3,1-2.8,1.7-4.3,2.2-1.6.5-3.3.7-5,.7-2,0-4-.3-5.9-.9-1.8-.6-3.4-1.5-4.9-2.7-1.4-1.2-2.6-2.5-3.6-4.1-1-1.6-1.8-3.4-2.3-5.2-.5-2-.8-4-.8-6.1ZM1300.9,784.6c0,1.7.3,3.5.8,5.1.5,1.5,1.3,2.9,2.3,4.1,1,1.2,2.2,2.1,3.7,2.7,1.5.7,3.2,1,4.9,1,2.2,0,4.3-.5,6.2-1.7,1.7-1.1,3.1-2.7,4-4.6,1.8-4.2,1.8-8.9,0-13.1-.9-1.9-2.3-3.5-4-4.6-3.8-2.2-8.6-2.2-12.4,0-1.7,1.1-3.1,2.7-4,4.6-.9,2.1-1.4,4.3-1.3,6.5h0Z"/>
  <path class="st0" d="M1342,757.9c-.9-.8-1.4-2-1.3-3.2,0-1.2.5-2.4,1.3-3.2.9-.9,2.2-1.3,3.5-1.3,1.3,0,2.5.4,3.4,1.3.9.8,1.4,2,1.3,3.2,0,1.2-.5,2.4-1.3,3.2-.9.9-2.1,1.3-3.4,1.3-1.3,0-2.5-.4-3.5-1.3ZM1341.8,802.8v-36.3h7.4v36.3h-7.4Z"/>
  <path class="st0" d="M1355.7,772.5v-5.9h5.3v-10.9h7.4v10.9h8.6v5.9h-8.6v16.4c0,1.8,0,3.2.2,4.2,0,.9.3,1.7.8,2.5.8,1.3,2.2,2,3.8,1.9.6,0,1.3,0,1.9-.2.5-.1.9-.2,1.4-.4l.5-.2.4,5.8h-.3c0,.1-.9.4-.9.4-.5.2-.9.3-1.4.4s-1.1.2-1.8.3c-.7,0-1.4.1-2.2.1-3.5,0-6.1-1.3-7.8-3.8-.8-1.2-1.3-2.6-1.5-4-.3-2.3-.4-4.6-.4-6.8v-16.5h-5.2Z"/>
  <path class="st0" d="M1383.7,757.9c-.9-.8-1.4-2-1.3-3.2,0-1.2.5-2.4,1.3-3.2.9-.9,2.2-1.3,3.5-1.3,1.3,0,2.5.4,3.4,1.3.9.8,1.4,2,1.3,3.2,0,1.2-.5,2.4-1.3,3.2-.9.9-2.1,1.3-3.4,1.3-1.3,0-2.5-.4-3.5-1.3ZM1383.4,802.8v-36.3h7.4v36.3h-7.4Z"/>
  <path class="st0" d="M1398.7,784.8c0-2.6.5-5.3,1.5-7.7.9-2.3,2.3-4.3,4.1-6,1.8-1.7,3.8-3,6.1-3.8,2.4-.9,5-1.4,7.6-1.4,2.6,0,5.1.4,7.5,1.4,2.3.9,4.3,2.2,6.1,3.8,1.7,1.7,3.1,3.7,4,6,2,4.9,2,10.4,0,15.4-.9,2.3-2.3,4.3-4,6-1.8,1.7-3.8,3-6.1,3.8-2.4.9-4.9,1.4-7.5,1.4-1.5,0-3-.1-4.5-.4-1.4-.3-2.8-.7-4.1-1.3-1.3-.6-2.4-1.3-3.6-2.1-1.1-.8-2.1-1.8-3-2.8-.9-1.1-1.6-2.2-2.2-3.5-.6-1.3-1.1-2.7-1.4-4.1-.3-1.5-.5-3.1-.5-4.6ZM1406.1,784.6c0,2.3.4,4.5,1.4,6.5.9,1.9,2.4,3.5,4.1,4.6,1.9,1.2,4.1,1.8,6.3,1.7,2.2,0,4.4-.6,6.2-1.7,1.8-1.1,3.2-2.7,4.1-4.6,1-2,1.4-4.3,1.4-6.5,0-2.2-.4-4.4-1.4-6.5-1.9-4-5.9-6.5-10.3-6.4-2.2,0-4.4.6-6.3,1.7-1.8,1.1-3.2,2.7-4.1,4.6-1,2-1.5,4.2-1.4,6.5Z"/>
  <path class="st0" d="M1444.7,802.8v-36.3h7.3v5.7c0,0,.1,0,.1,0,1-1.9,2.5-3.5,4.4-4.6,2-1.2,4.3-1.8,6.7-1.8,1.8,0,3.6.2,5.3.8,1.4.4,2.7,1.2,3.7,2.1,1,1,1.8,2.1,2.3,3.4.6,1.4,1,2.8,1.2,4.2.2,1.7.4,3.3.3,5v21.4h-7.4v-20.2c0-1.2,0-2.3-.2-3.5-.1-1-.3-1.9-.6-2.9-.3-.9-.7-1.6-1.3-2.3-.6-.6-1.4-1.1-2.2-1.4-1-.4-2.2-.6-3.3-.5-.9,0-1.8.1-2.6.3-.8.2-1.5.6-2.2,1-.6.4-1.2.9-1.7,1.5-.5.6-.9,1.3-1.3,2-.4.7-.7,1.5-.9,2.3-.2.9-.4,1.8-.5,2.7-.1,1-.2,1.9-.2,2.9v18.1h-7.3Z"/>
  <path class="st0" d="M1497.6,802.8v-4.5l21.2-25.8h-20.1v-5.9h29.5v4.4l-21.1,25.8h22.2v6h-31.6Z"/>
  <path class="st0" d="M1535.4,788.2v-21.8h7.2v21.4c0,.8,0,1.6.1,2.5,0,.8.2,1.5.4,2.2.2.7.4,1.4.8,2,.4.6.8,1.1,1.3,1.5.6.5,1.3.8,2,1,.9.3,1.9.4,2.8.4,1.4,0,2.8-.3,4.1-.9,1.2-.6,2.1-1.5,2.8-2.6.7-1.1,1.3-2.4,1.6-3.7.4-1.4.5-2.9.5-4.4v-19.4h7.4v36.3h-7.2v-5.3c-1.1,1.9-2.7,3.4-4.6,4.4-2.1,1.1-4.4,1.7-6.7,1.7-4.5,0-7.9-1.4-10-4.2-1.8-2.4-2.7-6.2-2.7-11.2Z"/>
  <path class="st0" d="M1589.3,784.1c0-2.1.3-4.3.9-6.3.6-1.8,1.4-3.6,2.6-5.1,1.1-1.4,2.4-2.7,3.8-3.7,1.4-1,3.1-1.8,4.8-2.3,1.7-.5,3.6-.8,5.4-.8,2.7,0,5.3.6,7.7,1.8,2,1.1,3.8,2.7,5,4.6h.2v-5.8c0,0,7.2,0,7.2,0v28.6c0,3.2-.3,6.4-1,9.5-.5,2.2-1.6,4.3-3,6.1-.7.9-1.5,1.7-2.4,2.5-1,.8-2.1,1.5-3.2,2.2-1.4.8-3,1.3-4.6,1.7-7.6,1.6-15.6,0-21.9-4.7h-.2c0-.1,3.5-5.2,3.5-5.2,3.7,2.8,8.3,4.4,12.9,4.6,2.1,0,4.2-.3,6.1-1.2,1.5-.6,2.8-1.6,3.8-2.8.9-1.2,1.6-2.5,2-4,.5-2,.8-4,.8-6.1v-1.8h-.1c-1.3,2-3.1,3.6-5.2,4.7-2.3,1.2-4.9,1.8-7.5,1.8-2.3,0-4.5-.4-6.7-1.2-2.1-.8-3.9-2-5.6-3.5-1.7-1.6-3-3.6-3.8-5.8-1-2.4-1.5-5.1-1.4-7.7ZM1598,777.9c-1.8,4-1.8,8.5,0,12.5.9,1.8,2.3,3.4,4,4.4,1.9,1.1,4.1,1.7,6.3,1.7,2.2,0,4.4-.5,6.3-1.7,1.7-1.1,3.1-2.6,3.9-4.4.9-2,1.3-4.1,1.3-6.2,0-2.2-.4-4.3-1.3-6.3-.9-1.8-2.3-3.4-4-4.5-3.9-2.2-8.7-2.2-12.6,0-1.7,1.1-3.1,2.6-4,4.5Z"/>
  <path class="st0" d="M1634.5,784.7c0-2.6.5-5.3,1.5-7.7.9-2.3,2.3-4.3,4-6,1.7-1.6,3.7-2.9,5.8-3.7,2.3-.9,4.7-1.3,7.1-1.3,3.1,0,6.2.7,8.9,2.2,2.6,1.4,4.7,3.6,6.1,6.2,1.5,2.8,2.3,5.9,2.2,9,0,.4,0,.9,0,1.4s0,1-.1,1.3v.5h-28.1c0,3.1,1.2,6.1,3.4,8.3,2.2,2.1,5.2,3.1,8.2,3,1.1,0,2.1,0,3.2-.3.9-.1,1.8-.4,2.7-.7.8-.3,1.6-.6,2.3-1,.6-.3,1.2-.6,1.8-1l1.3-.8.7-.5,3.1,4.2c-.1,0-.2.2-.3.3-.2.2-.4.4-.7.6s-.6.5-1,.8c-.4.3-.9.6-1.4.9-.5.3-1.1.6-1.7.9-.7.4-1.4.7-2.2.9-.8.3-1.6.5-2.5.7-1,.2-2,.4-3,.5-1.1.1-2.3.2-3.4.2-3.3,0-6.6-.7-9.4-2.3-2.7-1.5-5-3.9-6.4-6.7-1.5-3.1-2.3-6.5-2.2-10ZM1642,781.5h21.2c0-.9-.1-1.8-.4-2.7-.6-2-1.7-3.8-3.2-5.3-.9-.8-1.9-1.4-3-1.8-1.2-.5-2.6-.7-3.9-.7-1.3,0-2.6.2-3.9.7-1.1.4-2.1,1-3,1.7-1.6,1.4-2.7,3.2-3.4,5.2-.2.9-.4,1.8-.4,2.8h0Z"/>
  <path class="st0" d="M1677.7,802.8v-52.6h7.2v52.6h-7.2Z"/>
  <path class="st0" d="M1692.3,792.4c0-2.1.6-4.2,1.8-5.9,1.3-1.7,3-3,5-3.7,2.4-.9,4.9-1.4,7.4-1.4l9.7-.4v-1.4c.1-2.2-.8-4.4-2.4-5.8-1.9-1.4-4.2-2.1-6.5-2-1.7,0-3.3.2-4.9.7-1.3.3-2.6.7-3.8,1.2-.8.4-1.6.7-2.2,1.1l-2.2-5.1c4.1-2.5,8.8-3.8,13.6-3.8,1.3,0,2.7,0,4,.3,1.1.2,2.2.5,3.3.8.9.3,1.8.8,2.6,1.3.7.5,1.4,1.1,2.1,1.7,1.3,1.3,2.3,2.9,2.9,4.7.7,2.3,1.1,4.7,1,7.1v21.1h-7.1v-4.6c0,0-.2.2-.2.2-.5.5-.9.9-1.2,1.2-.5.5-1.1.9-1.6,1.3-.7.5-1.5,1-2.2,1.4-.9.4-1.8.7-2.8.9-1.1.3-2.3.4-3.5.4-1.6,0-3.2-.3-4.8-.8-1.5-.5-2.8-1.2-4-2.2-1.2-1-2.1-2.2-2.7-3.5-.7-1.5-1-3.1-1-4.7ZM1699.5,792.2c0,1.1.3,2.2.8,3.1.6,1,1.5,1.8,2.6,2.3,1.3.6,2.7.9,4.1.8,1.1,0,2.2-.2,3.2-.5,1-.3,1.9-.8,2.7-1.3.7-.5,1.3-1.1,1.9-1.7.5-.5,1-1.1,1.4-1.7v-7.8l-8.5.5c-2.8.1-4.9.8-6.2,1.9-1.3,1.1-2.1,2.7-2,4.4Z"/>
  <path class="st0" d="M1732.8,802.8v-36.3h7.4v5.7c0,0,.1,0,.1,0,1-1.9,2.5-3.5,4.4-4.6,2-1.2,4.3-1.8,6.7-1.8,1.8,0,3.6.2,5.3.8,1.4.4,2.7,1.2,3.7,2.1,1,1,1.8,2.1,2.3,3.4.6,1.4,1,2.8,1.2,4.2.2,1.7.4,3.3.3,5v21.4h-7.4v-20.2c0-1.2,0-2.3-.2-3.5-.1-1-.3-1.9-.6-2.9-.3-.9-.7-1.6-1.3-2.3-.6-.6-1.4-1.1-2.2-1.4-1-.4-2.2-.6-3.3-.5-.9,0-1.8.1-2.6.3-.8.2-1.5.6-2.2,1-.6.4-1.2.9-1.7,1.5-.5.6-.9,1.3-1.3,2-.4.7-.7,1.5-.9,2.3-.2.9-.4,1.8-.5,2.7-.1,1-.2,1.9-.2,2.9v18.1h-7.4Z"/>
  <path class="st0" d="M1771.6,784.1c0-2.1.3-4.3.9-6.3.6-1.8,1.4-3.6,2.6-5.1,1.1-1.4,2.4-2.7,3.8-3.7,1.4-1,3.1-1.8,4.8-2.3,1.7-.5,3.6-.8,5.4-.8,2.7,0,5.3.6,7.7,1.8,2,1.1,3.8,2.7,5,4.6h.2v-5.8c0,0,7.2,0,7.2,0v28.6c0,3.2-.3,6.4-1,9.5-.5,2.2-1.6,4.3-3,6.1-.7.9-1.5,1.7-2.4,2.5-1,.8-2.1,1.5-3.2,2.2-1.4.8-3,1.3-4.6,1.7-7.6,1.6-15.6,0-21.9-4.7h-.2c0-.1,3.5-5.2,3.5-5.2,3.7,2.8,8.3,4.4,12.9,4.6,2.1,0,4.2-.3,6.1-1.2,1.5-.6,2.8-1.6,3.8-2.8.9-1.2,1.6-2.5,2-4,.5-2,.8-4,.8-6.1v-1.8h-.1c-1.3,2-3.1,3.6-5.2,4.7-2.3,1.2-4.9,1.8-7.5,1.8-2.3,0-4.5-.4-6.7-1.2-2.1-.8-3.9-2-5.6-3.5-1.7-1.6-3-3.6-3.8-5.8-1-2.4-1.5-5.1-1.4-7.7ZM1780.3,777.9c-1.8,4-1.8,8.5,0,12.5.9,1.8,2.3,3.4,4,4.4,1.9,1.1,4.1,1.7,6.3,1.7,2.2,0,4.4-.5,6.3-1.7,1.7-1.1,3.1-2.6,3.9-4.4.9-2,1.3-4.1,1.3-6.2,0-2.2-.4-4.3-1.3-6.3-.9-1.8-2.3-3.4-4-4.5-3.9-2.2-8.7-2.2-12.6,0-1.7,1.1-3.1,2.6-4,4.5Z"/>
  <path class="st0" d="M1816.8,784.7c0-2.6.5-5.3,1.5-7.7.9-2.3,2.3-4.3,4-6,1.7-1.6,3.7-2.9,5.8-3.7,2.3-.9,4.7-1.3,7.1-1.3,3.1,0,6.2.7,8.9,2.2,2.6,1.4,4.7,3.6,6.1,6.2,1.5,2.8,2.3,5.9,2.2,9,0,.4,0,.9,0,1.4,0,.5,0,1-.1,1.3v.5h-28.1c0,3.1,1.2,6.1,3.4,8.3,2.2,2.1,5.2,3.1,8.2,3,1.1,0,2.1,0,3.2-.3.9-.1,1.8-.4,2.7-.7.8-.3,1.5-.6,2.3-1,.6-.3,1.2-.6,1.8-1l1.3-.8.7-.5,3.1,4.2c-.1,0-.2.2-.3.3-.2.2-.4.4-.7.6s-.6.5-1,.8c-.4.3-.9.6-1.4.9-.5.3-1.1.6-1.7.9-.7.4-1.4.7-2.2.9-.8.3-1.6.5-2.5.7-1,.2-2,.4-3,.5-1.1.1-2.3.2-3.4.2-3.3,0-6.6-.7-9.4-2.3-2.7-1.5-5-3.9-6.4-6.7-1.6-3.1-2.3-6.5-2.3-10ZM1824.3,781.5h21.2c0-.9-.1-1.8-.4-2.7-.6-2-1.7-3.8-3.2-5.3-.9-.8-1.9-1.4-3-1.8-1.2-.5-2.6-.7-3.9-.7-1.3,0-2.6.2-3.9.7-1.1.4-2.1,1-3,1.7-1.6,1.4-2.7,3.2-3.4,5.2-.3.9-.4,1.8-.4,2.8h0Z"/>
  <path class="st0" d="M1859.6,802.8v-36.3h7.4v5.7c0,0,.1,0,.1,0,1-1.9,2.5-3.5,4.4-4.6,2-1.2,4.3-1.8,6.7-1.8,1.8,0,3.6.2,5.3.8,1.4.4,2.7,1.2,3.7,2.1,1,1,1.8,2.1,2.3,3.4.6,1.4,1,2.8,1.2,4.2.2,1.7.4,3.3.3,5v21.4h-7.4v-20.2c0-1.2,0-2.3-.2-3.5-.1-1-.3-1.9-.6-2.9-.3-.9-.7-1.6-1.3-2.3-.6-.6-1.4-1.1-2.2-1.4-1-.4-2.2-.6-3.3-.5-.9,0-1.8.1-2.6.3-.8.2-1.5.6-2.2,1-.6.4-1.2.9-1.7,1.5-.5.6-.9,1.3-1.3,2-.4.7-.7,1.5-.9,2.3-.2.9-.4,1.8-.5,2.7-.1,1-.2,1.9-.2,2.9v18.1h-7.4Z"/>
</svg>