<?xml version="1.0" encoding="utf-8"?>
<!-- Generator: Adobe Illustrator 25.0.1, SVG Export Plug-In . SVG Version: 6.00 Build 0)  -->
<svg version="1.1" id="Layer_1" xmlns="http://www.w3.org/2000/svg" xmlns:xlink="http://www.w3.org/1999/xlink" x="0px" y="0px"
	 viewBox="0 0 288.5 121.8" style="enable-background:new 0 0 288.5 121.8;" xml:space="preserve">
<style type="text/css">
	.st0{fill:#FFFFFF;}
</style>
<g>
	<path class="st0" d="M14,36.5c-1-1.2-2.2-1.7-3.7-1.7c-0.6,0-1.1,0.1-1.6,0.4c-0.5,0.3-0.8,0.7-0.8,1.3c0,0.5,0.3,0.9,0.8,1.1
		c0.6,0.3,1.2,0.5,2,0.6c0.8,0.2,1.7,0.4,2.6,0.6c0.9,0.2,1.8,0.6,2.6,1c0.8,0.5,1.5,1.1,2,1.9c0.6,0.8,0.8,1.9,0.8,3.2
		c0,1.3-0.3,2.4-0.9,3.3c-0.6,0.9-1.3,1.6-2.3,2.1c-0.9,0.6-1.9,0.9-3.1,1.1c-1.2,0.2-2.3,0.3-3.4,0.3c-1.4,0-2.9-0.2-4.4-0.6
		S1.9,50,0.8,49l3.9-4.3c0.6,0.8,1.2,1.3,2,1.7c0.8,0.4,1.6,0.6,2.6,0.6c0.8,0,1.4-0.1,2-0.3c0.6-0.2,0.9-0.6,0.9-1.2
		c0-0.6-0.3-1-0.8-1.2c-0.6-0.3-1.2-0.5-2-0.7c-0.8-0.2-1.7-0.4-2.6-0.6c-0.8-0.1-1.7-0.5-2.5-0.9c-0.8-0.4-1.5-1-2-1.8
		c-0.6-0.8-0.8-1.9-0.8-3.2c0-1.2,0.3-2.3,0.8-3.2c0.5-0.9,1.2-1.6,2-2.2c0.8-0.6,1.7-1,2.8-1.2c1-0.3,2.1-0.4,3.2-0.4
		c1.4,0,2.8,0.2,4.1,0.6c1.4,0.4,2.6,1.1,3.5,2.1L14,36.5z"/>
	<path class="st0" d="M36.4,35.6h-5.7v6.9c0,0.6,0,1.1,0.1,1.6c0.1,0.5,0.2,0.9,0.4,1.2c0.2,0.3,0.5,0.6,0.9,0.8
		c0.4,0.2,1,0.3,1.7,0.3c0.3,0,0.8,0,1.4-0.1c0.6-0.1,1-0.2,1.2-0.5v5.4c-0.7,0.3-1.4,0.4-2.2,0.5c-0.8,0.1-1.5,0.1-2.3,0.1
		c-1.1,0-2.1-0.1-3-0.3c-0.9-0.2-1.7-0.6-2.4-1.1c-0.7-0.5-1.2-1.2-1.6-1.9c-0.4-0.8-0.6-1.8-0.6-2.9v-9.9h-4.1v-5.1h4.1v-6.2h6.4
		v6.1h5.7L36.4,35.6L36.4,35.6z"/>
	<path class="st0" d="M60.1,51.2H54v-2.8h-0.1c-0.2,0.4-0.6,0.8-0.9,1.2c-0.3,0.4-0.8,0.8-1.3,1.1c-0.5,0.3-1.1,0.6-1.7,0.8
		c-0.7,0.2-1.4,0.3-2.1,0.3c-1.7,0-3-0.3-3.9-0.8c-1-0.5-1.8-1.2-2.3-2.1C41,48,40.6,47,40.4,45.8c-0.2-1.2-0.3-2.5-0.3-3.9V30.4
		h6.3v10.2c0,0.6,0,1.2,0.1,1.9c0.1,0.6,0.1,1.2,0.4,1.8c0.2,0.6,0.6,1,1,1.3c0.4,0.3,1.1,0.5,1.9,0.5c0.8,0,1.5-0.1,2-0.5
		c0.5-0.3,0.9-0.7,1.2-1.2c0.3-0.5,0.5-1,0.6-1.7c0.1-0.6,0.1-1.3,0.1-2V30.3h6.4L60.1,51.2L60.1,51.2z"/>
	<path class="st0" d="M86,51.2h-5.9v-2.8H80c-0.3,0.3-0.6,0.8-1,1.1c-0.4,0.4-0.9,0.8-1.4,1c-0.6,0.3-1.2,0.6-1.9,0.8
		s-1.4,0.3-2.1,0.3c-1.5,0-3-0.3-4.2-0.8c-1.2-0.6-2.3-1.2-3.2-2.2s-1.6-2.1-2.1-3.4c-0.5-1.3-0.8-2.8-0.8-4.3
		c0-1.4,0.2-2.8,0.7-4.1c0.4-1.3,1.1-2.5,1.9-3.5c0.8-1,1.8-1.9,3-2.5s2.5-0.9,4-0.9c1.3,0,2.6,0.2,3.7,0.6c1.2,0.4,2.1,1.1,2.8,2.1
		h0.1V18.9h6.4v32.4H86z M80.2,40.8c0-1.6-0.5-2.8-1.4-3.8c-0.9-1-2.1-1.4-3.8-1.4c-1.7,0-2.9,0.5-3.8,1.4c-0.9,1-1.4,2.2-1.4,3.8
		s0.5,2.8,1.4,3.8c0.9,1,2.1,1.4,3.8,1.4c1.7,0,2.9-0.5,3.8-1.4C79.7,43.6,80.2,42.4,80.2,40.8z"/>
	<path class="st0" d="M91.2,23.9c0-1,0.3-1.9,1.1-2.6c0.8-0.8,1.6-1.1,2.6-1.1c1,0,1.9,0.3,2.6,1.1c0.8,0.8,1.1,1.6,1.1,2.6
		s-0.3,1.9-1.1,2.6c-0.8,0.8-1.6,1.1-2.6,1.1c-1,0-1.9-0.3-2.6-1.1C91.5,25.8,91.2,24.9,91.2,23.9z M91.7,30.4h6.4v20.8h-6.4V30.4z"
		/>
	<path class="st0" d="M102,40.8c0-1.7,0.3-3.2,0.9-4.5c0.6-1.3,1.4-2.5,2.5-3.4c1-1,2.3-1.7,3.7-2.2c1.4-0.5,2.9-0.8,4.5-0.8
		s3.1,0.3,4.5,0.8c1.4,0.5,2.6,1.2,3.7,2.2c1,1,1.9,2.1,2.5,3.4c0.6,1.3,0.9,2.8,0.9,4.5c0,1.7-0.3,3.2-0.9,4.5
		c-0.6,1.3-1.4,2.5-2.5,3.4c-1,1-2.3,1.7-3.7,2.2c-1.4,0.5-2.9,0.8-4.5,0.8s-3.1-0.3-4.5-0.8c-1.4-0.5-2.6-1.2-3.7-2.2
		c-1-1-1.9-2.1-2.5-3.4C102.4,44,102,42.5,102,40.8z M108.5,40.8c0,1.6,0.5,2.8,1.4,3.8c0.9,1,2.1,1.4,3.8,1.4
		c1.7,0,2.9-0.5,3.8-1.4c0.9-1,1.4-2.2,1.4-3.8s-0.5-2.8-1.4-3.8c-0.9-1-2.1-1.4-3.8-1.4c-1.7,0-2.9,0.5-3.8,1.4
		C108.9,38,108.5,39.2,108.5,40.8z"/>
	<path class="st0" d="M15.2,90.1L15.2,90.1c-0.8,1.1-1.7,1.9-2.9,2.4c-1.2,0.5-2.4,0.8-3.7,0.8c-1,0-1.9-0.1-2.8-0.4
		S4,92.1,3.4,91.6c-0.7-0.6-1.2-1.2-1.7-2c-0.4-0.8-0.6-1.7-0.6-2.8c0-1.2,0.2-2.2,0.7-3c0.4-0.8,1-1.5,1.8-2.1s1.6-1,2.6-1.2
		c1-0.3,2-0.6,3-0.7c1-0.1,2.1-0.2,3.1-0.3c1,0,2-0.1,2.9-0.1c0-1.2-0.4-2.1-1.2-2.7c-0.8-0.7-1.8-1-2.9-1c-1,0-2,0.2-2.9,0.7
		c-0.9,0.4-1.7,1-2.3,1.8l-3.4-3.5c1.2-1.1,2.6-1.9,4.2-2.5s3.2-0.8,5-0.8c1.9,0,3.4,0.2,4.6,0.7c1.2,0.5,2.2,1.2,2.9,2.1
		c0.8,0.9,1.2,2,1.5,3.4c0.3,1.3,0.4,2.8,0.4,4.6v10.6h-5.9L15.2,90.1L15.2,90.1z M13.6,83.5c-0.5,0-1.1,0-1.8,0.1
		c-0.8,0.1-1.4,0.1-2.1,0.3C9,84.1,8.5,84.4,8,84.8s-0.7,1-0.7,1.7c0,0.8,0.3,1.3,1,1.7c0.7,0.3,1.3,0.6,2.1,0.6
		c0.6,0,1.2-0.1,1.8-0.3c0.6-0.1,1.1-0.4,1.6-0.8c0.5-0.3,0.8-0.7,1.1-1.2s0.4-1,0.4-1.7v-1.4L13.6,83.5L13.6,83.5z"/>
	<path class="st0" d="M25.5,71.9H32v3.3h0.1c0.7-1.3,1.5-2.3,2.4-2.9c1-0.6,2.1-1,3.5-1c0.3,0,0.8,0,1.1,0.1c0.3,0,0.7,0.1,1,0.1
		v5.9c-0.5-0.1-0.9-0.3-1.4-0.3c-0.4-0.1-0.9-0.1-1.4-0.1c-1.2,0-2.2,0.1-2.9,0.5c-0.7,0.3-1.2,0.8-1.7,1.4
		c-0.4,0.6-0.6,1.4-0.8,2.2C32,82,32,83,32,84v8.7h-6.4L25.5,71.9L25.5,71.9z"/>
	<path class="st0" d="M43.4,71.9h6.4v3.3h0.1c0.7-1.3,1.5-2.3,2.4-2.9c1-0.6,2.1-1,3.5-1c0.3,0,0.8,0,1.1,0.1c0.3,0,0.7,0.1,1,0.1
		v5.9c-0.5-0.1-0.9-0.3-1.4-0.3c-0.4-0.1-0.9-0.1-1.4-0.1c-1.2,0-2.2,0.1-2.9,0.5c-0.7,0.3-1.2,0.8-1.7,1.4
		c-0.4,0.6-0.6,1.4-0.8,2.2c-0.1,0.8-0.1,1.8-0.1,2.8v8.8h-6.4L43.4,71.9L43.4,71.9z"/>
	<path class="st0" d="M80.2,89c-1,1.3-2.3,2.3-3.9,3c-1.6,0.7-3.2,1.1-4.9,1.1c-1.6,0-3.1-0.3-4.5-0.8c-1.4-0.5-2.6-1.2-3.7-2.2
		c-1-1-1.9-2.1-2.5-3.4c-0.6-1.3-0.9-2.8-0.9-4.5s0.3-3.2,0.9-4.5s1.4-2.5,2.5-3.4c1-1,2.3-1.7,3.7-2.2c1.4-0.5,2.9-0.8,4.5-0.8
		c1.4,0,2.8,0.3,4.1,0.8s2.2,1.2,3.1,2.2c0.8,1,1.5,2.1,1.9,3.4c0.5,1.3,0.7,2.8,0.7,4.5v2h-15c0.3,1.2,0.8,2.2,1.7,2.9
		c0.8,0.8,1.9,1.1,3.2,1.1c1,0,1.9-0.2,2.7-0.7s1.4-1.1,1.9-1.8L80.2,89z M74.7,79.9c0-1.1-0.3-2-1.1-2.8c-0.8-0.8-1.7-1.2-2.9-1.2
		c-0.7,0-1.3,0.1-1.9,0.3c-0.6,0.2-1,0.6-1.4,0.9c-0.4,0.3-0.7,0.8-0.9,1.2c-0.2,0.5-0.3,1-0.3,1.4C66.2,79.9,74.7,79.9,74.7,79.9z"
		/>
	<path class="st0" d="M85.5,71.9h6.1v2.8h0.1c0.2-0.4,0.5-0.8,0.8-1.2c0.3-0.4,0.8-0.8,1.3-1.1s1.1-0.6,1.7-0.8
		c0.7-0.2,1.4-0.3,2.1-0.3c1.7,0,3,0.3,3.9,0.8c1,0.5,1.8,1.2,2.3,2.1c0.6,0.9,1,1.9,1.1,3.1c0.2,1.2,0.3,2.5,0.3,3.9v11.5h-6.4
		V82.5c0-0.6,0-1.2-0.1-1.9s-0.1-1.2-0.4-1.8c-0.2-0.6-0.6-1-1-1.3c-0.4-0.3-1.1-0.5-1.9-0.5s-1.5,0.1-2,0.5
		c-0.5,0.3-0.9,0.7-1.2,1.2c-0.3,0.5-0.5,1-0.6,1.7c-0.1,0.6-0.1,1.3-0.1,2v10.3h-6.4V71.9H85.5z"/>
	<path class="st0" d="M110.2,60.3h6.4v13.8h0.1c0.8-1,1.7-1.7,2.8-2.1c1.2-0.4,2.4-0.6,3.7-0.6c1.4,0,2.8,0.3,4,0.9
		c1.2,0.6,2.1,1.4,3,2.5s1.4,2.2,1.9,3.5c0.4,1.3,0.7,2.7,0.7,4.1c0,1.6-0.3,3-0.8,4.3s-1.2,2.4-2.1,3.4c-0.9,1-2,1.7-3.2,2.2
		c-1.2,0.6-2.6,0.8-4.2,0.8c-0.8,0-1.4-0.1-2.1-0.3c-0.7-0.2-1.2-0.5-1.8-0.8c-0.6-0.3-1-0.7-1.4-1c-0.4-0.4-0.8-0.8-1-1.1H116v2.8
		h-5.9L110.2,60.3L110.2,60.3z M116.1,82.3c0,1.6,0.5,2.8,1.4,3.8c0.9,1,2.1,1.4,3.8,1.4s2.9-0.5,3.8-1.4c0.9-1,1.4-2.2,1.4-3.8
		s-0.5-2.8-1.4-3.8s-2.1-1.4-3.8-1.4s-2.9,0.5-3.8,1.4C116.5,79.4,116.1,80.7,116.1,82.3z"/>
	<path class="st0" d="M155.8,89c-1,1.3-2.3,2.3-3.9,3c-1.6,0.7-3.2,1.1-4.9,1.1c-1.6,0-3.1-0.3-4.5-0.8c-1.4-0.5-2.6-1.2-3.7-2.2
		c-1-1-1.9-2.1-2.5-3.4c-0.6-1.3-0.9-2.8-0.9-4.5s0.3-3.2,0.9-4.5c0.6-1.3,1.4-2.5,2.5-3.4c1-1,2.3-1.7,3.7-2.2
		c1.4-0.5,2.9-0.8,4.5-0.8c1.4,0,2.8,0.3,4.1,0.8s2.2,1.2,3.1,2.2c0.8,1,1.5,2.1,1.9,3.4c0.5,1.3,0.7,2.8,0.7,4.5v2H142
		c0.3,1.2,0.8,2.2,1.7,2.9c0.8,0.8,1.9,1.1,3.2,1.1c1,0,1.9-0.2,2.7-0.7s1.4-1.1,1.9-1.8L155.8,89z M150.4,79.9c0-1.1-0.3-2-1.1-2.8
		c-0.8-0.8-1.7-1.2-2.9-1.2c-0.7,0-1.3,0.1-1.9,0.3s-1,0.6-1.4,0.9c-0.4,0.3-0.7,0.8-0.9,1.2c-0.2,0.5-0.3,1-0.3,1.4
		C141.9,79.9,150.4,79.9,150.4,79.9z"/>
	<path class="st0" d="M161.1,71.9h6.4v3.3h0.1c0.7-1.3,1.5-2.3,2.4-2.9c1-0.6,2.1-1,3.5-1c0.3,0,0.8,0,1.1,0.1c0.3,0,0.7,0.1,1,0.1
		v5.9c-0.5-0.1-0.9-0.3-1.4-0.3c-0.4-0.1-0.9-0.1-1.4-0.1c-1.2,0-2.2,0.1-2.9,0.5c-0.7,0.3-1.2,0.8-1.7,1.4
		c-0.4,0.6-0.6,1.4-0.8,2.2c-0.1,0.8-0.1,1.8-0.1,2.8v8.8H161L161.1,71.9L161.1,71.9z"/>
	<path class="st0" d="M200,90.9c0,3.9-1,6.9-3,9c-2,2.1-5,3-9,3c-1.9,0-3.7-0.2-5.5-0.6c-1.8-0.4-3.4-1.2-5-2.4l3.5-5.3
		c1,0.8,2.1,1.4,3.2,2c1.1,0.5,2.3,0.8,3.6,0.8c2,0,3.4-0.5,4.3-1.4c0.9-1,1.4-2.2,1.4-3.7v-2h-0.1c-0.8,1-1.7,1.7-2.8,2.1
		c-1.1,0.4-2.1,0.6-3.1,0.6c-1.5,0-3-0.3-4.2-0.8c-1.2-0.6-2.3-1.2-3.2-2.2c-0.9-1-1.6-2.1-2.1-3.4c-0.5-1.3-0.8-2.8-0.8-4.3
		c0-1.4,0.2-2.7,0.7-4c0.4-1.3,1.1-2.5,1.9-3.4c0.8-1,1.8-1.8,3-2.4c1.2-0.6,2.5-0.9,4-0.9c0.9,0,1.7,0.1,2.5,0.3s1.4,0.5,2,0.8
		c0.6,0.3,1.1,0.7,1.5,1c0.4,0.4,0.8,0.8,1,1.1h0.1v-2.8h5.9L200,90.9C199.9,90.9,200,90.9,200,90.9z M183.9,82.1
		c0,0.7,0.1,1.3,0.4,1.9c0.3,0.6,0.6,1.2,1.1,1.7c0.5,0.5,1,0.8,1.7,1.1c0.6,0.3,1.3,0.4,2,0.4c0.7,0,1.4-0.1,2-0.4
		c0.6-0.3,1.2-0.7,1.7-1.1c0.5-0.5,0.8-1,1.1-1.7c0.3-0.6,0.4-1.2,0.4-1.9c0-0.7-0.1-1.3-0.4-1.9c-0.3-0.6-0.6-1.2-1.1-1.7
		c-0.5-0.5-1-0.8-1.7-1.1s-1.3-0.4-2-0.4c-0.8,0-1.4,0.1-2,0.4c-0.6,0.3-1.2,0.7-1.7,1.1c-0.5,0.5-0.8,1-1.1,1.7
		C184,80.8,183.9,81.4,183.9,82.1z"/>
</g>
</svg>
