<?xml version="1.0" encoding="utf-8"?>
<!-- Generator: Adobe Illustrator 21.0.0, SVG Export Plug-In . SVG Version: 6.00 Build 0)  -->
<svg version="1.1" id="Layer_1" xmlns="http://www.w3.org/2000/svg" xmlns:xlink="http://www.w3.org/1999/xlink" x="0px" y="0px"
	 viewBox="0 0 288.5 121.8" style="enable-background:new 0 0 288.5 121.8;" xml:space="preserve">
<style type="text/css">
	.st0{fill:#FFFFFF;}
</style>
<g>
	<path class="st0" d="M18.9,25.6c-1.4-1.7-3.2-2.5-5.4-2.5c-0.8,0-1.6,0.2-2.3,0.6s-1.1,1-1.1,1.9c0,0.7,0.4,1.3,1.1,1.6
		c0.8,0.4,1.7,0.7,2.9,0.9c1.2,0.3,2.4,0.6,3.8,0.9c1.3,0.3,2.6,0.8,3.8,1.5c1.2,0.7,2.2,1.6,2.9,2.7c0.8,1.1,1.1,2.7,1.1,4.6
		c0,1.9-0.4,3.5-1.3,4.8c-0.8,1.3-1.9,2.3-3.3,3c-1.3,0.8-2.8,1.3-4.5,1.6s-3.3,0.5-4.9,0.5c-2.1,0-4.2-0.3-6.4-0.9
		c-2.2-0.6-4-1.7-5.5-3.2l5.6-6.3c0.9,1.1,1.8,1.9,2.9,2.5s2.3,0.8,3.7,0.8c1.1,0,2-0.2,2.9-0.5c0.9-0.3,1.3-0.9,1.3-1.7
		s-0.4-1.4-1.1-1.8c-0.8-0.4-1.7-0.7-2.9-1S9.8,35,8.4,34.7C7.2,34.5,6,34,4.8,33.4s-2.2-1.5-2.9-2.6c-0.8-1.1-1.1-2.7-1.1-4.6
		c0-1.8,0.4-3.3,1.1-4.6c0.7-1.3,1.7-2.3,2.9-3.2C6,17.6,7.3,17,8.9,16.6c1.5-0.4,3.1-0.6,4.7-0.6c2,0,4,0.3,6,0.9s3.7,1.6,5.1,3.1
		L18.9,25.6z"/>
	<path class="st0" d="M51.4,24.2h-8.2v10c0,0.8,0,1.6,0.1,2.3s0.3,1.3,0.6,1.8s0.7,0.9,1.3,1.1c0.6,0.3,1.4,0.4,2.4,0.4
		c0.5,0,1.1,0,2-0.2c0.8-0.1,1.4-0.3,1.8-0.7v7.8c-1,0.4-2.1,0.6-3.2,0.7c-1.1,0.1-2.2,0.2-3.3,0.2c-1.6,0-3-0.2-4.3-0.5
		s-2.5-0.9-3.5-1.6c-1-0.7-1.8-1.7-2.3-2.8c-0.6-1.2-0.8-2.6-0.8-4.2V24.2h-6v-7.4h6v-9h9.3v8.9h8.2L51.4,24.2L51.4,24.2z"/>
	<path class="st0" d="M85.7,46.9h-8.9v-4.1h-0.1c-0.3,0.6-0.8,1.2-1.3,1.7c-0.5,0.6-1.1,1.1-1.9,1.6c-0.7,0.5-1.6,0.8-2.5,1.1
		c-1,0.3-2,0.4-3.1,0.4c-2.4,0-4.3-0.4-5.7-1.1c-1.5-0.7-2.6-1.7-3.4-3c-0.8-1.3-1.3-2.8-1.6-4.5s-0.4-3.6-0.4-5.6V16.7H66v14.8
		c0,0.9,0,1.8,0.1,2.7s0.2,1.8,0.6,2.6c0.3,0.8,0.8,1.4,1.4,1.9s1.6,0.7,2.8,0.7c1.2,0,2.2-0.2,2.9-0.7c0.7-0.4,1.3-1,1.7-1.7
		c0.4-0.7,0.7-1.5,0.8-2.5c0.1-0.9,0.2-1.9,0.2-2.9v-15h9.3v30.3H85.7z"/>
	<path class="st0" d="M123.3,46.9h-8.6v-4h-0.1c-0.4,0.5-0.9,1.1-1.5,1.6c-0.6,0.6-1.3,1.1-2.1,1.5c-0.8,0.5-1.7,0.8-2.7,1.1
		s-2,0.4-3,0.4c-2.2,0-4.3-0.4-6.1-1.1c-1.8-0.8-3.4-1.8-4.7-3.2c-1.3-1.4-2.3-3-3-4.9s-1.1-4-1.1-6.3c0-2.1,0.3-4.1,1-6
		c0.6-1.9,1.6-3.6,2.7-5.1c1.2-1.5,2.6-2.7,4.3-3.6c1.7-0.9,3.6-1.3,5.8-1.3c1.9,0,3.8,0.3,5.4,0.9c1.7,0.6,3,1.6,4.1,3.1h0.1V0h9.3
		v46.9H123.3z M114.8,31.8c0-2.3-0.7-4.1-2-5.5s-3.1-2.1-5.5-2.1s-4.2,0.7-5.5,2.1s-2,3.2-2,5.5s0.7,4.1,2,5.5s3.1,2.1,5.5,2.1
		s4.2-0.7,5.5-2.1C114.1,35.9,114.8,34.1,114.8,31.8z"/>
	<path class="st0" d="M130.8,7.3c0-1.5,0.5-2.8,1.6-3.8c1.1-1.1,2.3-1.6,3.8-1.6s2.8,0.5,3.8,1.6c1.1,1.1,1.6,2.3,1.6,3.8
		s-0.5,2.8-1.6,3.8c-1.1,1.1-2.3,1.6-3.8,1.6s-2.8-0.5-3.8-1.6C131.3,10,130.8,8.7,130.8,7.3z M131.5,16.7h9.3v30.1h-9.3V16.7z"/>
	<path class="st0" d="M146.5,31.8c0-2.4,0.4-4.6,1.3-6.5c0.9-1.9,2.1-3.6,3.6-5s3.3-2.5,5.3-3.2s4.2-1.1,6.5-1.1s4.5,0.4,6.5,1.1
		s3.8,1.8,5.3,3.2c1.5,1.4,2.7,3,3.6,5c0.9,1.9,1.3,4.1,1.3,6.5s-0.4,4.6-1.3,6.5c-0.9,1.9-2.1,3.6-3.6,5s-3.3,2.5-5.3,3.2
		s-4.2,1.1-6.5,1.1s-4.5-0.4-6.5-1.1c-2-0.7-3.8-1.8-5.3-3.2s-2.7-3-3.6-5C147,36.4,146.5,34.2,146.5,31.8z M155.8,31.8
		c0,2.3,0.7,4.1,2,5.5s3.1,2.1,5.5,2.1s4.2-0.7,5.5-2.1c1.3-1.4,2-3.2,2-5.5s-0.7-4.1-2-5.5s-3.1-2.1-5.5-2.1s-4.2,0.7-5.5,2.1
		C156.5,27.7,155.8,29.5,155.8,31.8z"/>
	<path class="st0" d="M20.6,103.2h-0.1c-1,1.6-2.4,2.8-4.1,3.5s-3.5,1.1-5.4,1.1c-1.4,0-2.8-0.2-4.1-0.6s-2.5-1-3.4-1.8
		c-1-0.8-1.8-1.8-2.4-2.9c-0.6-1.2-0.9-2.5-0.9-4c0-1.7,0.3-3.2,1-4.4c0.6-1.2,1.5-2.2,2.6-3s2.3-1.4,3.8-1.8c1.4-0.4,2.9-0.8,4.4-1
		s3-0.3,4.5-0.4c1.5,0,2.9-0.1,4.2-0.1c0-1.7-0.6-3-1.8-3.9c-1.2-1-2.6-1.5-4.2-1.5c-1.5,0-2.9,0.3-4.2,1C9.2,84,8.1,84.9,7.1,86
		l-5-5.1c1.7-1.6,3.8-2.8,6.1-3.6c2.3-0.8,4.7-1.2,7.2-1.2c2.7,0,5,0.3,6.7,1c1.8,0.7,3.2,1.7,4.2,3c1.1,1.3,1.8,2.9,2.2,4.9
		c0.4,1.9,0.6,4.1,0.6,6.7V107h-8.6v-3.8H20.6z M18.3,93.7c-0.7,0-1.6,0-2.6,0.1c-1.1,0.1-2.1,0.2-3,0.5c-1,0.3-1.8,0.7-2.5,1.3
		c-0.7,0.6-1,1.4-1,2.4c0,1.1,0.5,1.9,1.4,2.5c1,0.5,1.9,0.8,3,0.8c0.9,0,1.8-0.1,2.6-0.4c0.8-0.2,1.6-0.6,2.3-1.1
		c0.7-0.5,1.2-1,1.6-1.7s0.6-1.5,0.6-2.5v-2L18.3,93.7L18.3,93.7z"/>
	<path class="st0" d="M35.6,76.8H45v4.8h0.1c1-1.9,2.2-3.3,3.5-4.2c1.4-0.9,3.1-1.4,5.1-1.4c0.5,0,1.1,0,1.6,0.1
		c0.5,0,1,0.1,1.5,0.2v8.5c-0.7-0.2-1.3-0.4-2-0.5c-0.6-0.1-1.3-0.2-2-0.2c-1.8,0-3.2,0.2-4.2,0.7s-1.8,1.2-2.4,2.1
		c-0.6,0.9-0.9,2-1.1,3.2C45,91.5,45,92.9,45,94.4V107h-9.3V76.8H35.6z"/>
	<path class="st0" d="M61.5,76.8h9.3v4.8h0.1c1-1.9,2.2-3.3,3.5-4.2c1.4-0.9,3.1-1.4,5.1-1.4c0.5,0,1.1,0,1.6,0.1
		c0.5,0,1,0.1,1.5,0.2v8.5c-0.7-0.2-1.3-0.4-2-0.5c-0.6-0.1-1.3-0.2-2-0.2c-1.8,0-3.2,0.2-4.2,0.7S72.6,86,72,86.9s-0.9,2-1.1,3.2
		s-0.2,2.6-0.2,4.1V107h-9.3L61.5,76.8L61.5,76.8z"/>
	<path class="st0" d="M114.8,101.7c-1.5,1.9-3.4,3.4-5.6,4.4c-2.3,1-4.6,1.6-7.1,1.6c-2.3,0-4.5-0.4-6.5-1.1s-3.8-1.8-5.3-3.2
		c-1.5-1.4-2.7-3-3.6-5c-0.9-1.9-1.3-4.1-1.3-6.5s0.4-4.6,1.3-6.5s2.1-3.6,3.6-5s3.3-2.5,5.3-3.2s4.2-1.1,6.5-1.1
		c2.1,0,4.1,0.4,5.9,1.1s3.2,1.8,4.5,3.2c1.2,1.4,2.2,3.1,2.8,5c0.7,1.9,1,4.1,1,6.5v2.9H94.6C95,96.6,95.8,98,97,99
		c1.2,1.1,2.8,1.6,4.6,1.6c1.5,0,2.8-0.3,3.9-1s2-1.6,2.8-2.6L114.8,101.7z M106.9,88.5c0-1.6-0.5-2.9-1.6-4s-2.5-1.7-4.2-1.7
		c-1,0-1.9,0.2-2.7,0.5c-0.8,0.3-1.5,0.8-2,1.3c-0.6,0.5-1,1.1-1.3,1.8c-0.3,0.7-0.5,1.4-0.5,2.1C94.6,88.5,106.9,88.5,106.9,88.5z"
		/>
	<path class="st0" d="M122.5,76.8h8.9v4.1h0.1c0.3-0.6,0.7-1.2,1.2-1.7c0.5-0.6,1.2-1.1,1.9-1.6s1.6-0.8,2.5-1.1
		c1-0.3,2-0.4,3.1-0.4c2.4,0,4.3,0.4,5.7,1.1s2.6,1.7,3.4,3c0.8,1.3,1.4,2.8,1.6,4.5c0.3,1.7,0.4,3.6,0.4,5.6V107H142V92.2
		c0-0.9,0-1.8-0.1-2.7c-0.1-0.9-0.2-1.8-0.6-2.6c-0.3-0.8-0.8-1.4-1.4-1.9c-0.6-0.5-1.6-0.7-2.8-0.7s-2.2,0.2-2.9,0.7
		c-0.7,0.4-1.3,1-1.7,1.7s-0.7,1.5-0.8,2.4s-0.2,1.9-0.2,2.9v15h-9.3V76.8H122.5z"/>
	<path class="st0" d="M158.3,60.1h9.3v20h0.1c1.1-1.4,2.4-2.5,4.1-3.1c1.7-0.6,3.5-0.9,5.4-0.9c2.1,0,4.1,0.4,5.8,1.3
		s3.1,2.1,4.3,3.6s2.1,3.2,2.7,5.1c0.6,1.9,1,3.9,1,6c0,2.3-0.4,4.4-1.1,6.3c-0.7,1.9-1.7,3.5-3,4.9s-2.9,2.5-4.7,3.2
		c-1.8,0.8-3.8,1.1-6.1,1.1c-1.1,0-2.1-0.1-3-0.4c-1-0.3-1.8-0.7-2.6-1.1c-0.8-0.5-1.5-1-2.1-1.5c-0.6-0.6-1.1-1.1-1.5-1.6h-0.1v4
		h-8.6V60.1H158.3z M166.9,91.9c0,2.3,0.7,4.1,2,5.5s3.1,2.1,5.5,2.1s4.2-0.7,5.5-2.1s2-3.2,2-5.5s-0.7-4.1-2-5.5s-3.1-2.1-5.5-2.1
		s-4.2,0.7-5.5,2.1C167.5,87.8,166.9,89.6,166.9,91.9z"/>
	<path class="st0" d="M224.5,101.7c-1.5,1.9-3.4,3.4-5.6,4.4c-2.3,1-4.6,1.6-7.1,1.6c-2.3,0-4.5-0.4-6.5-1.1s-3.8-1.8-5.3-3.2
		c-1.5-1.4-2.7-3-3.6-5c-0.9-1.9-1.3-4.1-1.3-6.5s0.4-4.6,1.3-6.5c0.9-1.9,2.1-3.6,3.6-5s3.3-2.5,5.3-3.2s4.2-1.1,6.5-1.1
		c2.1,0,4.1,0.4,5.9,1.1c1.8,0.7,3.2,1.8,4.5,3.2c1.2,1.4,2.2,3.1,2.8,5c0.7,1.9,1,4.1,1,6.5v2.9h-21.6c0.4,1.8,1.2,3.2,2.4,4.2
		c1.2,1.1,2.8,1.6,4.6,1.6c1.5,0,2.8-0.3,3.9-1c1.1-0.7,2-1.6,2.8-2.6L224.5,101.7z M216.6,88.5c0-1.6-0.5-2.9-1.6-4
		s-2.5-1.7-4.2-1.7c-1,0-1.9,0.2-2.7,0.5s-1.5,0.8-2,1.3c-0.6,0.5-1,1.1-1.3,1.8c-0.3,0.7-0.5,1.4-0.5,2.1
		C204.3,88.5,216.6,88.5,216.6,88.5z"/>
	<path class="st0" d="M232.1,76.8h9.3v4.8h0.1c1-1.9,2.2-3.3,3.5-4.2c1.4-0.9,3.1-1.4,5.1-1.4c0.5,0,1.1,0,1.6,0.1
		c0.5,0,1,0.1,1.5,0.2v8.5c-0.7-0.2-1.3-0.4-2-0.5c-0.6-0.1-1.3-0.2-2-0.2c-1.8,0-3.2,0.2-4.2,0.7s-1.8,1.2-2.4,2.1
		c-0.6,0.9-0.9,2-1.1,3.2c-0.2,1.2-0.2,2.6-0.2,4.1V107H232L232.1,76.8L232.1,76.8z"/>
	<path class="st0" d="M288.5,104.4c0,5.7-1.4,10-4.3,13s-7.2,4.4-13.1,4.4c-2.7,0-5.3-0.3-7.9-0.9s-5-1.8-7.2-3.5l5.1-7.7
		c1.4,1.2,3,2.1,4.6,2.9c1.6,0.7,3.3,1.1,5.2,1.1c2.9,0,5-0.7,6.3-2.1s2-3.2,2-5.3v-2.9h-0.1c-1.1,1.4-2.4,2.5-4,3.1
		s-3.1,0.9-4.5,0.9c-2.2,0-4.3-0.4-6.1-1.1c-1.8-0.8-3.4-1.8-4.7-3.2c-1.3-1.4-2.3-3-3-4.9s-1.1-4-1.1-6.3c0-2,0.3-3.9,1-5.8
		c0.6-1.9,1.6-3.6,2.7-5c1.2-1.4,2.6-2.6,4.3-3.5c1.7-0.9,3.6-1.3,5.8-1.3c1.3,0,2.5,0.1,3.6,0.4s2.1,0.7,2.9,1.1
		c0.9,0.5,1.6,1,2.2,1.5c0.6,0.6,1.1,1.1,1.5,1.6h0.1v-4h8.6v27.5H288.5z M265.1,91.7c0,1,0.2,1.9,0.6,2.8s0.9,1.7,1.6,2.4
		c0.7,0.7,1.5,1.2,2.4,1.6s1.9,0.6,2.9,0.6s2-0.2,2.9-0.6s1.7-1,2.4-1.6c0.7-0.7,1.2-1.5,1.6-2.4s0.6-1.8,0.6-2.8s-0.2-1.9-0.6-2.8
		s-0.9-1.7-1.6-2.4c-0.7-0.7-1.5-1.2-2.4-1.6s-1.9-0.6-2.9-0.6c-1.1,0-2.1,0.2-2.9,0.6c-0.9,0.4-1.7,1-2.4,1.6
		c-0.7,0.7-1.2,1.5-1.6,2.4C265.3,89.8,265.1,90.7,265.1,91.7z"/>
</g>
</svg>
